<?xml version="1.0" encoding="UTF-8" standalone="no"?>
<!DOCTYPE svg PUBLIC "-//W3C//DTD SVG 1.1//EN"
 "http://www.w3.org/Graphics/SVG/1.1/DTD/svg11.dtd">
<!-- Generated by graphviz version 2.40.1 (20161225.0304)
 -->
<!-- Title: %3 Pages: 1 -->
<svg width="640pt" height="444pt"
 viewBox="0.00 0.00 639.51 444.00" xmlns="http://www.w3.org/2000/svg" xmlns:xlink="http://www.w3.org/1999/xlink">
<g id="graph0" class="graph" transform="scale(1 1) rotate(0) translate(72 372)">
<title>%3</title>
<polygon fill="#ffffff" stroke="transparent" points="-72,72 -72,-372 567.5053,-372 567.5053,72 -72,72"/>
<g id="clust1" class="cluster">
<title>cluster6823</title>
<polygon fill="none" stroke="#000000" points="8,-8 8,-292 487.5053,-292 487.5053,-8 8,-8"/>
<text text-anchor="middle" x="247.7527" y="-276.8" font-family="Monospace" font-size="14.00" fill="#000000">CRM</text>
</g>
<!-- node6824 -->
<g id="node1" class="node">
<title>node6824</title>
<path fill="#99947f" stroke="#000000" d="M467.3304,-130C467.3304,-130 322.0308,-130 322.0308,-130 316.0308,-130 310.0308,-124 310.0308,-118 310.0308,-118 310.0308,-106 310.0308,-106 310.0308,-100 316.0308,-94 322.0308,-94 322.0308,-94 467.3304,-94 467.3304,-94 473.3304,-94 479.3304,-100 479.3304,-106 479.3304,-106 479.3304,-118 479.3304,-118 479.3304,-124 473.3304,-130 467.3304,-130"/>
<text text-anchor="middle" x="394.6806" y="-109" font-family="Monospace" font-size="10.00" fill="#000000">Funded Default Fund Contributions</text>
</g>
<!-- node6825 -->
<g id="node2" class="node">
<title>node6825</title>
<path fill="#99947f" stroke="#000000" d="M261.7839,-167.974C261.7839,-167.974 187.3467,-167.974 187.3467,-167.974 181.3467,-167.974 173.4952,-173.6811 171.6436,-179.3883 171.6436,-179.3883 148.6311,-250.3213 148.6311,-250.3213 146.7795,-256.0285 143.0764,-256.0285 141.2248,-250.3213 141.2248,-250.3213 118.2123,-179.3883 118.2123,-179.3883 116.3607,-173.6811 108.5092,-167.974 102.5092,-167.974 102.5092,-167.974 28.072,-167.974 28.072,-167.974 22.072,-167.974 20.9236,-164.4437 25.7751,-160.9135 25.7751,-160.9135 86.0063,-117.0865 86.0063,-117.0865 90.8578,-113.5563 93.8578,-104.3189 92.0062,-98.6117 92.0062,-98.6117 68.9937,-27.6787 68.9937,-27.6787 67.1422,-21.9715 70.1422,-19.7946 74.9937,-23.3248 74.9937,-23.3248 135.2248,-67.1518 135.2248,-67.1518 140.0764,-70.682 149.7795,-70.682 154.6311,-67.1518 154.6311,-67.1518 214.8622,-23.3248 214.8622,-23.3248 219.7137,-19.7946 222.7137,-21.9715 220.8622,-27.6787 220.8622,-27.6787 197.8496,-98.6117 197.8496,-98.6117 195.9981,-104.3189 198.9981,-113.5563 203.8496,-117.0865 203.8496,-117.0865 264.0808,-160.9135 264.0808,-160.9135 268.9323,-164.4437 267.7839,-167.974 261.7839,-167.974"/>
<text text-anchor="middle" x="144.9279" y="-136" font-family="Monospace" font-size="10.00" fill="#000000">Cash Management</text>
</g>
<!-- node6825&#45;&gt;node6824 -->
<g id="edge1" class="edge">
<title>node6825&#45;&gt;node6824</title>
<path fill="none" stroke="#000000" d="M196.9803,-112C196.9803,-112 299.7636,-112 299.7636,-112"/>
<polygon fill="#000000" stroke="#000000" points="299.7637,-115.5001 309.7636,-112 299.7636,-108.5001 299.7637,-115.5001"/>
</g>
<!-- node6826 -->
<g id="node3" class="node">
<title>node6826</title>
<path fill="#99947f" stroke="#000000" d="M410.3612,-184C410.3612,-184 379,-184 379,-184 373,-184 367,-178 367,-172 367,-172 367,-160 367,-160 367,-154 373,-148 379,-148 379,-148 410.3612,-148 410.3612,-148 416.3612,-148 422.3612,-154 422.3612,-160 422.3612,-160 422.3612,-172 422.3612,-172 422.3612,-178 416.3612,-184 410.3612,-184"/>
<text text-anchor="middle" x="394.6806" y="-163" font-family="Monospace" font-size="10.00" fill="#000000">Overdraft</text>
</g>
<!-- node6825&#45;&gt;node6826 -->
<g id="edge2" class="edge">
<title>node6825&#45;&gt;node6826</title>
<path fill="none" stroke="#000000" d="M271.2676,-166C271.2676,-166 356.9196,-166 356.9196,-166"/>
<polygon fill="#000000" stroke="#000000" points="356.9196,-169.5001 366.9196,-166 356.9195,-162.5001 356.9196,-169.5001"/>
</g>
</g>
</svg>
