<?xml version="1.0" encoding="UTF-8" standalone="no"?>
<!DOCTYPE svg PUBLIC "-//W3C//DTD SVG 1.1//EN"
 "http://www.w3.org/Graphics/SVG/1.1/DTD/svg11.dtd">
<!-- Generated by graphviz version 2.40.1 (20161225.0304)
 -->
<!-- Title: %3 Pages: 1 -->
<svg width="1151pt" height="855pt"
 viewBox="0.00 0.00 1151.00 855.00" xmlns="http://www.w3.org/2000/svg" xmlns:xlink="http://www.w3.org/1999/xlink">
<g id="graph0" class="graph" transform="scale(1 1) rotate(0) translate(72 783)">
<title>%3</title>
<polygon fill="#ffffff" stroke="transparent" points="-72,72 -72,-783 1079,-783 1079,72 -72,72"/>
<g id="clust1" class="cluster">
<title>cluster16399</title>
<polygon fill="#b0e2ff" stroke="#000000" points="8,-8 8,-703 793,-703 793,-8 8,-8"/>
<text text-anchor="middle" x="400.5" y="-687.8" font-family="Monospace" font-size="14.00" fill="#000000">animals</text>
</g>
<g id="clust2" class="cluster">
<title>cluster16418</title>
<path fill="#cdcdc1" stroke="#000000" d="M28,-150C28,-150 773,-150 773,-150 779,-150 785,-156 785,-162 785,-162 785,-661 785,-661 785,-667 779,-673 773,-673 773,-673 28,-673 28,-673 22,-673 16,-667 16,-661 16,-661 16,-162 16,-162 16,-156 22,-150 28,-150"/>
<text text-anchor="middle" x="400.5" y="-657.8" font-family="Monospace" font-size="14.00" fill="#ff34b3">carnivores</text>
</g>
<g id="clust3" class="cluster">
<title>cluster16419</title>
<path fill="#cdb79e" stroke="#000000" d="M43,-333C43,-333 758,-333 758,-333 764,-333 770,-339 770,-345 770,-345 770,-624 770,-624 770,-630 764,-636 758,-636 758,-636 43,-636 43,-636 37,-636 31,-630 31,-624 31,-624 31,-345 31,-345 31,-339 37,-333 43,-333"/>
<text text-anchor="middle" x="400.5" y="-620.8" font-family="Monospace" font-size="14.00" fill="#8b4513">bears</text>
</g>
<g id="clust4" class="cluster">
<title>cluster16420</title>
<path fill="#fff8dc" stroke="#000000" d="M175,-353C175,-353 743,-353 743,-353 749,-353 755,-359 755,-365 755,-365 755,-587 755,-587 755,-593 749,-599 743,-599 743,-599 175,-599 175,-599 169,-599 163,-593 163,-587 163,-587 163,-365 163,-365 163,-359 169,-353 175,-353"/>
<text text-anchor="middle" x="459" y="-583.8" font-family="Monospace" font-size="14.00" fill="#000000">pandas</text>
</g>
<g id="clust8" class="cluster">
<title>cluster16421</title>
<path fill="#98fb98" stroke="#32cd32" d="M58,-348C58,-348 128,-348 128,-348 134,-348 140,-354 140,-360 140,-360 140,-506 140,-506 140,-512 134,-518 128,-518 128,-518 58,-518 58,-518 52,-518 46,-512 46,-506 46,-506 46,-360 46,-360 46,-354 52,-348 58,-348"/>
<text text-anchor="middle" x="93" y="-502.8" font-family="Monospace" font-size="14.00" fill="#8b4513">brownbears</text>
</g>
<g id="clust9" class="cluster">
<title>cluster16422</title>
<path fill="#a3a3a3" stroke="#000000" d="M149,-165C149,-165 321,-165 321,-165 327,-165 333,-171 333,-177 333,-177 333,-313 333,-313 333,-319 327,-325 321,-325 321,-325 149,-325 149,-325 143,-325 137,-319 137,-313 137,-313 137,-177 137,-177 137,-171 143,-165 149,-165"/>
<text text-anchor="middle" x="235" y="-309.8" font-family="Monospace" font-size="14.00" fill="#ffffff">wolves</text>
</g>
<g id="clust10" class="cluster">
<title>cluster16423</title>
<polygon fill="#ee6363" stroke="#000000" points="241,-16 241,-142 359,-142 359,-16 241,-16"/>
<text text-anchor="middle" x="300" y="-126.8" font-family="Monospace" font-size="14.00" fill="#000000">rodents</text>
</g>
<g id="clust11" class="cluster">
<title>cluster16424</title>
<path fill="#ffc0cb" stroke="#000000" d="M261,-24C261,-24 339,-24 339,-24 345,-24 351,-30 351,-36 351,-36 351,-100 351,-100 351,-106 345,-112 339,-112 339,-112 261,-112 261,-112 255,-112 249,-106 249,-100 249,-100 249,-36 249,-36 249,-30 255,-24 261,-24"/>
<text text-anchor="middle" x="300" y="-96.8" font-family="Monospace" font-size="14.00" fill="#000000">squirrels</text>
</g>
<g id="clust12" class="cluster">
<title>cluster16425</title>
<path fill="#90ee90" stroke="#000000" d="M813,-15.3215C813,-15.3215 987,-15.3215 987,-15.3215 993,-15.3215 999,-21.3215 999,-27.3215 999,-27.3215 999,-610 999,-610 999,-616 993,-622 987,-622 987,-622 813,-622 813,-622 807,-622 801,-616 801,-610 801,-610 801,-27.3215 801,-27.3215 801,-21.3215 807,-15.3215 813,-15.3215"/>
<text text-anchor="middle" x="900" y="-606.8" font-family="Monospace" font-size="14.00" fill="#000000">plantae</text>
</g>
<g id="clust13" class="cluster">
<title>cluster16433</title>
<path fill="#98fb98" stroke="#000000" d="M821,-23.3215C821,-23.3215 979,-23.3215 979,-23.3215 985,-23.3215 991,-29.3215 991,-35.3215 991,-35.3215 991,-580 991,-580 991,-586 985,-592 979,-592 979,-592 821,-592 821,-592 815,-592 809,-586 809,-580 809,-580 809,-35.3215 809,-35.3215 809,-29.3215 815,-23.3215 821,-23.3215"/>
<text text-anchor="middle" x="900" y="-576.8" font-family="Monospace" font-size="14.00" fill="#2e8b57">flora</text>
</g>
<!-- node16400 -->
<g id="node1" class="node">
<title>node16400</title>
<ellipse fill="#61d2c4" stroke="#000000" cx="601" cy="-458" rx="27" ry="18"/>
<text text-anchor="middle" x="601" y="-455" font-family="Monospace" font-size="10.00" fill="#000000">delila</text>
</g>
<!-- node16401 -->
<g id="node2" class="node">
<title>node16401</title>
<ellipse fill="#acf5ab" stroke="#000000" cx="291" cy="-57" rx="27" ry="18"/>
<text text-anchor="middle" x="291" y="-54" font-family="Monospace" font-size="10.00" fill="#000000">huxley</text>
</g>
<!-- node16401&#45;&gt;node16401 -->
<!-- node16402 -->
<g id="node3" class="node">
<title>node16402</title>
<ellipse fill="#61d2c4" stroke="#000000" cx="317" cy="-544" rx="27" ry="18"/>
<text text-anchor="middle" x="317" y="-541" font-family="Monospace" font-size="10.00" fill="#000000">cristolene</text>
</g>
<!-- node16411 -->
<g id="node12" class="node">
<title>node16411</title>
<path fill="#0000ff" stroke="#000000" d="M220,-476C220,-476 190,-476 190,-476 184,-476 178,-470 178,-464 178,-464 178,-452 178,-452 178,-446 184,-440 190,-440 190,-440 220,-440 220,-440 226,-440 232,-446 232,-452 232,-452 232,-464 232,-464 232,-470 226,-476 220,-476"/>
<text text-anchor="middle" x="205" y="-455" font-family="Monospace" font-size="10.00" fill="#ffffff">sharhar</text>
</g>
<!-- node16402&#45;&gt;node16411 -->
<g id="edge2" class="edge">
<title>node16402&#45;&gt;node16411</title>
<path fill="none" stroke="#000000" d="M305,-527.8241C305,-502.912 305,-458 305,-458 305,-458 242.0614,-458 242.0614,-458"/>
<polygon fill="#000000" stroke="#000000" points="242.0615,-454.5001 232.0614,-458 242.0614,-461.5001 242.0615,-454.5001"/>
</g>
<!-- node16403 -->
<g id="node4" class="node">
<title>node16403</title>
<path fill="#8b7500" stroke="#000000" d="M704.5147,-553.5147C704.5147,-553.5147 694.4853,-543.4853 694.4853,-543.4853 690.2426,-539.2426 692,-535 698,-535 698,-535 728,-535 728,-535 734,-535 735.7574,-539.2426 731.5147,-543.4853 731.5147,-543.4853 721.4853,-553.5147 721.4853,-553.5147 717.2426,-557.7574 708.7574,-557.7574 704.5147,-553.5147"/>
<text text-anchor="middle" x="713" y="-541" font-family="Monospace" font-size="10.00" fill="#000000">nikkai</text>
</g>
<!-- node16412 -->
<g id="node13" class="node">
<title>node16412</title>
<ellipse fill="#61d2c4" stroke="#000000" cx="713" cy="-458" rx="27" ry="18"/>
<text text-anchor="middle" x="713" y="-455" font-family="Monospace" font-size="10.00" fill="#000000">isobel</text>
</g>
<!-- node16403&#45;&gt;node16412 -->
<g id="edge4" class="edge">
<title>node16403&#45;&gt;node16412</title>
<path fill="none" stroke="#000000" d="M713,-534.7965C713,-534.7965 713,-486.1136 713,-486.1136"/>
<polygon fill="#000000" stroke="#000000" points="716.5001,-486.1136 713,-476.1136 709.5001,-486.1137 716.5001,-486.1136"/>
</g>
<!-- node16404 -->
<g id="node5" class="node">
<title>node16404</title>
<ellipse fill="#768572" stroke="#000000" cx="93" cy="-386" rx="27" ry="18"/>
<text text-anchor="middle" x="93" y="-383" font-family="Monospace" font-size="10.00" fill="#000000">eliza</text>
</g>
<!-- node16404&#45;&gt;node16401 -->
<!-- node16405 -->
<g id="node6" class="node">
<title>node16405</title>
<ellipse fill="#61d2c4" stroke="#000000" cx="571" cy="-544" rx="27" ry="18"/>
<text text-anchor="middle" x="571" y="-541" font-family="Monospace" font-size="10.00" fill="#000000">malakai</text>
</g>
<!-- node16405&#45;&gt;node16400 -->
<g id="edge6" class="edge">
<title>node16405&#45;&gt;node16400</title>
<path fill="none" stroke="#000000" d="M586,-529.0199C586,-529.0199 586,-483.0969 586,-483.0969"/>
<polygon fill="#000000" stroke="#000000" points="589.5001,-483.0969 586,-473.0969 582.5001,-483.097 589.5001,-483.0969"/>
</g>
<!-- node16417 -->
<g id="node18" class="node">
<title>node16417</title>
<ellipse fill="#61d2c4" stroke="#000000" cx="489" cy="-458" rx="27" ry="18"/>
<text text-anchor="middle" x="489" y="-455" font-family="Monospace" font-size="10.00" fill="#000000">ivy</text>
</g>
<!-- node16405&#45;&gt;node16417 -->
<g id="edge7" class="edge">
<title>node16405&#45;&gt;node16417</title>
<path fill="none" stroke="#000000" d="M559,-527.8241C559,-502.912 559,-458 559,-458 559,-458 526.2643,-458 526.2643,-458"/>
<polygon fill="#000000" stroke="#000000" points="526.2643,-454.5001 516.2643,-458 526.2642,-461.5001 526.2643,-454.5001"/>
</g>
<!-- node16406 -->
<g id="node7" class="node">
<title>node16406</title>
<ellipse fill="#61d2c4" stroke="#000000" cx="377" cy="-458" rx="27" ry="18"/>
<text text-anchor="middle" x="377" y="-455" font-family="Monospace" font-size="10.00" fill="#000000">max</text>
</g>
<!-- node16407 -->
<g id="node8" class="node">
<title>node16407</title>
<ellipse fill="#9400d3" stroke="#000000" cx="377" cy="-386" rx="27" ry="18"/>
<text text-anchor="middle" x="377" y="-383" font-family="Monospace" font-size="10.00" fill="#fffaf0">Bridget</text>
</g>
<!-- node16406&#45;&gt;node16407 -->
<g id="edge8" class="edge">
<title>node16406&#45;&gt;node16407</title>
<path fill="none" stroke="#0000ff" d="M377,-439.8314C377,-439.8314 377,-414.4133 377,-414.4133"/>
<polygon fill="#0000ff" stroke="#0000ff" points="380.5001,-414.4132 377,-404.4133 373.5001,-414.4133 380.5001,-414.4132"/>
</g>
<!-- node16407&#45;&gt;node16401 -->
<!-- node16408 -->
<g id="node9" class="node">
<title>node16408</title>
<ellipse fill="#61d2c4" stroke="#000000" cx="429" cy="-544" rx="27" ry="18"/>
<text text-anchor="middle" x="429" y="-541" font-family="Monospace" font-size="10.00" fill="#000000">simone</text>
</g>
<!-- node16408&#45;&gt;node16406 -->
<g id="edge10" class="edge">
<title>node16408&#45;&gt;node16406</title>
<path fill="none" stroke="#000000" d="M430,-525.8468C430,-502.2434 430,-464 430,-464 430,-464 412.5685,-464 412.5685,-464"/>
<polygon fill="#000000" stroke="#000000" points="412.5686,-460.5001 402.5685,-464 412.5685,-467.5001 412.5686,-460.5001"/>
</g>
<!-- node16416 -->
<g id="node17" class="node">
<title>node16416</title>
<ellipse fill="#61d2c4" stroke="#000000" cx="265" cy="-386" rx="27" ry="18"/>
<text text-anchor="middle" x="265" y="-383" font-family="Monospace" font-size="10.00" fill="#000000">summer</text>
</g>
<!-- node16408&#45;&gt;node16416 -->
<g id="edge11" class="edge">
<title>node16408&#45;&gt;node16416</title>
<path fill="none" stroke="#00ee00" d="M417,-527.4981C417,-515.3718 417,-501 417,-501 417,-501 264,-501 264,-501 264,-501 264,-414.2221 264,-414.2221"/>
<polygon fill="#00ee00" stroke="#00ee00" points="267.5001,-414.2221 264,-404.2221 260.5001,-414.2221 267.5001,-414.2221"/>
</g>
<!-- node16408&#45;&gt;node16417 -->
<g id="edge12" class="edge">
<title>node16408&#45;&gt;node16417</title>
<path fill="none" stroke="#00ee00" d="M443,-528.3935C443,-502.1454 443,-452 443,-452 443,-452 453.3102,-452 453.3102,-452"/>
<polygon fill="#00ee00" stroke="#00ee00" points="453.3102,-455.5001 463.3102,-452 453.3101,-448.5001 453.3102,-455.5001"/>
</g>
<!-- node16409 -->
<g id="node10" class="node">
<title>node16409</title>
<polygon fill="#768572" stroke="#000000" points="120,-453.9946 114.6523,-469.2228 93,-476 71.3477,-469.2228 66,-453.9946 80.9839,-441.7826 105.0161,-441.7826 120,-453.9946"/>
<text text-anchor="middle" x="93" y="-455" font-family="Monospace" font-size="10.00" fill="#000000">cosmo</text>
</g>
<!-- node16409&#45;&gt;node16404 -->
<g id="edge13" class="edge">
<title>node16409&#45;&gt;node16404</title>
<path fill="none" stroke="#ff1493" d="M93,-441.6621C93,-441.6621 93,-414.0423 93,-414.0423"/>
<polygon fill="#ff1493" stroke="#ff1493" points="96.5001,-414.0423 93,-404.0423 89.5001,-414.0424 96.5001,-414.0423"/>
</g>
<!-- node16410 -->
<g id="node11" class="node">
<title>node16410</title>
<ellipse fill="#68db75" stroke="#000000" cx="291" cy="-198" rx="27" ry="18"/>
<text text-anchor="middle" x="291" y="-195" font-family="Monospace" font-size="10.00" fill="#000000">angelique</text>
</g>
<!-- node16410&#45;&gt;node16401 -->
<!-- node16411&#45;&gt;node16416 -->
<g id="edge15" class="edge">
<title>node16411&#45;&gt;node16416</title>
<path fill="none" stroke="#000000" d="M219,-439.8314C219,-418.502 219,-386 219,-386 219,-386 227.9755,-386 227.9755,-386"/>
<polygon fill="#000000" stroke="#000000" points="227.9756,-389.5001 237.9755,-386 227.9755,-382.5001 227.9756,-389.5001"/>
</g>
<!-- node16413 -->
<g id="node14" class="node">
<title>node16413</title>
<ellipse fill="#68db75" stroke="#000000" cx="179" cy="-198" rx="27" ry="18"/>
<text text-anchor="middle" x="179" y="-195" font-family="Monospace" font-size="10.00" fill="#000000">sebastian</text>
</g>
<!-- node16413&#45;&gt;node16401 -->
<!-- node16414 -->
<g id="node15" class="node">
<title>node16414</title>
<ellipse fill="#61d2c4" stroke="#000000" cx="205" cy="-544" rx="27" ry="18"/>
<text text-anchor="middle" x="205" y="-541" font-family="Monospace" font-size="10.00" fill="#000000">kacey</text>
</g>
<!-- node16414&#45;&gt;node16409 -->
<g id="edge20" class="edge">
<title>node16414&#45;&gt;node16409</title>
<path fill="none" stroke="#ff1493" d="M177.8879,-544C144.7412,-544 93,-544 93,-544 93,-544 93,-486.2384 93,-486.2384"/>
<polygon fill="#ff1493" stroke="#ff1493" points="96.5001,-486.2384 93,-476.2384 89.5001,-486.2384 96.5001,-486.2384"/>
</g>
<!-- node16414&#45;&gt;node16411 -->
<g id="edge21" class="edge">
<title>node16414&#45;&gt;node16411</title>
<path fill="none" stroke="#000000" d="M205,-525.7616C205,-525.7616 205,-486.2121 205,-486.2121"/>
<polygon fill="#000000" stroke="#000000" points="208.5001,-486.2121 205,-476.2121 201.5001,-486.2121 208.5001,-486.2121"/>
</g>
<!-- node16415 -->
<g id="node16" class="node">
<title>node16415</title>
<ellipse fill="#68db75" stroke="#000000" cx="265" cy="-270" rx="27" ry="18"/>
<text text-anchor="middle" x="265" y="-267" font-family="Monospace" font-size="10.00" fill="#000000">leo</text>
</g>
<!-- node16415&#45;&gt;node16410 -->
<g id="edge23" class="edge">
<title>node16415&#45;&gt;node16410</title>
<path fill="none" stroke="#000000" d="M278,-254.0209C278,-254.0209 278,-223.9345 278,-223.9345"/>
<polygon fill="#000000" stroke="#000000" points="281.5001,-223.9344 278,-213.9345 274.5001,-223.9345 281.5001,-223.9344"/>
</g>
<!-- node16415&#45;&gt;node16413 -->
<g id="edge24" class="edge">
<title>node16415&#45;&gt;node16413</title>
<path fill="none" stroke="#000000" d="M246.6667,-256.4574C246.6667,-235.6007 246.6667,-198 246.6667,-198 246.6667,-198 216.1327,-198 216.1327,-198"/>
<polygon fill="#000000" stroke="#000000" points="216.1328,-194.5001 206.1327,-198 216.1327,-201.5001 216.1328,-194.5001"/>
</g>
<!-- node16416&#45;&gt;node16401 -->
<!-- node16416&#45;&gt;node16415 -->
<g id="edge27" class="edge">
<title>node16416&#45;&gt;node16415</title>
<path fill="none" stroke="#000000" d="M265,-367.875C265,-367.875 265,-298.3805 265,-298.3805"/>
<polygon fill="#000000" stroke="#000000" points="268.5001,-298.3805 265,-288.3805 261.5001,-298.3806 268.5001,-298.3805"/>
</g>
<!-- node16417&#45;&gt;node16401 -->
<g id="edge28" class="edge">
<title>node16417&#45;&gt;node16401</title>
<path fill="none" stroke="#ff0000" d="M489,-439.8538C489,-360.5064 489,-48 489,-48 489,-48 324.4907,-48 324.4907,-48"/>
<polygon fill="#ff0000" stroke="#ff0000" points="324.4908,-44.5001 314.4907,-48 324.4907,-51.5001 324.4908,-44.5001"/>
</g>
<!-- node16426 -->
<g id="node19" class="node">
<title>node16426</title>
<path fill="#ffd700" stroke="#000000" d="M976.1246,-63.1043C976.1246,-63.1043 969.2492,-63.1043 969.2492,-63.1043 965.8115,-63.1043 961.3182,-66.3759 960.2626,-69.6475 960.2626,-69.6475 958.1112,-76.3151 958.1112,-76.3151 957.0556,-79.5867 954.9444,-79.5867 953.8888,-76.3151 953.8888,-76.3151 951.7374,-69.6475 951.7374,-69.6475 950.6818,-66.3759 946.1885,-63.1043 942.7508,-63.1043 942.7508,-63.1043 935.8754,-63.1043 935.8754,-63.1043 932.4377,-63.1043 931.7744,-61.0745 934.5489,-59.0446 934.5489,-59.0446 940.1381,-54.9554 940.1381,-54.9554 942.9125,-52.9255 944.6313,-47.6241 943.5757,-44.3525 943.5757,-44.3525 941.4243,-37.6849 941.4243,-37.6849 940.3687,-34.4133 942.0875,-33.1715 944.8619,-35.2014 944.8619,-35.2014 950.4511,-39.2906 950.4511,-39.2906 953.2256,-41.3205 958.7744,-41.3205 961.5489,-39.2906 961.5489,-39.2906 967.1381,-35.2014 967.1381,-35.2014 969.9125,-33.1715 971.6313,-34.4133 970.5757,-37.6849 970.5757,-37.6849 968.4243,-44.3525 968.4243,-44.3525 967.3687,-47.6241 969.0875,-52.9255 971.8619,-54.9554 971.8619,-54.9554 977.4511,-59.0446 977.4511,-59.0446 980.2256,-61.0745 979.5623,-63.1043 976.1246,-63.1043"/>
<text text-anchor="middle" x="956" y="-54" font-family="Monospace" font-size="10.00" fill="#000000">aster</text>
</g>
<!-- node16427 -->
<g id="node20" class="node">
<title>node16427</title>
<path fill="#ffd700" stroke="#000000" d="M915,-288C915,-288 885,-288 885,-288 879,-288 873,-282 873,-276 873,-276 873,-264 873,-264 873,-258 879,-252 885,-252 885,-252 915,-252 915,-252 921,-252 927,-258 927,-264 927,-264 927,-276 927,-276 927,-282 921,-288 915,-288"/>
<text text-anchor="middle" x="900" y="-267" font-family="Monospace" font-size="10.00" fill="#000000">jasmine</text>
</g>
<!-- node16428 -->
<g id="node21" class="node">
<title>node16428</title>
<path fill="#ffd700" stroke="#000000" d="M915,-216C915,-216 885,-216 885,-216 879,-216 873,-210 873,-204 873,-204 873,-192 873,-192 873,-186 879,-180 885,-180 885,-180 915,-180 915,-180 921,-180 927,-186 927,-192 927,-192 927,-204 927,-204 927,-210 921,-216 915,-216"/>
<text text-anchor="middle" x="900" y="-195" font-family="Monospace" font-size="10.00" fill="#000000">fleur</text>
</g>
<!-- node16427&#45;&gt;node16428 -->
<!-- node16428&#45;&gt;node16426 -->
<g id="edge16" class="edge">
<title>node16428&#45;&gt;node16426</title>
<path fill="none" stroke="#000000" stroke-dasharray="1,5" d="M909,-179.8211C909,-146.7212 909,-80 909,-80 909,-80 944.8382,-80 944.8382,-80"/>
<polygon fill="#c0c0c0" stroke="#000000" points="944.8382,-83.5001 954.8382,-80 944.8382,-76.5001 944.8382,-83.5001"/>
</g>
<!-- node16429 -->
<g id="node22" class="node">
<title>node16429</title>
<path fill="#ffd700" stroke="#000000" d="M859,-75C859,-75 829,-75 829,-75 823,-75 817,-69 817,-63 817,-63 817,-51 817,-51 817,-45 823,-39 829,-39 829,-39 859,-39 859,-39 865,-39 871,-45 871,-51 871,-51 871,-63 871,-63 871,-69 865,-75 859,-75"/>
<text text-anchor="middle" x="844" y="-54" font-family="Monospace" font-size="10.00" fill="#000000">alyssa</text>
</g>
<!-- node16428&#45;&gt;node16429 -->
<g id="edge17" class="edge">
<title>node16428&#45;&gt;node16429</title>
<path fill="none" stroke="#eeb422" stroke-dasharray="5,2" d="M891,-179.8554C891,-141.7735 891,-57 891,-57 891,-57 881.0678,-57 881.0678,-57"/>
<polygon fill="#eee8aa" stroke="#eeb422" points="881.0678,-53.5001 871.0678,-57 881.0677,-60.5001 881.0678,-53.5001"/>
</g>
<!-- node16430 -->
<g id="node23" class="node">
<title>node16430</title>
<path fill="#ffd700" stroke="#000000" d="M915,-476C915,-476 885,-476 885,-476 879,-476 873,-470 873,-464 873,-464 873,-452 873,-452 873,-446 879,-440 885,-440 885,-440 915,-440 915,-440 921,-440 927,-446 927,-452 927,-452 927,-464 927,-464 927,-470 921,-476 915,-476"/>
<text text-anchor="middle" x="900" y="-455" font-family="Monospace" font-size="10.00" fill="#000000">rose</text>
</g>
<!-- node16431 -->
<g id="node24" class="node">
<title>node16431</title>
<path fill="#ffd700" stroke="#000000" d="M915,-404C915,-404 885,-404 885,-404 879,-404 873,-398 873,-392 873,-392 873,-380 873,-380 873,-374 879,-368 885,-368 885,-368 915,-368 915,-368 921,-368 927,-374 927,-380 927,-380 927,-392 927,-392 927,-398 921,-404 915,-404"/>
<text text-anchor="middle" x="900" y="-383" font-family="Monospace" font-size="10.00" fill="#000000">lily</text>
</g>
<!-- node16430&#45;&gt;node16431 -->
<!-- node16431&#45;&gt;node16427 -->
<g id="edge22" class="edge">
<title>node16431&#45;&gt;node16427</title>
<path fill="none" stroke="#000000" d="M900,-367.875C900,-367.875 900,-311.7805 900,-311.7805"/>
<polygon fill="#000000" stroke="#000000" points="904.55,-288.3805 900.0001,-301.3805 895.45,-288.3806 904.55,-288.3805"/>
<ellipse fill="none" stroke="#000000" cx="900.0001" cy="-306.5805" rx="5.2" ry="5.2"/>
</g>
<!-- node16432 -->
<g id="node25" class="node">
<title>node16432</title>
<path fill="#ffd700" stroke="#000000" d="M915,-562C915,-562 885,-562 885,-562 879,-562 873,-556 873,-550 873,-550 873,-538 873,-538 873,-532 879,-526 885,-526 885,-526 915,-526 915,-526 921,-526 927,-532 927,-538 927,-538 927,-550 927,-550 927,-556 921,-562 915,-562"/>
<text text-anchor="middle" x="900" y="-541" font-family="Monospace" font-size="10.00" fill="#000000">daisy</text>
</g>
<!-- node16432&#45;&gt;node16430 -->
<g id="edge25" class="edge">
<title>node16432&#45;&gt;node16430</title>
<path fill="none" stroke="#000000" d="M900,-525.7616C900,-525.7616 900,-486.2121 900,-486.2121"/>
<polygon fill="none" stroke="#000000" points="896,-476.2121 904,-476.2121 904.0001,-484.2121 896.0001,-484.2121 896,-476.2121"/>
<polyline fill="none" stroke="#000000" points="900.0001,-484.2121 900.0001,-486.2121 "/>
</g>
</g>
</svg>
