<?xml version="1.0" encoding="UTF-8"?><svg xmlns="http://www.w3.org/2000/svg" xmlns:xlink="http://www.w3.org/1999/xlink" width="115pt" height="163pt" viewBox="0.00 0.00 114.80 162.80">
<g id="graph0" class="graph" transform="scale(1 1) rotate(0) translate(14.4 148.4)">
<title>%3</title>
<polygon fill="#ffffff" stroke="transparent" points="-14.4,14.4 -14.4,-148.4 100.4,-148.4 100.4,14.4 -14.4,14.4"/>
<g id="clust1" class="cluster">
<title>cluster12536</title>
<polygon fill="none" stroke="#000000" points="8,-8 8,-126 78,-126 78,-8 8,-8"/>
<text text-anchor="middle" x="43" y="-110.8" font-family="sans-serif" font-size="14.00" fill="#000000">pandas</text>
</g>

<g id="node1" class="node">
<title>node12534</title>
<g id="a_node1"><a xlink:title="name: max" target="_blank">
<polygon fill="#61d2c4" stroke="#000000" points="70,-52 16,-52 16,-16 70,-16 70,-52"/>
<text text-anchor="middle" x="43" y="-31" font-family="sans-serif" font-size="10.00" fill="#000000">max</text>
</a>
</g>
</g>

<g id="node2" class="node">
<title>node12535</title>
<g id="a_node2"><a xlink:title="name: simone" target="_blank">
<polygon fill="#61d2c4" stroke="#000000" points="70,-96 16,-96 16,-60 70,-60 70,-96"/>
<text text-anchor="middle" x="43" y="-75" font-family="sans-serif" font-size="10.00" fill="#000000">simone</text>
</a>
</g>
</g>

<g id="edge1" class="edge">
<title>node12535-&gt;node12534</title>
<path fill="none" stroke="#000000" d="M43,-59.8495C43,-59.8495 43,-59.0754 43,-59.0754"/>
<polygon fill="#000000" stroke="#000000" points="46.5001,-62.1088 43,-52.1088 39.5001,-62.1089 46.5001,-62.1088"/>
</g>
</g>
</svg>