<?xml version="1.0" encoding="UTF-8"?><svg xmlns="http://www.w3.org/2000/svg" xmlns:xlink="http://www.w3.org/1999/xlink" width="641pt" height="919pt" viewBox="0.00 0.00 640.80 918.80">
<g id="graph0" class="graph" transform="scale(1 1) rotate(0) translate(14.4 904.4)">
<title>%3</title>
<polygon fill="#ffffff" stroke="transparent" points="-14.4,14.4 -14.4,-904.4 626.4,-904.4 626.4,14.4 -14.4,14.4"/>
<g id="clust1" class="cluster">
<title>cluster16237</title>
<polygon fill="#f0f2da" stroke="#49c1e5" points="8,-882 8,-8 604,-8 604,-882 8,-882"/>
<text text-anchor="end" x="594" y="-864" font-family="sans-serif" font-size="14.00" fill="#000000">Current State</text>
</g>
<g id="clust2" class="cluster">
<title>cluster16238</title>
<polygon fill="#f0f2da" stroke="#49c1e5" points="8,-167 8,-89 604,-89 604,-167 8,-167"/>
<text text-anchor="end" x="594" y="-149" font-family="sans-serif" font-size="14.00" fill="#000000">Payments</text>
</g>
<g id="clust3" class="cluster">
<title>cluster16239</title>
<polygon fill="#f0f2da" stroke="#49c1e5" points="8,-546 8,-395 604,-395 604,-546 8,-546"/>
<text text-anchor="end" x="594" y="-528" font-family="sans-serif" font-size="14.00" fill="#000000">Risk</text>
</g>
<g id="clust4" class="cluster">
<title>cluster16240</title>
<polygon fill="#f0f2da" stroke="#49c1e5" points="8,-712 8,-631 604,-631 604,-712 8,-712"/>
<text text-anchor="end" x="594" y="-694" font-family="sans-serif" font-size="14.00" fill="#000000">Capture</text>
</g>
<g id="clust7" class="cluster">
<title>cluster16241</title>
<polygon fill="#f0f2da" stroke="#49c1e5" points="8,-854 8,-712 604,-712 604,-854 8,-854"/>
<text text-anchor="end" x="594" y="-836" font-family="sans-serif" font-size="14.00" fill="#000000">Golden Sources</text>
</g>
<g id="clust10" class="cluster">
<title>cluster16242</title>
<polygon fill="#f0f2da" stroke="#49c1e5" points="8,-631 8,-546 604,-546 604,-631 8,-631"/>
<text text-anchor="end" x="594" y="-613" font-family="sans-serif" font-size="14.00" fill="#000000">Lifecycle</text>
</g>
<g id="clust11" class="cluster">
<title>cluster16243</title>
<polygon fill="#f0f2da" stroke="#49c1e5" points="8,-314 8,-167 604,-167 604,-314 8,-314"/>
<text text-anchor="end" x="594" y="-296" font-family="sans-serif" font-size="14.00" fill="#000000">Settlement</text>
</g>
<g id="clust14" class="cluster">
<title>cluster16244</title>
<polygon fill="#f0f2da" stroke="#49c1e5" points="8,-395 8,-314 604,-314 604,-395 8,-395"/>
<text text-anchor="end" x="594" y="-377" font-family="sans-serif" font-size="14.00" fill="#000000">Reporting</text>
</g>
<g id="clust15" class="cluster">
<title>cluster16245</title>
<polygon fill="#f0f2da" stroke="#49c1e5" points="8,-89 8,-8 603,-8 603,-89 8,-89"/>
<text text-anchor="end" x="593" y="-71" font-family="sans-serif" font-size="14.00" fill="#000000">Finance</text>
</g>

<g id="node1" class="node">
<title>node16209</title>
<g id="a_node1"><a xlink:title="application: War
id: PTN-" target="_blank">
<polygon fill="#c6ddf2" stroke="#000000" points="185,-676 131,-676 131,-640 185,-640 185,-676"/>
<text text-anchor="middle" x="158" y="-655" font-family="sans-serif" font-size="10.00" fill="#000000">War</text>
</a>
</g>
</g>

<g id="node4" class="node">
<title>node16212</title>
<g id="a_node4"><a xlink:title="application: CONFIRMATIONS
Writer
Doc
id: PTN-" target="_blank">
<polygon fill="#e8eef7" stroke="#000000" points="357.6495,-598 260.3505,-598 260.3505,-554 357.6495,-554 357.6495,-598"/>
<text text-anchor="middle" x="309" y="-583" font-family="sans-serif" font-size="10.00" fill="#000000">CONFIRMATIONS</text>
<text text-anchor="middle" x="309" y="-573" font-family="sans-serif" font-size="10.00" fill="#000000">Writer</text>
<text text-anchor="middle" x="309" y="-563" font-family="sans-serif" font-size="10.00" fill="#000000">Doc</text>
</a>
</g>
</g>


<g id="node12" class="node">
<title>node16220</title>
<g id="a_node12"><a xlink:title="application: Fidelity Plus
id: PTN-" target="_blank">
<polygon fill="#e8eef7" stroke="#000000" points="454.9063,-594 387.0937,-594 387.0937,-558 454.9063,-558 454.9063,-594"/>
<text text-anchor="middle" x="421" y="-573" font-family="sans-serif" font-size="10.00" fill="#000000">Fidelity Plus</text>
</a>
</g>
</g>


<g id="node14" class="node">
<title>node16222</title>
<g id="a_node14"><a xlink:title="application: ADH
id: PTN-" target="_blank">
<polygon fill="#e8eef7" stroke="#000000" points="237,-284 183,-284 183,-248 237,-248 237,-284"/>
<text text-anchor="middle" x="210" y="-263" font-family="sans-serif" font-size="10.00" fill="#000000">ADH</text>
</a>
</g>
</g>

<g id="edge3" class="edge">
<title>node16209-&gt;node16222</title>
<path fill="none" stroke="#a6a8e0" d="M141,-639.8792C141,-562.7847 141,-266 141,-266 141,-266 172.7294,-266 172.7294,-266"/>
<polygon fill="#a6a8e0" stroke="#a6a8e0" points="172.7294,-269.5001 182.7294,-266 172.7293,-262.5001 172.7294,-269.5001"/>
<text text-anchor="middle" x="127.1035" y="-439.0749" font-family="sans-serif" font-size="10.00" fill="#000000">trades</text>
</g>

<g id="node20" class="node">
<title>node16228</title>
<g id="a_node20"><a xlink:title="application: BAD Image
id: PTN-" target="_blank">
<polygon fill="#e8eef7" stroke="#000000" points="231.6329,-594 166.3671,-594 166.3671,-558 231.6329,-558 231.6329,-594"/>
<text text-anchor="middle" x="199" y="-573" font-family="sans-serif" font-size="10.00" fill="#000000">BAD Image</text>
</a>
</g>
</g>

<g id="edge4" class="edge">
<title>node16209-&gt;node16228</title>
<path fill="none" stroke="#a6a8e0" d="M180.3584,-639.8015C180.3584,-639.8015 180.3584,-604.1476 180.3584,-604.1476"/>
<polygon fill="#a6a8e0" stroke="#a6a8e0" points="183.8585,-604.1476 180.3584,-594.1476 176.8585,-604.1476 183.8585,-604.1476"/>
<text text-anchor="middle" x="166.4619" y="-623.9746" font-family="sans-serif" font-size="10.00" fill="#000000">trades</text>
</g>

<g id="node22" class="node">
<title>node16230</title>
<g id="a_node22"><a xlink:title="application: noShock
id: PTN-" target="_blank">
<polygon fill="#e8eef7" stroke="#000000" points="223,-362 169,-362 169,-326 223,-326 223,-362"/>
<text text-anchor="middle" x="196" y="-341" font-family="sans-serif" font-size="10.00" fill="#000000">noShock</text>
</a>
</g>
</g>

<g id="edge5" class="edge">
<title>node16209-&gt;node16230</title>
<path fill="none" stroke="#a6a8e0" d="M146,-639.7608C146,-572.7455 146,-344 146,-344 146,-344 158.9513,-344 158.9513,-344"/>
<polygon fill="#a6a8e0" stroke="#a6a8e0" points="158.9513,-347.5001 168.9513,-344 158.9512,-340.5001 158.9513,-347.5001"/>
<text text-anchor="middle" x="132.1035" y="-487.4048" font-family="sans-serif" font-size="10.00" fill="#000000">trades</text>
</g>

<g id="node2" class="node">
<title>node16210</title>
<g id="a_node2"><a xlink:title="application: GRIMACE
id: PTN-" target="_blank">
<polygon fill="#e8eef7" stroke="#000000" points="288.1708,-440 227.8292,-440 227.8292,-404 288.1708,-404 288.1708,-440"/>
<text text-anchor="middle" x="258" y="-419" font-family="sans-serif" font-size="10.00" fill="#000000">GRIMACE</text>
</a>
</g>
</g>

<g id="node10" class="node">
<title>node16218</title>
<g id="a_node10"><a xlink:title="application: 1-Charge
id: PTN-" target="_blank">
<polygon fill="#e8eef7" stroke="#000000" points="307.6903,-362 252.3097,-362 252.3097,-326 307.6903,-326 307.6903,-362"/>
<text text-anchor="middle" x="280" y="-341" font-family="sans-serif" font-size="10.00" fill="#000000">1-Charge</text>
</a>
</g>
</g>


<g id="node13" class="node">
<title>node16221</title>
<g id="a_node13"><a xlink:title="application: hePikes
id: PTN-" target="_blank">
<polygon fill="#e8eef7" stroke="#000000" points="320,-284 266,-284 266,-248 320,-248 320,-284"/>
<text text-anchor="middle" x="293" y="-263" font-family="sans-serif" font-size="10.00" fill="#000000">hePikes</text>
</a>
</g>
</g>

<g id="edge7" class="edge">
<title>node16210-&gt;node16221</title>
<path fill="none" stroke="#296640" d="M241.2,-403.9065C241.2,-364.0111 241.2,-272 241.2,-272 241.2,-272 255.8863,-272 255.8863,-272"/>
<polygon fill="#296640" stroke="#296640" points="255.8864,-275.5001 265.8863,-272 255.8863,-268.5001 255.8864,-275.5001"/>
<text text-anchor="middle" x="241.2" y="-322.6101" font-family="sans-serif" font-size="10.00" fill="#000000">cash</text>
</g>

<g id="node15" class="node">
<title>node16223</title>
<g id="a_node15"><a xlink:title="application: SIP-local
id: PTN-" target="_blank">
<polygon fill="#e8eef7" stroke="#000000" points="132.0147,-56 77.9853,-56 77.9853,-20 132.0147,-20 132.0147,-56"/>
<text text-anchor="middle" x="105" y="-35" font-family="sans-serif" font-size="10.00" fill="#000000">SIP-local</text>
</a>
</g>
</g>

<g id="edge8" class="edge">
<title>node16210-&gt;node16223</title>
<path fill="none" stroke="#296640" d="M227.6441,-422C179.8646,-422 92.4963,-422 92.4963,-422 92.4963,-422 92.4963,-66.0061 92.4963,-66.0061"/>
<polygon fill="#296640" stroke="#296640" points="95.9964,-66.006 92.4963,-56.0061 88.9964,-66.0061 95.9964,-66.006"/>
<text text-anchor="middle" x="79.1638" y="-313.5769" font-family="sans-serif" font-size="10.00" fill="#000000">pl-risk</text>
</g>


<g id="node3" class="node">
<title>node16211</title>
<g id="a_node3"><a xlink:title="application: Guerilla Risk
id: PTN-" target="_blank">
<polygon fill="#e8eef7" stroke="#000000" points="298.1804,-512 227.8196,-512 227.8196,-476 298.1804,-476 298.1804,-512"/>
<text text-anchor="middle" x="263" y="-491" font-family="sans-serif" font-size="10.00" fill="#000000">Guerilla Risk</text>
</a>
</g>
</g>

<g id="edge10" class="edge">
<title>node16211-&gt;node16210</title>
<path fill="none" stroke="#267a17" d="M258,-475.8314C258,-475.8314 258,-450.4133 258,-450.4133"/>
<polygon fill="#267a17" stroke="#267a17" points="261.5001,-450.4132 258,-440.4133 254.5001,-450.4133 261.5001,-450.4132"/>
<text text-anchor="middle" x="244.6675" y="-465.1223" font-family="sans-serif" font-size="10.00" fill="#000000">pl-risk</text>
</g>


<g id="node11" class="node">
<title>node16219</title>
<g id="a_node11"><a xlink:title="application: TradeDepo
id: PTN-" target="_blank">
<polygon fill="#e8eef7" stroke="#000000" points="400.664,-362 337.336,-362 337.336,-326 400.664,-326 400.664,-362"/>
<text text-anchor="middle" x="369" y="-341" font-family="sans-serif" font-size="10.00" fill="#000000">TradeDepo</text>
</a>
</g>
</g>

<g id="edge12" class="edge">
<title>node16211-&gt;node16219</title>
<path fill="none" stroke="#296640" d="M298.1947,-488C322.6138,-488 350.7726,-488 350.7726,-488 350.7726,-488 350.7726,-372.2377 350.7726,-372.2377"/>
<polygon fill="#296640" stroke="#296640" points="354.2727,-372.2377 350.7726,-362.2377 347.2727,-372.2377 354.2727,-372.2377"/>
<text text-anchor="middle" x="337.4401" y="-458.4078" font-family="sans-serif" font-size="10.00" fill="#000000">pl-risk</text>
</g>




<g id="node24" class="node">
<title>node16232</title>
<g id="a_node24"><a xlink:title="application: i-Assert(CZH)
id: PTN-" target="_blank">
<polygon fill="#e8eef7" stroke="#000000" points="504.6036,-362 429.3964,-362 429.3964,-326 504.6036,-326 504.6036,-362"/>
<text text-anchor="middle" x="467" y="-341" font-family="sans-serif" font-size="10.00" fill="#000000">i-Assert(CZH)</text>
</a>
</g>
</g>

<g id="edge16" class="edge">
<title>node16212-&gt;node16232</title>
<path fill="none" stroke="#dd809e" d="M343.9705,-553.7244C343.9705,-538.8495 343.9705,-522 343.9705,-522 343.9705,-522 437.9499,-522 437.9499,-522 437.9499,-522 437.9499,-372.0472 437.9499,-372.0472"/>
<polygon fill="#dd809e" stroke="#dd809e" points="441.45,-372.0471 437.9499,-362.0472 434.45,-372.0472 441.45,-372.0471"/>
<text text-anchor="middle" x="419.0583" y="-511.8754" font-family="sans-serif" font-size="10.00" fill="#000000">confirms</text>
</g>

<g id="node5" class="node">
<title>node16213</title>
<g id="a_node5"><a xlink:title="application: ECN
id: PTN-" target="_blank">
<polygon fill="#e8eef7" stroke="#000000" points="301,-212 247,-212 247,-176 301,-176 301,-212"/>
<text text-anchor="middle" x="274" y="-191" font-family="sans-serif" font-size="10.00" fill="#000000">ECN</text>
</a>
</g>
</g>

<g id="node8" class="node">
<title>node16216</title>
<g id="a_node8"><a xlink:title="application: eFermi
id: PTN-" target="_blank">
<polygon fill="#e8eef7" stroke="#000000" points="244,-134 190,-134 190,-98 244,-98 244,-134"/>
<text text-anchor="middle" x="217" y="-113" font-family="sans-serif" font-size="10.00" fill="#000000">eFermi</text>
</a>
</g>
</g>


<g id="edge18" class="edge">
<title>node16213-&gt;node16223</title>
<path fill="none" stroke="#ba521a" d="M274,-175.957C274,-134.1129 274,-34 274,-34 274,-34 142.1528,-34 142.1528,-34"/>
<polygon fill="#ba521a" stroke="#ba521a" points="142.1528,-30.5001 132.1528,-34 142.1527,-37.5001 142.1528,-30.5001"/>
<text text-anchor="middle" x="260.1035" y="-41.0549" font-family="sans-serif" font-size="10.00" fill="#000000">trades</text>
</g>

<g id="node19" class="node">
<title>node16227</title>
<g id="a_node19"><a xlink:title="application: Kuiper
id: PTN-" target="_blank">
<polygon fill="#e8eef7" stroke="#000000" points="161,-134 107,-134 107,-98 161,-98 161,-134"/>
<text text-anchor="middle" x="134" y="-113" font-family="sans-serif" font-size="10.00" fill="#000000">Kuiper</text>
</a>
</g>
</g>


<g id="node6" class="node">
<title>node16214</title>
<g id="a_node6"><a xlink:title="application: HCB
id: PTN-" target="_blank">
<polygon fill="#c6ddf2" stroke="#000000" points="468,-676 414,-676 414,-640 468,-640 468,-676"/>
<text text-anchor="middle" x="441" y="-655" font-family="sans-serif" font-size="10.00" fill="#000000">HCB</text>
</a>
</g>
</g>


<g id="edge21" class="edge">
<title>node16214-&gt;node16213</title>
<path fill="none" stroke="#000000" stroke-dasharray="1,5" d="M468.4286,-658C491.4833,-658 520.7012,-658 520.7012,-658 520.7012,-658 520.7012,-194 520.7012,-194 520.7012,-194 311.3439,-194 311.3439,-194"/>
<polygon fill="#000000" stroke="#000000" points="311.344,-190.5001 301.3439,-194 311.3439,-197.5001 311.344,-190.5001"/>
<text text-anchor="middle" x="534.5977" y="-349.4577" font-family="sans-serif" font-size="10.00" fill="#000000">trades</text>
</g>


<g id="edge23" class="edge">
<title>node16214-&gt;node16221</title>
<path fill="none" stroke="#000000" stroke-dasharray="1,5" d="M461.4766,-639.7779C461.4766,-607.351 461.4766,-543 461.4766,-543 461.4766,-543 313.9224,-543 313.9224,-543 313.9224,-543 313.9224,-294.1747 313.9224,-294.1747"/>
<polygon fill="#000000" stroke="#000000" points="317.4225,-294.1747 313.9224,-284.1747 310.4225,-294.1748 317.4225,-294.1747"/>
<text text-anchor="middle" x="300.0259" y="-542.7534" font-family="sans-serif" font-size="10.00" fill="#000000">trades</text>
</g>

<g id="edge24" class="edge">
<title>node16214-&gt;node16228</title>
<path fill="none" stroke="#a6a8e0" d="M424.2383,-639.8701C424.2383,-629.6855 424.2383,-619 424.2383,-619 424.2383,-619 222.8079,-619 222.8079,-619 222.8079,-619 222.8079,-604.4854 222.8079,-604.4854"/>
<polygon fill="#a6a8e0" stroke="#a6a8e0" points="226.308,-604.4854 222.8079,-594.4854 219.308,-604.4855 226.308,-604.4854"/>
<text text-anchor="middle" x="312.8043" y="-621" font-family="sans-serif" font-size="10.00" fill="#000000">trades</text>
</g>

<g id="node7" class="node">
<title>node16215</title>
<g id="a_node7"><a xlink:href="https://en.wikipedia.org/wiki/Reference_data" xlink:title="application: Books
id: PTN-1234" target="_blank">
<path fill="#eebd1b" stroke="#000000" d="M553,-822.7273C553,-824.5331 540.8982,-826 526,-826 511.1018,-826 499,-824.5331 499,-822.7273 499,-822.7273 499,-793.2727 499,-793.2727 499,-791.4669 511.1018,-790 526,-790 540.8982,-790 553,-791.4669 553,-793.2727 553,-793.2727 553,-822.7273 553,-822.7273"/>
<path fill="none" stroke="#000000" d="M553,-822.7273C553,-820.9214 540.8982,-819.4545 526,-819.4545 511.1018,-819.4545 499,-820.9214 499,-822.7273"/>
<text text-anchor="middle" x="526" y="-805" font-family="sans-serif" font-size="10.00" fill="#000000">Books</text>
</a>
</g>
</g>



<g id="node9" class="node">
<title>node16217</title>
<g id="a_node9"><a xlink:href="https://en.wikipedia.org/wiki/Reference_data" xlink:title="application: Instrument+Hub
id: PTN-" target="_blank">
<polygon fill="#e8eef7" stroke="#000000" points="240.9268,-754 155.0732,-754 155.0732,-718 240.9268,-718 240.9268,-754"/>
<text text-anchor="middle" x="198" y="-733" font-family="sans-serif" font-size="10.00" fill="#000000">Instrument+Hub</text>
</a>
</g>
</g>









<g id="edge35" class="edge">
<title>node16220-&gt;node16232</title>
<g id="a_edge35"><a xlink:href="http://www.google.com" xlink:title="Fidelity-&gt;i-Assert(CZH)" target="_blank">
<path fill="none" stroke="#dd809e" stroke-width="2" d="M446.4515,-557.7953C446.4515,-557.7953 446.4515,-372.1201 446.4515,-372.1201"/>
<polygon fill="#dd809e" stroke="#dd809e" stroke-width="2" points="449.9516,-372.12 446.4515,-362.1201 442.9516,-372.1201 449.9516,-372.12"/>
</a>
</g>
<g id="a_edge35-label"><a xlink:href="http://www.google.com" xlink:title="Fidelity-&gt;i-Assert(CZH)" target="_blank">
<text text-anchor="middle" x="432.555" y="-466.9577" font-family="sans-serif" font-size="10.00" fill="#0000ff">trades</text>
</a>
</g>
</g>

<g id="edge36" class="edge">
<title>node16221-&gt;node16213</title>
<path fill="none" stroke="#9e5919" d="M289.3333,-247.8314C289.3333,-247.8314 289.3333,-222.4133 289.3333,-222.4133"/>
<polygon fill="#9e5919" stroke="#9e5919" points="292.8334,-222.4132 289.3333,-212.4133 285.8334,-222.4133 292.8334,-222.4132"/>
<text text-anchor="middle" x="264.0452" y="-237.1223" font-family="sans-serif" font-size="10.00" fill="#000000">instructions</text>
</g>

<g id="edge37" class="edge">
<title>node16221-&gt;node16216</title>
<path fill="none" stroke="#81648c" d="M265.7766,-260C252.6876,-260 239.8,-260 239.8,-260 239.8,-260 239.8,-144.2377 239.8,-144.2377"/>
<polygon fill="#81648c" stroke="#81648c" points="243.3001,-144.2377 239.8,-134.2377 236.3001,-144.2377 243.3001,-144.2377"/>
<text text-anchor="middle" x="214.5119" y="-217.1072" font-family="sans-serif" font-size="10.00" fill="#000000">instructions</text>
</g>

<g id="edge38" class="edge">
<title>node16221-&gt;node16223</title>
<path fill="none" stroke="#ba521a" d="M310.5,-247.6429C310.5,-191.6781 310.5,-27 310.5,-27 310.5,-27 142.2888,-27 142.2888,-27"/>
<polygon fill="#ba521a" stroke="#ba521a" points="142.2888,-23.5001 132.2888,-27 142.2888,-30.5001 142.2888,-23.5001"/>
<text text-anchor="middle" x="296.6035" y="-55.2159" font-family="sans-serif" font-size="10.00" fill="#000000">trades</text>
</g>


<g id="edge40" class="edge">
<title>node16222-&gt;node16223</title>
<path fill="none" stroke="#ba521a" d="M186.5,-247.7884C186.5,-195.3943 186.5,-48 186.5,-48 186.5,-48 142.1383,-48 142.1383,-48"/>
<polygon fill="#ba521a" stroke="#ba521a" points="142.1384,-44.5001 132.1383,-48 142.1383,-51.5001 142.1384,-44.5001"/>
<text text-anchor="middle" x="172.6035" y="-127.7134" font-family="sans-serif" font-size="10.00" fill="#000000">trades</text>
</g>

<g id="node16" class="node">
<title>node16224</title>
<g id="a_node16"><a xlink:href="https://en.wikipedia.org/wiki/Reference_data" xlink:title="application: Affinity
id: PTN-" target="_blank">
<polygon fill="#e8eef7" stroke="#000000" points="324,-754 270,-754 270,-718 324,-718 324,-754"/>
<text text-anchor="middle" x="297" y="-733" font-family="sans-serif" font-size="10.00" fill="#000000">Affinity</text>
</a>
</g>
</g>



<g id="node17" class="node">
<title>node16225</title>
<g id="a_node17"><a xlink:href="https://en.wikipedia.org/wiki/Reference_data" xlink:title="application: P-RAM
id: PTN-" target="_blank">
<polygon fill="#e8eef7" stroke="#000000" points="490,-754 436,-754 436,-718 490,-718 490,-754"/>
<text text-anchor="middle" x="463" y="-733" font-family="sans-serif" font-size="10.00" fill="#000000">P-RAM</text>
</a>
</g>
</g>

<g id="node18" class="node">
<title>node16226</title>
<g id="a_node18"><a xlink:href="https://en.wikipedia.org/wiki/Reference_data" xlink:title="application: Instrument
id: PTN-2345" target="_blank">
<path fill="#eebd1b" stroke="#000000" d="M469.7417,-822.7273C469.7417,-824.5331 455.9628,-826 439,-826 422.0372,-826 408.2583,-824.5331 408.2583,-822.7273 408.2583,-822.7273 408.2583,-793.2727 408.2583,-793.2727 408.2583,-791.4669 422.0372,-790 439,-790 455.9628,-790 469.7417,-791.4669 469.7417,-793.2727 469.7417,-793.2727 469.7417,-822.7273 469.7417,-822.7273"/>
<path fill="none" stroke="#000000" d="M469.7417,-822.7273C469.7417,-820.9214 455.9628,-819.4545 439,-819.4545 422.0372,-819.4545 408.2583,-820.9214 408.2583,-822.7273"/>
<text text-anchor="middle" x="439" y="-805" font-family="sans-serif" font-size="10.00" fill="#000000">Instrument</text>
</a>
</g>
</g>



<g id="edge45" class="edge">
<title>node16228-&gt;node16211</title>
<path fill="none" stroke="#267a17" d="M231.6402,-576C239.6596,-576 245.9958,-576 245.9958,-576 245.9958,-576 245.9958,-522.1985 245.9958,-522.1985"/>
<polygon fill="#267a17" stroke="#267a17" points="249.4959,-522.1984 245.9958,-512.1985 242.4959,-522.1985 249.4959,-522.1984"/>
<g id="a_edge45-label"><a xlink:title="BAD Image-&gt;Guerilla Risk">
<text text-anchor="middle" x="226.262" y="-548.2771" font-family="sans-serif" font-size="10.00" fill="#ff0000">positions</text>
</a>
</g>
</g>

<g id="edge46" class="edge">
<title>node16228-&gt;node16216</title>
<path fill="none" stroke="#81648c" d="M179.8,-557.8986C179.8,-508.6668 179.8,-376 179.8,-376 179.8,-376 238.4,-376 238.4,-376 238.4,-376 238.4,-144.2827 238.4,-144.2827"/>
<polygon fill="#81648c" stroke="#81648c" points="241.9001,-144.2827 238.4,-134.2827 234.9001,-144.2827 241.9001,-144.2827"/>
<text text-anchor="middle" x="214.2755" y="-378" font-family="sans-serif" font-size="10.00" fill="#000000">positions</text>
</g>

<g id="edge47" class="edge">
<title>node16228-&gt;node16218</title>
<path fill="none" stroke="#267a17" d="M190.6,-557.8269C190.6,-511.0245 190.6,-390 190.6,-390 190.6,-390 264.2152,-390 264.2152,-390 264.2152,-390 264.2152,-372.1804 264.2152,-372.1804"/>
<polygon fill="#267a17" stroke="#267a17" points="267.7153,-372.1804 264.2152,-362.1804 260.7153,-372.1805 267.7153,-372.1804"/>
<g id="a_edge47-label"><a xlink:title="BAD Image-&gt;1-Charge">
<text text-anchor="middle" x="170.8661" y="-430.1961" font-family="sans-serif" font-size="10.00" fill="#ff0000">positions</text>
</a>
</g>
</g>

<g id="edge48" class="edge">
<title>node16228-&gt;node16221</title>
<path fill="none" stroke="#81648c" d="M201.4,-557.5146C201.4,-545.8601 201.4,-533 201.4,-533 201.4,-533 310.8835,-533 310.8835,-533 310.8835,-533 310.8835,-294.352 310.8835,-294.352"/>
<polygon fill="#81648c" stroke="#81648c" points="314.3836,-294.352 310.8835,-284.352 307.3836,-294.352 314.3836,-294.352"/>
<text text-anchor="middle" x="330.6174" y="-482.6751" font-family="sans-serif" font-size="10.00" fill="#000000">positions</text>
</g>

<g id="edge49" class="edge">
<title>node16228-&gt;node16227</title>
<path fill="none" stroke="#81648c" d="M166.3928,-576C151.0204,-576 136,-576 136,-576 136,-576 136,-144.0325 136,-144.0325"/>
<polygon fill="#81648c" stroke="#81648c" points="139.5001,-144.0325 136,-134.0325 132.5001,-144.0326 139.5001,-144.0325"/>
<text text-anchor="middle" x="116.2661" y="-377.2127" font-family="sans-serif" font-size="10.00" fill="#000000">positions</text>
</g>

<g id="node21" class="node">
<title>node16229</title>
<g id="a_node21"><a xlink:href="https://en.wikipedia.org/wiki/Reference_data" xlink:title="application: Clients
id: PTN-675664" target="_blank">
<path fill="#eebd1b" stroke="#000000" d="M379,-822.7273C379,-824.5331 366.8982,-826 352,-826 337.1018,-826 325,-824.5331 325,-822.7273 325,-822.7273 325,-793.2727 325,-793.2727 325,-791.4669 337.1018,-790 352,-790 366.8982,-790 379,-791.4669 379,-793.2727 379,-793.2727 379,-822.7273 379,-822.7273"/>
<path fill="none" stroke="#000000" d="M379,-822.7273C379,-820.9214 366.8982,-819.4545 352,-819.4545 337.1018,-819.4545 325,-820.9214 325,-822.7273"/>
<text text-anchor="middle" x="352" y="-805" font-family="sans-serif" font-size="10.00" fill="#000000">Clients</text>
</a>
</g>
</g>

<g id="node23" class="node">
<title>node16231</title>
<g id="a_node23"><a xlink:href="https://en.wikipedia.org/wiki/Reference_data" xlink:title="application: ERP
id: PTN-" target="_blank">
<polygon fill="#e8eef7" stroke="#000000" points="407,-754 353,-754 353,-718 407,-718 407,-754"/>
<text text-anchor="middle" x="380" y="-733" font-family="sans-serif" font-size="10.00" fill="#000000">ERP</text>
</a>
</g>
</g>


<g id="node25" class="node">
<title>node16233</title>
<g id="a_node25"><a xlink:title="application: FORPS-bus
id: PTN-" target="_blank">
<polygon fill="#c6ddf2" stroke="#000000" points="281.9014,-676 214.0986,-676 214.0986,-640 281.9014,-640 281.9014,-676"/>
<text text-anchor="middle" x="248" y="-655" font-family="sans-serif" font-size="10.00" fill="#000000">FORPS-bus</text>
</a>
</g>
</g>



<g id="node26" class="node">
<title>node16234</title>
<g id="a_node26"><a xlink:href="https://en.wikipedia.org/wiki/Reference_data" xlink:title="application: Employee
id: PTN-23" target="_blank">
<path fill="#eebd1b" stroke="#000000" d="M296.4697,-822.7273C296.4697,-824.5331 283.2609,-826 267,-826 250.7391,-826 237.5303,-824.5331 237.5303,-822.7273 237.5303,-822.7273 237.5303,-793.2727 237.5303,-793.2727 237.5303,-791.4669 250.7391,-790 267,-790 283.2609,-790 296.4697,-791.4669 296.4697,-793.2727 296.4697,-793.2727 296.4697,-822.7273 296.4697,-822.7273"/>
<path fill="none" stroke="#000000" d="M296.4697,-822.7273C296.4697,-820.9214 283.2609,-819.4545 267,-819.4545 250.7391,-819.4545 237.5303,-820.9214 237.5303,-822.7273"/>
<text text-anchor="middle" x="267" y="-805" font-family="sans-serif" font-size="10.00" fill="#000000">Employee</text>
</a>
</g>
</g>


<g id="node27" class="node">
<title>node16235</title>
<g id="a_node27"><a xlink:href="https://en.wikipedia.org/wiki/Reference_data" xlink:title="application: Products
id: PTN-6538" target="_blank">
<path fill="#eebd1b" stroke="#000000" d="M209,-822.7273C209,-824.5331 196.8982,-826 182,-826 167.1018,-826 155,-824.5331 155,-822.7273 155,-822.7273 155,-793.2727 155,-793.2727 155,-791.4669 167.1018,-790 182,-790 196.8982,-790 209,-791.4669 209,-793.2727 209,-793.2727 209,-822.7273 209,-822.7273"/>
<path fill="none" stroke="#000000" d="M209,-822.7273C209,-820.9214 196.8982,-819.4545 182,-819.4545 167.1018,-819.4545 155,-820.9214 155,-822.7273"/>
<text text-anchor="middle" x="182" y="-805" font-family="sans-serif" font-size="10.00" fill="#000000">Products</text>
</a>
</g>
</g>


<g id="node28" class="node">
<title>node16236</title>
<g id="a_node28"><a xlink:title="application: sysTicket
id: PTN-" target="_blank">
<polygon fill="#e8eef7" stroke="#000000" points="384.8045,-676 329.1955,-676 329.1955,-640 384.8045,-640 384.8045,-676"/>
<text text-anchor="middle" x="357" y="-655" font-family="sans-serif" font-size="10.00" fill="#000000">sysTicket</text>
</a>
</g>
</g>

<g id="edge55" class="edge">
<title>node16236-&gt;node16212</title>
<path fill="none" stroke="#000000" stroke-dasharray="1,5" d="M338.757,-639.8015C338.757,-639.8015 338.757,-608.2377 338.757,-608.2377"/>
<polygon fill="#000000" stroke="#000000" points="342.2571,-608.2377 338.757,-598.2377 335.2571,-608.2377 342.2571,-608.2377"/>
<text text-anchor="middle" x="352.6535" y="-626.0196" font-family="sans-serif" font-size="10.00" fill="#000000">trades</text>
</g>

<g id="edge56" class="edge">
<title>node16236-&gt;node16219</title>
<path fill="none" stroke="#a6a8e0" d="M371.1133,-639.7608C371.1133,-639.7608 371.1133,-372.2895 371.1133,-372.2895"/>
<polygon fill="#a6a8e0" stroke="#a6a8e0" points="374.6134,-372.2895 371.1133,-362.2895 367.6134,-372.2896 374.6134,-372.2895"/>
<text text-anchor="middle" x="357.2168" y="-508.0252" font-family="sans-serif" font-size="10.00" fill="#000000">trades</text>
</g>

<g id="edge57" class="edge">
<title>node16236-&gt;node16220</title>
<path fill="none" stroke="#a6a8e0" d="M384.699,-658C393.1947,-658 400.349,-658 400.349,-658 400.349,-658 400.349,-604.1985 400.349,-604.1985"/>
<polygon fill="#a6a8e0" stroke="#a6a8e0" points="403.8491,-604.1984 400.349,-594.1985 396.8491,-604.1985 403.8491,-604.1984"/>
<text text-anchor="middle" x="386.4525" y="-630.9242" font-family="sans-serif" font-size="10.00" fill="#000000">trades</text>
</g>
</g>
</svg>