<?xml version="1.0" encoding="UTF-8" standalone="no"?>
<!DOCTYPE svg PUBLIC "-//W3C//DTD SVG 1.1//EN"
 "http://www.w3.org/Graphics/SVG/1.1/DTD/svg11.dtd">
<!-- Generated by graphviz version 2.40.1 (20161225.0304)
 -->
<!-- Title: %3 Pages: 1 -->
<svg width="945pt" height="855pt"
 viewBox="0.00 0.00 945.00 855.00" xmlns="http://www.w3.org/2000/svg" xmlns:xlink="http://www.w3.org/1999/xlink">
<g id="graph0" class="graph" transform="scale(1 1) rotate(0) translate(72 783)">
<title>%3</title>
<polygon fill="#ffffff" stroke="transparent" points="-72,72 -72,-783 873,-783 873,72 -72,72"/>
<g id="clust1" class="cluster">
<title>cluster12880</title>
<polygon fill="#b0e2ff" stroke="#000000" points="8,-8 8,-703 793,-703 793,-8 8,-8"/>
<text text-anchor="middle" x="400.5" y="-687.8" font-family="Monospace" font-size="14.00" fill="#000000">animals</text>
</g>
<g id="clust2" class="cluster">
<title>cluster12899</title>
<path fill="#cdcdc1" stroke="#000000" d="M28,-150C28,-150 773,-150 773,-150 779,-150 785,-156 785,-162 785,-162 785,-661 785,-661 785,-667 779,-673 773,-673 773,-673 28,-673 28,-673 22,-673 16,-667 16,-661 16,-661 16,-162 16,-162 16,-156 22,-150 28,-150"/>
<text text-anchor="middle" x="400.5" y="-657.8" font-family="Monospace" font-size="14.00" fill="#ff34b3">carnivores</text>
</g>
<g id="clust3" class="cluster">
<title>cluster12900</title>
<path fill="#a3a3a3" stroke="#000000" d="M149,-165C149,-165 321,-165 321,-165 327,-165 333,-171 333,-177 333,-177 333,-313 333,-313 333,-319 327,-325 321,-325 321,-325 149,-325 149,-325 143,-325 137,-319 137,-313 137,-313 137,-177 137,-177 137,-171 143,-165 149,-165"/>
<text text-anchor="middle" x="235" y="-309.8" font-family="Monospace" font-size="14.00" fill="#ffffff">wolves</text>
</g>
<g id="clust4" class="cluster">
<title>cluster12901</title>
<path fill="#cdb79e" stroke="#000000" d="M43,-333C43,-333 758,-333 758,-333 764,-333 770,-339 770,-345 770,-345 770,-624 770,-624 770,-630 764,-636 758,-636 758,-636 43,-636 43,-636 37,-636 31,-630 31,-624 31,-624 31,-345 31,-345 31,-339 37,-333 43,-333"/>
<text text-anchor="middle" x="400.5" y="-620.8" font-family="Monospace" font-size="14.00" fill="#8b4513">bears</text>
</g>
<g id="clust5" class="cluster">
<title>cluster12902</title>
<path fill="#98fb98" stroke="#32cd32" d="M58,-348C58,-348 128,-348 128,-348 134,-348 140,-354 140,-360 140,-360 140,-506 140,-506 140,-512 134,-518 128,-518 128,-518 58,-518 58,-518 52,-518 46,-512 46,-506 46,-506 46,-360 46,-360 46,-354 52,-348 58,-348"/>
<text text-anchor="middle" x="93" y="-502.8" font-family="Monospace" font-size="14.00" fill="#8b4513">brownbears</text>
</g>
<g id="clust6" class="cluster">
<title>cluster12903</title>
<path fill="#fff8dc" stroke="#000000" d="M175,-353C175,-353 743,-353 743,-353 749,-353 755,-359 755,-365 755,-365 755,-587 755,-587 755,-593 749,-599 743,-599 743,-599 175,-599 175,-599 169,-599 163,-593 163,-587 163,-587 163,-365 163,-365 163,-359 169,-353 175,-353"/>
<text text-anchor="middle" x="459" y="-583.8" font-family="Monospace" font-size="14.00" fill="#000000">pandas</text>
</g>
<g id="clust10" class="cluster">
<title>cluster12904</title>
<polygon fill="#ee6363" stroke="#000000" points="241,-16 241,-142 359,-142 359,-16 241,-16"/>
<text text-anchor="middle" x="300" y="-126.8" font-family="Monospace" font-size="14.00" fill="#000000">rodents</text>
</g>
<g id="clust11" class="cluster">
<title>cluster12905</title>
<path fill="#ffc0cb" stroke="#000000" d="M261,-24C261,-24 339,-24 339,-24 345,-24 351,-30 351,-36 351,-36 351,-100 351,-100 351,-106 345,-112 339,-112 339,-112 261,-112 261,-112 255,-112 249,-106 249,-100 249,-100 249,-36 249,-36 249,-30 255,-24 261,-24"/>
<text text-anchor="middle" x="300" y="-96.8" font-family="Monospace" font-size="14.00" fill="#000000">squirrels</text>
</g>
<!-- node12881 -->
<g id="node1" class="node">
<title>node12881</title>
<ellipse fill="#61d2c4" stroke="#000000" cx="601" cy="-458" rx="27" ry="18"/>
<text text-anchor="middle" x="601" y="-455" font-family="Monospace" font-size="10.00" fill="#000000">delila</text>
</g>
<!-- node12882 -->
<g id="node2" class="node">
<title>node12882</title>
<ellipse fill="#acf5ab" stroke="#000000" cx="291" cy="-57" rx="27" ry="18"/>
<text text-anchor="middle" x="291" y="-54" font-family="Monospace" font-size="10.00" fill="#000000">huxley</text>
</g>
<!-- node12882&#45;&gt;node12882 -->
<!-- node12883 -->
<g id="node3" class="node">
<title>node12883</title>
<ellipse fill="#61d2c4" stroke="#000000" cx="317" cy="-544" rx="27" ry="18"/>
<text text-anchor="middle" x="317" y="-541" font-family="Monospace" font-size="10.00" fill="#000000">cristolene</text>
</g>
<!-- node12892 -->
<g id="node12" class="node">
<title>node12892</title>
<path fill="#0000ff" stroke="#000000" d="M220,-476C220,-476 190,-476 190,-476 184,-476 178,-470 178,-464 178,-464 178,-452 178,-452 178,-446 184,-440 190,-440 190,-440 220,-440 220,-440 226,-440 232,-446 232,-452 232,-452 232,-464 232,-464 232,-470 226,-476 220,-476"/>
<text text-anchor="middle" x="205" y="-455" font-family="Monospace" font-size="10.00" fill="#ffffff">sharhar</text>
</g>
<!-- node12883&#45;&gt;node12892 -->
<g id="edge2" class="edge">
<title>node12883&#45;&gt;node12892</title>
<path fill="none" stroke="#000000" d="M305,-527.8241C305,-502.912 305,-458 305,-458 305,-458 242.0614,-458 242.0614,-458"/>
<polygon fill="#000000" stroke="#000000" points="242.0615,-454.5001 232.0614,-458 242.0614,-461.5001 242.0615,-454.5001"/>
</g>
<!-- node12884 -->
<g id="node4" class="node">
<title>node12884</title>
<path fill="#8b7500" stroke="#000000" d="M704.5147,-553.5147C704.5147,-553.5147 694.4853,-543.4853 694.4853,-543.4853 690.2426,-539.2426 692,-535 698,-535 698,-535 728,-535 728,-535 734,-535 735.7574,-539.2426 731.5147,-543.4853 731.5147,-543.4853 721.4853,-553.5147 721.4853,-553.5147 717.2426,-557.7574 708.7574,-557.7574 704.5147,-553.5147"/>
<text text-anchor="middle" x="713" y="-541" font-family="Monospace" font-size="10.00" fill="#000000">nikkai</text>
</g>
<!-- node12893 -->
<g id="node13" class="node">
<title>node12893</title>
<ellipse fill="#61d2c4" stroke="#000000" cx="713" cy="-458" rx="27" ry="18"/>
<text text-anchor="middle" x="713" y="-455" font-family="Monospace" font-size="10.00" fill="#000000">isobel</text>
</g>
<!-- node12884&#45;&gt;node12893 -->
<g id="edge3" class="edge">
<title>node12884&#45;&gt;node12893</title>
<path fill="none" stroke="#000000" d="M713,-534.7965C713,-534.7965 713,-486.1136 713,-486.1136"/>
<polygon fill="#000000" stroke="#000000" points="716.5001,-486.1136 713,-476.1136 709.5001,-486.1137 716.5001,-486.1136"/>
</g>
<!-- node12885 -->
<g id="node5" class="node">
<title>node12885</title>
<ellipse fill="#768572" stroke="#000000" cx="93" cy="-386" rx="27" ry="18"/>
<text text-anchor="middle" x="93" y="-383" font-family="Monospace" font-size="10.00" fill="#000000">eliza</text>
</g>
<!-- node12885&#45;&gt;node12882 -->
<!-- node12886 -->
<g id="node6" class="node">
<title>node12886</title>
<ellipse fill="#61d2c4" stroke="#000000" cx="571" cy="-544" rx="27" ry="18"/>
<text text-anchor="middle" x="571" y="-541" font-family="Monospace" font-size="10.00" fill="#000000">malakai</text>
</g>
<!-- node12886&#45;&gt;node12881 -->
<g id="edge5" class="edge">
<title>node12886&#45;&gt;node12881</title>
<path fill="none" stroke="#000000" d="M586,-529.0199C586,-529.0199 586,-483.0969 586,-483.0969"/>
<polygon fill="#000000" stroke="#000000" points="589.5001,-483.0969 586,-473.0969 582.5001,-483.097 589.5001,-483.0969"/>
</g>
<!-- node12898 -->
<g id="node18" class="node">
<title>node12898</title>
<ellipse fill="#61d2c4" stroke="#000000" cx="489" cy="-458" rx="27" ry="18"/>
<text text-anchor="middle" x="489" y="-455" font-family="Monospace" font-size="10.00" fill="#000000">ivy</text>
</g>
<!-- node12886&#45;&gt;node12898 -->
<g id="edge6" class="edge">
<title>node12886&#45;&gt;node12898</title>
<path fill="none" stroke="#000000" d="M559,-527.8241C559,-502.912 559,-458 559,-458 559,-458 526.2643,-458 526.2643,-458"/>
<polygon fill="#000000" stroke="#000000" points="526.2643,-454.5001 516.2643,-458 526.2642,-461.5001 526.2643,-454.5001"/>
</g>
<!-- node12887 -->
<g id="node7" class="node">
<title>node12887</title>
<ellipse fill="#61d2c4" stroke="#000000" cx="377" cy="-458" rx="27" ry="18"/>
<text text-anchor="middle" x="377" y="-455" font-family="Monospace" font-size="10.00" fill="#000000">max</text>
</g>
<!-- node12888 -->
<g id="node8" class="node">
<title>node12888</title>
<ellipse fill="#9400d3" stroke="#000000" cx="377" cy="-386" rx="27" ry="18"/>
<text text-anchor="middle" x="377" y="-383" font-family="Monospace" font-size="10.00" fill="#fffaf0">Bridget</text>
</g>
<!-- node12887&#45;&gt;node12888 -->
<g id="edge7" class="edge">
<title>node12887&#45;&gt;node12888</title>
<path fill="none" stroke="#0000ff" d="M377,-439.8314C377,-439.8314 377,-414.4133 377,-414.4133"/>
<polygon fill="#0000ff" stroke="#0000ff" points="380.5001,-414.4132 377,-404.4133 373.5001,-414.4133 380.5001,-414.4132"/>
</g>
<!-- node12888&#45;&gt;node12882 -->
<!-- node12889 -->
<g id="node9" class="node">
<title>node12889</title>
<ellipse fill="#61d2c4" stroke="#000000" cx="429" cy="-544" rx="27" ry="18"/>
<text text-anchor="middle" x="429" y="-541" font-family="Monospace" font-size="10.00" fill="#000000">simone</text>
</g>
<!-- node12889&#45;&gt;node12887 -->
<g id="edge9" class="edge">
<title>node12889&#45;&gt;node12887</title>
<path fill="none" stroke="#000000" d="M430,-525.8468C430,-502.2434 430,-464 430,-464 430,-464 412.5685,-464 412.5685,-464"/>
<polygon fill="#000000" stroke="#000000" points="412.5686,-460.5001 402.5685,-464 412.5685,-467.5001 412.5686,-460.5001"/>
</g>
<!-- node12897 -->
<g id="node17" class="node">
<title>node12897</title>
<ellipse fill="#61d2c4" stroke="#000000" cx="265" cy="-386" rx="27" ry="18"/>
<text text-anchor="middle" x="265" y="-383" font-family="Monospace" font-size="10.00" fill="#000000">summer</text>
</g>
<!-- node12889&#45;&gt;node12897 -->
<g id="edge10" class="edge">
<title>node12889&#45;&gt;node12897</title>
<path fill="none" stroke="#00ee00" d="M417,-527.4981C417,-515.3718 417,-501 417,-501 417,-501 264,-501 264,-501 264,-501 264,-414.2221 264,-414.2221"/>
<polygon fill="#00ee00" stroke="#00ee00" points="267.5001,-414.2221 264,-404.2221 260.5001,-414.2221 267.5001,-414.2221"/>
</g>
<!-- node12889&#45;&gt;node12898 -->
<g id="edge11" class="edge">
<title>node12889&#45;&gt;node12898</title>
<path fill="none" stroke="#00ee00" d="M443,-528.3935C443,-502.1454 443,-452 443,-452 443,-452 453.3102,-452 453.3102,-452"/>
<polygon fill="#00ee00" stroke="#00ee00" points="453.3102,-455.5001 463.3102,-452 453.3101,-448.5001 453.3102,-455.5001"/>
</g>
<!-- node12890 -->
<g id="node10" class="node">
<title>node12890</title>
<polygon fill="#768572" stroke="#000000" points="120,-453.9946 114.6523,-469.2228 93,-476 71.3477,-469.2228 66,-453.9946 80.9839,-441.7826 105.0161,-441.7826 120,-453.9946"/>
<text text-anchor="middle" x="93" y="-455" font-family="Monospace" font-size="10.00" fill="#000000">cosmo</text>
</g>
<!-- node12890&#45;&gt;node12885 -->
<g id="edge12" class="edge">
<title>node12890&#45;&gt;node12885</title>
<path fill="none" stroke="#ff1493" d="M93,-441.6621C93,-441.6621 93,-414.0423 93,-414.0423"/>
<polygon fill="#ff1493" stroke="#ff1493" points="96.5001,-414.0423 93,-404.0423 89.5001,-414.0424 96.5001,-414.0423"/>
</g>
<!-- node12891 -->
<g id="node11" class="node">
<title>node12891</title>
<ellipse fill="#68db75" stroke="#000000" cx="179" cy="-198" rx="27" ry="18"/>
<text text-anchor="middle" x="179" y="-195" font-family="Monospace" font-size="10.00" fill="#000000">angelique</text>
</g>
<!-- node12891&#45;&gt;node12882 -->
<!-- node12892&#45;&gt;node12897 -->
<g id="edge14" class="edge">
<title>node12892&#45;&gt;node12897</title>
<path fill="none" stroke="#000000" d="M219,-439.8314C219,-418.502 219,-386 219,-386 219,-386 227.9755,-386 227.9755,-386"/>
<polygon fill="#000000" stroke="#000000" points="227.9756,-389.5001 237.9755,-386 227.9755,-382.5001 227.9756,-389.5001"/>
</g>
<!-- node12894 -->
<g id="node14" class="node">
<title>node12894</title>
<ellipse fill="#68db75" stroke="#000000" cx="291" cy="-198" rx="27" ry="18"/>
<text text-anchor="middle" x="291" y="-195" font-family="Monospace" font-size="10.00" fill="#000000">sebastian</text>
</g>
<!-- node12894&#45;&gt;node12882 -->
<!-- node12895 -->
<g id="node15" class="node">
<title>node12895</title>
<ellipse fill="#61d2c4" stroke="#000000" cx="205" cy="-544" rx="27" ry="18"/>
<text text-anchor="middle" x="205" y="-541" font-family="Monospace" font-size="10.00" fill="#000000">kacey</text>
</g>
<!-- node12895&#45;&gt;node12890 -->
<g id="edge16" class="edge">
<title>node12895&#45;&gt;node12890</title>
<path fill="none" stroke="#ff1493" d="M177.8879,-544C144.7412,-544 93,-544 93,-544 93,-544 93,-486.2384 93,-486.2384"/>
<polygon fill="#ff1493" stroke="#ff1493" points="96.5001,-486.2384 93,-476.2384 89.5001,-486.2384 96.5001,-486.2384"/>
</g>
<!-- node12895&#45;&gt;node12892 -->
<g id="edge17" class="edge">
<title>node12895&#45;&gt;node12892</title>
<path fill="none" stroke="#000000" d="M205,-525.7616C205,-525.7616 205,-486.2121 205,-486.2121"/>
<polygon fill="#000000" stroke="#000000" points="208.5001,-486.2121 205,-476.2121 201.5001,-486.2121 208.5001,-486.2121"/>
</g>
<!-- node12896 -->
<g id="node16" class="node">
<title>node12896</title>
<ellipse fill="#68db75" stroke="#000000" cx="265" cy="-270" rx="27" ry="18"/>
<text text-anchor="middle" x="265" y="-267" font-family="Monospace" font-size="10.00" fill="#000000">leo</text>
</g>
<!-- node12896&#45;&gt;node12891 -->
<g id="edge18" class="edge">
<title>node12896&#45;&gt;node12891</title>
<path fill="none" stroke="#000000" d="M251,-254.3771C251,-233.2013 251,-198 251,-198 251,-198 216.2201,-198 216.2201,-198"/>
<polygon fill="#000000" stroke="#000000" points="216.2201,-194.5001 206.2201,-198 216.2201,-201.5001 216.2201,-194.5001"/>
</g>
<!-- node12896&#45;&gt;node12894 -->
<g id="edge19" class="edge">
<title>node12896&#45;&gt;node12894</title>
<path fill="none" stroke="#000000" d="M278,-254.0209C278,-254.0209 278,-223.9345 278,-223.9345"/>
<polygon fill="#000000" stroke="#000000" points="281.5001,-223.9344 278,-213.9345 274.5001,-223.9345 281.5001,-223.9344"/>
</g>
<!-- node12897&#45;&gt;node12882 -->
<!-- node12897&#45;&gt;node12896 -->
<g id="edge21" class="edge">
<title>node12897&#45;&gt;node12896</title>
<path fill="none" stroke="#000000" d="M265,-367.875C265,-367.875 265,-298.3805 265,-298.3805"/>
<polygon fill="#000000" stroke="#000000" points="268.5001,-298.3805 265,-288.3805 261.5001,-298.3806 268.5001,-298.3805"/>
</g>
<!-- node12898&#45;&gt;node12882 -->
<g id="edge22" class="edge">
<title>node12898&#45;&gt;node12882</title>
<path fill="none" stroke="#ff0000" d="M489,-439.8538C489,-360.5064 489,-48 489,-48 489,-48 324.4907,-48 324.4907,-48"/>
<polygon fill="#ff0000" stroke="#ff0000" points="324.4908,-44.5001 314.4907,-48 324.4907,-51.5001 324.4908,-44.5001"/>
</g>
</g>
</svg>
