<?xml version="1.0" encoding="UTF-8"?><svg xmlns="http://www.w3.org/2000/svg" xmlns:xlink="http://www.w3.org/1999/xlink" width="546pt" height="242pt" viewBox="0.00 0.00 545.80 241.80">
<g id="graph0" class="graph" transform="scale(1 1) rotate(0) translate(14.4 227.4)">
<title>%3</title>
<polygon fill="#ffffff" stroke="transparent" points="-14.4,14.4 -14.4,-227.4 531.4,-227.4 531.4,14.4 -14.4,14.4"/>
<g id="clust1" class="cluster">
<title>cluster12519</title>
<polygon fill="#fdfdff" stroke="#49c1e5" points="8,-205 8,-11 509,-11 509,-205 8,-205"/>
<text text-anchor="start" x="18" y="-187" font-family="sans-serif" font-size="14.00" fill="#000000">cDiagram</text>
</g>
<g id="clust2" class="cluster">
<title>cluster12520</title>
<polygon fill="#fdfdff" stroke="#49c1e5" points="260,-100 260,-11 340,-11 340,-100 260,-100"/>
<text text-anchor="start" x="270" y="-82" font-family="sans-serif" font-size="14.00" fill="#000000">cA</text>
</g>
<g id="clust3" class="cluster">
<title>cluster12521</title>
<polygon fill="#fdfdff" stroke="#49c1e5" points="8,-98 8,-11 86,-11 86,-98 8,-98"/>
<text text-anchor="start" x="18" y="-80" font-family="sans-serif" font-size="14.00" fill="#000000">cG</text>
</g>
<g id="clust4" class="cluster">
<title>cluster12522</title>
<polygon fill="#fdfdff" stroke="#49c1e5" points="340,-100 340,-11 427,-11 427,-100 340,-100"/>
<text text-anchor="start" x="350" y="-82" font-family="sans-serif" font-size="14.00" fill="#000000">cE</text>
</g>
<g id="clust5" class="cluster">
<title>cluster12523</title>
<polygon fill="#fdfdff" stroke="#49c1e5" points="148,-175 148,-100 509,-100 509,-175 148,-175"/>
<text text-anchor="start" x="158" y="-157" font-family="sans-serif" font-size="14.00" fill="#000000">c0</text>
</g>
<g id="clust6" class="cluster">
<title>cluster12524</title>
<polygon fill="#fdfdff" stroke="#49c1e5" points="8,-175 8,-98 148,-98 148,-175 8,-175"/>
<text text-anchor="start" x="18" y="-157" font-family="sans-serif" font-size="14.00" fill="#000000">cF</text>
</g>
<g id="clust7" class="cluster">
<title>cluster12525</title>
<polygon fill="#fdfdff" stroke="#49c1e5" points="86,-98 86,-11 174,-11 174,-98 86,-98"/>
<text text-anchor="start" x="96" y="-80" font-family="sans-serif" font-size="14.00" fill="#000000">cB</text>
</g>
<g id="clust8" class="cluster">
<title>cluster12526</title>
<polygon fill="#fdfdff" stroke="#49c1e5" points="174,-100 174,-11 260,-11 260,-100 174,-100"/>
<text text-anchor="start" x="184" y="-82" font-family="sans-serif" font-size="14.00" fill="#000000">cD</text>
</g>
<g id="clust9" class="cluster">
<title>cluster12527</title>
<polygon fill="#fdfdff" stroke="#49c1e5" points="427,-100 427,-11 509,-11 509,-100 427,-100"/>
<text text-anchor="start" x="437" y="-82" font-family="sans-serif" font-size="14.00" fill="#000000">cC</text>
</g>

<g id="node1" class="node">
<title>node12511</title>
<g id="a_node1"><a xlink:title="application: 
id: " target="_blank">
<polygon fill="#d7b66b" stroke="#000000" points="493,-63 439,-63 439,-27 493,-27 493,-63"/>
<text text-anchor="middle" x="466" y="-42" font-family="sans-serif" font-size="10.00" fill="#000000">n2</text>
</a>
</g>
</g>

<g id="node2" class="node">
<title>node12512</title>
<g id="a_node2"><a xlink:title="application: 
id: " target="_blank">
<polygon fill="#7b9795" stroke="#000000" points="78,-145 24,-145 24,-109 78,-109 78,-145"/>
<text text-anchor="middle" x="51" y="-124" font-family="sans-serif" font-size="10.00" fill="#000000">n4</text>
</a>
</g>
</g>

<g id="edge1" class="edge">
<title>node12511-&gt;node12512</title>
<path fill="none" stroke="#000000" d="M475,-63.0449C475,-70.749 475,-78 475,-78 475,-78 60,-78 60,-78 60,-78 60,-98.7542 60,-98.7542"/>
<polygon fill="#000000" stroke="#000000" points="56.5001,-98.7542 60,-108.7542 63.5001,-98.7542 56.5001,-98.7542"/>
</g>

<g id="node4" class="node">
<title>node12514</title>
<g id="a_node4"><a xlink:title="application: 
id: " target="_blank">
<polygon fill="#dab07e" stroke="#000000" points="78,-63 24,-63 24,-27 78,-27 78,-63"/>
<text text-anchor="middle" x="51" y="-42" font-family="sans-serif" font-size="10.00" fill="#000000">n6</text>
</a>
</g>
</g>

<g id="edge2" class="edge">
<title>node12512-&gt;node12514</title>
<path fill="none" stroke="#cd1076" stroke-width="4" d="M42,-108.8015C42,-108.8015 42,-73.1476 42,-73.1476"/>
<polygon fill="#cd1076" stroke="#cd1076" stroke-width="4" points="45.5001,-73.1476 42,-63.1476 38.5001,-73.1476 45.5001,-73.1476"/>
</g>

<g id="node3" class="node">
<title>node12513</title>
<g id="a_node3"><a xlink:title="application: 
id: " target="_blank">
<polygon fill="#84ea78" stroke="#000000" points="161,-63 107,-63 107,-27 161,-27 161,-63"/>
<text text-anchor="middle" x="134" y="-42" font-family="sans-serif" font-size="10.00" fill="#000000">n1</text>
</a>
</g>
</g>

<g id="edge3" class="edge">
<title>node12513-&gt;node12512</title>
<path fill="none" stroke="#000000" d="M125,-63.0267C125,-83.7672 125,-115 125,-115 125,-115 88.1347,-115 88.1347,-115"/>
<polygon fill="#000000" stroke="#000000" points="88.1347,-111.5001 78.1347,-115 88.1346,-118.5001 88.1347,-111.5001"/>
</g>

<g id="node5" class="node">
<title>node12515</title>
<g id="a_node5"><a xlink:title="application: 
id: " target="_blank">
<polygon fill="#cd849c" stroke="#000000" points="410,-63 356,-63 356,-27 410,-27 410,-63"/>
<text text-anchor="middle" x="383" y="-42" font-family="sans-serif" font-size="10.00" fill="#000000">n7</text>
</a>
</g>
</g>

<g id="edge4" class="edge">
<title>node12515-&gt;node12514</title>
<path fill="none" stroke="#000000" d="M383,-26.9561C383,-14.4367 383,0 383,0 383,0 42,0 42,0 42,0 42,-16.9561 42,-16.9561"/>
<polygon fill="#000000" stroke="#000000" points="38.5001,-16.956 42,-26.9561 45.5001,-16.9561 38.5001,-16.956"/>
</g>

<g id="node6" class="node">
<title>node12516</title>
<g id="a_node6"><a xlink:title="application: 
id: " target="_blank">
<polygon fill="#608e5e" stroke="#000000" points="244,-63 190,-63 190,-27 244,-27 244,-63"/>
<text text-anchor="middle" x="217" y="-42" font-family="sans-serif" font-size="10.00" fill="#000000">n3</text>
</a>
</g>
</g>

<g id="edge5" class="edge">
<title>node12516-&gt;node12512</title>
<path fill="none" stroke="#000000" d="M208,-63.2337C208,-89.0094 208,-133 208,-133 208,-133 88.3473,-133 88.3473,-133"/>
<polygon fill="#000000" stroke="#000000" points="88.3473,-129.5001 78.3473,-133 88.3473,-136.5001 88.3473,-129.5001"/>
</g>

<g id="edge6" class="edge">
<title>node12516-&gt;node12514</title>
<path fill="none" stroke="#000000" d="M217,-26.5782C217,-17.7209 217,-9 217,-9 217,-9 60,-9 60,-9 60,-9 60,-16.5782 60,-16.5782"/>
<polygon fill="#000000" stroke="#000000" points="56.5001,-16.5781 60,-26.5782 63.5001,-16.5782 56.5001,-16.5781"/>
</g>


<g id="edge7" class="edge">
<title>node12517-&gt;node12511</title>
<path fill="none" stroke="#cd1076" stroke-width="4" d="M327.3473,-133C372.3289,-133 457,-133 457,-133 457,-133 457,-73.2337 457,-73.2337"/>
<polygon fill="#cd1076" stroke="#cd1076" stroke-width="4" points="460.5001,-73.2336 457,-63.2337 453.5001,-73.2337 460.5001,-73.2336"/>
</g>

<g id="edge8" class="edge">
<title>node12517-&gt;node12513</title>
<path fill="none" stroke="#cd1076" stroke-width="4" d="M272.6527,-127C227.6711,-127 143,-127 143,-127 143,-127 143,-73.1985 143,-73.1985"/>
<polygon fill="#cd1076" stroke="#cd1076" stroke-width="4" points="146.5001,-73.1984 143,-63.1985 139.5001,-73.1985 146.5001,-73.1984"/>
</g>

<g id="edge9" class="edge">
<title>node12517-&gt;node12515</title>
<path fill="none" stroke="#cd1076" stroke-width="4" d="M327.1773,-121C351.3836,-121 383,-121 383,-121 383,-121 383,-73.0109 383,-73.0109"/>
<polygon fill="#cd1076" stroke="#cd1076" stroke-width="4" points="386.5001,-73.0109 383,-63.0109 379.5001,-73.011 386.5001,-73.0109"/>
</g>

<g id="edge10" class="edge">
<title>node12517-&gt;node12516</title>
<path fill="none" stroke="#cd1076" stroke-width="4" d="M272.8653,-121C251.7458,-121 226,-121 226,-121 226,-121 226,-73.0109 226,-73.0109"/>
<polygon fill="#cd1076" stroke="#cd1076" stroke-width="4" points="229.5001,-73.0109 226,-63.0109 222.5001,-73.011 229.5001,-73.0109"/>
</g>


<g id="node8" class="node">
<title>node12518</title>
<g id="a_node8"><a xlink:title="application: 
id: " target="_blank">
<polygon fill="#7c92cc" stroke="#000000" points="327,-63 273,-63 273,-27 327,-27 327,-63"/>
<text text-anchor="middle" x="300" y="-42" font-family="sans-serif" font-size="10.00" fill="#000000">n5</text>
</a>
</g>
</g>

<g id="edge12" class="edge">
<title>node12517-&gt;node12518</title>
<path fill="none" stroke="#cd1076" stroke-width="4" d="M291,-108.8015C291,-108.8015 291,-73.1476 291,-73.1476"/>
<polygon fill="#cd1076" stroke="#cd1076" stroke-width="4" points="294.5001,-73.1476 291,-63.1476 287.5001,-73.1476 294.5001,-73.1476"/>
</g>

<g id="edge13" class="edge">
<title>node12518-&gt;node12512</title>
<path fill="none" stroke="#000000" d="M272.55,-51C264.8324,-51 258.5,-51 258.5,-51 258.5,-51 258.5,-139 258.5,-139 258.5,-139 88.127,-139 88.127,-139"/>
<polygon fill="#000000" stroke="#000000" points="88.127,-135.5001 78.127,-139 88.127,-142.5001 88.127,-135.5001"/>
</g>

<g id="edge14" class="edge">
<title>node12518-&gt;node12513</title>
<path fill="none" stroke="#000000" d="M300,-26.8408C300,-21.9567 300,-18 300,-18 300,-18 134,-18 134,-18 134,-18 134,-18.8841 134,-18.8841"/>
<polygon fill="#000000" stroke="#000000" points="130.5001,-16.8408 134,-26.8408 137.5001,-16.8409 130.5001,-16.8408"/>
</g>

<g id="edge15" class="edge">
<title>node12518-&gt;node12516</title>
<path fill="none" stroke="#000000" d="M272.8227,-39C272.8227,-39 254.2384,-39 254.2384,-39"/>
<polygon fill="#000000" stroke="#000000" points="254.2384,-35.5001 244.2384,-39 254.2383,-42.5001 254.2384,-35.5001"/>
</g>
</g>
</svg>