<?xml version="1.0" encoding="UTF-8"?><svg xmlns="http://www.w3.org/2000/svg" xmlns:xlink="http://www.w3.org/1999/xlink" width="811pt" height="994pt" viewBox="0.00 0.00 811.00 994.36">
<g id="graph0" class="graph" transform="scale(1 1) rotate(0) translate(72 922.3571)">
<title>%3</title>
<polygon fill="#ffffff" stroke="transparent" points="-72,72 -72,-922.3571 739,-922.3571 739,72 -72,72"/>
<g id="clust1" class="cluster">
<title>cluster12588</title>
<polygon fill="#b0e2ff" stroke="#000000" points="174,-842 174,-8 659,-8 659,-842 174,-842"/>
<text text-anchor="middle" x="416.5" y="-824" font-family="Helvetica" font-size="14.00" fill="#000000">animals</text>
</g>
<g id="clust2" class="cluster">
<title>cluster12589</title>
<path fill="#cdcdc1" stroke="#000000" d="M 194,-150 l 445,0 c 6 0 12 -6 12 -12 l 0,-638 c 0 -6 -6 -12 -12 -12 l -445,0 c -6 0 -12 6 -12 12 l 0,638 c 0 6 6 12 12 12"/>
<text text-anchor="middle" x="416.5" y="-794" font-family="Helvetica" font-size="14.00" fill="#ff34b3">carnivores</text>
</g>
<g id="clust3" class="cluster">
<title>cluster12590</title>
<path fill="#cdb79e" stroke="#000000" d="M 209,-406 l 415,0 c 6 0 12 -6 12 -12 l 0,-345 c 0 -6 -6 -12 -12 -12 l -415,0 c -6 0 -12 6 -12 12 l 0,345 c 0 6 6 12 12 12"/>
<text text-anchor="middle" x="416.5" y="-757" font-family="Helvetica" font-size="14.00" fill="#8b4513">bears</text>
</g>
<g id="clust4" class="cluster">
<title>cluster12591</title>
<path fill="#fff8dc" stroke="#000000" d="M 328,-421 l 281,0 c 6 0 12 -6 12 -12 l 0,-293 c 0 -6 -6 -12 -12 -12 l -281,0 c -6 0 -12 6 -12 12 l 0,293 c 0 6 6 12 12 12"/>
<text text-anchor="middle" x="468.5" y="-720" font-family="Helvetica" font-size="14.00" fill="#000000">pandas</text>
</g>
<g id="clust5" class="cluster">
<title>cluster12592</title>
<path fill="#98fb98" stroke="#32cd32" d="M 224,-421 l 72,0 c 6 0 12 -6 12 -12 l 0,-293 c 0 -6 -6 -12 -12 -12 l -72,0 c -6 0 -12 6 -12 12 l 0,293 c 0 6 6 12 12 12"/>
<text text-anchor="middle" x="260" y="-720" font-family="Helvetica" font-size="14.00" fill="#8b4513">brownbears</text>
</g>
<g id="clust6" class="cluster">
<title>cluster12593</title>
<path fill="#a3a3a3" stroke="#000000" d="M 470,-209 l 154,0 c 6 0 12 -6 12 -12 l 0,-165 c 0 -6 -6 -12 -12 -12 l -154,0 c -6 0 -12 6 -12 12 l 0,165 c 0 6 6 12 12 12"/>
<text text-anchor="middle" x="547" y="-380" font-family="Helvetica" font-size="14.00" fill="#ffffff">wolves</text>
</g>
<g id="clust7" class="cluster">
<title>cluster12594</title>
<polygon fill="#ee6363" stroke="#000000" points="182,-142 182,-16 651,-16 651,-142 182,-142"/>
<text text-anchor="middle" x="416.5" y="-124" font-family="Helvetica" font-size="14.00" fill="#000000">rodents</text>
</g>
<g id="clust8" class="cluster">
<title>cluster12595</title>
<path fill="#ffc0cb" stroke="#000000" d="M 202,-24 l 429,0 c 6 0 12 -6 12 -12 l 0,-64 c 0 -6 -6 -12 -12 -12 l -429,0 c -6 0 -12 6 -12 12 l 0,64 c 0 6 6 12 12 12"/>
<text text-anchor="middle" x="416.5" y="-94" font-family="Helvetica" font-size="14.00" fill="#000000">squirrels</text>
</g>
<g id="clust9" class="cluster">
<title>cluster12596</title>
<path fill="#90ee90" stroke="#000000" d="M 20,-221 l 134,0 c 6 0 12 -6 12 -12 l 0,-516 c 0 -6 -6 -12 -12 -12 l -134,0 c -6 0 -12 6 -12 12 l 0,516 c 0 6 6 12 12 12"/>
<text text-anchor="middle" x="87" y="-743" font-family="Helvetica" font-size="14.00" fill="#000000">plantae</text>
</g>
<g id="clust10" class="cluster">
<title>cluster12597</title>
<path fill="#98fb98" stroke="#000000" d="M 28,-229 l 118,0 c 6 0 12 -6 12 -12 l 0,-478 c 0 -6 -6 -12 -12 -12 l -118,0 c -6 0 -12 6 -12 12 l 0,478 c 0 6 6 12 12 12"/>
<text text-anchor="middle" x="87" y="-713" font-family="Helvetica" font-size="14.00" fill="#2e8b57">flora</text>
</g>

<g id="node1" class="node">
<title>node12561</title>
<g id="a_node1"><a xlink:title="name: delila
 animal: pandas
 ">
<ellipse fill="#98b56d" stroke="#000000" cx="579" cy="-525.3571" rx="27" ry="18"/>
<text text-anchor="middle" x="579" y="-522.3571" font-family="Helvetica" font-size="10.00" fill="#000000">delila</text>
</a>
</g>
</g>

<g id="node2" class="node">
<title>node12562</title>
<g id="a_node2"><a xlink:title="name: aster
 animal: flora
 ">
<polygon fill="#ffd700" stroke="#000000" points="78,-268.7828 57.3738,-268.7828 51,-288.5368 44.6262,-268.7828 24,-268.7828 40.6869,-256.5742 34.3131,-236.8202 51,-249.0289 67.6869,-236.8202 61.3131,-256.5742 78,-268.7828"/>
<text text-anchor="middle" x="51" y="-259.6785" font-family="Helvetica" font-size="10.00" fill="#000000">aster</text>
</a>
</g>
</g>

<g id="node3" class="node">
<title>node12563</title>
<g id="a_node3"><a xlink:title="name: penguiny
 animal: carnivores
 ">
<ellipse fill="#9da198" stroke="#000000" cx="463" cy="-183" rx="27" ry="18"/>
<text text-anchor="middle" x="463" y="-180" font-family="Helvetica" font-size="10.00" fill="#000000">penguiny</text>
</a>
</g>
</g>

<g id="node5" class="node">
<title>node12565</title>
<g id="a_node5"><a xlink:title="name: huxley
 animal: squirrels
 ">
<ellipse fill="#b4f676" stroke="#000000" cx="543" cy="-57" rx="27" ry="18"/>
<text text-anchor="middle" x="543" y="-54" font-family="Helvetica" font-size="10.00" fill="#000000">huxley</text>
</a>
</g>
</g>


<g id="node4" class="node">
<title>node12564</title>
<g id="a_node4"><a xlink:title="name: sebas-+tian
 animal: wolves
 ">
<ellipse fill="#8a8c72" stroke="#000000" cx="507" cy="-262.6785" rx="27" ry="18"/>
<text text-anchor="middle" x="507" y="-264.6785" font-family="Helvetica" font-size="10.00" fill="#000000">sebas-</text>
<text text-anchor="middle" x="507" y="-254.6785" font-family="Helvetica" font-size="10.00" fill="#000000">tian</text>
</a>
</g>
</g>



<g id="node6" class="node">
<title>node12566</title>
<g id="a_node6"><a xlink:title="name: jasmine
 animal: flora
 ">
<polygon fill="#ffd700" stroke="#000000" points="94,-471.3571 40,-471.3571 40,-435.3571 94,-435.3571 94,-471.3571"/>
<text text-anchor="middle" x="67" y="-450.3571" font-family="Helvetica" font-size="10.00" fill="#000000">jasmine</text>
</a>
</g>
</g>

<g id="node16" class="node">
<title>node12576</title>
<g id="a_node16"><a xlink:title="name: fleur
 animal: flora
 ">
<polygon fill="#ffd700" stroke="#000000" points="94,-360.3571 40,-360.3571 40,-324.3571 94,-324.3571 94,-360.3571"/>
<text text-anchor="middle" x="67" y="-339.3571" font-family="Helvetica" font-size="10.00" fill="#000000">fleur</text>
</a>
</g>
</g>


<g id="node7" class="node">
<title>node12567</title>
<g id="a_node7"><a xlink:title="name: nikkai
 animal: pandas
 ">
<polygon fill="#8b7500" stroke="#000000" points="579,-701.3571 552,-674.3571 606,-674.3571 579,-701.3571"/>
<text text-anchor="middle" x="579" y="-680.3571" font-family="Helvetica" font-size="10.00" fill="#000000">nikkai</text>
</a>
</g>
</g>

<g id="node18" class="node">
<title>node12578</title>
<g id="a_node18"><a xlink:title="name: isobel
 animal: pandas
 ">
<ellipse fill="#d0c3ce" stroke="#000000" cx="579" cy="-597.3571" rx="27" ry="18"/>
<text text-anchor="middle" x="579" y="-594.3571" font-family="Helvetica" font-size="10.00" fill="#000000">isobel</text>
</a>
</g>
</g>

<g id="edge5" class="edge">
<title>node12567-&gt;node12578</title>
<path fill="none" stroke="#000000" d="M579,-674.1535C579,-674.1535 579,-625.4707 579,-625.4707"/>
<polygon fill="#000000" stroke="#000000" points="582.5001,-625.4706 579,-615.4707 575.5001,-625.4707 582.5001,-625.4706"/>
</g>

<g id="node8" class="node">
<title>node12568</title>
<g id="a_node8"><a xlink:title="name: angel-+ique
 animal: wolves
 ">
<ellipse fill="#dae79a" stroke="#000000" cx="579" cy="-262.6785" rx="27" ry="18"/>
<text text-anchor="middle" x="579" y="-264.6785" font-family="Helvetica" font-size="10.00" fill="#000000">angel-</text>
<text text-anchor="middle" x="579" y="-254.6785" font-family="Helvetica" font-size="10.00" fill="#000000">ique</text>
</a>
</g>
</g>


<g id="node23" class="node">
<title>node12583</title>
<g id="a_node23"><a xlink:title="name: lily
 animal: flora
 ">
<polygon fill="#ffd700" stroke="#000000" points="94,-543.3571 40,-543.3571 40,-507.3571 94,-507.3571 94,-543.3571"/>
<text text-anchor="middle" x="67" y="-522.3571" font-family="Helvetica" font-size="10.00" fill="#000000">lily</text>
</a>
</g>
</g>

<g id="edge7" class="edge">
<title>node12568-&gt;node12583</title>
<path fill="none" stroke="transparent" stroke-dasharray="1,5" d="M588,-279.6894C588,-332.3231 588,-489 588,-489 588,-489 76,-489 76,-489 76,-489 76,-497.1785 76,-497.1785"/>
<polygon fill="transparent" stroke="transparent" points="72.5001,-497.1785 76,-507.1785 79.5001,-497.1786 72.5001,-497.1785"/>
<path fill="#c731ed" stroke="transparent" d="M73.5,-493.6785C73.5,-493.6785 78.5,-493.6785 78.5,-493.6785 81,-493.6785 83.5,-496.1785 83.5,-498.6785 83.5,-498.6785 83.5,-505.6785 83.5,-505.6785 83.5,-508.1785 81,-510.6785 78.5,-510.6785 78.5,-510.6785 73.5,-510.6785 73.5,-510.6785 71,-510.6785 68.5,-508.1785 68.5,-505.6785 68.5,-505.6785 68.5,-498.6785 68.5,-498.6785 68.5,-496.1785 71,-493.6785 73.5,-493.6785"/>
<text text-anchor="start" x="72.7471" y="-498.9785" font-family="Helvetica" font-size="9.00" fill="#000000">1.</text>
<path fill="none" stroke="#ff00ff" d="M73.5,-493.6785C73.5,-493.6785 78.5,-493.6785 78.5,-493.6785 81,-493.6785 83.5,-496.1785 83.5,-498.6785 83.5,-498.6785 83.5,-505.6785 83.5,-505.6785 83.5,-508.1785 81,-510.6785 78.5,-510.6785 78.5,-510.6785 73.5,-510.6785 73.5,-510.6785 71,-510.6785 68.5,-508.1785 68.5,-505.6785 68.5,-505.6785 68.5,-498.6785 68.5,-498.6785 68.5,-496.1785 71,-493.6785 73.5,-493.6785"/>
<path fill="#c731ed" stroke="transparent" d="M585.5,-276.1894C585.5,-276.1894 590.5,-276.1894 590.5,-276.1894 593,-276.1894 595.5,-278.6894 595.5,-281.1894 595.5,-281.1894 595.5,-288.1894 595.5,-288.1894 595.5,-290.6894 593,-293.1894 590.5,-293.1894 590.5,-293.1894 585.5,-293.1894 585.5,-293.1894 583,-293.1894 580.5,-290.6894 580.5,-288.1894 580.5,-288.1894 580.5,-281.1894 580.5,-281.1894 580.5,-278.6894 583,-276.1894 585.5,-276.1894"/>
<text text-anchor="start" x="584.7471" y="-281.4894" font-family="Helvetica" font-size="9.00" fill="#000000">1.</text>
<path fill="none" stroke="#ff00ff" d="M585.5,-276.1894C585.5,-276.1894 590.5,-276.1894 590.5,-276.1894 593,-276.1894 595.5,-278.6894 595.5,-281.1894 595.5,-281.1894 595.5,-288.1894 595.5,-288.1894 595.5,-290.6894 593,-293.1894 590.5,-293.1894 590.5,-293.1894 585.5,-293.1894 585.5,-293.1894 583,-293.1894 580.5,-290.6894 580.5,-288.1894 580.5,-288.1894 580.5,-281.1894 580.5,-281.1894 580.5,-278.6894 583,-276.1894 585.5,-276.1894"/>
</g>

<g id="node9" class="node">
<title>node12569</title>
<g id="a_node9"><a xlink:title="name: eliza
 animal: brownbears
 ">
<ellipse fill="#a096ba" stroke="#000000" cx="259" cy="-525.3571" rx="27" ry="18"/>
<text text-anchor="middle" x="259" y="-522.3571" font-family="Helvetica" font-size="10.00" fill="#000000">eliza</text>
</a>
</g>
</g>


<g id="node19" class="node">
<title>node12579</title>
<g id="a_node19"><a xlink:title="name: polaris
 animal: carnivores
 ">
<ellipse fill="#b0bfbc" stroke="#000000" cx="423" cy="-262.6785" rx="27" ry="18"/>
<text text-anchor="middle" x="423" y="-259.6785" font-family="Helvetica" font-size="10.00" fill="#000000">polaris</text>
</a>
</g>
</g>

<g id="edge9" class="edge">
<title>node12569-&gt;node12579</title>
<path fill="none" stroke="#000000" d="M268,-508.0775C268,-449.4876 268,-262 268,-262 268,-262 386.0011,-262 386.0011,-262"/>
<polygon fill="#000000" stroke="#000000" points="386.0011,-265.5001 396.0011,-262 386.001,-258.5001 386.0011,-265.5001"/>
</g>

<g id="node10" class="node">
<title>node12570</title>
<g id="a_node10"><a xlink:title="name: malakai
 animal: pandas
 ">
<ellipse fill="#aac381" stroke="#000000" cx="507" cy="-597.3571" rx="27" ry="18"/>
<text text-anchor="middle" x="507" y="-594.3571" font-family="Helvetica" font-size="10.00" fill="#000000">malakai</text>
</a>
</g>
</g>

<g id="edge10" class="edge">
<title>node12570-&gt;node12561</title>
<path fill="none" stroke="#000000" d="M534.2388,-597C541.5649,-597 547.5,-597 547.5,-597 547.5,-597 547.5,-531 547.5,-531 547.5,-531 548.0778,-531 548.0778,-531"/>
<polygon fill="#000000" stroke="#000000" points="543.2777,-534.5002 553.2776,-531 543.2775,-527.5002 543.2777,-534.5002"/>
</g>

<g id="node27" class="node">
<title>node12587</title>
<g id="a_node27"><a xlink:title="name: ivy
 animal: pandas
 ">
<ellipse fill="#c1c2bb" stroke="#000000" cx="507" cy="-525.3571" rx="27" ry="18"/>
<text text-anchor="middle" x="507" y="-522.3571" font-family="Helvetica" font-size="10.00" fill="#000000">ivy</text>
</a>
</g>
</g>

<g id="edge11" class="edge">
<title>node12570-&gt;node12587</title>
<path fill="none" stroke="#000000" d="M507,-579.1884C507,-579.1884 507,-553.7703 507,-553.7703"/>
<polygon fill="#000000" stroke="#000000" points="510.5001,-553.7703 507,-543.7703 503.5001,-553.7704 510.5001,-553.7703"/>
</g>

<g id="node11" class="node">
<title>node12571</title>
<g id="a_node11"><a xlink:title="name: max
 animal: pandas
 ">
<ellipse fill="#65e3cd" stroke="#000000" cx="435" cy="-525.3571" rx="27" ry="18"/>
<text text-anchor="middle" x="435" y="-522.3571" font-family="Helvetica" font-size="10.00" fill="#000000">max</text>
</a>
</g>
</g>

<g id="node12" class="node">
<title>node12572</title>
<g id="a_node12"><a xlink:title="name: Bridget
 animal: pandas
 ">
<ellipse fill="#7fffd4" stroke="#000000" cx="507" cy="-453.3571" rx="27" ry="18"/>
<text text-anchor="middle" x="507" y="-450.3571" font-family="Helvetica" font-size="10.00" fill="#000000">Bridget</text>
</a>
</g>
</g>

<g id="edge12" class="edge">
<title>node12571-&gt;node12572</title>
<path fill="none" stroke="#0000ff" d="M456,-513.7316C456,-493.278 456,-453 456,-453 456,-453 469.7083,-453 469.7083,-453"/>
<polygon fill="#0000ff" stroke="#0000ff" points="469.7084,-456.5001 479.7083,-453 469.7083,-449.5001 469.7084,-456.5001"/>
</g>


<g id="node24" class="node">
<title>node12584</title>
<g id="a_node24"><a xlink:title="name: leo
 animal: wolves
 ">
<ellipse fill="#7bf17c" stroke="#000000" cx="507" cy="-342.3571" rx="27" ry="18"/>
<text text-anchor="middle" x="507" y="-339.3571" font-family="Helvetica" font-size="10.00" fill="#000000">leo</text>
</a>
</g>
</g>


<g id="node13" class="node">
<title>node12573</title>
<g id="a_node13"><a xlink:title="name: simone
 animal: pandas
 ">
<ellipse fill="#adf6da" stroke="#000000" cx="435" cy="-597.3571" rx="27" ry="18"/>
<text text-anchor="middle" x="435" y="-594.3571" font-family="Helvetica" font-size="10.00" fill="#000000">simone</text>
</a>
</g>
</g>

<g id="edge15" class="edge">
<title>node12573-&gt;node12571</title>
<path fill="none" stroke="#000000" d="M435,-579.1884C435,-579.1884 435,-553.7703 435,-553.7703"/>
<polygon fill="#000000" stroke="#000000" points="438.5001,-553.7703 435,-543.7703 431.5001,-553.7704 438.5001,-553.7703"/>
</g>

<g id="node26" class="node">
<title>node12586</title>
<g id="a_node26"><a xlink:title="name: summer
 animal: pandas
 ">
<ellipse fill="#c391b6" stroke="#000000" cx="363" cy="-525.3571" rx="27" ry="18"/>
<text text-anchor="middle" x="363" y="-522.3571" font-family="Helvetica" font-size="10.00" fill="#000000">summer</text>
</a>
</g>
</g>

<g id="edge16" class="edge">
<title>node12573-&gt;node12586</title>
<path fill="none" stroke="#00ee00" d="M409.6859,-591C406.3178,-591 404,-591 404,-591 404,-591 404,-525 404,-525 404,-525 400.1193,-525 400.1193,-525"/>
<polygon fill="#00ee00" stroke="#00ee00" points="400.1193,-521.5001 390.1193,-525 400.1192,-528.5001 400.1193,-521.5001"/>
</g>

<g id="edge17" class="edge">
<title>node12573-&gt;node12587</title>
<path fill="none" stroke="#00ee00" d="M462.2854,-597C467.3064,-597 471,-597 471,-597 471,-597 471,-525 471,-525 471,-525 471.8715,-525 471.8715,-525"/>
<polygon fill="#00ee00" stroke="#00ee00" points="469.7146,-528.5001 479.7146,-525 469.7146,-521.5001 469.7146,-528.5001"/>
</g>

<g id="node14" class="node">
<title>node12574</title>
<g id="a_node14"><a xlink:title="name: cosmo
 animal: brownbears
 ">
<polygon fill="#d49fb8" stroke="#000000" points="286,-593.3517 280.6523,-608.5799 259,-615.3571 237.3477,-608.5799 232,-593.3517 246.9839,-581.1396 271.0161,-581.1396 286,-593.3517"/>
<text text-anchor="middle" x="259" y="-594.3571" font-family="Helvetica" font-size="10.00" fill="#000000">cosmo</text>
</a>
</g>
</g>

<g id="edge18" class="edge">
<title>node12574-&gt;node12569</title>
<path fill="none" stroke="#ff1493" d="M259,-581.0191C259,-581.0191 259,-553.3994 259,-553.3994"/>
<polygon fill="#ff1493" stroke="#ff1493" points="262.5001,-553.3994 259,-543.3994 255.5001,-553.3994 262.5001,-553.3994"/>
</g>

<g id="node15" class="node">
<title>node12575</title>
<g id="a_node15"><a xlink:title="name: sharhar
 animal: pandas
 ">
<polygon fill="#0000ff" stroke="#000000" points="390,-615.3571 336,-615.3571 336,-579.3571 390,-579.3571 390,-615.3571"/>
<text text-anchor="middle" x="363" y="-594.3571" font-family="Helvetica" font-size="10.00" fill="#ffffff">sharhar</text>
</a>
</g>
</g>

<g id="edge19" class="edge">
<title>node12575-&gt;node12586</title>
<path fill="none" stroke="#000000" d="M363,-579.1884C363,-579.1884 363,-553.7703 363,-553.7703"/>
<polygon fill="#000000" stroke="#000000" points="366.5001,-553.7703 363,-543.7703 359.5001,-553.7704 366.5001,-553.7703"/>
</g>

<g id="edge20" class="edge">
<title>node12576-&gt;node12562</title>
<path fill="none" stroke="#000000" stroke-dasharray="1,5" d="M59,-324.2768C59,-324.2768 59,-278.9974 59,-278.9974"/>
<polygon fill="#c0c0c0" stroke="#000000" points="62.5001,-278.9973 59,-268.9974 55.5001,-278.9974 62.5001,-278.9973"/>
</g>

<g id="node17" class="node">
<title>node12577</title>
<g id="a_node17"><a xlink:title="name: alyssa
 animal: flora
 ">
<polygon fill="#ffd700" stroke="#000000" points="150,-280.6785 96,-280.6785 96,-244.6785 150,-244.6785 150,-280.6785"/>
<text text-anchor="middle" x="123" y="-259.6785" font-family="Helvetica" font-size="10.00" fill="#000000">alyssa</text>
</a>
</g>
</g>

<g id="edge21" class="edge">
<title>node12576-&gt;node12577</title>
<path fill="none" stroke="#eeb422" stroke-dasharray="5,2" d="M86,-324.1228C86,-300.4141 86,-262 86,-262 86,-262 86.9721,-262 86.9721,-262"/>
<polygon fill="#eee8aa" stroke="#eeb422" points="85.7214,-265.5001 95.7213,-262 85.7213,-258.5001 85.7214,-265.5001"/>
</g>

<g id="edge22" class="edge">
<title>node12579-&gt;node12563</title>
<path fill="none" stroke="#000000" d="M443,-250.5771C443,-250.5771 443,-205.2153 443,-205.2153"/>
<polygon fill="#000000" stroke="#000000" points="446.5001,-205.2153 443,-195.2153 439.5001,-205.2154 446.5001,-205.2153"/>
</g>

<g id="node20" class="node">
<title>node12580</title>
<g id="a_node20"><a xlink:title="name: rose
 animal: flora
 ">
<polygon fill="#ffd700" stroke="#000000" points="94,-615.3571 40,-615.3571 40,-579.3571 94,-579.3571 94,-615.3571"/>
<text text-anchor="middle" x="67" y="-594.3571" font-family="Helvetica" font-size="10.00" fill="#000000">rose</text>
</a>
</g>
</g>


<g id="node21" class="node">
<title>node12581</title>
<g id="a_node21"><a xlink:title="name: cristo-+lene
 animal: pandas
 ">
<ellipse fill="#68bba1" stroke="#000000" cx="435" cy="-683.3571" rx="27" ry="18"/>
<text text-anchor="middle" x="435" y="-685.3571" font-family="Helvetica" font-size="10.00" fill="#000000">cristo-</text>
<text text-anchor="middle" x="435" y="-675.3571" font-family="Helvetica" font-size="10.00" fill="#000000">lene</text>
</a>
</g>
</g>

<g id="edge24" class="edge">
<title>node12581-&gt;node12575</title>
<path fill="none" stroke="#000000" d="M407.7676,-683C403.2492,-683 400,-683 400,-683 400,-683 400,-603 400,-603 400,-603 399.0279,-603 399.0279,-603"/>
<polygon fill="#000000" stroke="#000000" points="400.2787,-599.5001 390.2787,-603 400.2786,-606.5001 400.2787,-599.5001"/>
</g>

<g id="node22" class="node">
<title>node12582</title>
<g id="a_node22"><a xlink:title="name: kacey
 animal: pandas
 ">
<ellipse fill="#d89a69" stroke="#000000" cx="363" cy="-683.3571" rx="27" ry="18"/>
<text text-anchor="middle" x="363" y="-680.3571" font-family="Helvetica" font-size="10.00" fill="#000000">kacey</text>
</a>
</g>
</g>

<g id="edge25" class="edge">
<title>node12582-&gt;node12574</title>
<path fill="none" stroke="#ff1493" d="M335.9467,-683C305.132,-683 259,-683 259,-683 259,-683 259,-625.5197 259,-625.5197"/>
<polygon fill="#ff1493" stroke="#ff1493" points="262.5001,-625.5197 259,-615.5197 255.5001,-625.5198 262.5001,-625.5197"/>
</g>

<g id="edge26" class="edge">
<title>node12582-&gt;node12575</title>
<path fill="none" stroke="#000000" d="M363,-665.1187C363,-665.1187 363,-625.5691 363,-625.5691"/>
<polygon fill="#000000" stroke="#000000" points="366.5001,-625.5691 363,-615.5691 359.5001,-625.5692 366.5001,-625.5691"/>
</g>

<g id="edge27" class="edge">
<title>node12583-&gt;node12566</title>
<path fill="none" stroke="#000000" d="M58,-507.1884C58,-507.1884 58,-495.1703 58,-495.1703"/>
<polygon fill="#000000" stroke="#000000" points="62.55,-471.7703 58.0001,-484.7703 53.45,-471.7703 62.55,-471.7703"/>
<ellipse fill="none" stroke="#000000" cx="58.0001" cy="-489.9703" rx="5.2" ry="5.2"/>
</g>

<g id="edge28" class="edge">
<title>node12584-&gt;node12564</title>
<path fill="none" stroke="#000000" d="M507,-324.2768C507,-324.2768 507,-290.6873 507,-290.6873"/>
<polygon fill="#000000" stroke="#000000" points="510.5001,-290.6872 507,-280.6873 503.5001,-290.6873 510.5001,-290.6872"/>
</g>

<g id="edge29" class="edge">
<title>node12584-&gt;node12568</title>
<path fill="none" stroke="#000000" d="M534.0833,-342C551.1584,-342 570,-342 570,-342 570,-342 570,-289.8901 570,-289.8901"/>
<polygon fill="#000000" stroke="#000000" points="573.5001,-289.8901 570,-279.8901 566.5001,-289.8901 573.5001,-289.8901"/>
</g>

<g id="edge30" class="edge">
<title>node12584-&gt;node12579</title>
<path fill="none" stroke="#000000" d="M481.4599,-336C458.7118,-336 429,-336 429,-336 429,-336 429,-290.4276 429,-290.4276"/>
<polygon fill="#000000" stroke="#000000" points="432.5001,-290.4276 429,-280.4276 425.5001,-290.4276 432.5001,-290.4276"/>
</g>

<g id="node25" class="node">
<title>node12585</title>
<g id="a_node25"><a xlink:title="name: daisy
 animal: flora
 ">
<polygon fill="#ffd700" stroke="#000000" points="94,-701.3571 40,-701.3571 40,-665.3571 94,-665.3571 94,-701.3571"/>
<text text-anchor="middle" x="67" y="-680.3571" font-family="Helvetica" font-size="10.00" fill="#000000">daisy</text>
</a>
</g>
</g>

<g id="edge31" class="edge">
<title>node12585-&gt;node12580</title>
<path fill="none" stroke="#000000" d="M67,-665.1187C67,-665.1187 67,-625.5691 67,-625.5691"/>
<polygon fill="none" stroke="#000000" points="63,-615.5692 71,-615.5691 71.0001,-623.5691 63.0001,-623.5692 63,-615.5692"/>
<polyline fill="none" stroke="#000000" points="67.0001,-623.5691 67.0001,-625.5691 "/>
</g>


<g id="edge33" class="edge">
<title>node12586-&gt;node12584</title>
<path fill="none" stroke="#000000" d="M372,-508.3513C372,-463.9603 372,-348 372,-348 372,-348 471.2898,-348 471.2898,-348"/>
<polygon fill="#000000" stroke="#000000" points="471.2898,-351.5001 481.2898,-348 471.2897,-344.5001 471.2898,-351.5001"/>
</g>

<g id="edge34" class="edge">
<title>node12587-&gt;node12565</title>
<path fill="none" stroke="#ff0000" d="M532.3935,-519C538.3506,-519 543,-519 543,-519 543,-519 543,-85.1109 543,-85.1109"/>
<polygon fill="#ff0000" stroke="#ff0000" points="546.5001,-85.1109 543,-75.1109 539.5001,-85.111 546.5001,-85.1109"/>
</g>
</g>
</svg>