<?xml version="1.0" encoding="UTF-8" standalone="no"?>
<!DOCTYPE svg PUBLIC "-//W3C//DTD SVG 1.1//EN"
 "http://www.w3.org/Graphics/SVG/1.1/DTD/svg11.dtd">
<!-- Generated by graphviz version 2.40.1 (20161225.0304)
 -->
<!-- Title: %3 Pages: 1 -->
<svg width="833pt" height="652pt"
 viewBox="0.00 0.00 833.39 652.00" xmlns="http://www.w3.org/2000/svg" xmlns:xlink="http://www.w3.org/1999/xlink">
<g id="graph0" class="graph" transform="scale(1 1) rotate(0) translate(72 580)">
<title>%3</title>
<polygon fill="#ffffff" stroke="transparent" points="-72,72 -72,-580 761.3906,-580 761.3906,72 -72,72"/>
<g id="clust1" class="cluster">
<title>cluster12994</title>
<path fill="#fff8dc" stroke="#000000" d="M20,-282C20,-282 644,-282 644,-282 650,-282 656,-288 656,-294 656,-294 656,-488 656,-488 656,-494 650,-500 644,-500 644,-500 20,-500 20,-500 14,-500 8,-494 8,-488 8,-488 8,-294 8,-294 8,-288 14,-282 20,-282"/>
<text text-anchor="middle" x="332" y="-484.8" font-family="Monospace" font-size="14.00" fill="#000000">pandas</text>
</g>
<g id="clust5" class="cluster">
<title>cluster13007</title>
<path fill="#ffc0cb" stroke="#000000" d="M312,-8C312,-8 372,-8 372,-8 378,-8 384,-14 384,-20 384,-20 384,-84 384,-84 384,-90 378,-96 372,-96 372,-96 312,-96 312,-96 306,-96 300,-90 300,-84 300,-84 300,-20 300,-20 300,-14 306,-8 312,-8"/>
<text text-anchor="middle" x="342" y="-80.8" font-family="Monospace" font-size="14.00" fill="#000000">squirrels</text>
</g>
<g id="clust6" class="cluster">
<title>cluster13009</title>
<polygon fill="#98fb98" stroke="#32cd32" points="395,-104 395,-274 489,-274 489,-104 395,-104"/>
<text text-anchor="middle" x="442" y="-258.8" font-family="Monospace" font-size="14.00" fill="#000000">brownbears</text>
</g>
<!-- node12995 -->
<g id="node1" class="node">
<title>node12995</title>
<ellipse fill="#61d2c4" stroke="#000000" cx="369" cy="-380" rx="27" ry="18"/>
<text text-anchor="middle" x="369" y="-377" font-family="Monospace" font-size="10.00" fill="#000000">delila</text>
</g>
<!-- node12996 -->
<g id="node2" class="node">
<title>node12996</title>
<ellipse fill="#61d2c4" stroke="#000000" cx="495" cy="-452" rx="27" ry="18"/>
<text text-anchor="middle" x="495" y="-449" font-family="Monospace" font-size="10.00" fill="#000000">cristolene</text>
</g>
<!-- node13002 -->
<g id="node8" class="node">
<title>node13002</title>
<path fill="#0000ff" stroke="#000000" d="M636,-398C636,-398 606,-398 606,-398 600,-398 594,-392 594,-386 594,-386 594,-374 594,-374 594,-368 600,-362 606,-362 606,-362 636,-362 636,-362 642,-362 648,-368 648,-374 648,-374 648,-386 648,-386 648,-392 642,-398 636,-398"/>
<text text-anchor="middle" x="621" y="-377" font-family="Monospace" font-size="10.00" fill="#ffffff">sharhar</text>
</g>
<!-- node12996&#45;&gt;node13002 -->
<g id="edge1" class="edge">
<title>node12996&#45;&gt;node13002</title>
<path fill="none" stroke="#000000" d="M515.5245,-440.2717C534.279,-429.5548 562.4338,-413.4664 584.9384,-400.6066"/>
<polygon fill="#000000" stroke="#000000" points="586.9332,-403.4979 593.8791,-395.4976 583.4602,-397.4202 586.9332,-403.4979"/>
</g>
<!-- node12997 -->
<g id="node3" class="node">
<title>node12997</title>
<ellipse fill="#61d2c4" stroke="#000000" cx="369" cy="-452" rx="27" ry="18"/>
<text text-anchor="middle" x="369" y="-449" font-family="Monospace" font-size="10.00" fill="#000000">nikkai</text>
</g>
<!-- node13003 -->
<g id="node9" class="node">
<title>node13003</title>
<ellipse fill="#61d2c4" stroke="#000000" cx="495" cy="-380" rx="27" ry="18"/>
<text text-anchor="middle" x="495" y="-377" font-family="Monospace" font-size="10.00" fill="#000000">isobel</text>
</g>
<!-- node12997&#45;&gt;node13003 -->
<g id="edge2" class="edge">
<title>node12997&#45;&gt;node13003</title>
<path fill="none" stroke="#000000" d="M389.5245,-440.2717C410.2092,-428.4519 442.3287,-410.0979 465.6909,-396.7481"/>
<polygon fill="#000000" stroke="#000000" points="467.5383,-399.7236 474.4843,-391.7233 464.0653,-393.6459 467.5383,-399.7236"/>
</g>
<!-- node12998 -->
<g id="node4" class="node">
<title>node12998</title>
<ellipse fill="#61d2c4" stroke="#000000" cx="243" cy="-452" rx="27" ry="18"/>
<text text-anchor="middle" x="243" y="-449" font-family="Monospace" font-size="10.00" fill="#000000">malakai</text>
</g>
<!-- node12998&#45;&gt;node12995 -->
<g id="edge4" class="edge">
<title>node12998&#45;&gt;node12995</title>
<path fill="none" stroke="#000000" d="M263.5245,-440.2717C284.2092,-428.4519 316.3287,-410.0979 339.6909,-396.7481"/>
<polygon fill="#000000" stroke="#000000" points="341.5383,-399.7236 348.4843,-391.7233 338.0653,-393.6459 341.5383,-399.7236"/>
</g>
<!-- node13006 -->
<g id="node12" class="node">
<title>node13006</title>
<ellipse fill="#61d2c4" stroke="#000000" cx="243" cy="-380" rx="27" ry="18"/>
<text text-anchor="middle" x="243" y="-377" font-family="Monospace" font-size="10.00" fill="#000000">ivy</text>
</g>
<!-- node12998&#45;&gt;node13006 -->
<g id="edge5" class="edge">
<title>node12998&#45;&gt;node13006</title>
<path fill="none" stroke="#000000" d="M243,-433.8314C243,-426.131 243,-416.9743 243,-408.4166"/>
<polygon fill="#000000" stroke="#000000" points="246.5001,-408.4132 243,-398.4133 239.5001,-408.4133 246.5001,-408.4132"/>
</g>
<!-- node12999 -->
<g id="node5" class="node">
<title>node12999</title>
<ellipse fill="#61d2c4" stroke="#000000" cx="43" cy="-380" rx="27" ry="18"/>
<text text-anchor="middle" x="43" y="-377" font-family="Monospace" font-size="10.00" fill="#000000">max</text>
</g>
<!-- node13000 -->
<g id="node6" class="node">
<title>node13000</title>
<ellipse fill="#61d2c4" stroke="#000000" cx="379" cy="-308" rx="27" ry="18"/>
<text text-anchor="middle" x="379" y="-305" font-family="Monospace" font-size="10.00" fill="#000000">Bridget</text>
</g>
<!-- node12999&#45;&gt;node13000 -->
<g id="edge6" class="edge">
<title>node12999&#45;&gt;node13000</title>
<path fill="none" stroke="#0000ff" d="M68.8856,-374.1786C84.7798,-370.6213 105.5579,-366.0017 124,-362 202.032,-345.068 293.6395,-325.823 343.0378,-315.4975"/>
<polygon fill="#0000ff" stroke="#0000ff" points="343.8451,-318.9045 352.9181,-313.4335 342.4137,-312.0524 343.8451,-318.9045"/>
</g>
<!-- node13011 -->
<g id="node15" class="node">
<title>node13011</title>
<polygon fill="#768572" stroke="#000000" points="469,-209.9946 463.6523,-225.2228 442,-232 420.3477,-225.2228 415,-209.9946 429.9839,-197.7826 454.0161,-197.7826 469,-209.9946"/>
<text text-anchor="middle" x="442" y="-211" font-family="Monospace" font-size="10.00" fill="#000000">cosmo</text>
</g>
<!-- node13000&#45;&gt;node13011 -->
<!-- node13001 -->
<g id="node7" class="node">
<title>node13001</title>
<ellipse fill="#61d2c4" stroke="#000000" cx="117" cy="-452" rx="27" ry="18"/>
<text text-anchor="middle" x="117" y="-449" font-family="Monospace" font-size="10.00" fill="#000000">simone</text>
</g>
<!-- node13001&#45;&gt;node12999 -->
<g id="edge8" class="edge">
<title>node13001&#45;&gt;node12999</title>
<path fill="none" stroke="#000000" d="M101.6672,-437.0816C91.249,-426.945 77.2922,-413.3654 65.6053,-401.9944"/>
<polygon fill="#000000" stroke="#000000" points="67.9212,-399.3644 58.3132,-394.8993 63.0397,-404.3815 67.9212,-399.3644"/>
</g>
<!-- node13005 -->
<g id="node11" class="node">
<title>node13005</title>
<ellipse fill="#61d2c4" stroke="#000000" cx="505" cy="-308" rx="27" ry="18"/>
<text text-anchor="middle" x="505" y="-305" font-family="Monospace" font-size="10.00" fill="#000000">summer</text>
</g>
<!-- node13001&#45;&gt;node13005 -->
<g id="edge9" class="edge">
<title>node13001&#45;&gt;node13005</title>
<path fill="none" stroke="#00ee00" d="M124.0186,-434.4453C133.4074,-413.4455 152.1667,-379.0001 180,-362 280.3082,-300.7335 326.981,-350.2059 442,-326 451.4825,-324.0044 461.6302,-321.3437 470.9505,-318.6816"/>
<polygon fill="#00ee00" stroke="#00ee00" points="472.0622,-322.003 480.6685,-315.8238 470.0872,-315.2874 472.0622,-322.003"/>
</g>
<!-- node13001&#45;&gt;node13006 -->
<g id="edge10" class="edge">
<title>node13001&#45;&gt;node13006</title>
<path fill="none" stroke="#00ee00" d="M137.5245,-440.2717C158.2092,-428.4519 190.3287,-410.0979 213.6909,-396.7481"/>
<polygon fill="#00ee00" stroke="#00ee00" points="215.5383,-399.7236 222.4843,-391.7233 212.0653,-393.6459 215.5383,-399.7236"/>
</g>
<!-- node13002&#45;&gt;node13005 -->
<g id="edge12" class="edge">
<title>node13002&#45;&gt;node13005</title>
<path fill="none" stroke="#000000" d="M593.8032,-363.1192C575.618,-351.8318 551.7414,-337.0119 533.3267,-325.5821"/>
<polygon fill="#000000" stroke="#000000" points="535.1166,-322.5737 524.7743,-320.2737 531.425,-328.5212 535.1166,-322.5737"/>
</g>
<!-- node13004 -->
<g id="node10" class="node">
<title>node13004</title>
<ellipse fill="#61d2c4" stroke="#000000" cx="621" cy="-452" rx="27" ry="18"/>
<text text-anchor="middle" x="621" y="-449" font-family="Monospace" font-size="10.00" fill="#000000">kacey</text>
</g>
<!-- node13004&#45;&gt;node13002 -->
<g id="edge14" class="edge">
<title>node13004&#45;&gt;node13002</title>
<path fill="none" stroke="#000000" d="M621,-433.8314C621,-426.131 621,-416.9743 621,-408.4166"/>
<polygon fill="#000000" stroke="#000000" points="624.5001,-408.4132 621,-398.4133 617.5001,-408.4133 624.5001,-408.4132"/>
</g>
<!-- node13004&#45;&gt;node13011 -->
<g id="edge13" class="edge">
<title>node13004&#45;&gt;node13011</title>
<path fill="none" stroke="#ff1493" d="M642.2676,-440.4681C657.0035,-431.1664 675.4524,-416.5844 684,-398 690.6857,-383.4638 691.4384,-376.1658 684,-362 641.1076,-280.3154 531.395,-238.9259 475.6297,-222.6002"/>
<polygon fill="#ff1493" stroke="#ff1493" points="476.4483,-219.1945 465.8731,-219.8394 474.5423,-225.93 476.4483,-219.1945"/>
</g>
<!-- node13005&#45;&gt;node13011 -->
<!-- node13008 -->
<g id="node13" class="node">
<title>node13008</title>
<ellipse fill="#acf5ab" stroke="#000000" cx="342" cy="-41" rx="27" ry="18"/>
<text text-anchor="middle" x="342" y="-38" font-family="Monospace" font-size="10.00" fill="#000000">huxley</text>
</g>
<!-- node13006&#45;&gt;node13008 -->
<g id="edge16" class="edge">
<title>node13006&#45;&gt;node13008</title>
<path fill="none" stroke="#ff0000" d="M248.1833,-362.2512C264.3844,-306.7747 314.1601,-136.3305 333.8556,-68.8884"/>
<polygon fill="#ff0000" stroke="#ff0000" points="337.3049,-69.5623 336.7486,-58.9821 330.5856,-67.6 337.3049,-69.5623"/>
</g>
<!-- node13010 -->
<g id="node14" class="node">
<title>node13010</title>
<ellipse fill="#768572" stroke="#000000" cx="442" cy="-142" rx="27" ry="18"/>
<text text-anchor="middle" x="442" y="-139" font-family="Monospace" font-size="10.00" fill="#000000">eliza</text>
</g>
<!-- node13010&#45;&gt;node13008 -->
<!-- node13011&#45;&gt;node13010 -->
<g id="edge11" class="edge">
<title>node13011&#45;&gt;node13010</title>
<path fill="none" stroke="#ff1493" d="M442,-197.6621C442,-189.5229 442,-179.4494 442,-170.1187"/>
<polygon fill="#ff1493" stroke="#ff1493" points="445.5001,-170.0423 442,-160.0423 438.5001,-170.0424 445.5001,-170.0423"/>
</g>
</g>
</svg>
