<?xml version="1.0" encoding="UTF-8" standalone="no"?>
<!DOCTYPE svg PUBLIC "-//W3C//DTD SVG 1.1//EN"
 "http://www.w3.org/Graphics/SVG/1.1/DTD/svg11.dtd">
<!-- Generated by graphviz version 2.40.1 (20161225.0304)
 -->
<!-- Title: %3 Pages: 1 -->
<svg width="811pt" height="930pt"
 viewBox="0.00 0.00 811.00 929.68" xmlns="http://www.w3.org/2000/svg" xmlns:xlink="http://www.w3.org/1999/xlink">
<g id="graph0" class="graph" transform="scale(1 1) rotate(0) translate(72 857.6785)">
<title>%3</title>
<polygon fill="#ffffff" stroke="transparent" points="-72,72 -72,-857.6785 739,-857.6785 739,72 -72,72"/>
<g id="clust1" class="cluster">
<title>cluster9774</title>
<polygon fill="#b0e2ff" stroke="#000000" points="174,-8 174,-777.6785 659,-777.6785 659,-8 174,-8"/>
<text text-anchor="middle" x="416.5" y="-762.4785" font-family="Monospace" font-size="14.00" fill="#000000">animals</text>
</g>
<g id="clust2" class="cluster">
<title>cluster9775</title>
<path fill="#cdcdc1" stroke="#000000" d="M194,-150C194,-150 639,-150 639,-150 645,-150 651,-156 651,-162 651,-162 651,-735.6785 651,-735.6785 651,-741.6785 645,-747.6785 639,-747.6785 639,-747.6785 194,-747.6785 194,-747.6785 188,-747.6785 182,-741.6785 182,-735.6785 182,-735.6785 182,-162 182,-162 182,-156 188,-150 194,-150"/>
<text text-anchor="middle" x="416.5" y="-732.4785" font-family="Monospace" font-size="14.00" fill="#ff34b3">carnivores</text>
</g>
<g id="clust3" class="cluster">
<title>cluster9776</title>
<path fill="#cdb79e" stroke="#000000" d="M209,-340.6785C209,-340.6785 624,-340.6785 624,-340.6785 630,-340.6785 636,-346.6785 636,-352.6785 636,-352.6785 636,-698.6785 636,-698.6785 636,-704.6785 630,-710.6785 624,-710.6785 624,-710.6785 209,-710.6785 209,-710.6785 203,-710.6785 197,-704.6785 197,-698.6785 197,-698.6785 197,-352.6785 197,-352.6785 197,-346.6785 203,-340.6785 209,-340.6785"/>
<text text-anchor="middle" x="416.5" y="-695.4785" font-family="Monospace" font-size="14.00" fill="#8b4513">bears</text>
</g>
<g id="clust4" class="cluster">
<title>cluster9777</title>
<path fill="#fff8dc" stroke="#000000" d="M224,-355.6785C224,-355.6785 500,-355.6785 500,-355.6785 506,-355.6785 512,-361.6785 512,-367.6785 512,-367.6785 512,-661.6785 512,-661.6785 512,-667.6785 506,-673.6785 500,-673.6785 500,-673.6785 224,-673.6785 224,-673.6785 218,-673.6785 212,-667.6785 212,-661.6785 212,-661.6785 212,-367.6785 212,-367.6785 212,-361.6785 218,-355.6785 224,-355.6785"/>
<text text-anchor="middle" x="362" y="-658.4785" font-family="Monospace" font-size="14.00" fill="#000000">pandas</text>
</g>
<g id="clust5" class="cluster">
<title>cluster9778</title>
<path fill="#98fb98" stroke="#32cd32" d="M539,-422.6785C539,-422.6785 609,-422.6785 609,-422.6785 615,-422.6785 621,-428.6785 621,-434.6785 621,-434.6785 621,-580.6785 621,-580.6785 621,-586.6785 615,-592.6785 609,-592.6785 609,-592.6785 539,-592.6785 539,-592.6785 533,-592.6785 527,-586.6785 527,-580.6785 527,-580.6785 527,-434.6785 527,-434.6785 527,-428.6785 533,-422.6785 539,-422.6785"/>
<text text-anchor="middle" x="574" y="-577.4785" font-family="Monospace" font-size="14.00" fill="#8b4513">brownbears</text>
</g>
<g id="clust6" class="cluster">
<title>cluster9779</title>
<path fill="#a3a3a3" stroke="#000000" d="M238,-165C238,-165 370,-165 370,-165 376,-165 382,-171 382,-177 382,-177 382,-320.6785 382,-320.6785 382,-326.6785 376,-332.6785 370,-332.6785 370,-332.6785 238,-332.6785 238,-332.6785 232,-332.6785 226,-326.6785 226,-320.6785 226,-320.6785 226,-177 226,-177 226,-171 232,-165 238,-165"/>
<text text-anchor="middle" x="304" y="-317.4785" font-family="Monospace" font-size="14.00" fill="#ffffff">wolves</text>
</g>
<g id="clust7" class="cluster">
<title>cluster9780</title>
<polygon fill="#ee6363" stroke="#000000" points="290,-16 290,-142 408,-142 408,-16 290,-16"/>
<text text-anchor="middle" x="349" y="-126.8" font-family="Monospace" font-size="14.00" fill="#000000">rodents</text>
</g>
<g id="clust8" class="cluster">
<title>cluster9781</title>
<path fill="#ffc0cb" stroke="#000000" d="M310,-24C310,-24 388,-24 388,-24 394,-24 400,-30 400,-36 400,-36 400,-100 400,-100 400,-106 394,-112 388,-112 388,-112 310,-112 310,-112 304,-112 298,-106 298,-100 298,-100 298,-36 298,-36 298,-30 304,-24 310,-24"/>
<text text-anchor="middle" x="349" y="-96.8" font-family="Monospace" font-size="14.00" fill="#000000">squirrels</text>
</g>
<g id="clust9" class="cluster">
<title>cluster9782</title>
<path fill="#90ee90" stroke="#000000" d="M20,-156.3215C20,-156.3215 154,-156.3215 154,-156.3215 160,-156.3215 166,-162.3215 166,-168.3215 166,-168.3215 166,-684.6785 166,-684.6785 166,-690.6785 160,-696.6785 154,-696.6785 154,-696.6785 20,-696.6785 20,-696.6785 14,-696.6785 8,-690.6785 8,-684.6785 8,-684.6785 8,-168.3215 8,-168.3215 8,-162.3215 14,-156.3215 20,-156.3215"/>
<text text-anchor="middle" x="87" y="-681.4785" font-family="Monospace" font-size="14.00" fill="#000000">plantae</text>
</g>
<g id="clust10" class="cluster">
<title>cluster9783</title>
<path fill="#98fb98" stroke="#000000" d="M28,-164.3215C28,-164.3215 146,-164.3215 146,-164.3215 152,-164.3215 158,-170.3215 158,-176.3215 158,-176.3215 158,-654.6785 158,-654.6785 158,-660.6785 152,-666.6785 146,-666.6785 146,-666.6785 28,-666.6785 28,-666.6785 22,-666.6785 16,-660.6785 16,-654.6785 16,-654.6785 16,-176.3215 16,-176.3215 16,-170.3215 22,-164.3215 28,-164.3215"/>
<text text-anchor="middle" x="87" y="-651.4785" font-family="Monospace" font-size="14.00" fill="#2e8b57">flora</text>
</g>
<!-- node9749 -->
<g id="node1" class="node">
<title>node9749</title>
<ellipse fill="#61d2c4" stroke="#000000" cx="470" cy="-460.6785" rx="27" ry="18"/>
<text text-anchor="middle" x="470" y="-457.6785" font-family="Monospace" font-size="10.00" fill="#000000">delila</text>
</g>
<!-- node9750 -->
<g id="node2" class="node">
<title>node9750</title>
<polygon fill="#ffd700" stroke="#000000" points="78,-204.1043 57.3738,-204.1043 51,-223.8583 44.6262,-204.1043 24,-204.1043 40.6869,-191.8957 34.3131,-172.1417 51,-184.3503 67.6869,-172.1417 61.3131,-191.8957 78,-204.1043"/>
<text text-anchor="middle" x="51" y="-195" font-family="Monospace" font-size="10.00" fill="#000000">aster</text>
</g>
<!-- node9751 -->
<g id="node3" class="node">
<title>node9751</title>
<ellipse fill="#68db75" stroke="#000000" cx="268" cy="-198" rx="27" ry="18"/>
<text text-anchor="middle" x="268" y="-200" font-family="Monospace" font-size="10.00" fill="#000000">sebas&#45;</text>
<text text-anchor="middle" x="268" y="-190" font-family="Monospace" font-size="10.00" fill="#000000">tian</text>
</g>
<!-- node9752 -->
<g id="node4" class="node">
<title>node9752</title>
<ellipse fill="#acf5ab" stroke="#000000" cx="340" cy="-57" rx="27" ry="18"/>
<text text-anchor="middle" x="340" y="-54" font-family="Monospace" font-size="10.00" fill="#000000">huxley</text>
</g>
<!-- node9751&#45;&gt;node9752 -->
<!-- node9752&#45;&gt;node9752 -->
<!-- node9753 -->
<g id="node5" class="node">
<title>node9753</title>
<polygon fill="#ffd700" stroke="#000000" points="91,-406.6785 37,-406.6785 37,-370.6785 91,-370.6785 91,-406.6785"/>
<text text-anchor="middle" x="64" y="-385.6785" font-family="Monospace" font-size="10.00" fill="#000000">jasmine</text>
</g>
<!-- node9763 -->
<g id="node15" class="node">
<title>node9763</title>
<polygon fill="#ffd700" stroke="#000000" points="91,-295.6785 37,-295.6785 37,-259.6785 91,-259.6785 91,-295.6785"/>
<text text-anchor="middle" x="64" y="-274.6785" font-family="Monospace" font-size="10.00" fill="#000000">fleur</text>
</g>
<!-- node9753&#45;&gt;node9763 -->
<!-- node9754 -->
<g id="node6" class="node">
<title>node9754</title>
<polygon fill="#8b7500" stroke="#000000" points="398,-636.6785 371,-609.6785 425,-609.6785 398,-636.6785"/>
<text text-anchor="middle" x="398" y="-615.6785" font-family="Monospace" font-size="10.00" fill="#000000">nikkai</text>
</g>
<!-- node9765 -->
<g id="node17" class="node">
<title>node9765</title>
<ellipse fill="#61d2c4" stroke="#000000" cx="470" cy="-532.6785" rx="27" ry="18"/>
<text text-anchor="middle" x="470" y="-529.6785" font-family="Monospace" font-size="10.00" fill="#000000">isobel</text>
</g>
<!-- node9754&#45;&gt;node9765 -->
<g id="edge4" class="edge">
<title>node9754&#45;&gt;node9765</title>
<path fill="none" stroke="#000000" d="M417.043,-618C426.9429,-618 437,-618 437,-618 437,-618 437,-538 437,-538 437,-538 437.6998,-538 437.6998,-538"/>
<polygon fill="#000000" stroke="#000000" points="433.9985,-541.5002 443.9985,-538 433.9984,-534.5002 433.9985,-541.5002"/>
</g>
<!-- node9755 -->
<g id="node7" class="node">
<title>node9755</title>
<ellipse fill="#68db75" stroke="#000000" cx="340" cy="-198" rx="27" ry="18"/>
<text text-anchor="middle" x="340" y="-200" font-family="Monospace" font-size="10.00" fill="#000000">angel&#45;</text>
<text text-anchor="middle" x="340" y="-190" font-family="Monospace" font-size="10.00" fill="#000000">ique</text>
</g>
<!-- node9755&#45;&gt;node9752 -->
<!-- node9769 -->
<g id="node21" class="node">
<title>node9769</title>
<polygon fill="#ffd700" stroke="#000000" points="91,-478.6785 37,-478.6785 37,-442.6785 91,-442.6785 91,-478.6785"/>
<text text-anchor="middle" x="64" y="-457.6785" font-family="Monospace" font-size="10.00" fill="#000000">lily</text>
</g>
<!-- node9755&#45;&gt;node9769 -->
<g id="edge6" class="edge">
<title>node9755&#45;&gt;node9769</title>
<path fill="none" stroke="transparent" stroke-dasharray="1,5" d="M357.6667,-211.7971C357.6667,-260.865 357.6667,-424 357.6667,-424 357.6667,-424 73,-424 73,-424 73,-424 73,-432.3393 73,-432.3393"/>
<polygon fill="transparent" stroke="transparent" points="69.5001,-432.3392 73,-442.3393 76.5001,-432.3393 69.5001,-432.3392"/>
<path fill="#c731ed" stroke="transparent" d="M70.5,-428.8393C70.5,-428.8393 75.5,-428.8393 75.5,-428.8393 78,-428.8393 80.5,-431.3393 80.5,-433.8393 80.5,-433.8393 80.5,-440.8393 80.5,-440.8393 80.5,-443.3393 78,-445.8393 75.5,-445.8393 75.5,-445.8393 70.5,-445.8393 70.5,-445.8393 68,-445.8393 65.5,-443.3393 65.5,-440.8393 65.5,-440.8393 65.5,-433.8393 65.5,-433.8393 65.5,-431.3393 68,-428.8393 70.5,-428.8393"/>
<text text-anchor="start" x="69.7471" y="-434.1393" font-family="Monospace" font-size="9.00" fill="#000000">1.</text>
<path fill="none" stroke="#ff00ff" d="M70.5,-428.8393C70.5,-428.8393 75.5,-428.8393 75.5,-428.8393 78,-428.8393 80.5,-431.3393 80.5,-433.8393 80.5,-433.8393 80.5,-440.8393 80.5,-440.8393 80.5,-443.3393 78,-445.8393 75.5,-445.8393 75.5,-445.8393 70.5,-445.8393 70.5,-445.8393 68,-445.8393 65.5,-443.3393 65.5,-440.8393 65.5,-440.8393 65.5,-433.8393 65.5,-433.8393 65.5,-431.3393 68,-428.8393 70.5,-428.8393"/>
<path fill="#c731ed" stroke="transparent" d="M355.1667,-208.2971C355.1667,-208.2971 360.1667,-208.2971 360.1667,-208.2971 362.6667,-208.2971 365.1667,-210.7971 365.1667,-213.2971 365.1667,-213.2971 365.1667,-220.2971 365.1667,-220.2971 365.1667,-222.7971 362.6667,-225.2971 360.1667,-225.2971 360.1667,-225.2971 355.1667,-225.2971 355.1667,-225.2971 352.6667,-225.2971 350.1667,-222.7971 350.1667,-220.2971 350.1667,-220.2971 350.1667,-213.2971 350.1667,-213.2971 350.1667,-210.7971 352.6667,-208.2971 355.1667,-208.2971"/>
<text text-anchor="start" x="354.4137" y="-213.5971" font-family="Monospace" font-size="9.00" fill="#000000">1.</text>
<path fill="none" stroke="#ff00ff" d="M355.1667,-208.2971C355.1667,-208.2971 360.1667,-208.2971 360.1667,-208.2971 362.6667,-208.2971 365.1667,-210.7971 365.1667,-213.2971 365.1667,-213.2971 365.1667,-220.2971 365.1667,-220.2971 365.1667,-222.7971 362.6667,-225.2971 360.1667,-225.2971 360.1667,-225.2971 355.1667,-225.2971 355.1667,-225.2971 352.6667,-225.2971 350.1667,-222.7971 350.1667,-220.2971 350.1667,-220.2971 350.1667,-213.2971 350.1667,-213.2971 350.1667,-210.7971 352.6667,-208.2971 355.1667,-208.2971"/>
</g>
<!-- node9756 -->
<g id="node8" class="node">
<title>node9756</title>
<ellipse fill="#768572" stroke="#000000" cx="574" cy="-460.6785" rx="27" ry="18"/>
<text text-anchor="middle" x="574" y="-457.6785" font-family="Monospace" font-size="10.00" fill="#000000">eliza</text>
</g>
<!-- node9756&#45;&gt;node9752 -->
<!-- node9757 -->
<g id="node9" class="node">
<title>node9757</title>
<ellipse fill="#61d2c4" stroke="#000000" cx="398" cy="-532.6785" rx="27" ry="18"/>
<text text-anchor="middle" x="398" y="-529.6785" font-family="Monospace" font-size="10.00" fill="#000000">malakai</text>
</g>
<!-- node9757&#45;&gt;node9749 -->
<g id="edge8" class="edge">
<title>node9757&#45;&gt;node9749</title>
<path fill="none" stroke="#000000" d="M423.3462,-526C427.7773,-526 431,-526 431,-526 431,-526 431,-460 431,-460 431,-460 432.9132,-460 432.9132,-460"/>
<polygon fill="#000000" stroke="#000000" points="432.9132,-463.5001 442.9132,-460 432.9132,-456.5001 432.9132,-463.5001"/>
</g>
<!-- node9773 -->
<g id="node25" class="node">
<title>node9773</title>
<ellipse fill="#61d2c4" stroke="#000000" cx="398" cy="-460.6785" rx="27" ry="18"/>
<text text-anchor="middle" x="398" y="-457.6785" font-family="Monospace" font-size="10.00" fill="#000000">ivy</text>
</g>
<!-- node9757&#45;&gt;node9773 -->
<g id="edge9" class="edge">
<title>node9757&#45;&gt;node9773</title>
<path fill="none" stroke="#000000" d="M398,-514.5099C398,-514.5099 398,-489.0918 398,-489.0918"/>
<polygon fill="#000000" stroke="#000000" points="401.5001,-489.0918 398,-479.0918 394.5001,-489.0918 401.5001,-489.0918"/>
</g>
<!-- node9758 -->
<g id="node10" class="node">
<title>node9758</title>
<ellipse fill="#61d2c4" stroke="#000000" cx="326" cy="-460.6785" rx="27" ry="18"/>
<text text-anchor="middle" x="326" y="-457.6785" font-family="Monospace" font-size="10.00" fill="#000000">max</text>
</g>
<!-- node9759 -->
<g id="node11" class="node">
<title>node9759</title>
<ellipse fill="#7fffd4" stroke="#000000" cx="326" cy="-388.6785" rx="27" ry="18"/>
<text text-anchor="middle" x="326" y="-385.6785" font-family="Monospace" font-size="10.00" fill="#000000">Bridget</text>
</g>
<!-- node9758&#45;&gt;node9759 -->
<g id="edge10" class="edge">
<title>node9758&#45;&gt;node9759</title>
<path fill="none" stroke="#0000ff" d="M326,-442.5099C326,-442.5099 326,-417.0918 326,-417.0918"/>
<polygon fill="#0000ff" stroke="#0000ff" points="329.5001,-417.0918 326,-407.0918 322.5001,-417.0918 329.5001,-417.0918"/>
</g>
<!-- node9759&#45;&gt;node9752 -->
<!-- node9770 -->
<g id="node22" class="node">
<title>node9770</title>
<ellipse fill="#68db75" stroke="#000000" cx="297" cy="-277.6785" rx="27" ry="18"/>
<text text-anchor="middle" x="297" y="-274.6785" font-family="Monospace" font-size="10.00" fill="#000000">leo</text>
</g>
<!-- node9759&#45;&gt;node9770 -->
<!-- node9760 -->
<g id="node12" class="node">
<title>node9760</title>
<ellipse fill="#61d2c4" stroke="#000000" cx="326" cy="-532.6785" rx="27" ry="18"/>
<text text-anchor="middle" x="326" y="-529.6785" font-family="Monospace" font-size="10.00" fill="#000000">simone</text>
</g>
<!-- node9760&#45;&gt;node9758 -->
<g id="edge13" class="edge">
<title>node9760&#45;&gt;node9758</title>
<path fill="none" stroke="#000000" d="M326,-514.5099C326,-514.5099 326,-489.0918 326,-489.0918"/>
<polygon fill="#000000" stroke="#000000" points="329.5001,-489.0918 326,-479.0918 322.5001,-489.0918 329.5001,-489.0918"/>
</g>
<!-- node9772 -->
<g id="node24" class="node">
<title>node9772</title>
<ellipse fill="#61d2c4" stroke="#000000" cx="254" cy="-460.6785" rx="27" ry="18"/>
<text text-anchor="middle" x="254" y="-457.6785" font-family="Monospace" font-size="10.00" fill="#000000">summer</text>
</g>
<!-- node9760&#45;&gt;node9772 -->
<g id="edge14" class="edge">
<title>node9760&#45;&gt;node9772</title>
<path fill="none" stroke="#00ee00" d="M298.7146,-532C293.6936,-532 290,-532 290,-532 290,-532 290,-460 290,-460 290,-460 289.1285,-460 289.1285,-460"/>
<polygon fill="#00ee00" stroke="#00ee00" points="291.2854,-456.5001 281.2854,-460 291.2854,-463.5001 291.2854,-456.5001"/>
</g>
<!-- node9760&#45;&gt;node9773 -->
<g id="edge15" class="edge">
<title>node9760&#45;&gt;node9773</title>
<path fill="none" stroke="#00ee00" d="M353.1649,-532C358.4215,-532 362.3333,-532 362.3333,-532 362.3333,-532 362.3333,-460 362.3333,-460 362.3333,-460 363.1967,-460 363.1967,-460"/>
<polygon fill="#00ee00" stroke="#00ee00" points="360.9673,-463.5001 370.9672,-460 360.9672,-456.5001 360.9673,-463.5001"/>
</g>
<!-- node9761 -->
<g id="node13" class="node">
<title>node9761</title>
<polygon fill="#768572" stroke="#000000" points="601,-528.6731 595.6523,-543.9013 574,-550.6785 552.3477,-543.9013 547,-528.6731 561.9839,-516.4611 586.0161,-516.4611 601,-528.6731"/>
<text text-anchor="middle" x="574" y="-529.6785" font-family="Monospace" font-size="10.00" fill="#000000">cosmo</text>
</g>
<!-- node9761&#45;&gt;node9756 -->
<g id="edge16" class="edge">
<title>node9761&#45;&gt;node9756</title>
<path fill="none" stroke="#ff1493" d="M574,-516.3406C574,-516.3406 574,-488.7209 574,-488.7209"/>
<polygon fill="#ff1493" stroke="#ff1493" points="577.5001,-488.7208 574,-478.7209 570.5001,-488.7209 577.5001,-488.7208"/>
</g>
<!-- node9762 -->
<g id="node14" class="node">
<title>node9762</title>
<polygon fill="#0000ff" stroke="#000000" points="281,-550.6785 227,-550.6785 227,-514.6785 281,-514.6785 281,-550.6785"/>
<text text-anchor="middle" x="254" y="-529.6785" font-family="Monospace" font-size="10.00" fill="#ffffff">sharhar</text>
</g>
<!-- node9762&#45;&gt;node9772 -->
<g id="edge17" class="edge">
<title>node9762&#45;&gt;node9772</title>
<path fill="none" stroke="#000000" d="M254,-514.5099C254,-514.5099 254,-489.0918 254,-489.0918"/>
<polygon fill="#000000" stroke="#000000" points="257.5001,-489.0918 254,-479.0918 250.5001,-489.0918 257.5001,-489.0918"/>
</g>
<!-- node9763&#45;&gt;node9750 -->
<g id="edge18" class="edge">
<title>node9763&#45;&gt;node9750</title>
<path fill="none" stroke="#000000" stroke-dasharray="1,5" d="M57.5,-259.5982C57.5,-259.5982 57.5,-214.3188 57.5,-214.3188"/>
<polygon fill="#c0c0c0" stroke="#000000" points="61.0001,-214.3188 57.5,-204.3188 54.0001,-214.3189 61.0001,-214.3188"/>
</g>
<!-- node9764 -->
<g id="node16" class="node">
<title>node9764</title>
<polygon fill="#ffd700" stroke="#000000" points="150,-216 96,-216 96,-180 150,-180 150,-216"/>
<text text-anchor="middle" x="123" y="-195" font-family="Monospace" font-size="10.00" fill="#000000">alyssa</text>
</g>
<!-- node9763&#45;&gt;node9764 -->
<g id="edge19" class="edge">
<title>node9763&#45;&gt;node9764</title>
<path fill="none" stroke="#eeb422" stroke-dasharray="5,2" d="M84.5,-259.5982C84.5,-236.0897 84.5,-198 84.5,-198 84.5,-198 85.843,-198 85.843,-198"/>
<polygon fill="#eee8aa" stroke="#eeb422" points="85.8431,-201.5001 95.843,-198 85.843,-194.5001 85.8431,-201.5001"/>
</g>
<!-- node9766 -->
<g id="node18" class="node">
<title>node9766</title>
<polygon fill="#ffd700" stroke="#000000" points="91,-550.6785 37,-550.6785 37,-514.6785 91,-514.6785 91,-550.6785"/>
<text text-anchor="middle" x="64" y="-529.6785" font-family="Monospace" font-size="10.00" fill="#000000">rose</text>
</g>
<!-- node9766&#45;&gt;node9769 -->
<!-- node9767 -->
<g id="node19" class="node">
<title>node9767</title>
<ellipse fill="#61d2c4" stroke="#000000" cx="254" cy="-618.6785" rx="27" ry="18"/>
<text text-anchor="middle" x="254" y="-620.6785" font-family="Monospace" font-size="10.00" fill="#000000">cristo&#45;</text>
<text text-anchor="middle" x="254" y="-610.6785" font-family="Monospace" font-size="10.00" fill="#000000">lene</text>
</g>
<!-- node9767&#45;&gt;node9762 -->
<g id="edge21" class="edge">
<title>node9767&#45;&gt;node9762</title>
<path fill="none" stroke="#000000" d="M245,-601.6877C245,-601.6877 245,-560.8217 245,-560.8217"/>
<polygon fill="#000000" stroke="#000000" points="248.5001,-560.8216 245,-550.8217 241.5001,-560.8217 248.5001,-560.8216"/>
</g>
<!-- node9768 -->
<g id="node20" class="node">
<title>node9768</title>
<ellipse fill="#61d2c4" stroke="#000000" cx="470" cy="-618.6785" rx="27" ry="18"/>
<text text-anchor="middle" x="470" y="-615.6785" font-family="Monospace" font-size="10.00" fill="#000000">kacey</text>
</g>
<!-- node9768&#45;&gt;node9761 -->
<g id="edge22" class="edge">
<title>node9768&#45;&gt;node9761</title>
<path fill="none" stroke="#ff1493" d="M497.0533,-618C527.868,-618 574,-618 574,-618 574,-618 574,-560.773 574,-560.773"/>
<polygon fill="#ff1493" stroke="#ff1493" points="577.5001,-560.773 574,-550.773 570.5001,-560.7731 577.5001,-560.773"/>
</g>
<!-- node9768&#45;&gt;node9762 -->
<g id="edge23" class="edge">
<title>node9768&#45;&gt;node9762</title>
<path fill="none" stroke="#000000" d="M470,-600.6606C470,-588.6289 470,-575 470,-575 470,-575 263,-575 263,-575 263,-575 263,-560.8723 263,-560.8723"/>
<polygon fill="#000000" stroke="#000000" points="266.5001,-560.8722 263,-550.8723 259.5001,-560.8723 266.5001,-560.8722"/>
</g>
<!-- node9769&#45;&gt;node9753 -->
<g id="edge24" class="edge">
<title>node9769&#45;&gt;node9753</title>
<path fill="none" stroke="#000000" d="M55,-442.5099C55,-442.5099 55,-430.4918 55,-430.4918"/>
<polygon fill="#000000" stroke="#000000" points="59.55,-407.0918 55.0001,-420.0918 50.45,-407.0918 59.55,-407.0918"/>
<ellipse fill="none" stroke="#000000" cx="55.0001" cy="-425.2918" rx="5.2" ry="5.2"/>
</g>
<!-- node9770&#45;&gt;node9751 -->
<g id="edge25" class="edge">
<title>node9770&#45;&gt;node9751</title>
<path fill="none" stroke="#000000" d="M282.5,-262.3157C282.5,-262.3157 282.5,-223.3157 282.5,-223.3157"/>
<polygon fill="#000000" stroke="#000000" points="286.0001,-223.3156 282.5,-213.3157 279.0001,-223.3157 286.0001,-223.3156"/>
</g>
<!-- node9770&#45;&gt;node9755 -->
<g id="edge26" class="edge">
<title>node9770&#45;&gt;node9755</title>
<path fill="none" stroke="#000000" d="M318.5,-266.5996C318.5,-266.5996 318.5,-218.9849 318.5,-218.9849"/>
<polygon fill="#000000" stroke="#000000" points="322.0001,-218.9848 318.5,-208.9849 315.0001,-218.9849 322.0001,-218.9848"/>
</g>
<!-- node9771 -->
<g id="node23" class="node">
<title>node9771</title>
<polygon fill="#ffd700" stroke="#000000" points="91,-636.6785 37,-636.6785 37,-600.6785 91,-600.6785 91,-636.6785"/>
<text text-anchor="middle" x="64" y="-615.6785" font-family="Monospace" font-size="10.00" fill="#000000">daisy</text>
</g>
<!-- node9771&#45;&gt;node9766 -->
<g id="edge27" class="edge">
<title>node9771&#45;&gt;node9766</title>
<path fill="none" stroke="#000000" d="M64,-600.4401C64,-600.4401 64,-560.8906 64,-560.8906"/>
<polygon fill="none" stroke="#000000" points="60,-550.8907 68,-550.8906 68.0001,-558.8906 60.0001,-558.8907 60,-550.8907"/>
<polyline fill="none" stroke="#000000" points="64.0001,-558.8906 64.0001,-560.8906 "/>
</g>
<!-- node9772&#45;&gt;node9752 -->
<!-- node9772&#45;&gt;node9770 -->
<g id="edge29" class="edge">
<title>node9772&#45;&gt;node9770</title>
<path fill="none" stroke="#000000" d="M275.5,-449.7791C275.5,-449.7791 275.5,-298.7522 275.5,-298.7522"/>
<polygon fill="#000000" stroke="#000000" points="279.0001,-298.7522 275.5,-288.7522 272.0001,-298.7523 279.0001,-298.7522"/>
</g>
<!-- node9773&#45;&gt;node9752 -->
<g id="edge30" class="edge">
<title>node9773&#45;&gt;node9752</title>
<path fill="none" stroke="#ff0000" d="M407,-443.5908C407,-366.7566 407,-57 407,-57 407,-57 377.2515,-57 377.2515,-57"/>
<polygon fill="#ff0000" stroke="#ff0000" points="377.2515,-53.5001 367.2515,-57 377.2514,-60.5001 377.2515,-53.5001"/>
</g>
</g>
</svg>
