<?xml version="1.0" encoding="UTF-8"?><svg xmlns="http://www.w3.org/2000/svg" xmlns:xlink="http://www.w3.org/1999/xlink" width="195pt" height="265pt" viewBox="0.00 0.00 194.80 264.80">
<g id="graph0" class="graph" transform="scale(1 1) rotate(0) translate(14.4 250.4)">
<title>%3</title>
<polygon fill="#ffffff" stroke="transparent" points="-14.4,14.4 -14.4,-250.4 180.4,-250.4 180.4,14.4 -14.4,14.4"/>
<g id="clust1" class="cluster">
<title>cluster30991</title>
<path fill="#7c9acc" stroke="#000000" d="M 20,-8 l 126,0 c 6 0 12 -6 12 -12 l 0,-196 c 0 -6 -6 -12 -12 -12 l -126,0 c -6 0 -12 6 -12 12 l 0,196 c 0 6 6 12 12 12"/>
<text text-anchor="end" x="148" y="-210" font-family="sans-serif" font-size="14.00" fill="#000000">pandas</text>
</g>
<g id="clust2" class="cluster">
<title>cluster30992</title>
<path fill="#547996" stroke="#000000" d="M 28,-60 l 110,0 c 6 0 12 -6 12 -12 l 0,-70 c 0 -6 -6 -12 -12 -12 l -110,0 c -6 0 -12 6 -12 12 l 0,70 c 0 6 6 12 12 12"/>
<text text-anchor="middle" x="83" y="-136" font-family="sans-serif" font-size="14.00" fill="#ffffff">grizzly</text>
</g>

<g id="node1" class="node">
<title>node30987</title>
<g id="a_node1"><a xlink:title="name: summer
message: I am so sweet" target="_blank">
<ellipse fill="#61d2c4" stroke="#000000" cx="83" cy="-34" rx="33.7344" ry="18"/>
<text text-anchor="middle" x="83" y="-31" font-family="sans-serif" font-size="10.00" fill="#000000">summer</text>
</a>
</g>
</g>

<g id="node2" class="node">
<title>node30988</title>
<g id="a_node2"><a xlink:title="name: simone
message: simone's tooltip" target="_blank">
<ellipse fill="#61d2c4" stroke="#000000" cx="119" cy="-180" rx="31.0326" ry="18"/>
<text text-anchor="middle" x="119" y="-177" font-family="sans-serif" font-size="10.00" fill="#000000">simone</text>
</a>
</g>
</g>

<g id="node3" class="node">
<title>node30989</title>
<g id="a_node3"><a xlink:title="name: sharhar
message: I am violent" target="_blank">
<ellipse fill="#a29768" stroke="#000000" cx="83" cy="-106" rx="32.2736" ry="18"/>
<text text-anchor="middle" x="83" y="-103" font-family="sans-serif" font-size="10.00" fill="#000000">sharhar</text>
</a>
</g>
</g>

<g id="edge1" class="edge">
<title>node30988-&gt;node30989</title>
<path fill="none" stroke="#000000" d="M110.4685,-162.463C106.1197,-153.5237 100.74,-142.4655 95.8974,-132.5113"/>
<polygon fill="#000000" stroke="#000000" points="98.9923,-130.8723 91.4703,-123.4111 92.6976,-133.9346 98.9923,-130.8723"/>
</g>

<g id="edge2" class="edge">
<title>node30989-&gt;node30987</title>
<path fill="none" stroke="#000000" d="M83,-87.8314C83,-80.131 83,-70.9743 83,-62.4166"/>
<polygon fill="#000000" stroke="#000000" points="86.5001,-62.4132 83,-52.4133 79.5001,-62.4133 86.5001,-62.4132"/>
</g>

<g id="node4" class="node">
<title>node30990</title>
<g id="a_node4"><a xlink:title="name: max
message: max's message" target="_blank">
<ellipse fill="#61d2c4" stroke="#000000" cx="43" cy="-180" rx="27" ry="18"/>
<text text-anchor="middle" x="43" y="-177" font-family="sans-serif" font-size="10.00" fill="#000000">max</text>
</a>
</g>
</g>

<g id="edge3" class="edge">
<title>node30990-&gt;node30989</title>
<path fill="none" stroke="#000000" d="M52.2773,-162.8369C57.1895,-153.7493 63.327,-142.3951 68.8221,-132.2292"/>
<polygon fill="#000000" stroke="#000000" points="71.9582,-133.7878 73.6344,-123.3263 65.8002,-130.4591 71.9582,-133.7878"/>
</g>
</g>
</svg>