<?xml version="1.0" encoding="UTF-8"?><svg xmlns="http://www.w3.org/2000/svg" xmlns:xlink="http://www.w3.org/1999/xlink" width="682pt" height="298pt" viewBox="0.00 0.00 681.80 297.80">
<g id="graph0" class="graph" transform="scale(1 1) rotate(0) translate(14.4 283.4)">
<title>%3</title>
<polygon fill="#ffffff" stroke="transparent" points="-14.4,14.4 -14.4,-283.4 667.4,-283.4 667.4,14.4 -14.4,14.4"/>
<g id="clust1" class="cluster">
<title>cluster16934</title>
<polygon fill="#98fb98" stroke="#32cd32" points="541,-8 541,-187 645,-187 645,-8 541,-8"/>
<text text-anchor="middle" x="593" y="-171.8" font-family="sans-serif" font-size="14.00" fill="#000000">brownbears</text>
</g>
<g id="clust2" class="cluster">
<title>cluster16935</title>
<path fill="#ffc0cb" stroke="#000000" d="M461,-13C461,-13 521,-13 521,-13 527,-13 533,-19 533,-25 533,-25 533,-89 533,-89 533,-95 527,-101 521,-101 521,-101 461,-101 461,-101 455,-101 449,-95 449,-89 449,-89 449,-25 449,-25 449,-19 455,-13 461,-13"/>
<text text-anchor="middle" x="491" y="-85.8" font-family="sans-serif" font-size="14.00" fill="#000000">squirrels</text>
</g>
<g id="clust3" class="cluster">
<title>cluster16936</title>
<path fill="#fff8dc" stroke="#000000" d="M20,-20C20,-20 429,-20 429,-20 435,-20 441,-26 441,-32 441,-32 441,-249 441,-249 441,-255 435,-261 429,-261 429,-261 20,-261 20,-261 14,-261 8,-255 8,-249 8,-249 8,-32 8,-32 8,-26 14,-20 20,-20"/>
<text text-anchor="middle" x="224.5" y="-245.8" font-family="sans-serif" font-size="14.00" fill="#000000">pandas</text>
</g>

<g id="node1" class="node">
<title>node16919</title>
<g id="a_node1"><a xlink:title="application: 
id: " target="_blank">
<polygon fill="#61d2c4" stroke="#000000" points="267,-145 213,-145 213,-109 267,-109 267,-145"/>
<text text-anchor="middle" x="240" y="-124" font-family="sans-serif" font-size="10.00" fill="#000000">delila</text>
</a>
</g>
</g>

<g id="node2" class="node">
<title>node16920</title>
<g id="a_node2"><a xlink:title="application: 
id: " target="_blank">
<polygon fill="#acf5ab" stroke="#000000" points="518,-64 464,-64 464,-28 518,-28 518,-64"/>
<text text-anchor="middle" x="491" y="-43" font-family="sans-serif" font-size="10.00" fill="#000000">huxley</text>
</a>
</g>
</g>

<g id="node3" class="node">
<title>node16921</title>
<g id="a_node3"><a xlink:title="application: 
id: " target="_blank">
<polygon fill="#0000ff" stroke="#000000" points="433,-145 379,-145 379,-109 433,-109 433,-145"/>
<text text-anchor="middle" x="406" y="-129" font-family="sans-serif" font-size="10.00" fill="#ffffff">shar</text>
<text text-anchor="middle" x="406" y="-119" font-family="sans-serif" font-size="10.00" fill="#ffffff">har</text>
</a>
</g>
</g>

<g id="node14" class="node">
<title>node16932</title>
<g id="a_node14"><a xlink:title="application: 
id: " target="_blank">
<polygon fill="#61d2c4" stroke="#000000" points="293,-64 239,-64 239,-28 293,-28 293,-64"/>
<text text-anchor="middle" x="266" y="-43" font-family="sans-serif" font-size="10.00" fill="#000000">summer</text>
</a>
</g>
</g>

<g id="edge1" class="edge">
<title>node16921-&gt;node16932</title>
<path fill="none" stroke="#000000" d="M406,-108.6198C406,-84.7215 406,-46 406,-46 406,-46 303.3258,-46 303.3258,-46"/>
<polygon fill="#000000" stroke="#000000" points="303.3258,-42.5001 293.3258,-46 303.3257,-49.5001 303.3258,-42.5001"/>
</g>

<g id="node4" class="node">
<title>node16922</title>
<g id="a_node4"><a xlink:title="application: 
id: " target="_blank">
<polygon fill="#61d2c4" stroke="#000000" points="350.2982,-231 293.7018,-231 293.7018,-195 350.2982,-195 350.2982,-231"/>
<text text-anchor="middle" x="322" y="-210" font-family="sans-serif" font-size="10.00" fill="#000000">cristolene</text>
</a>
</g>
</g>

<g id="edge2" class="edge">
<title>node16922-&gt;node16921</title>
<path fill="none" stroke="#ff1493" d="M350.7181,-213C358.4421,-213 364.6995,-213 364.6995,-213 364.6995,-213 364.6995,-127 364.6995,-127 364.6995,-127 368.6819,-127 368.6819,-127"/>
<polygon fill="#ff1493" stroke="#ff1493" points="368.682,-130.5001 378.6819,-127 368.6819,-123.5001 368.682,-130.5001"/>
</g>

<g id="node5" class="node">
<title>node16923</title>
<g id="a_node5"><a xlink:title="application: 
id: " target="_blank">
<polygon fill="#61d2c4" stroke="#000000" points="265,-231 211,-231 211,-195 265,-195 265,-231"/>
<text text-anchor="middle" x="238" y="-210" font-family="sans-serif" font-size="10.00" fill="#000000">nikkai</text>
</a>
</g>
</g>

<g id="node12" class="node">
<title>node16930</title>
<g id="a_node12"><a xlink:title="application: 
id: " target="_blank">
<polygon fill="#61d2c4" stroke="#000000" points="350,-145 296,-145 296,-109 350,-109 350,-145"/>
<text text-anchor="middle" x="323" y="-124" font-family="sans-serif" font-size="10.00" fill="#000000">isobel</text>
</a>
</g>
</g>

<g id="edge3" class="edge">
<title>node16923-&gt;node16930</title>
<path fill="none" stroke="#000000" d="M265.3104,-213C273.3324,-213 280,-213 280,-213 280,-213 280,-127 280,-127 280,-127 285.524,-127 285.524,-127"/>
<polygon fill="#000000" stroke="#000000" points="285.524,-130.5001 295.524,-127 285.524,-123.5001 285.524,-130.5001"/>
</g>

<g id="node6" class="node">
<title>node16924</title>
<g id="a_node6"><a xlink:title="application: 
id: " target="_blank">
<polygon fill="#768572" stroke="#000000" points="620,-64 566,-64 566,-28 620,-28 620,-64"/>
<text text-anchor="middle" x="593" y="-43" font-family="sans-serif" font-size="10.00" fill="#000000">eliza</text>
</a>
</g>
</g>

<g id="node7" class="node">
<title>node16925</title>
<g id="a_node7"><a xlink:title="application: 
id: " target="_blank">
<polygon fill="#61d2c4" stroke="#000000" points="182,-231 128,-231 128,-195 182,-195 182,-231"/>
<text text-anchor="middle" x="155" y="-210" font-family="sans-serif" font-size="10.00" fill="#000000">malakai</text>
</a>
</g>
</g>

<g id="edge4" class="edge">
<title>node16925-&gt;node16919</title>
<path fill="none" stroke="#000000" d="M182.1565,-213C190.4858,-213 197.5,-213 197.5,-213 197.5,-213 197.5,-127 197.5,-127 197.5,-127 202.8435,-127 202.8435,-127"/>
<polygon fill="#000000" stroke="#000000" points="202.8435,-130.5001 212.8435,-127 202.8434,-123.5001 202.8435,-130.5001"/>
</g>

<g id="node15" class="node">
<title>node16933</title>
<g id="a_node15"><a xlink:title="application: 
id: " target="_blank">
<polygon fill="#61d2c4" stroke="#000000" points="184,-145 130,-145 130,-109 184,-109 184,-145"/>
<text text-anchor="middle" x="157" y="-124" font-family="sans-serif" font-size="10.00" fill="#000000">ivy</text>
</a>
</g>
</g>

<g id="edge5" class="edge">
<title>node16925-&gt;node16933</title>
<path fill="none" stroke="#000000" d="M156,-194.7616C156,-194.7616 156,-155.2121 156,-155.2121"/>
<polygon fill="#000000" stroke="#000000" points="159.5001,-155.2121 156,-145.2121 152.5001,-155.2121 159.5001,-155.2121"/>
</g>

<g id="node8" class="node">
<title>node16926</title>
<g id="a_node8"><a xlink:title="application: 
id: " target="_blank">
<polygon fill="#61d2c4" stroke="#000000" points="70,-145 16,-145 16,-109 70,-109 70,-145"/>
<text text-anchor="middle" x="43" y="-124" font-family="sans-serif" font-size="10.00" fill="#000000">max</text>
</a>
</g>
</g>

<g id="node9" class="node">
<title>node16927</title>
<g id="a_node9"><a xlink:title="application: 
id: " target="_blank">
<polygon fill="#61d2c4" stroke="#000000" points="70,-64 16,-64 16,-28 70,-28 70,-64"/>
<text text-anchor="middle" x="43" y="-43" font-family="sans-serif" font-size="10.00" fill="#000000">Bridget</text>
</a>
</g>
</g>

<g id="edge6" class="edge">
<title>node16926-&gt;node16927</title>
<path fill="none" stroke="#0000ff" d="M43,-108.6198C43,-108.6198 43,-74.0284 43,-74.0284"/>
<polygon fill="#0000ff" stroke="#0000ff" points="46.5001,-74.0284 43,-64.0284 39.5001,-74.0284 46.5001,-74.0284"/>
</g>

<g id="node10" class="node">
<title>node16928</title>
<g id="a_node10"><a xlink:title="application: 
id: " target="_blank">
<polygon fill="#61d2c4" stroke="#000000" points="99,-231 45,-231 45,-195 99,-195 99,-231"/>
<text text-anchor="middle" x="72" y="-210" font-family="sans-serif" font-size="10.00" fill="#000000">simone</text>
</a>
</g>
</g>

<g id="edge7" class="edge">
<title>node16928-&gt;node16926</title>
<path fill="none" stroke="#000000" d="M57.5,-194.7616C57.5,-194.7616 57.5,-155.2121 57.5,-155.2121"/>
<polygon fill="#000000" stroke="#000000" points="61.0001,-155.2121 57.5,-145.2121 54.0001,-155.2121 61.0001,-155.2121"/>
</g>

<g id="edge8" class="edge">
<title>node16928-&gt;node16932</title>
<path fill="none" stroke="#00ee00" d="M79.6667,-194.8102C79.6667,-151.5274 79.6667,-46 79.6667,-46 79.6667,-46 228.9055,-46 228.9055,-46"/>
<polygon fill="#00ee00" stroke="#00ee00" points="228.9056,-49.5001 238.9055,-46 228.9055,-42.5001 228.9056,-49.5001"/>
</g>

<g id="edge9" class="edge">
<title>node16928-&gt;node16933</title>
<path fill="none" stroke="#00ee00" d="M89.3333,-194.7616C89.3333,-169.5171 89.3333,-127 89.3333,-127 89.3333,-127 119.8673,-127 119.8673,-127"/>
<polygon fill="#00ee00" stroke="#00ee00" points="119.8673,-130.5001 129.8673,-127 119.8672,-123.5001 119.8673,-130.5001"/>
</g>

<g id="node11" class="node">
<title>node16929</title>
<g id="a_node11"><a xlink:title="application: 
id: " target="_blank">
<polygon fill="#768572" stroke="#000000" points="625.2071,-122.9946 618.8281,-138.2228 593,-145 567.1719,-138.2228 560.7929,-122.9946 578.6665,-110.7826 607.3335,-110.7826 625.2071,-122.9946"/>
<text text-anchor="middle" x="593" y="-124" font-family="sans-serif" font-size="10.00" fill="#000000">cosmo</text>
</a>
</g>
</g>

<g id="edge10" class="edge">
<title>node16929-&gt;node16924</title>
<path fill="none" stroke="#ff1493" d="M593,-110.6084C593,-110.6084 593,-74.0583 593,-74.0583"/>
<polygon fill="#ff1493" stroke="#ff1493" points="596.5001,-74.0582 593,-64.0583 589.5001,-74.0583 596.5001,-74.0582"/>
</g>

<g id="node13" class="node">
<title>node16931</title>
<g id="a_node13"><a xlink:title="application: 
id: " target="_blank">
<polygon fill="#61d2c4" stroke="#000000" points="433,-231 379,-231 379,-195 433,-195 433,-231"/>
<text text-anchor="middle" x="406" y="-210" font-family="sans-serif" font-size="10.00" fill="#000000">kacey</text>
</a>
</g>
</g>

<g id="edge11" class="edge">
<title>node16931-&gt;node16921</title>
<path fill="none" stroke="#000000" d="M406,-194.7616C406,-194.7616 406,-155.2121 406,-155.2121"/>
<polygon fill="#000000" stroke="#000000" points="409.5001,-155.2121 406,-145.2121 402.5001,-155.2121 409.5001,-155.2121"/>
</g>

<g id="edge12" class="edge">
<title>node16931-&gt;node16929</title>
<path fill="none" stroke="#ff1493" d="M433.1914,-213C485.0554,-213 593,-213 593,-213 593,-213 593,-155.2384 593,-155.2384"/>
<polygon fill="#ff1493" stroke="#ff1493" points="596.5001,-155.2384 593,-145.2384 589.5001,-155.2384 596.5001,-155.2384"/>
</g>

<g id="edge13" class="edge">
<title>node16933-&gt;node16920</title>
<path fill="none" stroke="#ff0000" d="M157,-108.8975C157,-97.9141 157,-86 157,-86 157,-86 491,-86 491,-86 491,-86 491,-74.1274 491,-74.1274"/>
<polygon fill="#ff0000" stroke="#ff0000" points="494.5001,-74.1274 491,-64.1274 487.5001,-74.1275 494.5001,-74.1274"/>
</g>
</g>
</svg>