<?xml version="1.0" encoding="UTF-8"?><svg xmlns="http://www.w3.org/2000/svg" xmlns:xlink="http://www.w3.org/1999/xlink" width="222pt" height="221pt" viewBox="0.00 0.00 221.80 220.80">
<g id="graph0" class="graph" transform="scale(1 1) rotate(0) translate(14.4 206.4)">
<title>%3</title>
<polygon fill="#ffffff" stroke="transparent" points="-14.4,14.4 -14.4,-206.4 207.4,-206.4 207.4,14.4 -14.4,14.4"/>
<g id="clust1" class="cluster">
<title>cluster12488</title>
<polygon fill="none" stroke="#000000" points="115,-84 115,-158 185,-158 185,-84 115,-84"/>
<text text-anchor="middle" x="150" y="-142.8" font-family="sans-serif" font-size="14.00" fill="#000000">&lt;all&gt;</text>
</g>
<g id="clust2" class="cluster">
<title>cluster12489</title>
<polygon fill="#f0f2da" stroke="#49c1e5" points="8,-184 8,-8 107,-8 107,-184 8,-184"/>
<text text-anchor="end" x="97" y="-166" font-family="sans-serif" font-size="14.00" fill="#000000">Current State</text>
</g>
<g id="clust3" class="cluster">
<title>cluster12490</title>
<polygon fill="#f0f2da" stroke="#49c1e5" points="8,-156 8,-14 107,-14 107,-156 8,-156"/>
<text text-anchor="end" x="97" y="-138" font-family="sans-serif" font-size="14.00" fill="#000000">Risk</text>
</g>

<g id="node1" class="node">
<title>node12485</title>
<g id="a_node1"><a xlink:title="application: GRIMACE
id: PTN-" target="_blank">
<polygon fill="#e8eef7" stroke="#000000" points="87.1708,-56 26.8292,-56 26.8292,-20 87.1708,-20 87.1708,-56"/>
<text text-anchor="middle" x="57" y="-35" font-family="sans-serif" font-size="10.00" fill="#000000">GRIMACE</text>
</a>
</g>
</g>

<g id="node2" class="node">
<title>node12486</title>
<g id="a_node2"><a xlink:title="application: Kuiper
id: PTN-" target="_blank">
<polygon fill="#e8eef7" stroke="#000000" points="177,-128 123,-128 123,-92 177,-92 177,-128"/>
<text text-anchor="middle" x="150" y="-107" font-family="sans-serif" font-size="10.00" fill="#000000">Kuiper</text>
</a>
</g>
</g>

<g id="node3" class="node">
<title>node12487</title>
<g id="a_node3"><a xlink:title="application: Guerilla Risk
id: PTN-" target="_blank">
<polygon fill="#e8eef7" stroke="#000000" points="92.1804,-128 21.8196,-128 21.8196,-92 92.1804,-92 92.1804,-128"/>
<text text-anchor="middle" x="57" y="-107" font-family="sans-serif" font-size="10.00" fill="#000000">Guerilla Risk</text>
</a>
</g>
</g>

<g id="edge1" class="edge">
<title>node12487-&gt;node12485</title>
<path fill="none" stroke="#267a17" d="M57,-91.8314C57,-91.8314 57,-66.4133 57,-66.4133"/>
<polygon fill="#267a17" stroke="#267a17" points="60.5001,-66.4132 57,-56.4133 53.5001,-66.4133 60.5001,-66.4132"/>
<text text-anchor="middle" x="43.6675" y="-81.1223" font-family="sans-serif" font-size="10.00" fill="#000000">pl-risk</text>
</g>
</g>
</svg>