<?xml version="1.0" encoding="UTF-8" standalone="no"?>
<!DOCTYPE svg PUBLIC "-//W3C//DTD SVG 1.1//EN"
 "http://www.w3.org/Graphics/SVG/1.1/DTD/svg11.dtd">
<!-- Generated by graphviz version 2.40.1 (20161225.0304)
 -->
<!-- Title: %3 Pages: 1 -->
<svg width="608pt" height="724pt"
 viewBox="0.00 0.00 608.00 724.00" xmlns="http://www.w3.org/2000/svg" xmlns:xlink="http://www.w3.org/1999/xlink">
<g id="graph0" class="graph" transform="scale(1 1) rotate(0) translate(72 652)">
<title>%3</title>
<polygon fill="#ffffff" stroke="transparent" points="-72,72 -72,-652 536,-652 536,72 -72,72"/>
<g id="clust1" class="cluster">
<title>cluster13067</title>
<path fill="#fff8dc" stroke="#000000" d="M20,-282C20,-282 444,-282 444,-282 450,-282 456,-288 456,-294 456,-294 456,-560 456,-560 456,-566 450,-572 444,-572 444,-572 20,-572 20,-572 14,-572 8,-566 8,-560 8,-560 8,-294 8,-294 8,-288 14,-282 20,-282"/>
<text text-anchor="middle" x="232" y="-556.8" font-family="Monospace" font-size="14.00" fill="#000000">pandas</text>
</g>
<g id="clust2" class="cluster">
<title>cluster13080</title>
<path fill="#ffc0cb" stroke="#000000" d="M213,-8C213,-8 273,-8 273,-8 279,-8 285,-14 285,-20 285,-20 285,-84 285,-84 285,-90 279,-96 273,-96 273,-96 213,-96 213,-96 207,-96 201,-90 201,-84 201,-84 201,-20 201,-20 201,-14 207,-8 213,-8"/>
<text text-anchor="middle" x="243" y="-80.8" font-family="Monospace" font-size="14.00" fill="#000000">squirrels</text>
</g>
<g id="clust3" class="cluster">
<title>cluster13082</title>
<polygon fill="#98fb98" stroke="#32cd32" points="300,-104 300,-274 394,-274 394,-104 300,-104"/>
<text text-anchor="middle" x="347" y="-258.8" font-family="Monospace" font-size="14.00" fill="#000000">brownbears</text>
</g>
<!-- node13068 -->
<g id="node1" class="node">
<title>node13068</title>
<ellipse fill="#61d2c4" stroke="#000000" cx="43" cy="-380" rx="27" ry="18"/>
<text text-anchor="middle" x="43" y="-377" font-family="Monospace" font-size="10.00" fill="#000000">delila</text>
</g>
<!-- node13069 -->
<g id="node2" class="node">
<title>node13069</title>
<ellipse fill="#61d2c4" stroke="#000000" cx="295" cy="-524" rx="27" ry="18"/>
<text text-anchor="middle" x="295" y="-521" font-family="Monospace" font-size="10.00" fill="#000000">cristolene</text>
</g>
<!-- node13075 -->
<g id="node8" class="node">
<title>node13075</title>
<path fill="#0000ff" stroke="#000000" d="M310,-470C310,-470 280,-470 280,-470 274,-470 268,-464 268,-458 268,-458 268,-446 268,-446 268,-440 274,-434 280,-434 280,-434 310,-434 310,-434 316,-434 322,-440 322,-446 322,-446 322,-458 322,-458 322,-464 316,-470 310,-470"/>
<text text-anchor="middle" x="295" y="-449" font-family="Monospace" font-size="10.00" fill="#ffffff">sharhar</text>
</g>
<!-- node13069&#45;&gt;node13075 -->
<g id="edge1" class="edge">
<title>node13069&#45;&gt;node13075</title>
<path fill="none" stroke="#000000" d="M297.9548,-505.9987C298.5205,-499.5847 298.3357,-492.7456 297.4002,-480.3495"/>
<polygon fill="#000000" stroke="#000000" points="300.8797,-479.9537 296.5864,-470.2677 293.9024,-480.517 300.8797,-479.9537"/>
</g>
<!-- node13070 -->
<g id="node3" class="node">
<title>node13070</title>
<ellipse fill="#61d2c4" stroke="#000000" cx="169" cy="-524" rx="27" ry="18"/>
<text text-anchor="middle" x="169" y="-521" font-family="Monospace" font-size="10.00" fill="#000000">nikkai</text>
</g>
<!-- node13076 -->
<g id="node9" class="node">
<title>node13076</title>
<ellipse fill="#61d2c4" stroke="#000000" cx="169" cy="-452" rx="27" ry="18"/>
<text text-anchor="middle" x="169" y="-449" font-family="Monospace" font-size="10.00" fill="#000000">isobel</text>
</g>
<!-- node13070&#45;&gt;node13076 -->
<g id="edge2" class="edge">
<title>node13070&#45;&gt;node13076</title>
<path fill="none" stroke="#000000" d="M166.0452,-505.9987C165.4767,-499.5527 165.6662,-492.6775 166.6138,-480.1641"/>
<polygon fill="#000000" stroke="#000000" points="170.1197,-480.2311 167.4378,-469.9814 163.1426,-479.6665 170.1197,-480.2311"/>
</g>
<!-- node13071 -->
<g id="node4" class="node">
<title>node13071</title>
<ellipse fill="#61d2c4" stroke="#000000" cx="43" cy="-452" rx="27" ry="18"/>
<text text-anchor="middle" x="43" y="-449" font-family="Monospace" font-size="10.00" fill="#000000">malakai</text>
</g>
<!-- node13071&#45;&gt;node13068 -->
<g id="edge4" class="edge">
<title>node13071&#45;&gt;node13068</title>
<path fill="none" stroke="#000000" d="M35.9884,-434.2577C33.4078,-425.8902 33.3567,-419.399 35.8352,-407.7998"/>
<polygon fill="#000000" stroke="#000000" points="39.3003,-408.3584 38.2236,-397.8184 32.4925,-406.7293 39.3003,-408.3584"/>
</g>
<!-- node13079 -->
<g id="node12" class="node">
<title>node13079</title>
<ellipse fill="#61d2c4" stroke="#000000" cx="169" cy="-380" rx="27" ry="18"/>
<text text-anchor="middle" x="169" y="-377" font-family="Monospace" font-size="10.00" fill="#000000">ivy</text>
</g>
<!-- node13071&#45;&gt;node13079 -->
<g id="edge5" class="edge">
<title>node13071&#45;&gt;node13079</title>
<path fill="none" stroke="#000000" d="M66.7952,-443.0266C86.0555,-435.1403 99.4564,-426.9026 141.3706,-398.672"/>
<polygon fill="#000000" stroke="#000000" points="143.5063,-401.4532 149.8391,-392.9593 139.5916,-395.6502 143.5063,-401.4532"/>
</g>
<!-- node13072 -->
<g id="node5" class="node">
<title>node13072</title>
<ellipse fill="#61d2c4" stroke="#000000" cx="421" cy="-380" rx="27" ry="18"/>
<text text-anchor="middle" x="421" y="-377" font-family="Monospace" font-size="10.00" fill="#000000">max</text>
</g>
<!-- node13073 -->
<g id="node6" class="node">
<title>node13073</title>
<ellipse fill="#61d2c4" stroke="#000000" cx="421" cy="-308" rx="27" ry="18"/>
<text text-anchor="middle" x="421" y="-305" font-family="Monospace" font-size="10.00" fill="#000000">Bridget</text>
</g>
<!-- node13072&#45;&gt;node13073 -->
<g id="edge6" class="edge">
<title>node13072&#45;&gt;node13073</title>
<path fill="none" stroke="#0000ff" d="M428.2788,-362.3173C431.8175,-352.4002 432.3321,-345.9191 429.8226,-335.5246"/>
<polygon fill="#0000ff" stroke="#0000ff" points="433.1286,-334.3562 427.0033,-325.7114 426.4007,-336.2891 433.1286,-334.3562"/>
</g>
<!-- node13084 -->
<g id="node15" class="node">
<title>node13084</title>
<polygon fill="#768572" stroke="#000000" points="374,-209.9946 368.6523,-225.2228 347,-232 325.3477,-225.2228 320,-209.9946 334.9839,-197.7826 359.0161,-197.7826 374,-209.9946"/>
<text text-anchor="middle" x="347" y="-211" font-family="Monospace" font-size="10.00" fill="#000000">cosmo</text>
</g>
<!-- node13073&#45;&gt;node13084 -->
<!-- node13074 -->
<g id="node7" class="node">
<title>node13074</title>
<ellipse fill="#61d2c4" stroke="#000000" cx="421" cy="-452" rx="27" ry="18"/>
<text text-anchor="middle" x="421" y="-449" font-family="Monospace" font-size="10.00" fill="#000000">simone</text>
</g>
<!-- node13074&#45;&gt;node13072 -->
<g id="edge8" class="edge">
<title>node13074&#45;&gt;node13072</title>
<path fill="none" stroke="#000000" d="M428.0116,-434.2577C430.5922,-425.8902 430.6433,-419.399 428.1648,-407.7998"/>
<polygon fill="#000000" stroke="#000000" points="431.5075,-406.7293 425.7764,-397.8184 424.6997,-408.3584 431.5075,-406.7293"/>
</g>
<!-- node13078 -->
<g id="node11" class="node">
<title>node13078</title>
<ellipse fill="#61d2c4" stroke="#000000" cx="295" cy="-380" rx="27" ry="18"/>
<text text-anchor="middle" x="295" y="-377" font-family="Monospace" font-size="10.00" fill="#000000">summer</text>
</g>
<!-- node13074&#45;&gt;node13078 -->
<g id="edge9" class="edge">
<title>node13074&#45;&gt;node13078</title>
<path fill="none" stroke="#00ee00" d="M397.2048,-443.0266C377.9445,-435.1403 364.5436,-426.9026 322.6294,-398.672"/>
<polygon fill="#00ee00" stroke="#00ee00" points="324.4084,-395.6502 314.1609,-392.9593 320.4937,-401.4532 324.4084,-395.6502"/>
</g>
<!-- node13074&#45;&gt;node13079 -->
<g id="edge10" class="edge">
<title>node13074&#45;&gt;node13079</title>
<path fill="none" stroke="#00ee00" d="M394.1516,-454.7625C323.2092,-461.5378 306.6054,-456.0008 199.0468,-396.6392"/>
<polygon fill="#00ee00" stroke="#00ee00" points="200.5506,-393.4714 190.1053,-391.6972 197.1644,-399.5979 200.5506,-393.4714"/>
</g>
<!-- node13075&#45;&gt;node13078 -->
<g id="edge12" class="edge">
<title>node13075&#45;&gt;node13078</title>
<path fill="none" stroke="#000000" d="M299.3099,-433.7971C300.1965,-427.2051 299.9494,-420.4252 298.5688,-408.1399"/>
<polygon fill="#000000" stroke="#000000" points="302.0356,-407.6541 297.3631,-398.1453 295.086,-408.4925 302.0356,-407.6541"/>
</g>
<!-- node13077 -->
<g id="node10" class="node">
<title>node13077</title>
<ellipse fill="#61d2c4" stroke="#000000" cx="421" cy="-524" rx="27" ry="18"/>
<text text-anchor="middle" x="421" y="-521" font-family="Monospace" font-size="10.00" fill="#000000">kacey</text>
</g>
<!-- node13077&#45;&gt;node13075 -->
<g id="edge14" class="edge">
<title>node13077&#45;&gt;node13075</title>
<path fill="none" stroke="#000000" d="M395.7544,-517.4595C375.1025,-511.2438 362.4882,-503.4657 326.6293,-476.2497"/>
<polygon fill="#000000" stroke="#000000" points="328.6884,-473.4184 318.6134,-470.1407 324.4454,-478.9859 328.6884,-473.4184"/>
</g>
<!-- node13077&#45;&gt;node13084 -->
<g id="edge13" class="edge">
<title>node13077&#45;&gt;node13084</title>
<path fill="none" stroke="#ff1493" d="M423.8187,-505.7961C439.49,-403.3325 436.2076,-390.173 359.7382,-239.1234"/>
<polygon fill="#ff1493" stroke="#ff1493" points="362.7224,-237.2692 355.0807,-229.9306 356.4781,-240.4329 362.7224,-237.2692"/>
</g>
<!-- node13078&#45;&gt;node13084 -->
<!-- node13081 -->
<g id="node13" class="node">
<title>node13081</title>
<ellipse fill="#acf5ab" stroke="#000000" cx="243" cy="-41" rx="27" ry="18"/>
<text text-anchor="middle" x="243" y="-38" font-family="Monospace" font-size="10.00" fill="#000000">huxley</text>
</g>
<!-- node13079&#45;&gt;node13081 -->
<g id="edge16" class="edge">
<title>node13079&#45;&gt;node13081</title>
<path fill="none" stroke="#ff0000" d="M170.1896,-361.8597C183.1203,-165.006 185.5748,-144.2298 228.2671,-67.2065"/>
<polygon fill="#ff0000" stroke="#ff0000" points="231.5674,-68.475 233.3853,-58.0373 225.4551,-65.0631 231.5674,-68.475"/>
</g>
<!-- node13083 -->
<g id="node14" class="node">
<title>node13083</title>
<ellipse fill="#768572" stroke="#000000" cx="347" cy="-142" rx="27" ry="18"/>
<text text-anchor="middle" x="347" y="-139" font-family="Monospace" font-size="10.00" fill="#000000">eliza</text>
</g>
<!-- node13083&#45;&gt;node13081 -->
<!-- node13084&#45;&gt;node13083 -->
<g id="edge11" class="edge">
<title>node13084&#45;&gt;node13083</title>
<path fill="none" stroke="#ff1493" d="M350.6527,-197.5117C353.4725,-184.4189 354.8322,-176.4501 354.7318,-169.7715"/>
<polygon fill="#ff1493" stroke="#ff1493" points="358.1897,-169.224 353.3723,-159.7877 351.2537,-170.1685 358.1897,-169.224"/>
</g>
</g>
</svg>
