<?xml version="1.0" encoding="UTF-8"?><svg xmlns="http://www.w3.org/2000/svg" xmlns:xlink="http://www.w3.org/1999/xlink" width="965pt" height="812pt" viewBox="0.00 0.00 964.80 811.55">
<g id="graph0" class="graph" transform="scale(1 1) rotate(0) translate(14.4 797.15)">
<title>%3</title>
<polygon fill="#ffffff" stroke="transparent" points="-14.4,14.4 -14.4,-797.15 950.4,-797.15 950.4,14.4 -14.4,14.4"/>
<g id="clust1" class="cluster">
<title>cluster36218</title>
<polygon fill="#f2f9d7" stroke="#000000" points="8,-774 8,-8 928,-8 928,-774 8,-774"/>
<text text-anchor="start" x="18" y="-756" font-family="Helvetica" font-size="14.00" fill="#000000">Current State</text>
</g>
<g id="clust2" class="cluster">
<title>cluster36219</title>
<polygon fill="#f2f9d7" stroke="#000000" points="9,-300 9,-202 928,-202 928,-300 9,-300"/>
<text text-anchor="start" x="19" y="-282" font-family="Helvetica" font-size="14.00" fill="#000000">Regulatory Reporting</text>
</g>
<g id="clust3" class="cluster">
<title>cluster36220</title>
<polygon fill="#f2f9d7" stroke="#000000" points="8,-395 8,-300 928,-300 928,-395 8,-395"/>
<text text-anchor="start" x="18" y="-377" font-family="Helvetica" font-size="14.00" fill="#000000">Risk &amp; Valuation</text>
</g>
<g id="clust4" class="cluster">
<title>cluster36221</title>
<polygon fill="#f2f9d7" stroke="#000000" points="8,-635 8,-502 928,-502 928,-635 8,-635"/>
<text text-anchor="start" x="18" y="-617" font-family="Helvetica" font-size="14.00" fill="#000000">Trade Capture</text>
</g>
<g id="clust5" class="cluster">
<title>cluster36222</title>
<polygon fill="#f2f9d7" stroke="#000000" points="8,-738 8,-635 928,-635 928,-738 8,-738"/>
<text text-anchor="start" x="18" y="-720" font-family="Helvetica" font-size="14.00" fill="#000000">Ref Data</text>
</g>
<g id="clust6" class="cluster">
<title>cluster36223</title>
<polygon fill="#f2f9d7" stroke="#000000" points="8,-202 8,-114 928,-114 928,-202 8,-202"/>
<text text-anchor="start" x="18" y="-184" font-family="Helvetica" font-size="14.00" fill="#000000">Derivatives &amp; Securities Settlement</text>
</g>
<g id="clust7" class="cluster">
<title>cluster36224</title>
<polygon fill="#f2f9d7" stroke="#000000" points="8,-114 8,-8 928,-8 928,-114 8,-114"/>
<text text-anchor="start" x="18" y="-96" font-family="Helvetica" font-size="14.00" fill="#000000">Compliance &amp; AFC</text>
</g>
<g id="clust8" class="cluster">
<title>cluster36225</title>
<polygon fill="#f2f9d7" stroke="#000000" points="8,-502 8,-395 928,-395 928,-502 8,-502"/>
<text text-anchor="start" x="18" y="-484" font-family="Helvetica" font-size="14.00" fill="#000000">Trade &amp; Position Mgt</text>
</g>

<g id="node1" class="node">
<title>node36196</title>
<g id="a_node1"><a xlink:title="application: GED Imagine" target="_blank">
<path fill="#e8eef7" stroke="#000000" d="M554.0244,-453.7273C554.0244,-455.5331 537.4295,-457 517,-457 496.5705,-457 479.9756,-455.5331 479.9756,-453.7273 479.9756,-453.7273 479.9756,-424.2727 479.9756,-424.2727 479.9756,-422.4669 496.5705,-421 517,-421 537.4295,-421 554.0244,-422.4669 554.0244,-424.2727 554.0244,-424.2727 554.0244,-453.7273 554.0244,-453.7273"/>
<path fill="none" stroke="#000000" d="M554.0244,-453.7273C554.0244,-451.9214 537.4295,-450.4545 517,-450.4545 496.5705,-450.4545 479.9756,-451.9214 479.9756,-453.7273"/>
<text text-anchor="middle" x="517" y="-436" font-family="Helvetica" font-size="10.00" fill="#000000">GED Imagine</text>
</a>
</g>
</g>

<g id="node11" class="node">
<title>node36206</title>
<g id="a_node11"><a xlink:title="application: Flowrisk" target="_blank">
<path fill="#e8eef7" stroke="#000000" d="M546,-350.7273C546,-352.5331 533.8982,-354 519,-354 504.1018,-354 492,-352.5331 492,-350.7273 492,-350.7273 492,-321.2727 492,-321.2727 492,-319.4669 504.1018,-318 519,-318 533.8982,-318 546,-319.4669 546,-321.2727 546,-321.2727 546,-350.7273 546,-350.7273"/>
<path fill="none" stroke="#000000" d="M546,-350.7273C546,-348.9214 533.8982,-347.4545 519,-347.4545 504.1018,-347.4545 492,-348.9214 492,-350.7273"/>
<text text-anchor="middle" x="519" y="-333" font-family="Helvetica" font-size="10.00" fill="#000000">Flowrisk</text>
</a>
</g>
</g>

<g id="edge1" class="edge">
<title>node36196-&gt;node36206</title>
<path fill="none" stroke="#6b8e23" d="M519,-420.5857C519,-420.5857 519,-364.2549 519,-364.2549"/>
<polygon fill="#6b8e23" stroke="#6b8e23" points="522.5001,-364.2549 519,-354.2549 515.5001,-364.2549 522.5001,-364.2549"/>
</g>

<g id="node2" class="node">
<title>node36197</title>
<g id="a_node2"><a xlink:title="application: Actimize" target="_blank">
<polygon fill="#e8eef7" stroke="#000000" points="611,-72 557,-72 557,-36 611,-36 611,-72"/>
<text text-anchor="middle" x="584" y="-51" font-family="Helvetica" font-size="10.00" fill="#000000">Actimize</text>
</a>
</g>
</g>

<g id="node3" class="node">
<title>node36198</title>
<g id="a_node3"><a xlink:title="application: eSpear" target="_blank">
<path fill="#e8eef7" stroke="#000000" d="M611,-162.7273C611,-164.5331 598.8982,-166 584,-166 569.1018,-166 557,-164.5331 557,-162.7273 557,-162.7273 557,-133.2727 557,-133.2727 557,-131.4669 569.1018,-130 584,-130 598.8982,-130 611,-131.4669 611,-133.2727 611,-133.2727 611,-162.7273 611,-162.7273"/>
<path fill="none" stroke="#000000" d="M611,-162.7273C611,-160.9214 598.8982,-159.4545 584,-159.4545 569.1018,-159.4545 557,-160.9214 557,-162.7273"/>
<text text-anchor="middle" x="584" y="-145" font-family="Helvetica" font-size="10.00" fill="#000000">eSpear</text>
</a>
</g>
</g>


<g id="node4" class="node">
<title>node36199</title>
<g id="a_node4"><a xlink:title="application: Quorum" target="_blank">
<path fill="#e8eef7" stroke="#000000" d="M882,-694.1023C882,-695.9081 869.8982,-697.375 855,-697.375 840.1018,-697.375 828,-695.9081 828,-694.1023 828,-694.1023 828,-664.6477 828,-664.6477 828,-662.8419 840.1018,-661.375 855,-661.375 869.8982,-661.375 882,-662.8419 882,-664.6477 882,-664.6477 882,-694.1023 882,-694.1023"/>
<path fill="none" stroke="#000000" d="M882,-694.1023C882,-692.2964 869.8982,-690.8295 855,-690.8295 840.1018,-690.8295 828,-692.2964 828,-694.1023"/>
<text text-anchor="middle" x="855" y="-676.375" font-family="Helvetica" font-size="10.00" fill="#000000">Quorum</text>
</a>
</g>
</g>


<g id="node5" class="node">
<title>node36200</title>
<g id="a_node5"><a xlink:title="application: DBClient" target="_blank">
<path fill="#e8eef7" stroke="#000000" d="M792,-694.1023C792,-695.9081 779.8982,-697.375 765,-697.375 750.1018,-697.375 738,-695.9081 738,-694.1023 738,-694.1023 738,-664.6477 738,-664.6477 738,-662.8419 750.1018,-661.375 765,-661.375 779.8982,-661.375 792,-662.8419 792,-664.6477 792,-664.6477 792,-694.1023 792,-694.1023"/>
<path fill="none" stroke="#000000" d="M792,-694.1023C792,-692.2964 779.8982,-690.8295 765,-690.8295 750.1018,-690.8295 738,-692.2964 738,-694.1023"/>
<text text-anchor="middle" x="765" y="-676.375" font-family="Helvetica" font-size="10.00" fill="#000000">DBClient</text>
</a>
</g>
</g>


<g id="node6" class="node">
<title>node36201</title>
<g id="a_node6"><a xlink:title="application: Smarts Broker" target="_blank">
<polygon fill="#e8eef7" stroke="#000000" points="706.9014,-72 629.0986,-72 629.0986,-36 706.9014,-36 706.9014,-72"/>
<text text-anchor="middle" x="668" y="-51" font-family="Helvetica" font-size="10.00" fill="#000000">Smarts Broker</text>
</a>
</g>
</g>

<g id="node7" class="node">
<title>node36202</title>
<g id="a_node7"><a xlink:title="application: DBTicket" target="_blank">
<path fill="#e8eef7" stroke="#000000" d="M439.1957,-575.7273C439.1957,-577.5331 427.0061,-579 412,-579 396.9939,-579 384.8043,-577.5331 384.8043,-575.7273 384.8043,-575.7273 384.8043,-546.2727 384.8043,-546.2727 384.8043,-544.4669 396.9939,-543 412,-543 427.0061,-543 439.1957,-544.4669 439.1957,-546.2727 439.1957,-546.2727 439.1957,-575.7273 439.1957,-575.7273"/>
<path fill="none" stroke="#000000" d="M439.1957,-575.7273C439.1957,-573.9214 427.0061,-572.4545 412,-572.4545 396.9939,-572.4545 384.8043,-573.9214 384.8043,-575.7273"/>
<text text-anchor="middle" x="412" y="-558" font-family="Helvetica" font-size="10.00" fill="#000000">DBTicket</text>
</a>
</g>
</g>

<g id="node8" class="node">
<title>node36203</title>
<g id="a_node8"><a xlink:title="application: CONFIRMATIONS+EDI+Scittura+DDoc Engine" target="_blank">
<polygon fill="#c6ddf2" stroke="#000000" points="461.6495,-466 364.3505,-466 364.3505,-412 461.6495,-412 461.6495,-466"/>
<text text-anchor="middle" x="413" y="-451" font-family="Helvetica" font-size="10.00" fill="#000000">CONFIRMATIONS</text>
<text text-anchor="middle" x="413" y="-441" font-family="Helvetica" font-size="10.00" fill="#000000">EDI</text>
<text text-anchor="middle" x="413" y="-431" font-family="Helvetica" font-size="10.00" fill="#000000">Scittura</text>
<text text-anchor="middle" x="413" y="-421" font-family="Helvetica" font-size="10.00" fill="#000000">DDoc Engine</text>
</a>
</g>
</g>

<g id="edge5" class="edge">
<title>node36202-&gt;node36203</title>
<path fill="none" stroke="#000000" stroke-dasharray="1,5" d="M402.9674,-542.9985C402.9674,-542.9985 402.9674,-476.1089 402.9674,-476.1089"/>
<polygon fill="#000000" stroke="#000000" points="406.4675,-476.1089 402.9674,-466.1089 399.4675,-476.1089 406.4675,-476.1089"/>
</g>

<g id="node21" class="node">
<title>node36216</title>
<g id="a_node21"><a xlink:title="application: dbTradeStore" target="_blank">
<path fill="#e8eef7" stroke="#000000" d="M620.2816,-256.7273C620.2816,-258.5331 603.5714,-260 583,-260 562.4286,-260 545.7184,-258.5331 545.7184,-256.7273 545.7184,-256.7273 545.7184,-227.2727 545.7184,-227.2727 545.7184,-225.4669 562.4286,-224 583,-224 603.5714,-224 620.2816,-225.4669 620.2816,-227.2727 620.2816,-227.2727 620.2816,-256.7273 620.2816,-256.7273"/>
<path fill="none" stroke="#000000" d="M620.2816,-256.7273C620.2816,-254.9214 603.5714,-253.4545 583,-253.4545 562.4286,-253.4545 545.7184,-254.9214 545.7184,-256.7273"/>
<text text-anchor="middle" x="583" y="-239" font-family="Helvetica" font-size="10.00" fill="#000000">dbTradeStore</text>
</a>
</g>
</g>

<g id="edge6" class="edge">
<title>node36202-&gt;node36216</title>
<path fill="none" stroke="#000000" stroke-dasharray="1,5" d="M421.0326,-542.9652C421.0326,-523.4238 421.0326,-495 421.0326,-495 421.0326,-495 589.7688,-495 589.7688,-495 589.7688,-495 589.7688,-270.1951 589.7688,-270.1951"/>
<polygon fill="#000000" stroke="#000000" points="593.2689,-270.1951 589.7688,-260.1951 586.2689,-270.1952 593.2689,-270.1951"/>
</g>

<g id="node9" class="node">
<title>node36204</title>
<g id="a_node9"><a xlink:title="application: irds" target="_blank">
<path fill="#e8eef7" stroke="#000000" d="M702,-694.1023C702,-695.9081 689.8982,-697.375 675,-697.375 660.1018,-697.375 648,-695.9081 648,-694.1023 648,-694.1023 648,-664.6477 648,-664.6477 648,-662.8419 660.1018,-661.375 675,-661.375 689.8982,-661.375 702,-662.8419 702,-664.6477 702,-664.6477 702,-694.1023 702,-694.1023"/>
<path fill="none" stroke="#000000" d="M702,-694.1023C702,-692.2964 689.8982,-690.8295 675,-690.8295 660.1018,-690.8295 648,-692.2964 648,-694.1023"/>
<text text-anchor="middle" x="675" y="-676.375" font-family="Helvetica" font-size="10.00" fill="#000000">irds</text>
</a>
</g>
</g>


<g id="node10" class="node">
<title>node36205</title>
<g id="a_node10"><a xlink:title="application: GBA" target="_blank">
<path fill="#e8eef7" stroke="#000000" d="M719,-575.7273C719,-577.5331 706.8982,-579 692,-579 677.1018,-579 665,-577.5331 665,-575.7273 665,-575.7273 665,-546.2727 665,-546.2727 665,-544.4669 677.1018,-543 692,-543 706.8982,-543 719,-544.4669 719,-546.2727 719,-546.2727 719,-575.7273 719,-575.7273"/>
<path fill="none" stroke="#000000" d="M719,-575.7273C719,-573.9214 706.8982,-572.4545 692,-572.4545 677.1018,-572.4545 665,-573.9214 665,-575.7273"/>
<text text-anchor="middle" x="692" y="-558" font-family="Helvetica" font-size="10.00" fill="#000000">GBA</text>
</a>
</g>
</g>

<g id="edge8" class="edge">
<title>node36205-&gt;node36198</title>
<path fill="none" stroke="#000000" stroke-dasharray="1,5" d="M685.9753,-542.9883C685.9753,-463.4977 685.9753,-148 685.9753,-148 685.9753,-148 621.0598,-148 621.0598,-148"/>
<polygon fill="#000000" stroke="#000000" points="621.0598,-144.5001 611.0598,-148 621.0598,-151.5001 621.0598,-144.5001"/>
</g>


<g id="node12" class="node">
<title>node36207</title>
<g id="a_node12"><a xlink:title="application: Combat" target="_blank">
<path fill="#e8eef7" stroke="#000000" d="M791,-575.7273C791,-577.5331 778.8982,-579 764,-579 749.1018,-579 737,-577.5331 737,-575.7273 737,-575.7273 737,-546.2727 737,-546.2727 737,-544.4669 749.1018,-543 764,-543 778.8982,-543 791,-544.4669 791,-546.2727 791,-546.2727 791,-575.7273 791,-575.7273"/>
<path fill="none" stroke="#000000" d="M791,-575.7273C791,-573.9214 778.8982,-572.4545 764,-572.4545 749.1018,-572.4545 737,-573.9214 737,-575.7273"/>
<text text-anchor="middle" x="764" y="-558" font-family="Helvetica" font-size="10.00" fill="#000000">Combat</text>
</a>
</g>
</g>

<g id="edge10" class="edge">
<title>node36207-&gt;node36197</title>
<path fill="none" stroke="#000000" stroke-dasharray="1,5" d="M764,-542.9675C764,-457.9201 764,-101 764,-101 764,-101 593,-101 593,-101 593,-101 593,-82.037 593,-82.037"/>
<polygon fill="#000000" stroke="#000000" points="596.5001,-82.037 593,-72.037 589.5001,-82.037 596.5001,-82.037"/>
</g>

<g id="node13" class="node">
<title>node36208</title>
<g id="a_node13"><a xlink:title="application: crds" target="_blank">
<path fill="#e8eef7" stroke="#000000" d="M630,-694.1023C630,-695.9081 617.8982,-697.375 603,-697.375 588.1018,-697.375 576,-695.9081 576,-694.1023 576,-694.1023 576,-664.6477 576,-664.6477 576,-662.8419 588.1018,-661.375 603,-661.375 617.8982,-661.375 630,-662.8419 630,-664.6477 630,-664.6477 630,-694.1023 630,-694.1023"/>
<path fill="none" stroke="#000000" d="M630,-694.1023C630,-692.2964 617.8982,-690.8295 603,-690.8295 588.1018,-690.8295 576,-692.2964 576,-694.1023"/>
<text text-anchor="middle" x="603" y="-676.375" font-family="Helvetica" font-size="10.00" fill="#000000">crds</text>
</a>
</g>
</g>

<g id="node19" class="node">
<title>node36214</title>
<g id="a_node19"><a xlink:title="application: FRONT OFFICE+Emma+Arina+OTL+Expressway+Fidessa CTR" target="_blank">
<polygon fill="#c6ddf2" stroke="#000000" points="646.7065,-598 559.2935,-598 559.2935,-524 646.7065,-524 646.7065,-598"/>
<text text-anchor="middle" x="603" y="-583" font-family="Helvetica" font-size="10.00" fill="#000000">FRONT OFFICE</text>
<text text-anchor="middle" x="603" y="-573" font-family="Helvetica" font-size="10.00" fill="#000000">Emma</text>
<text text-anchor="middle" x="603" y="-563" font-family="Helvetica" font-size="10.00" fill="#000000">Arina</text>
<text text-anchor="middle" x="603" y="-553" font-family="Helvetica" font-size="10.00" fill="#000000">OTL</text>
<text text-anchor="middle" x="603" y="-543" font-family="Helvetica" font-size="10.00" fill="#000000">Expressway</text>
<text text-anchor="middle" x="603" y="-533" font-family="Helvetica" font-size="10.00" fill="#000000">Fidessa CTR</text>
</a>
</g>
</g>


<g id="node14" class="node">
<title>node36209</title>
<g id="a_node14"><a xlink:title="application: erds" target="_blank">
<path fill="#e8eef7" stroke="#000000" d="M540,-694.1023C540,-695.9081 527.8982,-697.375 513,-697.375 498.1018,-697.375 486,-695.9081 486,-694.1023 486,-694.1023 486,-664.6477 486,-664.6477 486,-662.8419 498.1018,-661.375 513,-661.375 527.8982,-661.375 540,-662.8419 540,-664.6477 540,-664.6477 540,-694.1023 540,-694.1023"/>
<path fill="none" stroke="#000000" d="M540,-694.1023C540,-692.2964 527.8982,-690.8295 513,-690.8295 498.1018,-690.8295 486,-692.2964 486,-694.1023"/>
<text text-anchor="middle" x="513" y="-676.375" font-family="Helvetica" font-size="10.00" fill="#000000">erds</text>
</a>
</g>
</g>


<g id="node15" class="node">
<title>node36210</title>
<g id="a_node15"><a xlink:title="application: ER" target="_blank">
<path fill="#e8eef7" stroke="#000000" d="M450,-694.1023C450,-695.9081 437.8982,-697.375 423,-697.375 408.1018,-697.375 396,-695.9081 396,-694.1023 396,-694.1023 396,-664.6477 396,-664.6477 396,-662.8419 408.1018,-661.375 423,-661.375 437.8982,-661.375 450,-662.8419 450,-664.6477 450,-664.6477 450,-694.1023 450,-694.1023"/>
<path fill="none" stroke="#000000" d="M450,-694.1023C450,-692.2964 437.8982,-690.8295 423,-690.8295 408.1018,-690.8295 396,-692.2964 396,-694.1023"/>
<text text-anchor="middle" x="423" y="-676.375" font-family="Helvetica" font-size="10.00" fill="#000000">ER</text>
</a>
</g>
</g>


<g id="node16" class="node">
<title>node36211</title>
<g id="a_node16"><a xlink:title="application: Txn Norm'n" target="_blank">
<path fill="#e8eef7" stroke="#000000" d="M522.8633,-575.7273C522.8633,-577.5331 508.1335,-579 490,-579 471.8665,-579 457.1367,-577.5331 457.1367,-575.7273 457.1367,-575.7273 457.1367,-546.2727 457.1367,-546.2727 457.1367,-544.4669 471.8665,-543 490,-543 508.1335,-543 522.8633,-544.4669 522.8633,-546.2727 522.8633,-546.2727 522.8633,-575.7273 522.8633,-575.7273"/>
<path fill="none" stroke="#000000" d="M522.8633,-575.7273C522.8633,-573.9214 508.1335,-572.4545 490,-572.4545 471.8665,-572.4545 457.1367,-573.9214 457.1367,-575.7273"/>
<text text-anchor="middle" x="490" y="-558" font-family="Helvetica" font-size="10.00" fill="#000000">Txn Norm'n</text>
</a>
</g>
</g>


<g id="node17" class="node">
<title>node36212</title>
<g id="a_node17"><a xlink:title="application: prds" target="_blank">
<path fill="#e8eef7" stroke="#000000" d="M360,-694.1023C360,-695.9081 347.8982,-697.375 333,-697.375 318.1018,-697.375 306,-695.9081 306,-694.1023 306,-694.1023 306,-664.6477 306,-664.6477 306,-662.8419 318.1018,-661.375 333,-661.375 347.8982,-661.375 360,-662.8419 360,-664.6477 360,-664.6477 360,-694.1023 360,-694.1023"/>
<path fill="none" stroke="#000000" d="M360,-694.1023C360,-692.2964 347.8982,-690.8295 333,-690.8295 318.1018,-690.8295 306,-692.2964 306,-694.1023"/>
<text text-anchor="middle" x="333" y="-676.375" font-family="Helvetica" font-size="10.00" fill="#000000">prds</text>
</a>
</g>
</g>


<g id="node18" class="node">
<title>node36213</title>
<g id="a_node18"><a xlink:title="application: brds" target="_blank">
<path fill="#e8eef7" stroke="#000000" d="M270,-694.1023C270,-695.9081 257.8982,-697.375 243,-697.375 228.1018,-697.375 216,-695.9081 216,-694.1023 216,-694.1023 216,-664.6477 216,-664.6477 216,-662.8419 228.1018,-661.375 243,-661.375 257.8982,-661.375 270,-662.8419 270,-664.6477 270,-664.6477 270,-694.1023 270,-694.1023"/>
<path fill="none" stroke="#000000" d="M270,-694.1023C270,-692.2964 257.8982,-690.8295 243,-690.8295 228.1018,-690.8295 216,-692.2964 216,-694.1023"/>
<text text-anchor="middle" x="243" y="-676.375" font-family="Helvetica" font-size="10.00" fill="#000000">brds</text>
</a>
</g>
</g>



<g id="edge18" class="edge">
<title>node36214-&gt;node36201</title>
<path fill="none" stroke="#000000" stroke-dasharray="1,5" d="M637.9512,-523.7191C637.9512,-523.7191 637.9512,-82.2712 637.9512,-82.2712"/>
<polygon fill="#000000" stroke="#000000" points="641.4513,-82.2711 637.9512,-72.2712 634.4513,-82.2712 641.4513,-82.2711"/>
</g>

<g id="node20" class="node">
<title>node36215</title>
<g id="a_node20"><a xlink:title="application: PBGO" target="_blank">
<path fill="#e8eef7" stroke="#000000" d="M180,-694.1023C180,-695.9081 167.8982,-697.375 153,-697.375 138.1018,-697.375 126,-695.9081 126,-694.1023 126,-694.1023 126,-664.6477 126,-664.6477 126,-662.8419 138.1018,-661.375 153,-661.375 167.8982,-661.375 180,-662.8419 180,-664.6477 180,-664.6477 180,-694.1023 180,-694.1023"/>
<path fill="none" stroke="#000000" d="M180,-694.1023C180,-692.2964 167.8982,-690.8295 153,-690.8295 138.1018,-690.8295 126,-692.2964 126,-694.1023"/>
<text text-anchor="middle" x="153" y="-676.375" font-family="Helvetica" font-size="10.00" fill="#000000">PBGO</text>
</a>
</g>
</g>



<g id="node22" class="node">
<title>node36217</title>
<g id="a_node22"><a xlink:title="application: DBInstr-+ment" target="_blank">
<path fill="#e8eef7" stroke="#000000" d="M90,-698.3983C90,-700.7309 77.8982,-702.6257 63,-702.6257 48.1018,-702.6257 36,-700.7309 36,-698.3983 36,-698.3983 36,-660.3517 36,-660.3517 36,-658.0191 48.1018,-656.1243 63,-656.1243 77.8982,-656.1243 90,-658.0191 90,-660.3517 90,-660.3517 90,-698.3983 90,-698.3983"/>
<path fill="none" stroke="#000000" d="M90,-698.3983C90,-696.0657 77.8982,-694.1709 63,-694.1709 48.1018,-694.1709 36,-696.0657 36,-698.3983"/>
<text text-anchor="middle" x="63" y="-681.375" font-family="Helvetica" font-size="10.00" fill="#000000">DBInstr-</text>
<text text-anchor="middle" x="63" y="-671.375" font-family="Helvetica" font-size="10.00" fill="#000000">ment</text>
</a>
</g>
</g>

</g>
</svg>