<?xml version="1.0" encoding="UTF-8" standalone="no"?>
<!DOCTYPE svg PUBLIC "-//W3C//DTD SVG 1.1//EN"
 "http://www.w3.org/Graphics/SVG/1.1/DTD/svg11.dtd">
<!-- Generated by graphviz version 2.40.1 (20161225.0304)
 -->
<!-- Title: %3 Pages: 1 -->
<svg width="552pt" height="500pt"
 viewBox="0.00 0.00 552.00 500.00" xmlns="http://www.w3.org/2000/svg" xmlns:xlink="http://www.w3.org/1999/xlink">
<g id="graph0" class="graph" transform="scale(1 1) rotate(0) translate(72 428)">
<title>%3</title>
<polygon fill="#ffffff" stroke="transparent" points="-72,72 -72,-428 480,-428 480,72 -72,72"/>
<g id="clust1" class="cluster">
<title>cluster10058</title>
<polygon fill="#98fb98" stroke="#32cd32" points="306,-104 306,-274 400,-274 400,-104 306,-104"/>
<text text-anchor="middle" x="353" y="-258.8" font-family="Monospace" font-size="14.00" fill="#000000">brownbears</text>
</g>
<g id="clust2" class="cluster">
<title>cluster10059</title>
<path fill="#ffc0cb" stroke="#000000" d="M314,-8C314,-8 374,-8 374,-8 380,-8 386,-14 386,-20 386,-20 386,-84 386,-84 386,-90 380,-96 374,-96 374,-96 314,-96 314,-96 308,-96 302,-90 302,-84 302,-84 302,-20 302,-20 302,-14 308,-8 314,-8"/>
<text text-anchor="middle" x="344" y="-80.8" font-family="Monospace" font-size="14.00" fill="#000000">squirrels</text>
</g>
<g id="clust3" class="cluster">
<title>cluster10060</title>
<path fill="#fff8dc" stroke="#000000" d="M20,-15C20,-15 282,-15 282,-15 288,-15 294,-21 294,-27 294,-27 294,-336 294,-336 294,-342 288,-348 282,-348 282,-348 20,-348 20,-348 14,-348 8,-342 8,-336 8,-336 8,-27 8,-27 8,-21 14,-15 20,-15"/>
<text text-anchor="middle" x="151" y="-332.8" font-family="Monospace" font-size="14.00" fill="#000000">pandas</text>
</g>
<!-- node10043 -->
<g id="node1" class="node">
<title>node10043</title>
<ellipse fill="#98b56d" stroke="#000000" cx="259" cy="-142" rx="27" ry="18"/>
<text text-anchor="middle" x="259" y="-139" font-family="Monospace" font-size="10.00" fill="#000000">delila</text>
</g>
<!-- node10044 -->
<g id="node2" class="node">
<title>node10044</title>
<ellipse fill="#b4f676" stroke="#000000" cx="344" cy="-41" rx="27" ry="18"/>
<text text-anchor="middle" x="344" y="-38" font-family="Monospace" font-size="10.00" fill="#000000">huxley</text>
</g>
<!-- node10045 -->
<g id="node3" class="node">
<title>node10045</title>
<ellipse fill="#a7a470" stroke="#000000" cx="43" cy="-300" rx="27" ry="18"/>
<text text-anchor="middle" x="43" y="-297" font-family="Monospace" font-size="10.00" fill="#000000">cristolene</text>
</g>
<!-- node10053 -->
<g id="node11" class="node">
<title>node10053</title>
<polygon fill="#0000ff" stroke="#000000" points="70,-232 16,-232 16,-196 70,-196 70,-232"/>
<text text-anchor="middle" x="43" y="-211" font-family="Monospace" font-size="10.00" fill="#ffffff">sharhar</text>
</g>
<!-- node10045&#45;&gt;node10053 -->
<g id="edge1" class="edge">
<title>node10045&#45;&gt;node10053</title>
<path fill="none" stroke="#000000" d="M34,-283.0092C34,-283.0092 34,-242.1431 34,-242.1431"/>
<polygon fill="#000000" stroke="#000000" points="37.5001,-242.1431 34,-232.1431 30.5001,-242.1432 37.5001,-242.1431"/>
</g>
<!-- node10046 -->
<g id="node4" class="node">
<title>node10046</title>
<ellipse fill="#9df067" stroke="#000000" cx="187" cy="-300" rx="27" ry="18"/>
<text text-anchor="middle" x="187" y="-297" font-family="Monospace" font-size="10.00" fill="#000000">nikkai</text>
</g>
<!-- node10054 -->
<g id="node12" class="node">
<title>node10054</title>
<ellipse fill="#d0c3ce" stroke="#000000" cx="259" cy="-214" rx="27" ry="18"/>
<text text-anchor="middle" x="259" y="-211" font-family="Monospace" font-size="10.00" fill="#000000">isobel</text>
</g>
<!-- node10046&#45;&gt;node10054 -->
<g id="edge2" class="edge">
<title>node10046&#45;&gt;node10054</title>
<path fill="none" stroke="#000000" d="M214.0868,-300C220.7418,-300 226,-300 226,-300 226,-300 226,-220 226,-220 226,-220 226.7324,-220 226.7324,-220"/>
<polygon fill="#000000" stroke="#000000" points="223.3238,-223.5002 233.3238,-220 223.3237,-216.5002 223.3238,-223.5002"/>
</g>
<!-- node10047 -->
<g id="node5" class="node">
<title>node10047</title>
<ellipse fill="#a096ba" stroke="#000000" cx="353" cy="-142" rx="27" ry="18"/>
<text text-anchor="middle" x="353" y="-139" font-family="Monospace" font-size="10.00" fill="#000000">eliza</text>
</g>
<!-- node10048 -->
<g id="node6" class="node">
<title>node10048</title>
<ellipse fill="#aac381" stroke="#000000" cx="187" cy="-214" rx="27" ry="18"/>
<text text-anchor="middle" x="187" y="-211" font-family="Monospace" font-size="10.00" fill="#000000">malakai</text>
</g>
<!-- node10048&#45;&gt;node10043 -->
<g id="edge3" class="edge">
<title>node10048&#45;&gt;node10043</title>
<path fill="none" stroke="#000000" d="M212.6762,-208C216.9365,-208 220,-208 220,-208 220,-208 220,-142 220,-142 220,-142 221.9132,-142 221.9132,-142"/>
<polygon fill="#000000" stroke="#000000" points="221.9132,-145.5001 231.9132,-142 221.9132,-138.5001 221.9132,-145.5001"/>
</g>
<!-- node10057 -->
<g id="node15" class="node">
<title>node10057</title>
<ellipse fill="#c1c2bb" stroke="#000000" cx="187" cy="-142" rx="27" ry="18"/>
<text text-anchor="middle" x="187" y="-139" font-family="Monospace" font-size="10.00" fill="#000000">ivy</text>
</g>
<!-- node10048&#45;&gt;node10057 -->
<g id="edge4" class="edge">
<title>node10048&#45;&gt;node10057</title>
<path fill="none" stroke="#000000" d="M187,-195.8314C187,-195.8314 187,-170.4133 187,-170.4133"/>
<polygon fill="#000000" stroke="#000000" points="190.5001,-170.4132 187,-160.4133 183.5001,-170.4133 190.5001,-170.4132"/>
</g>
<!-- node10049 -->
<g id="node7" class="node">
<title>node10049</title>
<ellipse fill="#65e3cd" stroke="#000000" cx="115" cy="-142" rx="27" ry="18"/>
<text text-anchor="middle" x="115" y="-139" font-family="Monospace" font-size="10.00" fill="#000000">max</text>
</g>
<!-- node10050 -->
<g id="node8" class="node">
<title>node10050</title>
<ellipse fill="#8bed89" stroke="#000000" cx="115" cy="-41" rx="27" ry="18"/>
<text text-anchor="middle" x="115" y="-38" font-family="Monospace" font-size="10.00" fill="#000000">Bridget</text>
</g>
<!-- node10049&#45;&gt;node10050 -->
<g id="edge5" class="edge">
<title>node10049&#45;&gt;node10050</title>
<path fill="none" stroke="#0000ff" d="M115,-123.9432C115,-123.9432 115,-69.241 115,-69.241"/>
<polygon fill="#0000ff" stroke="#0000ff" points="118.5001,-69.2409 115,-59.241 111.5001,-69.241 118.5001,-69.2409"/>
</g>
<!-- node10051 -->
<g id="node9" class="node">
<title>node10051</title>
<ellipse fill="#adf6da" stroke="#000000" cx="115" cy="-214" rx="27" ry="18"/>
<text text-anchor="middle" x="115" y="-211" font-family="Monospace" font-size="10.00" fill="#000000">simone</text>
</g>
<!-- node10051&#45;&gt;node10049 -->
<g id="edge6" class="edge">
<title>node10051&#45;&gt;node10049</title>
<path fill="none" stroke="#000000" d="M115,-195.8314C115,-195.8314 115,-170.4133 115,-170.4133"/>
<polygon fill="#000000" stroke="#000000" points="118.5001,-170.4132 115,-160.4133 111.5001,-170.4133 118.5001,-170.4132"/>
</g>
<!-- node10056 -->
<g id="node14" class="node">
<title>node10056</title>
<ellipse fill="#c391b6" stroke="#000000" cx="43" cy="-142" rx="27" ry="18"/>
<text text-anchor="middle" x="43" y="-139" font-family="Monospace" font-size="10.00" fill="#000000">summer</text>
</g>
<!-- node10051&#45;&gt;node10056 -->
<g id="edge7" class="edge">
<title>node10051&#45;&gt;node10056</title>
<path fill="none" stroke="#00ee00" d="M87.7146,-214C82.6936,-214 79,-214 79,-214 79,-214 79,-142 79,-142 79,-142 78.1285,-142 78.1285,-142"/>
<polygon fill="#00ee00" stroke="#00ee00" points="80.2854,-138.5001 70.2854,-142 80.2854,-145.5001 80.2854,-138.5001"/>
</g>
<!-- node10051&#45;&gt;node10057 -->
<g id="edge8" class="edge">
<title>node10051&#45;&gt;node10057</title>
<path fill="none" stroke="#00ee00" d="M142.2854,-214C147.3064,-214 151,-214 151,-214 151,-214 151,-142 151,-142 151,-142 151.8715,-142 151.8715,-142"/>
<polygon fill="#00ee00" stroke="#00ee00" points="149.7146,-145.5001 159.7146,-142 149.7146,-138.5001 149.7146,-145.5001"/>
</g>
<!-- node10052 -->
<g id="node10" class="node">
<title>node10052</title>
<polygon fill="#d49fb8" stroke="#000000" points="380,-209.9946 374.6523,-225.2228 353,-232 331.3477,-225.2228 326,-209.9946 340.9839,-197.7826 365.0161,-197.7826 380,-209.9946"/>
<text text-anchor="middle" x="353" y="-211" font-family="Monospace" font-size="10.00" fill="#000000">cosmo</text>
</g>
<!-- node10052&#45;&gt;node10047 -->
<g id="edge9" class="edge">
<title>node10052&#45;&gt;node10047</title>
<path fill="none" stroke="#ff1493" d="M353,-197.6621C353,-197.6621 353,-170.0423 353,-170.0423"/>
<polygon fill="#ff1493" stroke="#ff1493" points="356.5001,-170.0423 353,-160.0423 349.5001,-170.0424 356.5001,-170.0423"/>
</g>
<!-- node10053&#45;&gt;node10056 -->
<g id="edge10" class="edge">
<title>node10053&#45;&gt;node10056</title>
<path fill="none" stroke="#000000" d="M43,-195.8314C43,-195.8314 43,-170.4133 43,-170.4133"/>
<polygon fill="#000000" stroke="#000000" points="46.5001,-170.4132 43,-160.4133 39.5001,-170.4133 46.5001,-170.4132"/>
</g>
<!-- node10055 -->
<g id="node13" class="node">
<title>node10055</title>
<ellipse fill="#d89a69" stroke="#000000" cx="259" cy="-300" rx="27" ry="18"/>
<text text-anchor="middle" x="259" y="-297" font-family="Monospace" font-size="10.00" fill="#000000">kacey</text>
</g>
<!-- node10055&#45;&gt;node10052 -->
<g id="edge11" class="edge">
<title>node10055&#45;&gt;node10052</title>
<path fill="none" stroke="#ff1493" d="M286.1887,-300C313.9505,-300 353,-300 353,-300 353,-300 353,-242.2384 353,-242.2384"/>
<polygon fill="#ff1493" stroke="#ff1493" points="356.5001,-242.2384 353,-232.2384 349.5001,-242.2384 356.5001,-242.2384"/>
</g>
<!-- node10055&#45;&gt;node10053 -->
<g id="edge12" class="edge">
<title>node10055&#45;&gt;node10053</title>
<path fill="none" stroke="#000000" d="M259,-281.5146C259,-269.8601 259,-257 259,-257 259,-257 52,-257 52,-257 52,-257 52,-242.4854 52,-242.4854"/>
<polygon fill="#000000" stroke="#000000" points="55.5001,-242.4854 52,-232.4854 48.5001,-242.4855 55.5001,-242.4854"/>
</g>
<!-- node10057&#45;&gt;node10044 -->
<g id="edge13" class="edge">
<title>node10057&#45;&gt;node10044</title>
<path fill="none" stroke="#ff0000" d="M187,-123.9432C187,-94.892 187,-41 187,-41 187,-41 306.6527,-41 306.6527,-41"/>
<polygon fill="#ff0000" stroke="#ff0000" points="306.6527,-44.5001 316.6527,-41 306.6527,-37.5001 306.6527,-44.5001"/>
</g>
</g>
</svg>
