<?xml version="1.0" encoding="UTF-8"?><svg xmlns="http://www.w3.org/2000/svg" xmlns:xlink="http://www.w3.org/1999/xlink" width="805pt" height="942pt" viewBox="0.00 0.00 804.80 941.55">
<g id="graph0" class="graph" transform="scale(1 1) rotate(0) translate(14.4 927.1489)">
<title>%3</title>
<polygon fill="#ffffff" stroke="transparent" points="-14.4,14.4 -14.4,-927.1489 790.4,-927.1489 790.4,14.4 -14.4,14.4"/>
<g id="clust1" class="cluster">
<title>cluster30094</title>
<polygon fill="#b0e2ff" stroke="#000000" points="226,-904 226,-8 768,-8 768,-904 226,-904"/>
<text text-anchor="middle" x="497" y="-886" font-family="sans-serif" font-size="14.00" fill="#000000">animals</text>
</g>
<g id="clust2" class="cluster">
<title>cluster30095</title>
<path fill="#cdcdc1" stroke="#000000" d="M 246,-150 l 502,0 c 6 0 12 -6 12 -12 l 0,-700 c 0 -6 -6 -12 -12 -12 l -502,0 c -6 0 -12 6 -12 12 l 0,700 c 0 6 6 12 12 12"/>
<text text-anchor="middle" x="497" y="-856" font-family="sans-serif" font-size="14.00" fill="#ff34b3">carnivores</text>
</g>
<g id="clust3" class="cluster">
<title>cluster30096</title>
<path fill="#cdb79e" stroke="#000000" d="M 261,-455 l 472,0 c 6 0 12 -6 12 -12 l 0,-358 c 0 -6 -6 -12 -12 -12 l -472,0 c -6 0 -12 6 -12 12 l 0,358 c 0 6 6 12 12 12"/>
<text text-anchor="middle" x="497" y="-819" font-family="sans-serif" font-size="14.00" fill="#8b4513">bears</text>
</g>
<g id="clust4" class="cluster">
<title>cluster30097</title>
<path fill="#fff8dc" stroke="#000000" d="M 394,-470 l 324,0 c 6 0 12 -6 12 -12 l 0,-306 c 0 -6 -6 -12 -12 -12 l -324,0 c -6 0 -12 6 -12 12 l 0,306 c 0 6 6 12 12 12"/>
<text text-anchor="middle" x="556" y="-782" font-family="sans-serif" font-size="14.00" fill="#000000">pandas</text>
</g>
<g id="clust5" class="cluster">
<title>cluster30098</title>
<path fill="#98fb98" stroke="#32cd32" d="M 276,-470 l 86,0 c 6 0 12 -6 12 -12 l 0,-306 c 0 -6 -6 -12 -12 -12 l -86,0 c -6 0 -12 6 -12 12 l 0,306 c 0 6 6 12 12 12"/>
<text text-anchor="middle" x="319" y="-782" font-family="sans-serif" font-size="14.00" fill="#8b4513">brownbears</text>
</g>
<g id="clust6" class="cluster">
<title>cluster30099</title>
<path fill="#a3a3a3" stroke="#000000" d="M 495,-209 l 238,0 c 6 0 12 -6 12 -12 l 0,-214 c 0 -6 -6 -12 -12 -12 l -238,0 c -6 0 -12 6 -12 12 l 0,214 c 0 6 6 12 12 12"/>
<text text-anchor="middle" x="614" y="-429" font-family="sans-serif" font-size="14.00" fill="#ffffff">wolves</text>
</g>
<g id="clust7" class="cluster">
<title>cluster30100</title>
<polygon fill="#ee6363" stroke="#000000" points="234,-142 234,-16 760,-16 760,-142 234,-142"/>
<text text-anchor="middle" x="497" y="-124" font-family="sans-serif" font-size="14.00" fill="#000000">rodents</text>
</g>
<g id="clust8" class="cluster">
<title>cluster30101</title>
<path fill="#ffc0cb" stroke="#000000" d="M 254,-24 l 486,0 c 6 0 12 -6 12 -12 l 0,-64 c 0 -6 -6 -12 -12 -12 l -486,0 c -6 0 -12 6 -12 12 l 0,64 c 0 6 6 12 12 12"/>
<text text-anchor="middle" x="497" y="-94" font-family="sans-serif" font-size="14.00" fill="#000000">squirrels</text>
</g>
<g id="clust9" class="cluster">
<title>cluster30102</title>
<path fill="#90ee90" stroke="#000000" d="M 20,-221 l 186,0 c 6 0 12 -6 12 -12 l 0,-572 c 0 -6 -6 -12 -12 -12 l -186,0 c -6 0 -12 6 -12 12 l 0,572 c 0 6 6 12 12 12"/>
<text text-anchor="middle" x="113" y="-799" font-family="sans-serif" font-size="14.00" fill="#000000">plantae</text>
</g>
<g id="clust10" class="cluster">
<title>cluster30103</title>
<path fill="#98fb98" stroke="#000000" d="M 28,-229 l 170,0 c 6 0 12 -6 12 -12 l 0,-534 c 0 -6 -6 -12 -12 -12 l -170,0 c -6 0 -12 6 -12 12 l 0,534 c 0 6 6 12 12 12"/>
<text text-anchor="middle" x="113" y="-769" font-family="sans-serif" font-size="14.00" fill="#2e8b57">flora</text>
</g>

<g id="node1" class="node">
<title>node30067</title>
<g id="a_node1"><a xlink:title="name: delila
animal: pandas" target="_blank">
<ellipse fill="#61d2c4" stroke="#000000" cx="658" cy="-575.6656" rx="27" ry="18"/>
<text text-anchor="middle" x="658" y="-572.6656" font-family="sans-serif" font-size="10.00" fill="#000000">delila</text>
</a>
</g>
</g>

<g id="node2" class="node">
<title>node30068</title>
<g id="a_node2"><a xlink:title="name: aster
animal: flora" target="_blank">
<polygon fill="#ffd700" stroke="#000000" points="130.3976,-299.7935 89.6055,-299.7935 77,-338.499 64.3945,-299.7935 23.6024,-299.7935 56.6039,-275.8722 43.9985,-237.1666 77,-261.088 110.0015,-237.1666 97.3961,-275.8722 130.3976,-299.7935"/>
<text text-anchor="middle" x="77" y="-284.8328" font-family="sans-serif" font-size="10.00" fill="#000000">aster</text>
</a>
</g>
</g>

<g id="node3" class="node">
<title>node30069</title>
<g id="a_node3"><a xlink:title="name: penguiny
animal: carnivores" target="_blank">
<ellipse fill="#b1ce71" stroke="#000000" cx="464" cy="-183" rx="36.7417" ry="18"/>
<text text-anchor="middle" x="464" y="-180" font-family="sans-serif" font-size="10.00" fill="#000000">penguiny</text>
</a>
</g>
</g>

<g id="node5" class="node">
<title>node30071</title>
<g id="a_node5"><a xlink:title="name: huxley
animal: squirrels" target="_blank">
<ellipse fill="#acf5ab" stroke="#000000" cx="677" cy="-57" rx="28.5664" ry="18"/>
<text text-anchor="middle" x="677" y="-54" font-family="sans-serif" font-size="10.00" fill="#000000">huxley</text>
</a>
</g>
</g>


<g id="node4" class="node">
<title>node30070</title>
<g id="a_node4"><a xlink:title="name: sebas-+tian
animal: wolves" target="_blank">
<ellipse fill="#68db75" stroke="#000000" cx="537" cy="-287.8328" rx="31.2466" ry="24.0833"/>
<text text-anchor="middle" x="537" y="-289.8328" font-family="sans-serif" font-size="10.00" fill="#000000">sebas-</text>
<text text-anchor="middle" x="537" y="-279.8328" font-family="sans-serif" font-size="10.00" fill="#000000">tian</text>
</a>
</g>
</g>


<g id="node6" class="node">
<title>node30072</title>
<g id="a_node6"><a xlink:title="name: jasmine
animal: flora" target="_blank">
<polygon fill="#ffd700" stroke="#000000" points="124,-521.6656 70,-521.6656 70,-485.6656 124,-485.6656 124,-521.6656"/>
<text text-anchor="middle" x="97" y="-500.6656" font-family="sans-serif" font-size="10.00" fill="#000000">jasmine</text>
</a>
</g>
</g>

<g id="node16" class="node">
<title>node30082</title>
<g id="a_node16"><a xlink:title="name: fleur
animal: flora" target="_blank">
<polygon fill="#ffd700" stroke="#000000" points="124,-410.6656 70,-410.6656 70,-374.6656 124,-374.6656 124,-410.6656"/>
<text text-anchor="middle" x="97" y="-389.6656" font-family="sans-serif" font-size="10.00" fill="#000000">fleur</text>
</a>
</g>
</g>


<g id="node7" class="node">
<title>node30073</title>
<g id="a_node7"><a xlink:title="name: nikkai
animal: pandas" target="_blank">
<polygon fill="#8b7500" stroke="#000000" points="635,-763.7073 581.8321,-727.7073 688.1679,-727.7073 635,-763.7073"/>
<text text-anchor="middle" x="635" y="-736.7073" font-family="sans-serif" font-size="10.00" fill="#000000">nikkai</text>
</a>
</g>
</g>

<g id="node18" class="node">
<title>node30084</title>
<g id="a_node18"><a xlink:title="name: isobel
animal: pandas" target="_blank">
<ellipse fill="#61d2c4" stroke="#000000" cx="661" cy="-647.6656" rx="27" ry="18"/>
<text text-anchor="middle" x="661" y="-644.6656" font-family="sans-serif" font-size="10.00" fill="#000000">isobel</text>
</a>
</g>
</g>

<g id="edge4" class="edge">
<title>node30073-&gt;node30084</title>
<path fill="none" stroke="#000000" d="M638.399,-727.6744C642.1502,-714.3952 648.311,-692.5856 653.2536,-675.0883"/>
<polygon fill="#000000" stroke="#000000" points="656.6453,-675.9564 655.9956,-665.3815 649.9089,-674.0535 656.6453,-675.9564"/>
</g>

<g id="node8" class="node">
<title>node30074</title>
<g id="a_node8"><a xlink:title="name: angel-+ique
animal: wolves" target="_blank">
<ellipse fill="#68db75" stroke="#000000" cx="616" cy="-287.8328" rx="29.6112" ry="24.0833"/>
<text text-anchor="middle" x="616" y="-289.8328" font-family="sans-serif" font-size="10.00" fill="#000000">angel-</text>
<text text-anchor="middle" x="616" y="-279.8328" font-family="sans-serif" font-size="10.00" fill="#000000">ique</text>
</a>
</g>
</g>


<g id="node23" class="node">
<title>node30089</title>
<g id="a_node23"><a xlink:title="name: lily
animal: flora" target="_blank">
<polygon fill="#ffd700" stroke="#000000" points="124,-593.6656 70,-593.6656 70,-557.6656 124,-557.6656 124,-593.6656"/>
<text text-anchor="middle" x="97" y="-572.6656" font-family="sans-serif" font-size="10.00" fill="#000000">lily</text>
</a>
</g>
</g>

<g id="edge6" class="edge">
<title>node30074-&gt;node30089</title>
<path fill="none" stroke="transparent" stroke-dasharray="1,5" d="M591.5365,-301.4C507.7568,-347.8636 232.0913,-500.7452 132.9325,-555.7378"/>
<polygon fill="transparent" stroke="transparent" points="131.2206,-552.6849 124.173,-560.5957 134.6156,-558.8065 131.2206,-552.6849"/>
<path fill="#c731ed" stroke="transparent" d="M126.0455,-549.6708C126.0455,-549.6708 131.0455,-549.6708 131.0455,-549.6708 133.5455,-549.6708 136.0455,-552.1708 136.0455,-554.6708 136.0455,-554.6708 136.0455,-561.6708 136.0455,-561.6708 136.0455,-564.1708 133.5455,-566.6708 131.0455,-566.6708 131.0455,-566.6708 126.0455,-566.6708 126.0455,-566.6708 123.5455,-566.6708 121.0455,-564.1708 121.0455,-561.6708 121.0455,-561.6708 121.0455,-554.6708 121.0455,-554.6708 121.0455,-552.1708 123.5455,-549.6708 126.0455,-549.6708"/>
<text text-anchor="start" x="125.2926" y="-554.9708" font-family="sans-serif" font-size="9.00" fill="#000000">1.</text>
<path fill="none" stroke="#ff00ff" d="M126.0455,-549.6708C126.0455,-549.6708 131.0455,-549.6708 131.0455,-549.6708 133.5455,-549.6708 136.0455,-552.1708 136.0455,-554.6708 136.0455,-554.6708 136.0455,-561.6708 136.0455,-561.6708 136.0455,-564.1708 133.5455,-566.6708 131.0455,-566.6708 131.0455,-566.6708 126.0455,-566.6708 126.0455,-566.6708 123.5455,-566.6708 121.0455,-564.1708 121.0455,-561.6708 121.0455,-561.6708 121.0455,-554.6708 121.0455,-554.6708 121.0455,-552.1708 123.5455,-549.6708 126.0455,-549.6708"/>
<path fill="#c731ed" stroke="transparent" d="M584.6639,-295.325C584.6639,-295.325 589.6639,-295.325 589.6639,-295.325 592.1639,-295.325 594.6639,-297.825 594.6639,-300.325 594.6639,-300.325 594.6639,-307.325 594.6639,-307.325 594.6639,-309.825 592.1639,-312.325 589.6639,-312.325 589.6639,-312.325 584.6639,-312.325 584.6639,-312.325 582.1639,-312.325 579.6639,-309.825 579.6639,-307.325 579.6639,-307.325 579.6639,-300.325 579.6639,-300.325 579.6639,-297.825 582.1639,-295.325 584.6639,-295.325"/>
<text text-anchor="start" x="583.911" y="-300.625" font-family="sans-serif" font-size="9.00" fill="#000000">1.</text>
<path fill="none" stroke="#ff00ff" d="M584.6639,-295.325C584.6639,-295.325 589.6639,-295.325 589.6639,-295.325 592.1639,-295.325 594.6639,-297.825 594.6639,-300.325 594.6639,-300.325 594.6639,-307.325 594.6639,-307.325 594.6639,-309.825 592.1639,-312.325 589.6639,-312.325 589.6639,-312.325 584.6639,-312.325 584.6639,-312.325 582.1639,-312.325 579.6639,-309.825 579.6639,-307.325 579.6639,-307.325 579.6639,-300.325 579.6639,-300.325 579.6639,-297.825 582.1639,-295.325 584.6639,-295.325"/>
</g>

<g id="node9" class="node">
<title>node30075</title>
<g id="a_node9"><a xlink:title="name: eliza
animal: brownbears" target="_blank">
<ellipse fill="#768572" stroke="#000000" cx="321" cy="-575.6656" rx="27" ry="18"/>
<text text-anchor="middle" x="321" y="-572.6656" font-family="sans-serif" font-size="10.00" fill="#000000">eliza</text>
</a>
</g>
</g>


<g id="node19" class="node">
<title>node30085</title>
<g id="a_node19"><a xlink:title="name: polaris
animal: carnivores" target="_blank">
<ellipse fill="#b1ce71" stroke="#000000" cx="447" cy="-287.8328" rx="29.3058" ry="18"/>
<text text-anchor="middle" x="447" y="-284.8328" font-family="sans-serif" font-size="10.00" fill="#000000">polaris</text>
</a>
</g>
</g>

<g id="edge8" class="edge">
<title>node30075-&gt;node30085</title>
<path fill="none" stroke="#000000" d="M328.6922,-558.0937C349.9563,-509.5182 409.644,-373.1685 435.1745,-314.8469"/>
<polygon fill="#000000" stroke="#000000" points="438.4444,-316.1048 439.2484,-305.5405 432.0319,-313.2977 438.4444,-316.1048"/>
</g>

<g id="node10" class="node">
<title>node30076</title>
<g id="a_node10"><a xlink:title="name: malakai
animal: pandas" target="_blank">
<ellipse fill="#61d2c4" stroke="#000000" cx="583" cy="-647.6656" rx="32.5132" ry="18"/>
<text text-anchor="middle" x="583" y="-644.6656" font-family="sans-serif" font-size="10.00" fill="#000000">malakai</text>
</a>
</g>
</g>

<g id="edge9" class="edge">
<title>node30076-&gt;node30067</title>
<path fill="none" stroke="#000000" d="M599.2739,-632.0427C609.8055,-621.9324 623.6675,-608.6249 635.279,-597.4778"/>
<polygon fill="#000000" stroke="#000000" points="637.7367,-599.9702 642.5268,-590.5199 632.889,-594.9204 637.7367,-599.9702"/>
</g>

<g id="node27" class="node">
<title>node30093</title>
<g id="a_node27"><a xlink:title="name: ivy
animal: pandas" target="_blank">
<ellipse fill="#61d2c4" stroke="#000000" cx="586" cy="-575.6656" rx="27" ry="18"/>
<text text-anchor="middle" x="586" y="-572.6656" font-family="sans-serif" font-size="10.00" fill="#000000">ivy</text>
</a>
</g>
</g>

<g id="edge10" class="edge">
<title>node30076-&gt;node30093</title>
<path fill="none" stroke="#000000" d="M583.757,-629.497C584.0779,-621.7966 584.4594,-612.64 584.816,-604.0823"/>
<polygon fill="#000000" stroke="#000000" points="588.3133,-604.216 585.2328,-594.0789 581.3194,-603.9245 588.3133,-604.216"/>
</g>

<g id="node11" class="node">
<title>node30077</title>
<g id="a_node11"><a xlink:title="name: max
animal: pandas" target="_blank">
<ellipse fill="#61d2c4" stroke="#000000" cx="514" cy="-575.6656" rx="27" ry="18"/>
<text text-anchor="middle" x="514" y="-572.6656" font-family="sans-serif" font-size="10.00" fill="#000000">max</text>
</a>
</g>
</g>

<g id="node12" class="node">
<title>node30078</title>
<g id="a_node12"><a xlink:title="name: Bridget
animal: pandas" target="_blank">
<ellipse fill="#7fffd4" stroke="#000000" cx="535" cy="-503.6656" rx="30.793" ry="18"/>
<text text-anchor="middle" x="535" y="-500.6656" font-family="sans-serif" font-size="10.00" fill="#000000">Bridget</text>
</a>
</g>
</g>

<g id="edge11" class="edge">
<title>node30077-&gt;node30078</title>
<path fill="none" stroke="#0000ff" d="M519.191,-557.8679C521.5384,-549.8197 524.3662,-540.1244 526.9772,-531.1723"/>
<polygon fill="#0000ff" stroke="#0000ff" points="530.3559,-532.0882 529.7959,-521.5082 523.6359,-530.1282 530.3559,-532.0882"/>
</g>


<g id="node24" class="node">
<title>node30090</title>
<g id="a_node24"><a xlink:title="name: leo
animal: wolves" target="_blank">
<ellipse fill="#68db75" stroke="#000000" cx="535" cy="-392.6656" rx="27" ry="18"/>
<text text-anchor="middle" x="535" y="-389.6656" font-family="sans-serif" font-size="10.00" fill="#000000">leo</text>
</a>
</g>
</g>


<g id="node13" class="node">
<title>node30079</title>
<g id="a_node13"><a xlink:title="name: simone
animal: pandas" target="_blank">
<ellipse fill="#61d2c4" stroke="#000000" cx="501" cy="-647.6656" rx="31.0326" ry="18"/>
<text text-anchor="middle" x="501" y="-644.6656" font-family="sans-serif" font-size="10.00" fill="#000000">simone</text>
</a>
</g>
</g>

<g id="edge14" class="edge">
<title>node30079-&gt;node30077</title>
<path fill="none" stroke="#000000" d="M504.2804,-629.497C505.6922,-621.6781 507.375,-612.3579 508.9405,-603.6877"/>
<polygon fill="#000000" stroke="#000000" points="512.433,-604.0418 510.7656,-593.579 505.5444,-602.798 512.433,-604.0418"/>
</g>

<g id="node26" class="node">
<title>node30092</title>
<g id="a_node26"><a xlink:title="name: summer
animal: pandas" target="_blank">
<ellipse fill="#61d2c4" stroke="#000000" cx="435" cy="-575.6656" rx="33.7344" ry="18"/>
<text text-anchor="middle" x="435" y="-572.6656" font-family="sans-serif" font-size="10.00" fill="#000000">summer</text>
</a>
</g>
</g>

<g id="edge15" class="edge">
<title>node30079-&gt;node30092</title>
<path fill="none" stroke="#00ee00" d="M486.3525,-631.6865C477.6125,-622.1519 466.3541,-609.8701 456.6073,-599.2372"/>
<polygon fill="#00ee00" stroke="#00ee00" points="459.1721,-596.8556 449.8348,-591.8491 454.012,-601.5857 459.1721,-596.8556"/>
</g>

<g id="edge16" class="edge">
<title>node30079-&gt;node30093</title>
<path fill="none" stroke="#00ee00" d="M518.6121,-632.7472C531.0507,-622.2109 547.8808,-607.9548 561.6097,-596.3256"/>
<polygon fill="#00ee00" stroke="#00ee00" points="563.9098,-598.9642 569.2781,-589.8301 559.3854,-593.6229 563.9098,-598.9642"/>
</g>

<g id="node14" class="node">
<title>node30080</title>
<g id="a_node14"><a xlink:title="name: cosmo
animal: brownbears" target="_blank">
<polygon fill="#768572" stroke="#000000" points="348.2071,-643.6603 341.8281,-658.8884 316,-665.6656 290.1719,-658.8884 283.7929,-643.6603 301.6665,-631.4482 330.3335,-631.4482 348.2071,-643.6603"/>
<text text-anchor="middle" x="316" y="-644.6656" font-family="sans-serif" font-size="10.00" fill="#000000">cosmo</text>
</a>
</g>
</g>

<g id="edge17" class="edge">
<title>node30080-&gt;node30075</title>
<path fill="none" stroke="#ff1493" d="M317.1346,-631.3277C317.6998,-623.1885 318.3993,-613.115 319.0473,-603.7843"/>
<polygon fill="#ff1493" stroke="#ff1493" points="322.5458,-603.9265 319.7471,-593.708 315.5626,-603.4414 322.5458,-603.9265"/>
</g>

<g id="node15" class="node">
<title>node30081</title>
<g id="a_node15"><a xlink:title="name: sharhar
animal: pandas" target="_blank">
<polygon fill="#0000ff" stroke="#000000" points="452,-665.6656 398,-665.6656 398,-629.6656 452,-629.6656 452,-665.6656"/>
<text text-anchor="middle" x="425" y="-644.6656" font-family="sans-serif" font-size="10.00" fill="#ffffff">sharhar</text>
</a>
</g>
</g>

<g id="edge18" class="edge">
<title>node30081-&gt;node30092</title>
<path fill="none" stroke="#000000" d="M427.5234,-629.497C428.5929,-621.7966 429.8647,-612.64 431.0532,-604.0823"/>
<polygon fill="#000000" stroke="#000000" points="434.5336,-604.4653 432.4426,-594.0789 427.6001,-603.5023 434.5336,-604.4653"/>
</g>

<g id="edge19" class="edge">
<title>node30082-&gt;node30068</title>
<path fill="none" stroke="#000000" stroke-dasharray="1,5" d="M93.5163,-374.4051C91.1844,-362.1822 88.0152,-345.5704 85.0763,-330.166"/>
<polygon fill="#c0c0c0" stroke="#000000" points="88.5015,-329.4426 83.1895,-320.2757 81.6255,-330.7545 88.5015,-329.4426"/>
</g>

<g id="node17" class="node">
<title>node30083</title>
<g id="a_node17"><a xlink:title="name: alyssa
animal: flora" target="_blank">
<polygon fill="#ffd700" stroke="#000000" points="202,-305.8328 148,-305.8328 148,-269.8328 202,-269.8328 202,-305.8328"/>
<text text-anchor="middle" x="175" y="-284.8328" font-family="sans-serif" font-size="10.00" fill="#000000">alyssa</text>
</a>
</g>
</g>

<g id="edge20" class="edge">
<title>node30082-&gt;node30083</title>
<path fill="none" stroke="#eeb422" stroke-dasharray="5,2" d="M110.5866,-374.4051C123.0015,-357.7193 141.5022,-332.8543 155.4952,-314.0475"/>
<polygon fill="#eee8aa" stroke="#eeb422" points="158.4077,-315.9962 161.5691,-305.884 152.7917,-311.8177 158.4077,-315.9962"/>
</g>

<g id="edge21" class="edge">
<title>node30085-&gt;node30069</title>
<path fill="none" stroke="#000000" d="M449.9612,-269.5723C452.5817,-253.4126 456.4462,-229.5814 459.4576,-211.0113"/>
<polygon fill="#000000" stroke="#000000" points="462.9268,-211.4826 461.0728,-201.0512 456.0171,-210.362 462.9268,-211.4826"/>
</g>

<g id="node20" class="node">
<title>node30086</title>
<g id="a_node20"><a xlink:title="name: rose
animal: flora" target="_blank">
<polygon fill="#ffd700" stroke="#000000" points="124,-665.6656 70,-665.6656 70,-629.6656 124,-629.6656 124,-665.6656"/>
<text text-anchor="middle" x="97" y="-644.6656" font-family="sans-serif" font-size="10.00" fill="#000000">rose</text>
</a>
</g>
</g>


<g id="node21" class="node">
<title>node30087</title>
<g id="a_node21"><a xlink:title="name: cristo-+lene
animal: pandas" target="_blank">
<ellipse fill="#61d2c4" stroke="#000000" cx="499" cy="-739.7073" rx="29.297" ry="24.0833"/>
<text text-anchor="middle" x="499" y="-741.7073" font-family="sans-serif" font-size="10.00" fill="#000000">cristo-</text>
<text text-anchor="middle" x="499" y="-731.7073" font-family="sans-serif" font-size="10.00" fill="#000000">lene</text>
</a>
</g>
</g>

<g id="edge23" class="edge">
<title>node30087-&gt;node30081</title>
<path fill="none" stroke="#000000" d="M482.577,-719.2802C471.8275,-705.91 457.6804,-688.3138 446.0997,-673.9096"/>
<polygon fill="#000000" stroke="#000000" points="448.6164,-671.454 439.6228,-665.8535 443.1609,-675.8401 448.6164,-671.454"/>
</g>

<g id="node22" class="node">
<title>node30088</title>
<g id="a_node22"><a xlink:title="name: kacey
animal: pandas" target="_blank">
<ellipse fill="#61d2c4" stroke="#000000" cx="425" cy="-739.7073" rx="27" ry="18"/>
<text text-anchor="middle" x="425" y="-736.7073" font-family="sans-serif" font-size="10.00" fill="#000000">kacey</text>
</a>
</g>
</g>

<g id="edge24" class="edge">
<title>node30088-&gt;node30080</title>
<path fill="none" stroke="#ff1493" d="M407.9688,-725.3258C389.7853,-709.9713 360.8166,-685.5096 340.2541,-668.1462"/>
<polygon fill="#ff1493" stroke="#ff1493" points="342.4533,-665.4224 332.5548,-661.6448 337.9371,-670.7706 342.4533,-665.4224"/>
</g>

<g id="edge25" class="edge">
<title>node30088-&gt;node30081</title>
<path fill="none" stroke="#000000" d="M425,-721.5228C425,-708.5382 425,-690.8181 425,-675.9896"/>
<polygon fill="#000000" stroke="#000000" points="428.5001,-675.8123 425,-665.8123 421.5001,-675.8124 428.5001,-675.8123"/>
</g>

<g id="edge26" class="edge">
<title>node30089-&gt;node30072</title>
<path fill="none" stroke="#000000" d="M97,-557.497C97,-553.7737 97,-549.71 97,-545.5382"/>
<polygon fill="#000000" stroke="#000000" points="101.55,-522.0789 97.0001,-535.0789 92.45,-522.0789 101.55,-522.0789"/>
<ellipse fill="none" stroke="#000000" cx="97.0001" cy="-540.2789" rx="5.2" ry="5.2"/>
</g>

<g id="edge27" class="edge">
<title>node30090-&gt;node30070</title>
<path fill="none" stroke="#000000" d="M535.3484,-374.4051C535.6209,-360.1226 536.0077,-339.8474 536.3385,-322.5085"/>
<polygon fill="#000000" stroke="#000000" points="539.8442,-322.2368 536.5357,-312.1718 532.8455,-322.1032 539.8442,-322.2368"/>
</g>

<g id="edge28" class="edge">
<title>node30090-&gt;node30074</title>
<path fill="none" stroke="#000000" d="M547.6563,-376.2855C559.9816,-360.3336 578.9754,-335.7513 593.8141,-316.5465"/>
<polygon fill="#000000" stroke="#000000" points="596.7491,-318.4724 600.0937,-308.4193 591.2099,-314.1925 596.7491,-318.4724"/>
</g>

<g id="edge29" class="edge">
<title>node30090-&gt;node30085</title>
<path fill="none" stroke="#000000" d="M521.6347,-376.7438C507.0976,-359.4259 483.7035,-331.557 466.982,-311.637"/>
<polygon fill="#000000" stroke="#000000" points="469.6012,-309.3134 460.4911,-303.9045 464.2398,-313.814 469.6012,-309.3134"/>
</g>

<g id="node25" class="node">
<title>node30091</title>
<g id="a_node25"><a xlink:title="name: daisy
animal: flora" target="_blank">
<polygon fill="#ffd700" stroke="#000000" points="124,-757.7073 70,-757.7073 70,-721.7073 124,-721.7073 124,-757.7073"/>
<text text-anchor="middle" x="97" y="-736.7073" font-family="sans-serif" font-size="10.00" fill="#000000">daisy</text>
</a>
</g>
</g>

<g id="edge30" class="edge">
<title>node30091-&gt;node30086</title>
<path fill="none" stroke="#000000" d="M97,-721.5228C97,-708.5382 97,-690.8181 97,-675.9896"/>
<polygon fill="none" stroke="#000000" points="93,-665.8124 101,-665.8123 101.0001,-673.8123 93.0001,-673.8124 93,-665.8124"/>
<polyline fill="none" stroke="#000000" points="97.0001,-673.8123 97.0001,-675.8123 "/>
</g>


<g id="edge32" class="edge">
<title>node30092-&gt;node30090</title>
<path fill="none" stroke="#000000" d="M444.5884,-558.1188C462.2994,-525.7078 500.2157,-456.3209 520.8742,-418.5159"/>
<polygon fill="#000000" stroke="#000000" points="524.0078,-420.0803 525.7317,-409.6266 517.8651,-416.7236 524.0078,-420.0803"/>
</g>

<g id="edge33" class="edge">
<title>node30093-&gt;node30071</title>
<path fill="none" stroke="#ff0000" d="M589.1854,-557.5102C602.7403,-480.2522 655.6765,-178.5358 672.1077,-84.8841"/>
<polygon fill="#ff0000" stroke="#ff0000" points="675.5596,-85.4625 673.8405,-75.0081 668.6649,-84.2528 675.5596,-85.4625"/>
</g>
</g>
</svg>