<?xml version="1.0" encoding="UTF-8" standalone="no"?>
<!DOCTYPE svg PUBLIC "-//W3C//DTD SVG 1.1//EN"
 "http://www.w3.org/Graphics/SVG/1.1/DTD/svg11.dtd">
<!-- Generated by graphviz version 2.40.1 (20161225.0304)
 -->
<!-- Title: %3 Pages: 1 -->
<svg width="500pt" height="234pt"
 viewBox="0.00 0.00 500.00 234.00" xmlns="http://www.w3.org/2000/svg" xmlns:xlink="http://www.w3.org/1999/xlink">
<g id="graph0" class="graph" transform="scale(1 1) rotate(0) translate(72 162)">
<title>%3</title>
<polygon fill="#ffffff" stroke="transparent" points="-72,72 -72,-162 428,-162 428,72 -72,72"/>
<g id="clust1" class="cluster">
<title>cluster12720</title>
<polygon fill="none" stroke="#000000" points="8,-8 8,-82 348,-82 348,-8 8,-8"/>
<text text-anchor="middle" x="178" y="-66.8" font-family="Monospace" font-size="14.00" fill="#000000">Credit Derivatives</text>
</g>
<!-- node12721 -->
<g id="node1" class="node">
<title>node12721</title>
<path fill="#bd8b77" stroke="#000000" d="M328,-52C328,-52 298,-52 298,-52 292,-52 286,-46 286,-40 286,-40 286,-28 286,-28 286,-22 292,-16 298,-16 298,-16 328,-16 328,-16 334,-16 340,-22 340,-28 340,-28 340,-40 340,-40 340,-46 334,-52 328,-52"/>
</g>
<!-- node12722 -->
<g id="node2" class="node">
<title>node12722</title>
<path fill="#bd8b77" stroke="#000000" d="M58,-52C58,-52 28,-52 28,-52 22,-52 16,-46 16,-40 16,-40 16,-28 16,-28 16,-22 22,-16 28,-16 28,-16 58,-16 58,-16 64,-16 70,-22 70,-28 70,-28 70,-40 70,-40 70,-46 64,-52 58,-52"/>
</g>
<!-- node12722&#45;&gt;node12721 -->
<g id="edge1" class="edge">
<title>node12722&#45;&gt;node12721</title>
<path fill="none" stroke="#000000" d="M70.1248,-34C70.1248,-34 275.8932,-34 275.8932,-34"/>
<polygon fill="#000000" stroke="#000000" points="275.8932,-37.5001 285.8932,-34 275.8932,-30.5001 275.8932,-37.5001"/>
</g>
</g>
</svg>
