<?xml version="1.0" encoding="UTF-8"?><svg xmlns="http://www.w3.org/2000/svg" xmlns:xlink="http://www.w3.org/1999/xlink" width="641pt" height="940pt" viewBox="0.00 0.00 640.80 939.55">
<g id="graph0" class="graph" transform="scale(1 1) rotate(0) translate(14.4 925.15)">
<title>%3</title>
<polygon fill="#ffffff" stroke="transparent" points="-14.4,14.4 -14.4,-925.15 626.4,-925.15 626.4,14.4 -14.4,14.4"/>
<g id="clust1" class="cluster">
<title>cluster13811</title>
<polygon fill="#f0f2da" stroke="#49c1e5" points="8,-902 8,-8 604,-8 604,-902 8,-902"/>
<text text-anchor="end" x="594" y="-884" font-family="sans-serif" font-size="14.00" fill="#000000">Current State</text>
</g>
<g id="clust2" class="cluster">
<title>cluster13812</title>
<polygon fill="#f0f2da" stroke="#49c1e5" points="8,-164 8,-91 604,-91 604,-164 8,-164"/>
<text text-anchor="end" x="594" y="-146" font-family="sans-serif" font-size="14.00" fill="#000000">Payments</text>
</g>
<g id="clust3" class="cluster">
<title>cluster13813</title>
<polygon fill="#f0f2da" stroke="#49c1e5" points="8,-545 8,-392 604,-392 604,-545 8,-545"/>
<text text-anchor="end" x="594" y="-527" font-family="sans-serif" font-size="14.00" fill="#000000">Risk</text>
</g>
<g id="clust4" class="cluster">
<title>cluster13814</title>
<polygon fill="#f0f2da" stroke="#49c1e5" points="8,-716 8,-642 604,-642 604,-716 8,-716"/>
<text text-anchor="end" x="594" y="-698" font-family="sans-serif" font-size="14.00" fill="#000000">Capture</text>
</g>
<g id="clust7" class="cluster">
<title>cluster13815</title>
<polygon fill="#f0f2da" stroke="#49c1e5" points="8,-874 8,-716 604,-716 604,-874 8,-874"/>
<text text-anchor="end" x="594" y="-856" font-family="sans-serif" font-size="14.00" fill="#000000">Golden Sources</text>
</g>
<g id="clust10" class="cluster">
<title>cluster13816</title>
<polygon fill="#f0f2da" stroke="#49c1e5" points="8,-642 8,-545 604,-545 604,-642 8,-642"/>
<text text-anchor="end" x="594" y="-624" font-family="sans-serif" font-size="14.00" fill="#000000">Lifecycle</text>
</g>
<g id="clust11" class="cluster">
<title>cluster13817</title>
<polygon fill="#f0f2da" stroke="#49c1e5" points="8,-319 8,-164 604,-164 604,-319 8,-319"/>
<text text-anchor="end" x="594" y="-301" font-family="sans-serif" font-size="14.00" fill="#000000">Settlement</text>
</g>
<g id="clust14" class="cluster">
<title>cluster13818</title>
<polygon fill="#f0f2da" stroke="#49c1e5" points="8,-392 8,-319 604,-319 604,-392 8,-392"/>
<text text-anchor="end" x="594" y="-374" font-family="sans-serif" font-size="14.00" fill="#000000">Reporting</text>
</g>
<g id="clust15" class="cluster">
<title>cluster13819</title>
<polygon fill="#f0f2da" stroke="#49c1e5" points="8,-91 8,-8 603,-8 603,-91 8,-91"/>
<text text-anchor="end" x="593" y="-73" font-family="sans-serif" font-size="14.00" fill="#000000">Finance</text>
</g>

<g id="node1" class="node">
<title>node13783</title>
<g id="a_node1"><a xlink:title="application: War
id: PTN-" target="_blank">
<polygon fill="#c6ddf2" stroke="#000000" points="185,-686 131,-686 131,-650 185,-650 185,-686"/>
<text text-anchor="middle" x="158" y="-670" font-family="sans-serif" font-size="10.00" fill="#000000">War</text>
<text text-anchor="middle" x="158" y="-660" font-family="sans-serif" font-size="10.00" fill="#000000">Ruth</text>
</a>
</g>
</g>

<g id="node4" class="node">
<title>node13786</title>
<g id="a_node4"><a xlink:title="application: CONFIRMATIONS
Writer
Doc
id: PTN-" target="_blank">
<polygon fill="#e8eef7" stroke="#000000" points="357.6495,-608 260.3505,-608 260.3505,-554 357.6495,-554 357.6495,-608"/>
<text text-anchor="middle" x="309" y="-593" font-family="sans-serif" font-size="10.00" fill="#000000">CONFIRMATIONS</text>
<text text-anchor="middle" x="309" y="-583" font-family="sans-serif" font-size="10.00" fill="#000000">Writer</text>
<text text-anchor="middle" x="309" y="-573" font-family="sans-serif" font-size="10.00" fill="#000000">Doc</text>
<text text-anchor="middle" x="309" y="-563" font-family="sans-serif" font-size="10.00" fill="#000000">Ruth</text>
</a>
</g>
</g>


<g id="node12" class="node">
<title>node13794</title>
<g id="a_node12"><a xlink:title="application: Fidelity Plus
id: PTN-" target="_blank">
<polygon fill="#e8eef7" stroke="#000000" points="454.9063,-599 387.0937,-599 387.0937,-563 454.9063,-563 454.9063,-599"/>
<text text-anchor="middle" x="421" y="-583" font-family="sans-serif" font-size="10.00" fill="#000000">Fidelity Plus</text>
<text text-anchor="middle" x="421" y="-573" font-family="sans-serif" font-size="10.00" fill="#000000">Ruth</text>
</a>
</g>
</g>


<g id="node14" class="node">
<title>node13796</title>
<g id="a_node14"><a xlink:title="application: ADH
id: PTN-" target="_blank">
<polygon fill="#e8eef7" stroke="#000000" points="237,-284 183,-284 183,-248 237,-248 237,-284"/>
<text text-anchor="middle" x="210" y="-268" font-family="sans-serif" font-size="10.00" fill="#000000">ADH</text>
<text text-anchor="middle" x="210" y="-258" font-family="sans-serif" font-size="10.00" fill="#000000">John</text>
</a>
</g>
</g>

<g id="edge3" class="edge">
<title>node13783-&gt;node13796</title>
<path fill="none" stroke="#a6a8e0" d="M141,-649.9459C141,-571.7237 141,-266 141,-266 141,-266 172.7294,-266 172.7294,-266"/>
<polygon fill="#a6a8e0" stroke="#a6a8e0" points="172.7294,-269.5001 182.7294,-266 172.7293,-262.5001 172.7294,-269.5001"/>
<text text-anchor="middle" x="127.1035" y="-444.1083" font-family="sans-serif" font-size="10.00" fill="#000000">trades</text>
</g>

<g id="node20" class="node">
<title>node13802</title>
<g id="a_node20"><a xlink:title="application: BAD Image
id: PTN-" target="_blank">
<polygon fill="#e8eef7" stroke="#000000" points="231.6329,-599 166.3671,-599 166.3671,-563 231.6329,-563 231.6329,-599"/>
<text text-anchor="middle" x="199" y="-583" font-family="sans-serif" font-size="10.00" fill="#000000">BAD Image</text>
<text text-anchor="middle" x="199" y="-573" font-family="sans-serif" font-size="10.00" fill="#000000">Ruth</text>
</a>
</g>
</g>

<g id="edge4" class="edge">
<title>node13783-&gt;node13802</title>
<path fill="none" stroke="#a6a8e0" d="M175.7168,-649.9735C175.7168,-649.9735 175.7168,-609.0034 175.7168,-609.0034"/>
<polygon fill="#a6a8e0" stroke="#a6a8e0" points="179.2169,-609.0033 175.7168,-599.0034 172.2169,-609.0034 179.2169,-609.0033"/>
<text text-anchor="middle" x="161.8203" y="-631.4885" font-family="sans-serif" font-size="10.00" fill="#000000">trades</text>
</g>

<g id="node22" class="node">
<title>node13804</title>
<g id="a_node22"><a xlink:title="application: noShock
id: PTN-" target="_blank">
<polygon fill="#e8eef7" stroke="#000000" points="223,-362 169,-362 169,-326 223,-326 223,-362"/>
<text text-anchor="middle" x="196" y="-346" font-family="sans-serif" font-size="10.00" fill="#000000">noShock</text>
<text text-anchor="middle" x="196" y="-336" font-family="sans-serif" font-size="10.00" fill="#000000">Paul</text>
</a>
</g>
</g>

<g id="edge5" class="edge">
<title>node13783-&gt;node13804</title>
<path fill="none" stroke="#a6a8e0" d="M146,-649.652C146,-581.1119 146,-344 146,-344 146,-344 158.9513,-344 158.9513,-344"/>
<polygon fill="#a6a8e0" stroke="#a6a8e0" points="158.9513,-347.5001 168.9513,-344 158.9512,-340.5001 158.9513,-347.5001"/>
<text text-anchor="middle" x="132.1035" y="-492.3504" font-family="sans-serif" font-size="10.00" fill="#000000">trades</text>
</g>

<g id="node2" class="node">
<title>node13784</title>
<g id="a_node2"><a xlink:title="application: GRIMACE
id: PTN-" target="_blank">
<polygon fill="#e8eef7" stroke="#000000" points="288.1708,-440 227.8292,-440 227.8292,-404 288.1708,-404 288.1708,-440"/>
<text text-anchor="middle" x="258" y="-424" font-family="sans-serif" font-size="10.00" fill="#000000">GRIMACE</text>
<text text-anchor="middle" x="258" y="-414" font-family="sans-serif" font-size="10.00" fill="#000000">Simone</text>
</a>
</g>
</g>

<g id="node10" class="node">
<title>node13792</title>
<g id="a_node10"><a xlink:title="application: 1-Charge
id: PTN-" target="_blank">
<polygon fill="#e8eef7" stroke="#000000" points="307.6903,-362 252.3097,-362 252.3097,-326 307.6903,-326 307.6903,-362"/>
<text text-anchor="middle" x="280" y="-346" font-family="sans-serif" font-size="10.00" fill="#000000">1-Charge</text>
<text text-anchor="middle" x="280" y="-336" font-family="sans-serif" font-size="10.00" fill="#000000">Paul</text>
</a>
</g>
</g>


<g id="node13" class="node">
<title>node13795</title>
<g id="a_node13"><a xlink:title="application: hePikes
id: PTN-" target="_blank">
<polygon fill="#e8eef7" stroke="#000000" points="320,-284 266,-284 266,-248 320,-248 320,-284"/>
<text text-anchor="middle" x="293" y="-268" font-family="sans-serif" font-size="10.00" fill="#000000">hePikes</text>
<text text-anchor="middle" x="293" y="-258" font-family="sans-serif" font-size="10.00" fill="#000000">John</text>
</a>
</g>
</g>

<g id="edge7" class="edge">
<title>node13784-&gt;node13795</title>
<path fill="none" stroke="#296640" d="M241.2,-403.9065C241.2,-364.0111 241.2,-272 241.2,-272 241.2,-272 255.8863,-272 255.8863,-272"/>
<polygon fill="#296640" stroke="#296640" points="255.8864,-275.5001 265.8863,-272 255.8863,-268.5001 255.8864,-275.5001"/>
<text text-anchor="middle" x="241.2" y="-322.6101" font-family="sans-serif" font-size="10.00" fill="#000000">cash</text>
</g>

<g id="node15" class="node">
<title>node13797</title>
<g id="a_node15"><a xlink:title="application: SIP-local
id: PTN-" target="_blank">
<polygon fill="#e8eef7" stroke="#000000" points="132.0147,-56 77.9853,-56 77.9853,-20 132.0147,-20 132.0147,-56"/>
<text text-anchor="middle" x="105" y="-40" font-family="sans-serif" font-size="10.00" fill="#000000">SIP-local</text>
<text text-anchor="middle" x="105" y="-30" font-family="sans-serif" font-size="10.00" fill="#000000">Daniel</text>
</a>
</g>
</g>

<g id="edge8" class="edge">
<title>node13784-&gt;node13797</title>
<path fill="none" stroke="#296640" d="M227.6441,-422C179.8646,-422 92.4963,-422 92.4963,-422 92.4963,-422 92.4963,-66.0061 92.4963,-66.0061"/>
<polygon fill="#296640" stroke="#296640" points="95.9964,-66.006 92.4963,-56.0061 88.9964,-66.0061 95.9964,-66.006"/>
<text text-anchor="middle" x="79.1638" y="-313.5769" font-family="sans-serif" font-size="10.00" fill="#000000">pl-risk</text>
</g>


<g id="node3" class="node">
<title>node13785</title>
<g id="a_node3"><a xlink:title="application: Guerilla Risk
id: PTN-" target="_blank">
<polygon fill="#e8eef7" stroke="#000000" points="298.1804,-512 227.8196,-512 227.8196,-476 298.1804,-476 298.1804,-512"/>
<text text-anchor="middle" x="263" y="-496" font-family="sans-serif" font-size="10.00" fill="#000000">Guerilla Risk</text>
<text text-anchor="middle" x="263" y="-486" font-family="sans-serif" font-size="10.00" fill="#000000">Simone</text>
</a>
</g>
</g>

<g id="edge10" class="edge">
<title>node13785-&gt;node13784</title>
<path fill="none" stroke="#267a17" d="M258,-475.8314C258,-475.8314 258,-450.4133 258,-450.4133"/>
<polygon fill="#267a17" stroke="#267a17" points="261.5001,-450.4132 258,-440.4133 254.5001,-450.4133 261.5001,-450.4132"/>
<text text-anchor="middle" x="244.6675" y="-465.1223" font-family="sans-serif" font-size="10.00" fill="#000000">pl-risk</text>
</g>


<g id="node11" class="node">
<title>node13793</title>
<g id="a_node11"><a xlink:title="application: TradeDepo
id: PTN-" target="_blank">
<polygon fill="#e8eef7" stroke="#000000" points="400.664,-362 337.336,-362 337.336,-326 400.664,-326 400.664,-362"/>
<text text-anchor="middle" x="369" y="-346" font-family="sans-serif" font-size="10.00" fill="#000000">TradeDepo</text>
<text text-anchor="middle" x="369" y="-336" font-family="sans-serif" font-size="10.00" fill="#000000">Paul</text>
</a>
</g>
</g>

<g id="edge12" class="edge">
<title>node13785-&gt;node13793</title>
<path fill="none" stroke="#296640" d="M298.2923,-488C321.4123,-488 347.3716,-488 347.3716,-488 347.3716,-488 347.3716,-372.2377 347.3716,-372.2377"/>
<polygon fill="#296640" stroke="#296640" points="350.8717,-372.2377 347.3716,-362.2377 343.8717,-372.2377 350.8717,-372.2377"/>
<text text-anchor="middle" x="334.0391" y="-456.6585" font-family="sans-serif" font-size="10.00" fill="#000000">pl-risk</text>
</g>




<g id="node24" class="node">
<title>node13806</title>
<g id="a_node24"><a xlink:title="application: i-Assert(CZH)
id: PTN-" target="_blank">
<polygon fill="#e8eef7" stroke="#000000" points="504.6036,-362 429.3964,-362 429.3964,-326 504.6036,-326 504.6036,-362"/>
<text text-anchor="middle" x="467" y="-346" font-family="sans-serif" font-size="10.00" fill="#000000">i-Assert(CZH)</text>
<text text-anchor="middle" x="467" y="-336" font-family="sans-serif" font-size="10.00" fill="#000000">Paul</text>
</a>
</g>
</g>

<g id="edge16" class="edge">
<title>node13786-&gt;node13806</title>
<path fill="none" stroke="#dd809e" d="M357.7504,-558C394.2668,-558 437.9499,-558 437.9499,-558 437.9499,-558 437.9499,-372.2455 437.9499,-372.2455"/>
<polygon fill="#dd809e" stroke="#dd809e" points="441.45,-372.2455 437.9499,-362.2455 434.45,-372.2456 441.45,-372.2455"/>
<text text-anchor="middle" x="419.0583" y="-507.2225" font-family="sans-serif" font-size="10.00" fill="#000000">confirms</text>
</g>

<g id="node5" class="node">
<title>node13787</title>
<g id="a_node5"><a xlink:title="application: ECN
id: PTN-" target="_blank">
<polygon fill="#e8eef7" stroke="#000000" points="301,-212 247,-212 247,-176 301,-176 301,-212"/>
<text text-anchor="middle" x="274" y="-196" font-family="sans-serif" font-size="10.00" fill="#000000">ECN</text>
<text text-anchor="middle" x="274" y="-186" font-family="sans-serif" font-size="10.00" fill="#000000">John</text>
</a>
</g>
</g>

<g id="node8" class="node">
<title>node13790</title>
<g id="a_node8"><a xlink:title="application: eFermi
id: PTN-" target="_blank">
<polygon fill="#e8eef7" stroke="#000000" points="244,-134 190,-134 190,-98 244,-98 244,-134"/>
<text text-anchor="middle" x="217" y="-118" font-family="sans-serif" font-size="10.00" fill="#000000">eFermi</text>
<text text-anchor="middle" x="217" y="-108" font-family="sans-serif" font-size="10.00" fill="#000000">Loris</text>
</a>
</g>
</g>


<g id="edge18" class="edge">
<title>node13787-&gt;node13797</title>
<path fill="none" stroke="#ba521a" d="M274,-175.957C274,-134.1129 274,-34 274,-34 274,-34 142.1528,-34 142.1528,-34"/>
<polygon fill="#ba521a" stroke="#ba521a" points="142.1528,-30.5001 132.1528,-34 142.1527,-37.5001 142.1528,-30.5001"/>
<text text-anchor="middle" x="260.1035" y="-41.0549" font-family="sans-serif" font-size="10.00" fill="#000000">trades</text>
</g>

<g id="node19" class="node">
<title>node13801</title>
<g id="a_node19"><a xlink:title="application: Kuiper
id: PTN-" target="_blank">
<polygon fill="#e8eef7" stroke="#000000" points="161,-134 107,-134 107,-98 161,-98 161,-134"/>
<text text-anchor="middle" x="134" y="-118" font-family="sans-serif" font-size="10.00" fill="#000000">Kuiper</text>
<text text-anchor="middle" x="134" y="-108" font-family="sans-serif" font-size="10.00" fill="#000000">Loris</text>
</a>
</g>
</g>


<g id="node6" class="node">
<title>node13788</title>
<g id="a_node6"><a xlink:title="application: HCB
id: PTN-" target="_blank">
<polygon fill="#c6ddf2" stroke="#000000" points="468,-686 414,-686 414,-650 468,-650 468,-686"/>
<text text-anchor="middle" x="441" y="-670" font-family="sans-serif" font-size="10.00" fill="#000000">HCB</text>
<text text-anchor="middle" x="441" y="-660" font-family="sans-serif" font-size="10.00" fill="#000000">Ruth</text>
</a>
</g>
</g>


<g id="edge21" class="edge">
<title>node13788-&gt;node13787</title>
<path fill="none" stroke="#000000" stroke-dasharray="1,5" d="M468.4286,-668C491.4833,-668 520.7012,-668 520.7012,-668 520.7012,-668 520.7012,-194 520.7012,-194 520.7012,-194 311.3439,-194 311.3439,-194"/>
<polygon fill="#000000" stroke="#000000" points="311.344,-190.5001 301.3439,-194 311.3439,-197.5001 311.344,-190.5001"/>
<text text-anchor="middle" x="534.5977" y="-354.4577" font-family="sans-serif" font-size="10.00" fill="#000000">trades</text>
</g>


<g id="edge23" class="edge">
<title>node13788-&gt;node13795</title>
<path fill="none" stroke="#000000" stroke-dasharray="1,5" d="M461.4766,-649.9322C461.4766,-614.6489 461.4766,-540 461.4766,-540 461.4766,-540 313.9224,-540 313.9224,-540 313.9224,-540 313.9224,-294.4034 313.9224,-294.4034"/>
<polygon fill="#000000" stroke="#000000" points="317.4225,-294.4033 313.9224,-284.4034 310.4225,-294.4034 317.4225,-294.4033"/>
<text text-anchor="middle" x="305.9708" y="-542" font-family="sans-serif" font-size="10.00" fill="#000000">trades</text>
</g>

<g id="edge24" class="edge">
<title>node13788-&gt;node13802</title>
<path fill="none" stroke="#a6a8e0" d="M424.2383,-649.9489C424.2383,-635.627 424.2383,-618 424.2383,-618 424.2383,-618 222.8079,-618 222.8079,-618 222.8079,-618 222.8079,-609.0664 222.8079,-609.0664"/>
<polygon fill="#a6a8e0" stroke="#a6a8e0" points="226.308,-609.0664 222.8079,-599.0664 219.308,-609.0665 226.308,-609.0664"/>
<text text-anchor="middle" x="321.1342" y="-620" font-family="sans-serif" font-size="10.00" fill="#000000">trades</text>
</g>

<g id="node7" class="node">
<title>node13789</title>
<g id="a_node7"><a xlink:href="https://en.wikipedia.org/wiki/Reference_data" xlink:title="application: Books
id: PTN-1234" target="_blank">
<path fill="#eebd1b" stroke="#000000" d="M553,-842.3983C553,-844.7309 540.8982,-846.6257 526,-846.6257 511.1018,-846.6257 499,-844.7309 499,-842.3983 499,-842.3983 499,-804.3517 499,-804.3517 499,-802.0191 511.1018,-800.1243 526,-800.1243 540.8982,-800.1243 553,-802.0191 553,-804.3517 553,-804.3517 553,-842.3983 553,-842.3983"/>
<path fill="none" stroke="#000000" d="M553,-842.3983C553,-840.0657 540.8982,-838.1709 526,-838.1709 511.1018,-838.1709 499,-840.0657 499,-842.3983"/>
<text text-anchor="middle" x="526" y="-825.375" font-family="sans-serif" font-size="10.00" fill="#000000">Books</text>
<text text-anchor="middle" x="526" y="-815.375" font-family="sans-serif" font-size="10.00" fill="#000000">Jacob</text>
</a>
</g>
</g>



<g id="node9" class="node">
<title>node13791</title>
<g id="a_node9"><a xlink:href="https://en.wikipedia.org/wiki/Reference_data" xlink:title="application: Instrument+Hub
id: PTN-" target="_blank">
<polygon fill="#e8eef7" stroke="#000000" points="240.9268,-764 155.0732,-764 155.0732,-728 240.9268,-728 240.9268,-764"/>
<text text-anchor="middle" x="198" y="-748" font-family="sans-serif" font-size="10.00" fill="#000000">Instrument+Hub</text>
<text text-anchor="middle" x="198" y="-738" font-family="sans-serif" font-size="10.00" fill="#000000">Jacob</text>
</a>
</g>
</g>









<g id="edge35" class="edge">
<title>node13794-&gt;node13806</title>
<g id="a_edge35"><a xlink:href="http://www.google.com" xlink:title="Fidelity-&gt;i-Assert(CZH)" target="_blank">
<path fill="none" stroke="#dd809e" stroke-width="2" d="M446.4515,-562.7965C446.4515,-562.7965 446.4515,-372.2655 446.4515,-372.2655"/>
<polygon fill="#dd809e" stroke="#dd809e" stroke-width="2" points="449.9516,-372.2654 446.4515,-362.2655 442.9516,-372.2655 449.9516,-372.2654"/>
</a>
</g>
<g id="a_edge35-label"><a xlink:href="http://www.google.com" xlink:title="Fidelity-&gt;i-Assert(CZH)" target="_blank">
<text text-anchor="middle" x="432.555" y="-469.531" font-family="sans-serif" font-size="10.00" fill="#0000ff">trades</text>
</a>
</g>
</g>

<g id="edge36" class="edge">
<title>node13795-&gt;node13787</title>
<path fill="none" stroke="#9e5919" d="M289.3333,-247.8314C289.3333,-247.8314 289.3333,-222.4133 289.3333,-222.4133"/>
<polygon fill="#9e5919" stroke="#9e5919" points="292.8334,-222.4132 289.3333,-212.4133 285.8334,-222.4133 292.8334,-222.4132"/>
<text text-anchor="middle" x="264.0452" y="-237.1223" font-family="sans-serif" font-size="10.00" fill="#000000">instructions</text>
</g>

<g id="edge37" class="edge">
<title>node13795-&gt;node13790</title>
<path fill="none" stroke="#81648c" d="M265.7766,-260C252.6876,-260 239.8,-260 239.8,-260 239.8,-260 239.8,-144.2377 239.8,-144.2377"/>
<polygon fill="#81648c" stroke="#81648c" points="243.3001,-144.2377 239.8,-134.2377 236.3001,-144.2377 243.3001,-144.2377"/>
<text text-anchor="middle" x="214.5119" y="-217.1072" font-family="sans-serif" font-size="10.00" fill="#000000">instructions</text>
</g>

<g id="edge38" class="edge">
<title>node13795-&gt;node13797</title>
<path fill="none" stroke="#ba521a" d="M310.5,-247.6429C310.5,-191.6781 310.5,-27 310.5,-27 310.5,-27 142.2888,-27 142.2888,-27"/>
<polygon fill="#ba521a" stroke="#ba521a" points="142.2888,-23.5001 132.2888,-27 142.2888,-30.5001 142.2888,-23.5001"/>
<text text-anchor="middle" x="296.6035" y="-55.2159" font-family="sans-serif" font-size="10.00" fill="#000000">trades</text>
</g>


<g id="edge40" class="edge">
<title>node13796-&gt;node13797</title>
<path fill="none" stroke="#ba521a" d="M186.5,-247.7884C186.5,-195.3943 186.5,-48 186.5,-48 186.5,-48 142.1383,-48 142.1383,-48"/>
<polygon fill="#ba521a" stroke="#ba521a" points="142.1384,-44.5001 132.1383,-48 142.1383,-51.5001 142.1384,-44.5001"/>
<text text-anchor="middle" x="172.6035" y="-127.7134" font-family="sans-serif" font-size="10.00" fill="#000000">trades</text>
</g>

<g id="node16" class="node">
<title>node13798</title>
<g id="a_node16"><a xlink:href="https://en.wikipedia.org/wiki/Reference_data" xlink:title="application: Affinity
id: PTN-" target="_blank">
<polygon fill="#e8eef7" stroke="#000000" points="324,-764 270,-764 270,-728 324,-728 324,-764"/>
<text text-anchor="middle" x="297" y="-748" font-family="sans-serif" font-size="10.00" fill="#000000">Affinity</text>
<text text-anchor="middle" x="297" y="-738" font-family="sans-serif" font-size="10.00" fill="#000000">Jacob</text>
</a>
</g>
</g>



<g id="node17" class="node">
<title>node13799</title>
<g id="a_node17"><a xlink:href="https://en.wikipedia.org/wiki/Reference_data" xlink:title="application: P-RAM
id: PTN-" target="_blank">
<polygon fill="#e8eef7" stroke="#000000" points="490,-764 436,-764 436,-728 490,-728 490,-764"/>
<text text-anchor="middle" x="463" y="-748" font-family="sans-serif" font-size="10.00" fill="#000000">P-RAM</text>
<text text-anchor="middle" x="463" y="-738" font-family="sans-serif" font-size="10.00" fill="#000000">Jacob</text>
</a>
</g>
</g>

<g id="node18" class="node">
<title>node13800</title>
<g id="a_node18"><a xlink:href="https://en.wikipedia.org/wiki/Reference_data" xlink:title="application: Instrument
id: PTN-2345" target="_blank">
<path fill="#eebd1b" stroke="#000000" d="M469.7417,-842.3983C469.7417,-844.7309 455.9628,-846.6257 439,-846.6257 422.0372,-846.6257 408.2583,-844.7309 408.2583,-842.3983 408.2583,-842.3983 408.2583,-804.3517 408.2583,-804.3517 408.2583,-802.0191 422.0372,-800.1243 439,-800.1243 455.9628,-800.1243 469.7417,-802.0191 469.7417,-804.3517 469.7417,-804.3517 469.7417,-842.3983 469.7417,-842.3983"/>
<path fill="none" stroke="#000000" d="M469.7417,-842.3983C469.7417,-840.0657 455.9628,-838.1709 439,-838.1709 422.0372,-838.1709 408.2583,-840.0657 408.2583,-842.3983"/>
<text text-anchor="middle" x="439" y="-825.375" font-family="sans-serif" font-size="10.00" fill="#000000">Instrument</text>
<text text-anchor="middle" x="439" y="-815.375" font-family="sans-serif" font-size="10.00" fill="#000000">Jacob</text>
</a>
</g>
</g>



<g id="edge45" class="edge">
<title>node13802-&gt;node13785</title>
<path fill="none" stroke="#267a17" d="M231.6402,-581C239.6596,-581 245.9958,-581 245.9958,-581 245.9958,-581 245.9958,-522.0265 245.9958,-522.0265"/>
<polygon fill="#267a17" stroke="#267a17" points="249.4959,-522.0264 245.9958,-512.0265 242.4959,-522.0265 249.4959,-522.0264"/>
<g id="a_edge45-label"><a xlink:title="BAD Image-&gt;Guerilla Risk">
<text text-anchor="middle" x="226.262" y="-550.6911" font-family="sans-serif" font-size="10.00" fill="#ff0000">positions</text>
</a>
</g>
</g>

<g id="edge46" class="edge">
<title>node13802-&gt;node13790</title>
<path fill="none" stroke="#81648c" d="M179.8,-562.8076C179.8,-512.6364 179.8,-376 179.8,-376 179.8,-376 238.4,-376 238.4,-376 238.4,-376 238.4,-144.2827 238.4,-144.2827"/>
<polygon fill="#81648c" stroke="#81648c" points="241.9001,-144.2827 238.4,-134.2827 234.9001,-144.2827 241.9001,-144.2827"/>
<text text-anchor="middle" x="211.821" y="-378" font-family="sans-serif" font-size="10.00" fill="#000000">positions</text>
</g>

<g id="edge47" class="edge">
<title>node13802-&gt;node13792</title>
<path fill="none" stroke="#267a17" d="M190.6,-562.6861C190.6,-514.8804 190.6,-390 190.6,-390 190.6,-390 264.2152,-390 264.2152,-390 264.2152,-390 264.2152,-372.1804 264.2152,-372.1804"/>
<polygon fill="#267a17" stroke="#267a17" points="267.7153,-372.1804 264.2152,-362.1804 260.7153,-372.1805 267.7153,-372.1804"/>
<g id="a_edge47-label"><a xlink:title="BAD Image-&gt;1-Charge">
<text text-anchor="middle" x="170.8661" y="-432.6257" font-family="sans-serif" font-size="10.00" fill="#ff0000">positions</text>
</a>
</g>
</g>

<g id="edge48" class="edge">
<title>node13802-&gt;node13795</title>
<path fill="none" stroke="#81648c" d="M201.4,-562.9909C201.4,-546.9506 201.4,-526 201.4,-526 201.4,-526 310.8835,-526 310.8835,-526 310.8835,-526 310.8835,-294.2827 310.8835,-294.2827"/>
<polygon fill="#81648c" stroke="#81648c" points="314.3836,-294.2827 310.8835,-284.2827 307.3836,-294.2827 314.3836,-294.2827"/>
<text text-anchor="middle" x="330.6174" y="-485.3786" font-family="sans-serif" font-size="10.00" fill="#000000">positions</text>
</g>

<g id="edge49" class="edge">
<title>node13802-&gt;node13801</title>
<path fill="none" stroke="#81648c" d="M166.3928,-581C151.0204,-581 136,-581 136,-581 136,-581 136,-144.2286 136,-144.2286"/>
<polygon fill="#81648c" stroke="#81648c" points="139.5001,-144.2285 136,-134.2286 132.5001,-144.2286 139.5001,-144.2285"/>
<text text-anchor="middle" x="116.2661" y="-379.8107" font-family="sans-serif" font-size="10.00" fill="#000000">positions</text>
</g>

<g id="node21" class="node">
<title>node13803</title>
<g id="a_node21"><a xlink:href="https://en.wikipedia.org/wiki/Reference_data" xlink:title="application: Clients
id: PTN-675664" target="_blank">
<path fill="#eebd1b" stroke="#000000" d="M379,-842.3983C379,-844.7309 366.8982,-846.6257 352,-846.6257 337.1018,-846.6257 325,-844.7309 325,-842.3983 325,-842.3983 325,-804.3517 325,-804.3517 325,-802.0191 337.1018,-800.1243 352,-800.1243 366.8982,-800.1243 379,-802.0191 379,-804.3517 379,-804.3517 379,-842.3983 379,-842.3983"/>
<path fill="none" stroke="#000000" d="M379,-842.3983C379,-840.0657 366.8982,-838.1709 352,-838.1709 337.1018,-838.1709 325,-840.0657 325,-842.3983"/>
<text text-anchor="middle" x="352" y="-825.375" font-family="sans-serif" font-size="10.00" fill="#000000">Clients</text>
<text text-anchor="middle" x="352" y="-815.375" font-family="sans-serif" font-size="10.00" fill="#000000">Jacob</text>
</a>
</g>
</g>

<g id="node23" class="node">
<title>node13805</title>
<g id="a_node23"><a xlink:href="https://en.wikipedia.org/wiki/Reference_data" xlink:title="application: ERP
id: PTN-" target="_blank">
<polygon fill="#e8eef7" stroke="#000000" points="407,-764 353,-764 353,-728 407,-728 407,-764"/>
<text text-anchor="middle" x="380" y="-748" font-family="sans-serif" font-size="10.00" fill="#000000">ERP</text>
<text text-anchor="middle" x="380" y="-738" font-family="sans-serif" font-size="10.00" fill="#000000">Jacob</text>
</a>
</g>
</g>


<g id="node25" class="node">
<title>node13807</title>
<g id="a_node25"><a xlink:title="application: FORPS-bus
id: PTN-" target="_blank">
<polygon fill="#c6ddf2" stroke="#000000" points="281.9014,-686 214.0986,-686 214.0986,-650 281.9014,-650 281.9014,-686"/>
<text text-anchor="middle" x="248" y="-670" font-family="sans-serif" font-size="10.00" fill="#000000">FORPS-bus</text>
<text text-anchor="middle" x="248" y="-660" font-family="sans-serif" font-size="10.00" fill="#000000">Ruth</text>
</a>
</g>
</g>



<g id="node26" class="node">
<title>node13808</title>
<g id="a_node26"><a xlink:href="https://en.wikipedia.org/wiki/Reference_data" xlink:title="application: Employee
id: PTN-23" target="_blank">
<path fill="#eebd1b" stroke="#000000" d="M296.4697,-842.3983C296.4697,-844.7309 283.2609,-846.6257 267,-846.6257 250.7391,-846.6257 237.5303,-844.7309 237.5303,-842.3983 237.5303,-842.3983 237.5303,-804.3517 237.5303,-804.3517 237.5303,-802.0191 250.7391,-800.1243 267,-800.1243 283.2609,-800.1243 296.4697,-802.0191 296.4697,-804.3517 296.4697,-804.3517 296.4697,-842.3983 296.4697,-842.3983"/>
<path fill="none" stroke="#000000" d="M296.4697,-842.3983C296.4697,-840.0657 283.2609,-838.1709 267,-838.1709 250.7391,-838.1709 237.5303,-840.0657 237.5303,-842.3983"/>
<text text-anchor="middle" x="267" y="-825.375" font-family="sans-serif" font-size="10.00" fill="#000000">Employee</text>
<text text-anchor="middle" x="267" y="-815.375" font-family="sans-serif" font-size="10.00" fill="#000000">Jacob</text>
</a>
</g>
</g>


<g id="node27" class="node">
<title>node13809</title>
<g id="a_node27"><a xlink:href="https://en.wikipedia.org/wiki/Reference_data" xlink:title="application: Products
id: PTN-6538" target="_blank">
<path fill="#eebd1b" stroke="#000000" d="M209,-842.3983C209,-844.7309 196.8982,-846.6257 182,-846.6257 167.1018,-846.6257 155,-844.7309 155,-842.3983 155,-842.3983 155,-804.3517 155,-804.3517 155,-802.0191 167.1018,-800.1243 182,-800.1243 196.8982,-800.1243 209,-802.0191 209,-804.3517 209,-804.3517 209,-842.3983 209,-842.3983"/>
<path fill="none" stroke="#000000" d="M209,-842.3983C209,-840.0657 196.8982,-838.1709 182,-838.1709 167.1018,-838.1709 155,-840.0657 155,-842.3983"/>
<text text-anchor="middle" x="182" y="-825.375" font-family="sans-serif" font-size="10.00" fill="#000000">Products</text>
<text text-anchor="middle" x="182" y="-815.375" font-family="sans-serif" font-size="10.00" fill="#000000">Jacob</text>
</a>
</g>
</g>


<g id="node28" class="node">
<title>node13810</title>
<g id="a_node28"><a xlink:title="application: sysTicket
id: PTN-" target="_blank">
<polygon fill="#e8eef7" stroke="#000000" points="384.8045,-686 329.1955,-686 329.1955,-650 384.8045,-650 384.8045,-686"/>
<text text-anchor="middle" x="357" y="-670" font-family="sans-serif" font-size="10.00" fill="#000000">sysTicket</text>
<text text-anchor="middle" x="357" y="-660" font-family="sans-serif" font-size="10.00" fill="#000000">Ruth</text>
</a>
</g>
</g>

<g id="edge55" class="edge">
<title>node13810-&gt;node13786</title>
<path fill="none" stroke="#000000" stroke-dasharray="1,5" d="M343.4614,-649.9735C343.4614,-649.9735 343.4614,-618.2644 343.4614,-618.2644"/>
<polygon fill="#000000" stroke="#000000" points="346.9615,-618.2644 343.4614,-608.2644 339.9615,-618.2645 346.9615,-618.2644"/>
<text text-anchor="middle" x="329.5649" y="-636.119" font-family="sans-serif" font-size="10.00" fill="#000000">trades</text>
</g>

<g id="edge56" class="edge">
<title>node13810-&gt;node13793</title>
<path fill="none" stroke="#a6a8e0" d="M371.1133,-649.652C371.1133,-649.652 371.1133,-372.1467 371.1133,-372.1467"/>
<polygon fill="#a6a8e0" stroke="#a6a8e0" points="374.6134,-372.1467 371.1133,-362.1467 367.6134,-372.1468 374.6134,-372.1467"/>
<text text-anchor="middle" x="357.2168" y="-512.8994" font-family="sans-serif" font-size="10.00" fill="#000000">trades</text>
</g>

<g id="edge57" class="edge">
<title>node13810-&gt;node13794</title>
<path fill="none" stroke="#a6a8e0" d="M384.699,-668C393.1947,-668 400.349,-668 400.349,-668 400.349,-668 400.349,-609.0265 400.349,-609.0265"/>
<polygon fill="#a6a8e0" stroke="#a6a8e0" points="403.8491,-609.0264 400.349,-599.0265 396.8491,-609.0265 403.8491,-609.0264"/>
<text text-anchor="middle" x="386.4525" y="-638.3382" font-family="sans-serif" font-size="10.00" fill="#000000">trades</text>
</g>
</g>
</svg>