<?xml version="1.0" encoding="UTF-8"?><svg xmlns="http://www.w3.org/2000/svg" xmlns:xlink="http://www.w3.org/1999/xlink" width="414pt" height="391pt" viewBox="0.00 0.00 413.80 390.80">
<g id="graph0" class="graph" transform="scale(1 1) rotate(0) translate(14.4 376.4)">
<title>%3</title>
<polygon fill="#ffffff" stroke="transparent" points="-14.4,14.4 -14.4,-376.4 399.4,-376.4 399.4,14.4 -14.4,14.4"/>
<g id="clust1" class="cluster">
<title>cluster11805</title>
<polygon fill="#f0f2da" stroke="#49c1e5" points="8,-354 8,-8 377,-8 377,-354 8,-354"/>
<text text-anchor="end" x="367" y="-336" font-family="sans-serif" font-size="14.00" fill="#000000">Current State</text>
</g>
<g id="clust2" class="cluster">
<title>cluster11806</title>
<polygon fill="#f0f2da" stroke="#49c1e5" points="8,-90 8,-8 377,-8 377,-90 8,-90"/>
<text text-anchor="end" x="367" y="-72" font-family="sans-serif" font-size="14.00" fill="#000000">Reporting</text>
</g>
<g id="clust3" class="cluster">
<title>cluster11807</title>
<polygon fill="#f0f2da" stroke="#49c1e5" points="8,-251 8,-167 377,-167 377,-251 8,-251"/>
<text text-anchor="end" x="367" y="-233" font-family="sans-serif" font-size="14.00" fill="#000000">Lifecycle</text>
</g>
<g id="clust4" class="cluster">
<title>cluster11808</title>
<polygon fill="#f0f2da" stroke="#49c1e5" points="8,-167 8,-90 377,-90 377,-167 8,-167"/>
<text text-anchor="end" x="367" y="-149" font-family="sans-serif" font-size="14.00" fill="#000000">Risk</text>
</g>
<g id="clust5" class="cluster">
<title>cluster11809</title>
<polygon fill="#f0f2da" stroke="#49c1e5" points="8,-326 8,-251 377,-251 377,-326 8,-326"/>
<text text-anchor="end" x="367" y="-308" font-family="sans-serif" font-size="14.00" fill="#000000">Capture</text>
</g>

<g id="node1" class="node">
<title>node11794</title>
<g id="a_node1"><a xlink:title="application: War
id: PTN-" target="_blank">
<polygon fill="#c6ddf2" stroke="#000000" points="245,-298 191,-298 191,-262 245,-262 245,-298"/>
<text text-anchor="middle" x="218" y="-277" font-family="sans-serif" font-size="10.00" fill="#000000">War</text>
</a>
</g>
</g>

<g id="node3" class="node">
<title>node11796</title>
<g id="a_node3"><a xlink:title="application: CONFIRMATIONS
Writer
Doc
id: PTN-" target="_blank">
<polygon fill="#e8eef7" stroke="#000000" points="211.6495,-220 114.3505,-220 114.3505,-176 211.6495,-176 211.6495,-220"/>
<text text-anchor="middle" x="163" y="-205" font-family="sans-serif" font-size="10.00" fill="#000000">CONFIRMATIONS</text>
<text text-anchor="middle" x="163" y="-195" font-family="sans-serif" font-size="10.00" fill="#000000">Writer</text>
<text text-anchor="middle" x="163" y="-185" font-family="sans-serif" font-size="10.00" fill="#000000">Doc</text>
</a>
</g>
</g>


<g id="node7" class="node">
<title>node11800</title>
<g id="a_node7"><a xlink:title="application: Fidelity Plus
id: PTN-" target="_blank">
<polygon fill="#e8eef7" stroke="#000000" points="308.9063,-216 241.0937,-216 241.0937,-180 308.9063,-180 308.9063,-216"/>
<text text-anchor="middle" x="275" y="-195" font-family="sans-serif" font-size="10.00" fill="#000000">Fidelity Plus</text>
</a>
</g>
</g>


<g id="node8" class="node">
<title>node11801</title>
<g id="a_node8"><a xlink:title="application: BAD Image
id: PTN-" target="_blank">
<polygon fill="#e8eef7" stroke="#000000" points="85.6329,-216 20.3671,-216 20.3671,-180 85.6329,-180 85.6329,-216"/>
<text text-anchor="middle" x="53" y="-195" font-family="sans-serif" font-size="10.00" fill="#000000">BAD Image</text>
</a>
</g>
</g>

<g id="edge3" class="edge">
<title>node11794-&gt;node11801</title>
<path fill="none" stroke="#a6a8e0" d="M196.1437,-261.8408C196.1437,-256.9567 196.1437,-253 196.1437,-253 196.1437,-253 63.8555,-253 63.8555,-253 63.8555,-253 63.8555,-226.0091 63.8555,-226.0091"/>
<polygon fill="#a6a8e0" stroke="#a6a8e0" points="67.3556,-226.009 63.8555,-216.0091 60.3556,-226.0091 67.3556,-226.009"/>
<text text-anchor="middle" x="107.028" y="-245" font-family="sans-serif" font-size="10.00" fill="#000000">trades</text>
</g>

<g id="node9" class="node">
<title>node11802</title>
<g id="a_node9"><a xlink:title="application: noShock
id: PTN-" target="_blank">
<polygon fill="#e8eef7" stroke="#000000" points="168,-56 114,-56 114,-20 168,-20 168,-56"/>
<text text-anchor="middle" x="141" y="-35" font-family="sans-serif" font-size="10.00" fill="#000000">noShock</text>
</a>
</g>
</g>

<g id="edge4" class="edge">
<title>node11794-&gt;node11802</title>
<path fill="none" stroke="#a6a8e0" d="M218.9427,-261.8211C218.9427,-228.7212 218.9427,-162 218.9427,-162 218.9427,-162 152.1699,-162 152.1699,-162 152.1699,-162 152.1699,-66.0307 152.1699,-66.0307"/>
<polygon fill="#a6a8e0" stroke="#a6a8e0" points="155.67,-66.0306 152.1699,-56.0307 148.67,-66.0307 155.67,-66.0306"/>
<text text-anchor="middle" x="173.5857" y="-164" font-family="sans-serif" font-size="10.00" fill="#000000">trades</text>
</g>

<g id="node2" class="node">
<title>node11795</title>
<g id="a_node2"><a xlink:title="application: Guerilla Risk
id: PTN-" target="_blank">
<polygon fill="#e8eef7" stroke="#000000" points="136.1804,-134 65.8196,-134 65.8196,-98 136.1804,-98 136.1804,-134"/>
<text text-anchor="middle" x="101" y="-113" font-family="sans-serif" font-size="10.00" fill="#000000">Guerilla Risk</text>
</a>
</g>
</g>

<g id="node5" class="node">
<title>node11798</title>
<g id="a_node5"><a xlink:title="application: 1-Charge
id: PTN-" target="_blank">
<polygon fill="#e8eef7" stroke="#000000" points="84.6903,-56 29.3097,-56 29.3097,-20 84.6903,-20 84.6903,-56"/>
<text text-anchor="middle" x="57" y="-35" font-family="sans-serif" font-size="10.00" fill="#000000">1-Charge</text>
</a>
</g>
</g>


<g id="node6" class="node">
<title>node11799</title>
<g id="a_node6"><a xlink:title="application: TradeDepo
id: PTN-" target="_blank">
<polygon fill="#e8eef7" stroke="#000000" points="260.664,-56 197.336,-56 197.336,-20 260.664,-20 260.664,-56"/>
<text text-anchor="middle" x="229" y="-35" font-family="sans-serif" font-size="10.00" fill="#000000">TradeDepo</text>
</a>
</g>
</g>

<g id="edge6" class="edge">
<title>node11795-&gt;node11799</title>
<path fill="none" stroke="#296640" d="M136.2208,-110C166.9901,-110 206.7726,-110 206.7726,-110 206.7726,-110 206.7726,-66.1686 206.7726,-66.1686"/>
<polygon fill="#296640" stroke="#296640" points="210.2727,-66.1686 206.7726,-56.1686 203.2727,-66.1687 210.2727,-66.1686"/>
<text text-anchor="middle" x="180.0798" y="-112" font-family="sans-serif" font-size="10.00" fill="#000000">pl-risk</text>
</g>



<g id="node10" class="node">
<title>node11803</title>
<g id="a_node10"><a xlink:title="application: i-Assert(CZH)
id: PTN-" target="_blank">
<polygon fill="#e8eef7" stroke="#000000" points="364.6036,-56 289.3964,-56 289.3964,-20 364.6036,-20 364.6036,-56"/>
<text text-anchor="middle" x="327" y="-35" font-family="sans-serif" font-size="10.00" fill="#000000">i-Assert(CZH)</text>
</a>
</g>
</g>

<g id="edge9" class="edge">
<title>node11796-&gt;node11803</title>
<path fill="none" stroke="#dd809e" d="M201.9705,-175.9237C201.9705,-162.5294 201.9705,-148 201.9705,-148 201.9705,-148 295.9499,-148 295.9499,-148 295.9499,-148 295.9499,-66.1643 295.9499,-66.1643"/>
<polygon fill="#dd809e" stroke="#dd809e" points="299.45,-66.1642 295.9499,-56.1643 292.45,-66.1643 299.45,-66.1642"/>
<text text-anchor="middle" x="257.0246" y="-150" font-family="sans-serif" font-size="10.00" fill="#000000">confirms</text>
</g>

<g id="node4" class="node">
<title>node11797</title>
<g id="a_node4"><a xlink:title="application: HCB
id: PTN-" target="_blank">
<polygon fill="#c6ddf2" stroke="#000000" points="162,-298 108,-298 108,-262 162,-262 162,-298"/>
<text text-anchor="middle" x="135" y="-277" font-family="sans-serif" font-size="10.00" fill="#000000">HCB</text>
</a>
</g>
</g>



<g id="edge12" class="edge">
<title>node11797-&gt;node11801</title>
<path fill="none" stroke="#a6a8e0" d="M107.6425,-280C80.2525,-280 42.1445,-280 42.1445,-280 42.1445,-280 42.1445,-226.1985 42.1445,-226.1985"/>
<polygon fill="#a6a8e0" stroke="#a6a8e0" points="45.6446,-226.1984 42.1445,-216.1985 38.6446,-226.1985 45.6446,-226.1984"/>
<text text-anchor="middle" x="34.0963" y="-282" font-family="sans-serif" font-size="10.00" fill="#000000">trades</text>
</g>


<g id="edge14" class="edge">
<title>node11800-&gt;node11803</title>
<g id="a_edge14"><a xlink:href="http://www.google.com" xlink:title="Fidelity-&gt;i-Assert(CZH)" target="_blank">
<path fill="none" stroke="#dd809e" stroke-width="2" d="M302.4515,-179.957C302.4515,-179.957 302.4515,-66.2226 302.4515,-66.2226"/>
<polygon fill="#dd809e" stroke="#dd809e" stroke-width="2" points="305.9516,-66.2225 302.4515,-56.2226 298.9516,-66.2226 305.9516,-66.2225"/>
</a>
</g>
<g id="a_edge14-label"><a xlink:href="http://www.google.com" xlink:title="Fidelity-&gt;i-Assert(CZH)" target="_blank">
<text text-anchor="middle" x="288.555" y="-125.0898" font-family="sans-serif" font-size="10.00" fill="#0000ff">trades</text>
</a>
</g>
</g>

<g id="edge15" class="edge">
<title>node11801-&gt;node11795</title>
<path fill="none" stroke="#267a17" d="M75.6133,-179.8015C75.6133,-179.8015 75.6133,-144.1476 75.6133,-144.1476"/>
<polygon fill="#267a17" stroke="#267a17" points="79.1134,-144.1476 75.6133,-134.1476 72.1134,-144.1476 79.1134,-144.1476"/>
<g id="a_edge15-label"><a xlink:title="BAD Image-&gt;Guerilla Risk">
<text text-anchor="middle" x="55.8794" y="-163.9746" font-family="sans-serif" font-size="10.00" fill="#ff0000">positions</text>
</a>
</g>
</g>

<g id="edge16" class="edge">
<title>node11801-&gt;node11798</title>
<path fill="none" stroke="#267a17" d="M47.4077,-179.957C47.4077,-179.957 47.4077,-66.2226 47.4077,-66.2226"/>
<polygon fill="#267a17" stroke="#267a17" points="50.9078,-66.2225 47.4077,-56.2226 43.9078,-66.2226 50.9078,-66.2225"/>
<g id="a_edge16-label"><a xlink:title="BAD Image-&gt;1-Charge">
<text text-anchor="middle" x="27.6738" y="-125.0898" font-family="sans-serif" font-size="10.00" fill="#ff0000">positions</text>
</a>
</g>
</g>

<g id="node11" class="node">
<title>node11804</title>
<g id="a_node11"><a xlink:title="application: sysTicket
id: PTN-" target="_blank">
<polygon fill="#e8eef7" stroke="#000000" points="329.8045,-298 274.1955,-298 274.1955,-262 329.8045,-262 329.8045,-298"/>
<text text-anchor="middle" x="302" y="-277" font-family="sans-serif" font-size="10.00" fill="#000000">sysTicket</text>
</a>
</g>
</g>

<g id="edge17" class="edge">
<title>node11804-&gt;node11796</title>
<path fill="none" stroke="#000000" stroke-dasharray="1,5" d="M282.9994,-261.8495C282.9994,-249.7292 282.9994,-236 282.9994,-236 282.9994,-236 206.431,-236 206.431,-236 206.431,-236 206.431,-230.1048 206.431,-230.1048"/>
<polygon fill="#000000" stroke="#000000" points="209.9311,-230.1047 206.431,-220.1048 202.9311,-230.1048 209.9311,-230.1047"/>
<text text-anchor="middle" x="240.7958" y="-228" font-family="sans-serif" font-size="10.00" fill="#000000">trades</text>
</g>

<g id="edge18" class="edge">
<title>node11804-&gt;node11799</title>
<path fill="none" stroke="#a6a8e0" d="M291.6506,-261.8129C291.6506,-246.8176 291.6506,-228 291.6506,-228 291.6506,-228 226.3108,-228 226.3108,-228 226.3108,-228 226.3108,-66.218 226.3108,-66.218"/>
<polygon fill="#a6a8e0" stroke="#a6a8e0" points="229.8109,-66.218 226.3108,-56.218 222.8109,-66.218 229.8109,-66.218"/>
<text text-anchor="middle" x="226.3108" y="-188.6854" font-family="sans-serif" font-size="10.00" fill="#000000">trades</text>
</g>

<g id="edge19" class="edge">
<title>node11804-&gt;node11800</title>
<path fill="none" stroke="#a6a8e0" d="M300.3019,-261.8015C300.3019,-261.8015 300.3019,-226.1476 300.3019,-226.1476"/>
<polygon fill="#a6a8e0" stroke="#a6a8e0" points="303.802,-226.1476 300.3019,-216.1476 296.802,-226.1476 303.802,-226.1476"/>
<text text-anchor="middle" x="314.1984" y="-245.9746" font-family="sans-serif" font-size="10.00" fill="#000000">trades</text>
</g>
</g>
</svg>