<?xml version="1.0" encoding="UTF-8"?><svg xmlns="http://www.w3.org/2000/svg" xmlns:xlink="http://www.w3.org/1999/xlink" width="498pt" height="281pt" viewBox="0.00 0.00 497.80 280.80">
<g id="graph0" class="graph" transform="scale(1 1) rotate(0) translate(14.4 266.4)">
<title>%3</title>
<polygon fill="#ffffff" stroke="transparent" points="-14.4,14.4 -14.4,-266.4 483.4,-266.4 483.4,14.4 -14.4,14.4"/>

<g id="node1" class="node">
<title>node15987</title>
<g id="a_node1"><a xlink:title="application: 
id: " target="_blank">
<polygon fill="#61d2c4" stroke="#000000" points="54,-108 0,-108 0,-72 54,-72 54,-108"/>
</a>
</g>
</g>

<g id="node2" class="node">
<title>node15988</title>
<g id="a_node2"><a xlink:title="application: 
id: " target="_blank">
<polygon fill="#acf5ab" stroke="#000000" points="137,-36 83,-36 83,0 137,0 137,-36"/>
</a>
</g>
</g>

<g id="node3" class="node">
<title>node15989</title>
<g id="a_node3"><a xlink:title="application: 
id: " target="_blank">
<polygon fill="#0000ff" stroke="#000000" stroke-width="2" points="303,-180 249,-180 249,-144 303,-144 303,-180"/>
</a>
</g>
</g>

<g id="node14" class="node">
<title>node16000</title>
<g id="a_node14"><a xlink:title="application: 
id: " target="_blank">
<polygon fill="#61d2c4" stroke="#000000" points="303,-108 249,-108 249,-72 303,-72 303,-108"/>
</a>
</g>
</g>

<g id="edge1" class="edge">
<title>node15989-&gt;node16000</title>
<path fill="none" stroke="#000000" d="M276,-143.8314C276,-143.8314 276,-118.4133 276,-118.4133"/>
<polygon fill="#000000" stroke="#000000" points="279.5001,-118.4132 276,-108.4133 272.5001,-118.4133 279.5001,-118.4132"/>
</g>

<g id="node4" class="node">
<title>node15990</title>
<g id="a_node4"><a xlink:title="application: 
id: " target="_blank">
<polygon fill="#61d2c4" stroke="#000000" points="303,-252 249,-252 249,-216 303,-216 303,-252"/>
</a>
</g>
</g>

<g id="edge2" class="edge">
<title>node15990-&gt;node15989</title>
<path fill="none" stroke="#ff1493" d="M276,-215.8314C276,-215.8314 276,-190.4133 276,-190.4133"/>
<polygon fill="#ff1493" stroke="#ff1493" points="279.5001,-190.4132 276,-180.4133 272.5001,-190.4133 279.5001,-190.4132"/>
</g>

<g id="node5" class="node">
<title>node15991</title>
<g id="a_node5"><a xlink:title="application: 
id: " target="_blank">
<polygon fill="#61d2c4" stroke="#000000" points="469,-252 415,-252 415,-216 469,-216 469,-252"/>
</a>
</g>
</g>

<g id="node12" class="node">
<title>node15998</title>
<g id="a_node12"><a xlink:title="application: 
id: " target="_blank">
<polygon fill="#61d2c4" stroke="#000000" points="469,-180 415,-180 415,-144 469,-144 469,-180"/>
</a>
</g>
</g>

<g id="edge3" class="edge">
<title>node15991-&gt;node15998</title>
<path fill="none" stroke="#000000" d="M442,-215.8314C442,-215.8314 442,-190.4133 442,-190.4133"/>
<polygon fill="#000000" stroke="#000000" points="445.5001,-190.4132 442,-180.4133 438.5001,-190.4133 445.5001,-190.4132"/>
</g>

<g id="node6" class="node">
<title>node15992</title>
<g id="a_node6"><a xlink:title="application: 
id: " target="_blank">
<polygon fill="#768572" stroke="#000000" points="386,-108 332,-108 332,-72 386,-72 386,-108"/>
</a>
</g>
</g>

<g id="node7" class="node">
<title>node15993</title>
<g id="a_node7"><a xlink:title="application: 
id: " target="_blank">
<polygon fill="#61d2c4" stroke="#000000" points="95,-180 41,-180 41,-144 95,-144 95,-180"/>
</a>
</g>
</g>

<g id="edge4" class="edge">
<title>node15993-&gt;node15987</title>
<path fill="none" stroke="#000000" d="M47.5,-143.8314C47.5,-143.8314 47.5,-118.4133 47.5,-118.4133"/>
<polygon fill="#000000" stroke="#000000" points="51.0001,-118.4132 47.5,-108.4133 44.0001,-118.4133 51.0001,-118.4132"/>
</g>

<g id="node15" class="node">
<title>node16001</title>
<g id="a_node15"><a xlink:title="application: 
id: " target="_blank">
<polygon fill="#61d2c4" stroke="#000000" points="137,-108 83,-108 83,-72 137,-72 137,-108"/>
</a>
</g>
</g>

<g id="edge5" class="edge">
<title>node15993-&gt;node16001</title>
<path fill="none" stroke="#000000" d="M89,-143.8314C89,-143.8314 89,-118.4133 89,-118.4133"/>
<polygon fill="#000000" stroke="#000000" points="92.5001,-118.4132 89,-108.4133 85.5001,-118.4133 92.5001,-118.4132"/>
</g>

<g id="node8" class="node">
<title>node15994</title>
<g id="a_node8"><a xlink:title="application: 
id: " target="_blank">
<polygon fill="#61d2c4" stroke="#000000" points="220,-108 166,-108 166,-72 220,-72 220,-108"/>
</a>
</g>
</g>

<g id="node9" class="node">
<title>node15995</title>
<g id="a_node9"><a xlink:title="application: 
id: " target="_blank">
<polygon fill="#61d2c4" stroke="#000000" points="220,-36 166,-36 166,0 220,0 220,-36"/>
</a>
</g>
</g>

<g id="edge6" class="edge">
<title>node15994-&gt;node15995</title>
<path fill="none" stroke="#0000ff" d="M193,-71.8314C193,-71.8314 193,-46.4133 193,-46.4133"/>
<polygon fill="#0000ff" stroke="#0000ff" points="196.5001,-46.4132 193,-36.4133 189.5001,-46.4133 196.5001,-46.4132"/>
</g>

<g id="node10" class="node">
<title>node15996</title>
<g id="a_node10"><a xlink:title="application: 
id: " target="_blank">
<polygon fill="#61d2c4" stroke="#000000" points="220,-180 166,-180 166,-144 220,-144 220,-180"/>
</a>
</g>
</g>

<g id="edge7" class="edge">
<title>node15996-&gt;node15994</title>
<path fill="none" stroke="#000000" d="M193,-143.8314C193,-143.8314 193,-118.4133 193,-118.4133"/>
<polygon fill="#000000" stroke="#000000" points="196.5001,-118.4132 193,-108.4133 189.5001,-118.4133 196.5001,-118.4132"/>
</g>

<g id="edge8" class="edge">
<title>node15996-&gt;node16000</title>
<path fill="none" stroke="#00ee00" d="M220.45,-162C228.1676,-162 234.5,-162 234.5,-162 234.5,-162 234.5,-90 234.5,-90 234.5,-90 238.55,-90 238.55,-90"/>
<polygon fill="#00ee00" stroke="#00ee00" points="238.55,-93.5001 248.55,-90 238.55,-86.5001 238.55,-93.5001"/>
</g>

<g id="edge9" class="edge">
<title>node15996-&gt;node16001</title>
<path fill="none" stroke="#00ee00" d="M165.6359,-162C143.5039,-162 116,-162 116,-162 116,-162 116,-118.1686 116,-118.1686"/>
<polygon fill="#00ee00" stroke="#00ee00" points="119.5001,-118.1686 116,-108.1686 112.5001,-118.1687 119.5001,-118.1686"/>
</g>

<g id="node11" class="node">
<title>node15997</title>
<g id="a_node11"><a xlink:title="application: 
id: " target="_blank">
<polygon fill="#768572" stroke="#000000" points="386,-157.9946 380.6523,-173.2228 359,-180 337.3477,-173.2228 332,-157.9946 346.9839,-145.7826 371.0161,-145.7826 386,-157.9946"/>
</a>
</g>
</g>

<g id="edge10" class="edge">
<title>node15997-&gt;node15992</title>
<path fill="none" stroke="#ff1493" d="M359,-145.6621C359,-145.6621 359,-118.0423 359,-118.0423"/>
<polygon fill="#ff1493" stroke="#ff1493" points="362.5001,-118.0423 359,-108.0423 355.5001,-118.0424 362.5001,-118.0423"/>
</g>

<g id="node13" class="node">
<title>node15999</title>
<g id="a_node13"><a xlink:title="application: 
id: " target="_blank">
<polygon fill="#61d2c4" stroke="#000000" points="386,-252 332,-252 332,-216 386,-216 386,-252"/>
</a>
</g>
</g>

<g id="edge11" class="edge">
<title>node15999-&gt;node15989</title>
<path fill="none" stroke="#000000" d="M331.55,-234C323.8324,-234 317.5,-234 317.5,-234 317.5,-234 317.5,-162 317.5,-162 317.5,-162 313.45,-162 313.45,-162"/>
<polygon fill="#000000" stroke="#000000" points="313.45,-158.5001 303.45,-162 313.45,-165.5001 313.45,-158.5001"/>
</g>

<g id="edge12" class="edge">
<title>node15999-&gt;node15997</title>
<path fill="none" stroke="#ff1493" d="M359,-215.8314C359,-215.8314 359,-190.4133 359,-190.4133"/>
<polygon fill="#ff1493" stroke="#ff1493" points="362.5001,-190.4132 359,-180.4133 355.5001,-190.4133 362.5001,-190.4132"/>
</g>

<g id="edge13" class="edge">
<title>node16001-&gt;node15988</title>
<path fill="none" stroke="#ff0000" d="M110,-71.8314C110,-71.8314 110,-46.4133 110,-46.4133"/>
<polygon fill="#ff0000" stroke="#ff0000" points="113.5001,-46.4132 110,-36.4133 106.5001,-46.4133 113.5001,-46.4132"/>
</g>
</g>
</svg>