<?xml version="1.0" encoding="UTF-8" standalone="no"?>
<!DOCTYPE svg PUBLIC "-//W3C//DTD SVG 1.1//EN"
 "http://www.w3.org/Graphics/SVG/1.1/DTD/svg11.dtd">
<!-- Generated by graphviz version 2.40.1 (20161225.0304)
 -->
<!-- Title: %3 Pages: 1 -->
<svg width="824pt" height="621pt"
 viewBox="0.00 0.00 824.00 621.36" xmlns="http://www.w3.org/2000/svg" xmlns:xlink="http://www.w3.org/1999/xlink">
<g id="graph0" class="graph" transform="scale(1 1) rotate(0) translate(72 549.3571)">
<title>%3</title>
<polygon fill="#ffffff" stroke="transparent" points="-72,72 -72,-549.3571 752,-549.3571 752,72 -72,72"/>
<g id="clust1" class="cluster">
<title>cluster10452</title>
<polygon fill="none" stroke="#000000" points="452,-167.3571 452,-241.3571 522,-241.3571 522,-167.3571 452,-167.3571"/>
<text text-anchor="middle" x="487" y="-226.1571" font-family="Monospace" font-size="14.00" fill="#000000">squirrels</text>
</g>
<g id="clust2" class="cluster">
<title>cluster10453</title>
<polygon fill="none" stroke="#000000" points="302,-95.3571 302,-241.3571 444,-241.3571 444,-95.3571 302,-95.3571"/>
<text text-anchor="middle" x="373" y="-226.1571" font-family="Monospace" font-size="14.00" fill="#000000">wolves</text>
</g>
<g id="clust3" class="cluster">
<title>cluster10454</title>
<polygon fill="none" stroke="#000000" points="302,-249.3571 302,-395.3571 391,-395.3571 391,-249.3571 302,-249.3571"/>
<text text-anchor="middle" x="346.5" y="-380.1571" font-family="Monospace" font-size="14.00" fill="#000000">brownbears</text>
</g>
<g id="clust4" class="cluster">
<title>cluster10455</title>
<polygon fill="none" stroke="#000000" points="530,-8 530,-469.3571 672,-469.3571 672,-8 530,-8"/>
<text text-anchor="middle" x="601" y="-454.1571" font-family="Monospace" font-size="14.00" fill="#000000">flora</text>
</g>
<g id="clust5" class="cluster">
<title>cluster10456</title>
<polygon fill="none" stroke="#000000" points="8,-167.3571 8,-469.3571 294,-469.3571 294,-167.3571 8,-167.3571"/>
<text text-anchor="middle" x="151" y="-454.1571" font-family="Monospace" font-size="14.00" fill="#000000">pandas</text>
</g>
<!-- node10427 -->
<g id="node1" class="node">
<title>node10427</title>
<ellipse fill="#61d2c4" stroke="#000000" cx="259" cy="-275.3571" rx="27" ry="18"/>
<text text-anchor="middle" x="259" y="-272.3571" font-family="Monospace" font-size="10.00" fill="#000000">delila</text>
</g>
<!-- node10428 -->
<g id="node2" class="node">
<title>node10428</title>
<polygon fill="#ffd700" stroke="#000000" points="592,-47.7828 571.3738,-47.7828 565,-67.5368 558.6262,-47.7828 538,-47.7828 554.6869,-35.5742 548.3131,-15.8202 565,-28.0289 581.6869,-15.8202 575.3131,-35.5742 592,-47.7828"/>
<text text-anchor="middle" x="565" y="-38.6785" font-family="Monospace" font-size="10.00" fill="#000000">aster</text>
</g>
<!-- node10429 -->
<g id="node3" class="node">
<title>node10429</title>
<ellipse fill="#61d2c4" stroke="#000000" cx="115" cy="-421.3571" rx="27" ry="18"/>
<text text-anchor="middle" x="115" y="-418.3571" font-family="Monospace" font-size="10.00" fill="#000000">cristolene</text>
</g>
<!-- node10439 -->
<g id="node13" class="node">
<title>node10439</title>
<polygon fill="#0000ff" stroke="#000000" points="142,-365.3571 88,-365.3571 88,-329.3571 142,-329.3571 142,-365.3571"/>
<text text-anchor="middle" x="115" y="-344.3571" font-family="Monospace" font-size="10.00" fill="#ffffff">sharhar</text>
</g>
<!-- node10429&#45;&gt;node10439 -->
<g id="edge1" class="edge">
<title>node10429&#45;&gt;node10439</title>
<path fill="none" stroke="#000000" d="M106,-404.194C106,-404.194 106,-375.4595 106,-375.4595"/>
<polygon fill="#000000" stroke="#000000" points="109.5001,-375.4595 106,-365.4595 102.5001,-375.4595 109.5001,-375.4595"/>
</g>
<!-- node10430 -->
<g id="node4" class="node">
<title>node10430</title>
<polygon fill="#ffd700" stroke="#000000" points="628,-211.3571 574,-211.3571 574,-175.3571 628,-175.3571 628,-211.3571"/>
<text text-anchor="middle" x="601" y="-190.3571" font-family="Monospace" font-size="10.00" fill="#000000">jasmine</text>
</g>
<!-- node10440 -->
<g id="node14" class="node">
<title>node10440</title>
<polygon fill="#ffd700" stroke="#000000" points="628,-139.3571 574,-139.3571 574,-103.3571 628,-103.3571 628,-139.3571"/>
<text text-anchor="middle" x="601" y="-118.3571" font-family="Monospace" font-size="10.00" fill="#000000">fleur</text>
</g>
<!-- node10430&#45;&gt;node10440 -->
<!-- node10431 -->
<g id="node5" class="node">
<title>node10431</title>
<polygon fill="#8b7500" stroke="#000000" points="187,-439.3571 160,-412.3571 214,-412.3571 187,-439.3571"/>
<text text-anchor="middle" x="187" y="-418.3571" font-family="Monospace" font-size="10.00" fill="#000000">nikkai</text>
</g>
<!-- node10442 -->
<g id="node16" class="node">
<title>node10442</title>
<ellipse fill="#61d2c4" stroke="#000000" cx="259" cy="-347.3571" rx="27" ry="18"/>
<text text-anchor="middle" x="259" y="-344.3571" font-family="Monospace" font-size="10.00" fill="#000000">isobel</text>
</g>
<!-- node10431&#45;&gt;node10442 -->
<g id="edge3" class="edge">
<title>node10431&#45;&gt;node10442</title>
<path fill="none" stroke="#000000" d="M205.5862,-421C215.6311,-421 226,-421 226,-421 226,-421 226,-353 226,-353 226,-353 226.7324,-353 226.7324,-353"/>
<polygon fill="#000000" stroke="#000000" points="223.3238,-356.5002 233.3238,-353 223.3237,-349.5002 223.3238,-356.5002"/>
</g>
<!-- node10432 -->
<g id="node6" class="node">
<title>node10432</title>
<ellipse fill="#768572" stroke="#000000" cx="337" cy="-275.3571" rx="27" ry="18"/>
<text text-anchor="middle" x="337" y="-272.3571" font-family="Monospace" font-size="10.00" fill="#000000">eliza</text>
</g>
<!-- node10433 -->
<g id="node7" class="node">
<title>node10433</title>
<ellipse fill="#61d2c4" stroke="#000000" cx="187" cy="-347.3571" rx="27" ry="18"/>
<text text-anchor="middle" x="187" y="-344.3571" font-family="Monospace" font-size="10.00" fill="#000000">malakai</text>
</g>
<!-- node10433&#45;&gt;node10427 -->
<g id="edge4" class="edge">
<title>node10433&#45;&gt;node10427</title>
<path fill="none" stroke="#000000" d="M212.3462,-341C216.7773,-341 220,-341 220,-341 220,-341 220,-275 220,-275 220,-275 221.9132,-275 221.9132,-275"/>
<polygon fill="#000000" stroke="#000000" points="221.9132,-278.5001 231.9132,-275 221.9132,-271.5001 221.9132,-278.5001"/>
</g>
<!-- node10451 -->
<g id="node25" class="node">
<title>node10451</title>
<ellipse fill="#61d2c4" stroke="#000000" cx="187" cy="-275.3571" rx="27" ry="18"/>
<text text-anchor="middle" x="187" y="-272.3571" font-family="Monospace" font-size="10.00" fill="#000000">ivy</text>
</g>
<!-- node10433&#45;&gt;node10451 -->
<g id="edge5" class="edge">
<title>node10433&#45;&gt;node10451</title>
<path fill="none" stroke="#000000" d="M196,-330.2941C196,-330.2941 196,-302.7977 196,-302.7977"/>
<polygon fill="#000000" stroke="#000000" points="199.5001,-302.7977 196,-292.7977 192.5001,-302.7978 199.5001,-302.7977"/>
</g>
<!-- node10434 -->
<g id="node8" class="node">
<title>node10434</title>
<ellipse fill="#61d2c4" stroke="#000000" cx="43" cy="-275.3571" rx="27" ry="18"/>
<text text-anchor="middle" x="43" y="-272.3571" font-family="Monospace" font-size="10.00" fill="#000000">max</text>
</g>
<!-- node10435 -->
<g id="node9" class="node">
<title>node10435</title>
<ellipse fill="#9400d3" stroke="#000000" cx="43" cy="-193.3571" rx="27" ry="18"/>
<text text-anchor="middle" x="43" y="-190.3571" font-family="Monospace" font-size="10.00" fill="#fffaf0">Bridget</text>
</g>
<!-- node10434&#45;&gt;node10435 -->
<g id="edge6" class="edge">
<title>node10434&#45;&gt;node10435</title>
<path fill="none" stroke="#0000ff" d="M43,-257.1586C43,-257.1586 43,-221.5046 43,-221.5046"/>
<polygon fill="#0000ff" stroke="#0000ff" points="46.5001,-221.5046 43,-211.5046 39.5001,-221.5047 46.5001,-221.5046"/>
</g>
<!-- node10436 -->
<g id="node10" class="node">
<title>node10436</title>
<ellipse fill="#61d2c4" stroke="#000000" cx="43" cy="-347.3571" rx="27" ry="18"/>
<text text-anchor="middle" x="43" y="-344.3571" font-family="Monospace" font-size="10.00" fill="#000000">simone</text>
</g>
<!-- node10436&#45;&gt;node10434 -->
<g id="edge7" class="edge">
<title>node10436&#45;&gt;node10434</title>
<path fill="none" stroke="#000000" d="M34,-330.2941C34,-330.2941 34,-302.7977 34,-302.7977"/>
<polygon fill="#000000" stroke="#000000" points="37.5001,-302.7977 34,-292.7977 30.5001,-302.7978 37.5001,-302.7977"/>
</g>
<!-- node10450 -->
<g id="node24" class="node">
<title>node10450</title>
<ellipse fill="#61d2c4" stroke="#000000" cx="115" cy="-275.3571" rx="27" ry="18"/>
<text text-anchor="middle" x="115" y="-272.3571" font-family="Monospace" font-size="10.00" fill="#000000">summer</text>
</g>
<!-- node10436&#45;&gt;node10450 -->
<g id="edge8" class="edge">
<title>node10436&#45;&gt;node10450</title>
<path fill="none" stroke="#00ee00" d="M70.2854,-347C75.3064,-347 79,-347 79,-347 79,-347 79,-275 79,-275 79,-275 79.8715,-275 79.8715,-275"/>
<polygon fill="#00ee00" stroke="#00ee00" points="77.7146,-278.5001 87.7146,-275 77.7146,-271.5001 77.7146,-278.5001"/>
</g>
<!-- node10436&#45;&gt;node10451 -->
<g id="edge9" class="edge">
<title>node10436&#45;&gt;node10451</title>
<path fill="none" stroke="#00ee00" d="M52,-330.0304C52,-320.6662 52,-311 52,-311 52,-311 178,-311 178,-311 178,-311 178,-302.3434 178,-302.3434"/>
<polygon fill="#00ee00" stroke="#00ee00" points="181.5001,-302.3434 178,-292.3434 174.5001,-302.3435 181.5001,-302.3434"/>
</g>
<!-- node10437 -->
<g id="node11" class="node">
<title>node10437</title>
<polygon fill="#768572" stroke="#000000" points="364,-343.3517 358.6523,-358.5799 337,-365.3571 315.3477,-358.5799 310,-343.3517 324.9839,-331.1396 349.0161,-331.1396 364,-343.3517"/>
<text text-anchor="middle" x="337" y="-344.3571" font-family="Monospace" font-size="10.00" fill="#000000">cosmo</text>
</g>
<!-- node10437&#45;&gt;node10432 -->
<g id="edge10" class="edge">
<title>node10437&#45;&gt;node10432</title>
<path fill="none" stroke="#ff1493" d="M337,-331.0191C337,-331.0191 337,-303.3994 337,-303.3994"/>
<polygon fill="#ff1493" stroke="#ff1493" points="340.5001,-303.3994 337,-293.3994 333.5001,-303.3994 340.5001,-303.3994"/>
</g>
<!-- node10438 -->
<g id="node12" class="node">
<title>node10438</title>
<ellipse fill="#68db75" stroke="#000000" cx="337" cy="-121.3571" rx="27" ry="18"/>
<text text-anchor="middle" x="337" y="-118.3571" font-family="Monospace" font-size="10.00" fill="#000000">angelique</text>
</g>
<!-- node10439&#45;&gt;node10450 -->
<g id="edge11" class="edge">
<title>node10439&#45;&gt;node10450</title>
<path fill="none" stroke="#000000" d="M115,-329.1884C115,-329.1884 115,-303.7703 115,-303.7703"/>
<polygon fill="#000000" stroke="#000000" points="118.5001,-303.7703 115,-293.7703 111.5001,-303.7704 118.5001,-303.7703"/>
</g>
<!-- node10440&#45;&gt;node10428 -->
<g id="edge12" class="edge">
<title>node10440&#45;&gt;node10428</title>
<path fill="none" stroke="#000000" stroke-dasharray="1,5" d="M583,-103.2768C583,-103.2768 583,-57.9974 583,-57.9974"/>
<polygon fill="#c0c0c0" stroke="#000000" points="586.5001,-57.9973 583,-47.9974 579.5001,-57.9974 586.5001,-57.9973"/>
</g>
<!-- node10441 -->
<g id="node15" class="node">
<title>node10441</title>
<polygon fill="#ffd700" stroke="#000000" points="664,-59.6785 610,-59.6785 610,-23.6785 664,-23.6785 664,-59.6785"/>
<text text-anchor="middle" x="637" y="-38.6785" font-family="Monospace" font-size="10.00" fill="#000000">alyssa</text>
</g>
<!-- node10440&#45;&gt;node10441 -->
<g id="edge13" class="edge">
<title>node10440&#45;&gt;node10441</title>
<path fill="none" stroke="#eeb422" stroke-dasharray="5,2" d="M619,-103.2768C619,-103.2768 619,-69.6873 619,-69.6873"/>
<polygon fill="#eee8aa" stroke="#eeb422" points="622.5001,-69.6872 619,-59.6873 615.5001,-69.6873 622.5001,-69.6872"/>
</g>
<!-- node10443 -->
<g id="node17" class="node">
<title>node10443</title>
<ellipse fill="#acf5ab" stroke="#000000" cx="487" cy="-193.3571" rx="27" ry="18"/>
<text text-anchor="middle" x="487" y="-190.3571" font-family="Monospace" font-size="10.00" fill="#000000">squirrels</text>
</g>
<!-- node10444 -->
<g id="node18" class="node">
<title>node10444</title>
<polygon fill="#ffd700" stroke="#000000" points="628,-365.3571 574,-365.3571 574,-329.3571 628,-329.3571 628,-365.3571"/>
<text text-anchor="middle" x="601" y="-344.3571" font-family="Monospace" font-size="10.00" fill="#000000">rose</text>
</g>
<!-- node10447 -->
<g id="node21" class="node">
<title>node10447</title>
<polygon fill="#ffd700" stroke="#000000" points="628,-293.3571 574,-293.3571 574,-257.3571 628,-257.3571 628,-293.3571"/>
<text text-anchor="middle" x="601" y="-272.3571" font-family="Monospace" font-size="10.00" fill="#000000">lily</text>
</g>
<!-- node10444&#45;&gt;node10447 -->
<!-- node10445 -->
<g id="node19" class="node">
<title>node10445</title>
<ellipse fill="#68db75" stroke="#000000" cx="409" cy="-121.3571" rx="27" ry="18"/>
<text text-anchor="middle" x="409" y="-118.3571" font-family="Monospace" font-size="10.00" fill="#000000">sebastian</text>
</g>
<!-- node10446 -->
<g id="node20" class="node">
<title>node10446</title>
<ellipse fill="#61d2c4" stroke="#000000" cx="259" cy="-421.3571" rx="27" ry="18"/>
<text text-anchor="middle" x="259" y="-418.3571" font-family="Monospace" font-size="10.00" fill="#000000">kacey</text>
</g>
<!-- node10446&#45;&gt;node10437 -->
<g id="edge15" class="edge">
<title>node10446&#45;&gt;node10437</title>
<path fill="none" stroke="#ff1493" d="M286.2806,-421C308.7736,-421 337,-421 337,-421 337,-421 337,-375.5609 337,-375.5609"/>
<polygon fill="#ff1493" stroke="#ff1493" points="340.5001,-375.5609 337,-365.5609 333.5001,-375.561 340.5001,-375.5609"/>
</g>
<!-- node10446&#45;&gt;node10439 -->
<g id="edge16" class="edge">
<title>node10446&#45;&gt;node10439</title>
<path fill="none" stroke="#000000" d="M259,-403.1163C259,-393.6334 259,-384 259,-384 259,-384 124,-384 124,-384 124,-384 124,-375.6785 124,-375.6785"/>
<polygon fill="#000000" stroke="#000000" points="127.5001,-375.6785 124,-365.6785 120.5001,-375.6786 127.5001,-375.6785"/>
</g>
<!-- node10447&#45;&gt;node10430 -->
<g id="edge17" class="edge">
<title>node10447&#45;&gt;node10430</title>
<path fill="none" stroke="#000000" d="M601,-257.1586C601,-257.1586 601,-234.9046 601,-234.9046"/>
<polygon fill="#000000" stroke="#000000" points="605.55,-211.5046 601.0001,-224.5046 596.45,-211.5047 605.55,-211.5046"/>
<ellipse fill="none" stroke="#000000" cx="601.0001" cy="-229.7046" rx="5.2" ry="5.2"/>
</g>
<!-- node10448 -->
<g id="node22" class="node">
<title>node10448</title>
<ellipse fill="#68db75" stroke="#000000" cx="337" cy="-193.3571" rx="27" ry="18"/>
<text text-anchor="middle" x="337" y="-190.3571" font-family="Monospace" font-size="10.00" fill="#000000">leo</text>
</g>
<!-- node10448&#45;&gt;node10438 -->
<g id="edge18" class="edge">
<title>node10448&#45;&gt;node10438</title>
<path fill="none" stroke="#000000" d="M337,-175.1884C337,-175.1884 337,-149.7703 337,-149.7703"/>
<polygon fill="#000000" stroke="#000000" points="340.5001,-149.7703 337,-139.7703 333.5001,-149.7704 340.5001,-149.7703"/>
</g>
<!-- node10448&#45;&gt;node10445 -->
<g id="edge19" class="edge">
<title>node10448&#45;&gt;node10445</title>
<path fill="none" stroke="#000000" d="M364.2201,-193C384.6093,-193 409,-193 409,-193 409,-193 409,-149.4356 409,-149.4356"/>
<polygon fill="#000000" stroke="#000000" points="412.5001,-149.4356 409,-139.4356 405.5001,-149.4356 412.5001,-149.4356"/>
</g>
<!-- node10449 -->
<g id="node23" class="node">
<title>node10449</title>
<polygon fill="#ffd700" stroke="#000000" points="628,-439.3571 574,-439.3571 574,-403.3571 628,-403.3571 628,-439.3571"/>
<text text-anchor="middle" x="601" y="-418.3571" font-family="Monospace" font-size="10.00" fill="#000000">daisy</text>
</g>
<!-- node10449&#45;&gt;node10444 -->
<g id="edge20" class="edge">
<title>node10449&#45;&gt;node10444</title>
<path fill="none" stroke="#000000" d="M601,-403.0649C601,-403.0649 601,-375.4388 601,-375.4388"/>
<polygon fill="none" stroke="#000000" points="597,-365.4388 605,-365.4387 605.0001,-373.4387 597.0001,-373.4388 597,-365.4388"/>
<polyline fill="none" stroke="#000000" points="601.0001,-373.4388 601.0001,-375.4388 "/>
</g>
<!-- node10450&#45;&gt;node10448 -->
<g id="edge21" class="edge">
<title>node10450&#45;&gt;node10448</title>
<path fill="none" stroke="#000000" d="M115,-257.0794C115,-232.8163 115,-193 115,-193 115,-193 299.7784,-193 299.7784,-193"/>
<polygon fill="#000000" stroke="#000000" points="299.7785,-196.5001 309.7784,-193 299.7784,-189.5001 299.7785,-196.5001"/>
</g>
<!-- node10451&#45;&gt;node10443 -->
<g id="edge22" class="edge">
<title>node10451&#45;&gt;node10443</title>
<path fill="none" stroke="#ff0000" d="M187,-257.0969C187,-246.0179 187,-234 187,-234 187,-234 487,-234 487,-234 487,-234 487,-221.7759 487,-221.7759"/>
<polygon fill="#ff0000" stroke="#ff0000" points="490.5001,-221.7758 487,-211.7759 483.5001,-221.7759 490.5001,-221.7758"/>
</g>
</g>
</svg>
