<?xml version="1.0" encoding="UTF-8" standalone="no"?>
<!DOCTYPE svg PUBLIC "-//W3C//DTD SVG 1.1//EN"
 "http://www.w3.org/Graphics/SVG/1.1/DTD/svg11.dtd">
<!-- Generated by graphviz version 2.40.1 (20161225.0304)
 -->
<!-- Title: %3 Pages: 1 -->
<svg width="1090pt" height="813pt"
 viewBox="0.00 0.00 1090.00 813.36" xmlns="http://www.w3.org/2000/svg" xmlns:xlink="http://www.w3.org/1999/xlink">
<g id="graph0" class="graph" transform="scale(1 1) rotate(0) translate(72 741.3571)">
<title>%3</title>
<polygon fill="#ffffff" stroke="transparent" points="-72,72 -72,-741.3571 1018,-741.3571 1018,72 -72,72"/>
<g id="clust1" class="cluster">
<title>cluster14700</title>
<polygon fill="#b0e2ff" stroke="#000000" points="8,-83.3571 8,-661.3571 772,-661.3571 772,-83.3571 8,-83.3571"/>
<text text-anchor="middle" x="390" y="-646.1571" font-family="Monospace" font-size="14.00" fill="#000000">animals</text>
</g>
<g id="clust2" class="cluster">
<title>cluster14719</title>
<path fill="#cdcdc1" stroke="#000000" d="M28,-91.3571C28,-91.3571 644,-91.3571 644,-91.3571 650,-91.3571 656,-97.3571 656,-103.3571 656,-103.3571 656,-619.3571 656,-619.3571 656,-625.3571 650,-631.3571 644,-631.3571 644,-631.3571 28,-631.3571 28,-631.3571 22,-631.3571 16,-625.3571 16,-619.3571 16,-619.3571 16,-103.3571 16,-103.3571 16,-97.3571 22,-91.3571 28,-91.3571"/>
<text text-anchor="middle" x="336" y="-616.1571" font-family="Monospace" font-size="14.00" fill="#ff34b3">carnivores</text>
</g>
<g id="clust3" class="cluster">
<title>cluster14720</title>
<path fill="#cdb79e" stroke="#000000" d="M43,-165.3571C43,-165.3571 458,-165.3571 458,-165.3571 464,-165.3571 470,-171.3571 470,-177.3571 470,-177.3571 470,-582.3571 470,-582.3571 470,-588.3571 464,-594.3571 458,-594.3571 458,-594.3571 43,-594.3571 43,-594.3571 37,-594.3571 31,-588.3571 31,-582.3571 31,-582.3571 31,-177.3571 31,-177.3571 31,-171.3571 37,-165.3571 43,-165.3571"/>
<text text-anchor="middle" x="250.5" y="-579.1571" font-family="Monospace" font-size="14.00" fill="#8b4513">bears</text>
</g>
<g id="clust4" class="cluster">
<title>cluster14721</title>
<path fill="#fff8dc" stroke="#000000" d="M58,-180.3571C58,-180.3571 334,-180.3571 334,-180.3571 340,-180.3571 346,-186.3571 346,-192.3571 346,-192.3571 346,-545.3571 346,-545.3571 346,-551.3571 340,-557.3571 334,-557.3571 334,-557.3571 58,-557.3571 58,-557.3571 52,-557.3571 46,-551.3571 46,-545.3571 46,-545.3571 46,-192.3571 46,-192.3571 46,-186.3571 52,-180.3571 58,-180.3571"/>
<text text-anchor="middle" x="196" y="-542.1571" font-family="Monospace" font-size="14.00" fill="#000000">pandas</text>
</g>
<g id="clust5" class="cluster">
<title>cluster14722</title>
<path fill="#98fb98" stroke="#32cd32" d="M373,-306.3571C373,-306.3571 443,-306.3571 443,-306.3571 449,-306.3571 455,-312.3571 455,-318.3571 455,-318.3571 455,-464.3571 455,-464.3571 455,-470.3571 449,-476.3571 443,-476.3571 443,-476.3571 373,-476.3571 373,-476.3571 367,-476.3571 361,-470.3571 361,-464.3571 361,-464.3571 361,-318.3571 361,-318.3571 361,-312.3571 367,-306.3571 373,-306.3571"/>
<text text-anchor="middle" x="408" y="-461.1571" font-family="Monospace" font-size="14.00" fill="#8b4513">brownbears</text>
</g>
<g id="clust6" class="cluster">
<title>cluster14723</title>
<path fill="#a3a3a3" stroke="#000000" d="M497,-106.3571C497,-106.3571 629,-106.3571 629,-106.3571 635,-106.3571 641,-112.3571 641,-118.3571 641,-118.3571 641,-256.3571 641,-256.3571 641,-262.3571 635,-268.3571 629,-268.3571 629,-268.3571 497,-268.3571 497,-268.3571 491,-268.3571 485,-262.3571 485,-256.3571 485,-256.3571 485,-118.3571 485,-118.3571 485,-112.3571 491,-106.3571 497,-106.3571"/>
<text text-anchor="middle" x="563" y="-253.1571" font-family="Monospace" font-size="14.00" fill="#ffffff">wolves</text>
</g>
<g id="clust7" class="cluster">
<title>cluster14724</title>
<polygon fill="#ee6363" stroke="#000000" points="664,-172.3571 664,-298.3571 764,-298.3571 764,-172.3571 664,-172.3571"/>
<text text-anchor="middle" x="714" y="-283.1571" font-family="Monospace" font-size="14.00" fill="#000000">rodents</text>
</g>
<g id="clust8" class="cluster">
<title>cluster14725</title>
<path fill="#ffc0cb" stroke="#000000" d="M684,-180.3571C684,-180.3571 744,-180.3571 744,-180.3571 750,-180.3571 756,-186.3571 756,-192.3571 756,-192.3571 756,-256.3571 756,-256.3571 756,-262.3571 750,-268.3571 744,-268.3571 744,-268.3571 684,-268.3571 684,-268.3571 678,-268.3571 672,-262.3571 672,-256.3571 672,-256.3571 672,-192.3571 672,-192.3571 672,-186.3571 678,-180.3571 684,-180.3571"/>
<text text-anchor="middle" x="714" y="-253.1571" font-family="Monospace" font-size="14.00" fill="#000000">squirrels</text>
</g>
<g id="clust9" class="cluster">
<title>cluster14726</title>
<path fill="#90ee90" stroke="#000000" d="M792,-8C792,-8 926,-8 926,-8 932,-8 938,-14 938,-20 938,-20 938,-568.3571 938,-568.3571 938,-574.3571 932,-580.3571 926,-580.3571 926,-580.3571 792,-580.3571 792,-580.3571 786,-580.3571 780,-574.3571 780,-568.3571 780,-568.3571 780,-20 780,-20 780,-14 786,-8 792,-8"/>
<text text-anchor="middle" x="859" y="-565.1571" font-family="Monospace" font-size="14.00" fill="#000000">plantae</text>
</g>
<g id="clust10" class="cluster">
<title>cluster14734</title>
<path fill="#98fb98" stroke="#000000" d="M800,-16C800,-16 918,-16 918,-16 924,-16 930,-22 930,-28 930,-28 930,-538.3571 930,-538.3571 930,-544.3571 924,-550.3571 918,-550.3571 918,-550.3571 800,-550.3571 800,-550.3571 794,-550.3571 788,-544.3571 788,-538.3571 788,-538.3571 788,-28 788,-28 788,-22 794,-16 800,-16"/>
<text text-anchor="middle" x="859" y="-535.1571" font-family="Monospace" font-size="14.00" fill="#2e8b57">flora</text>
</g>
<!-- node14701 -->
<g id="node1" class="node">
<title>node14701</title>
<ellipse fill="#61d2c4" stroke="#000000" cx="304" cy="-344.3571" rx="27" ry="18"/>
<text text-anchor="middle" x="304" y="-341.3571" font-family="Monospace" font-size="10.00" fill="#000000">delila</text>
</g>
<!-- node14702 -->
<g id="node2" class="node">
<title>node14702</title>
<ellipse fill="#acf5ab" stroke="#000000" cx="714" cy="-213.3571" rx="27" ry="18"/>
<text text-anchor="middle" x="714" y="-210.3571" font-family="Monospace" font-size="10.00" fill="#000000">huxley</text>
</g>
<!-- node14703 -->
<g id="node3" class="node">
<title>node14703</title>
<polygon fill="#8b7500" stroke="#000000" points="232,-520.3571 205,-493.3571 259,-493.3571 232,-520.3571"/>
<text text-anchor="middle" x="232" y="-499.3571" font-family="Monospace" font-size="10.00" fill="#000000">nikkai</text>
</g>
<!-- node14712 -->
<g id="node12" class="node">
<title>node14712</title>
<ellipse fill="#61d2c4" stroke="#000000" cx="304" cy="-416.3571" rx="27" ry="18"/>
<text text-anchor="middle" x="304" y="-413.3571" font-family="Monospace" font-size="10.00" fill="#000000">isobel</text>
</g>
<!-- node14703&#45;&gt;node14712 -->
<g id="edge2" class="edge">
<title>node14703&#45;&gt;node14712</title>
<path fill="none" stroke="#000000" d="M250.5862,-502C260.6311,-502 271,-502 271,-502 271,-502 271,-422 271,-422 271,-422 271.7324,-422 271.7324,-422"/>
<polygon fill="#000000" stroke="#000000" points="268.3238,-425.5002 278.3238,-422 268.3237,-418.5002 268.3238,-425.5002"/>
</g>
<!-- node14704 -->
<g id="node4" class="node">
<title>node14704</title>
<ellipse fill="#768572" stroke="#000000" cx="408" cy="-344.3571" rx="27" ry="18"/>
<text text-anchor="middle" x="408" y="-341.3571" font-family="Monospace" font-size="10.00" fill="#000000">eliza</text>
</g>
<!-- node14705 -->
<g id="node5" class="node">
<title>node14705</title>
<ellipse fill="#61d2c4" stroke="#000000" cx="232" cy="-416.3571" rx="27" ry="18"/>
<text text-anchor="middle" x="232" y="-413.3571" font-family="Monospace" font-size="10.00" fill="#000000">malakai</text>
</g>
<!-- node14705&#45;&gt;node14701 -->
<g id="edge3" class="edge">
<title>node14705&#45;&gt;node14701</title>
<path fill="none" stroke="#000000" d="M257.3462,-410C261.7773,-410 265,-410 265,-410 265,-410 265,-344 265,-344 265,-344 266.9132,-344 266.9132,-344"/>
<polygon fill="#000000" stroke="#000000" points="266.9132,-347.5001 276.9132,-344 266.9132,-340.5001 266.9132,-347.5001"/>
</g>
<!-- node14718 -->
<g id="node18" class="node">
<title>node14718</title>
<ellipse fill="#61d2c4" stroke="#000000" cx="232" cy="-344.3571" rx="27" ry="18"/>
<text text-anchor="middle" x="232" y="-341.3571" font-family="Monospace" font-size="10.00" fill="#000000">ivy</text>
</g>
<!-- node14705&#45;&gt;node14718 -->
<g id="edge4" class="edge">
<title>node14705&#45;&gt;node14718</title>
<path fill="none" stroke="#000000" d="M241,-399.2941C241,-399.2941 241,-371.7977 241,-371.7977"/>
<polygon fill="#000000" stroke="#000000" points="244.5001,-371.7977 241,-361.7977 237.5001,-371.7978 244.5001,-371.7977"/>
</g>
<!-- node14706 -->
<g id="node6" class="node">
<title>node14706</title>
<ellipse fill="#61d2c4" stroke="#000000" cx="88" cy="-344.3571" rx="27" ry="18"/>
<text text-anchor="middle" x="88" y="-341.3571" font-family="Monospace" font-size="10.00" fill="#000000">max</text>
</g>
<!-- node14707 -->
<g id="node7" class="node">
<title>node14707</title>
<ellipse fill="#9400d3" stroke="#000000" cx="88" cy="-213.3571" rx="27" ry="18"/>
<text text-anchor="middle" x="88" y="-210.3571" font-family="Monospace" font-size="10.00" fill="#fffaf0">Bridget</text>
</g>
<!-- node14706&#45;&gt;node14707 -->
<g id="edge5" class="edge">
<title>node14706&#45;&gt;node14707</title>
<path fill="none" stroke="#0000ff" d="M88,-326.1421C88,-326.1421 88,-241.4173 88,-241.4173"/>
<polygon fill="#0000ff" stroke="#0000ff" points="91.5001,-241.4173 88,-231.4173 84.5001,-241.4174 91.5001,-241.4173"/>
</g>
<!-- node14708 -->
<g id="node8" class="node">
<title>node14708</title>
<ellipse fill="#61d2c4" stroke="#000000" cx="88" cy="-416.3571" rx="27" ry="18"/>
<text text-anchor="middle" x="88" y="-413.3571" font-family="Monospace" font-size="10.00" fill="#000000">simone</text>
</g>
<!-- node14708&#45;&gt;node14706 -->
<g id="edge6" class="edge">
<title>node14708&#45;&gt;node14706</title>
<path fill="none" stroke="#000000" d="M79,-399.2941C79,-399.2941 79,-371.7977 79,-371.7977"/>
<polygon fill="#000000" stroke="#000000" points="82.5001,-371.7977 79,-361.7977 75.5001,-371.7978 82.5001,-371.7977"/>
</g>
<!-- node14717 -->
<g id="node17" class="node">
<title>node14717</title>
<ellipse fill="#61d2c4" stroke="#000000" cx="160" cy="-344.3571" rx="27" ry="18"/>
<text text-anchor="middle" x="160" y="-341.3571" font-family="Monospace" font-size="10.00" fill="#000000">summer</text>
</g>
<!-- node14708&#45;&gt;node14717 -->
<g id="edge7" class="edge">
<title>node14708&#45;&gt;node14717</title>
<path fill="none" stroke="#00ee00" d="M115.2854,-416C120.3064,-416 124,-416 124,-416 124,-416 124,-344 124,-344 124,-344 124.8715,-344 124.8715,-344"/>
<polygon fill="#00ee00" stroke="#00ee00" points="122.7146,-347.5001 132.7146,-344 122.7146,-340.5001 122.7146,-347.5001"/>
</g>
<!-- node14708&#45;&gt;node14718 -->
<g id="edge8" class="edge">
<title>node14708&#45;&gt;node14718</title>
<path fill="none" stroke="#00ee00" d="M97,-399.0304C97,-389.6662 97,-380 97,-380 97,-380 223,-380 223,-380 223,-380 223,-371.3434 223,-371.3434"/>
<polygon fill="#00ee00" stroke="#00ee00" points="226.5001,-371.3434 223,-361.3434 219.5001,-371.3435 226.5001,-371.3434"/>
</g>
<!-- node14709 -->
<g id="node9" class="node">
<title>node14709</title>
<polygon fill="#768572" stroke="#000000" points="435,-412.3517 429.6523,-427.5799 408,-434.3571 386.3477,-427.5799 381,-412.3517 395.9839,-400.1396 420.0161,-400.1396 435,-412.3517"/>
<text text-anchor="middle" x="408" y="-413.3571" font-family="Monospace" font-size="10.00" fill="#000000">cosmo</text>
</g>
<!-- node14709&#45;&gt;node14704 -->
<g id="edge9" class="edge">
<title>node14709&#45;&gt;node14704</title>
<path fill="none" stroke="#ff1493" d="M408,-400.0191C408,-400.0191 408,-372.3994 408,-372.3994"/>
<polygon fill="#ff1493" stroke="#ff1493" points="411.5001,-372.3994 408,-362.3994 404.5001,-372.3994 411.5001,-372.3994"/>
</g>
<!-- node14710 -->
<g id="node10" class="node">
<title>node14710</title>
<ellipse fill="#68db75" stroke="#000000" cx="527" cy="-139.3571" rx="27" ry="18"/>
<text text-anchor="middle" x="527" y="-136.3571" font-family="Monospace" font-size="10.00" fill="#000000">angelique</text>
</g>
<!-- node14711 -->
<g id="node11" class="node">
<title>node14711</title>
<polygon fill="#0000ff" stroke="#000000" points="187,-434.3571 133,-434.3571 133,-398.3571 187,-398.3571 187,-434.3571"/>
<text text-anchor="middle" x="160" y="-413.3571" font-family="Monospace" font-size="10.00" fill="#ffffff">sharhar</text>
</g>
<!-- node14711&#45;&gt;node14717 -->
<g id="edge10" class="edge">
<title>node14711&#45;&gt;node14717</title>
<path fill="none" stroke="#000000" d="M160,-398.1884C160,-398.1884 160,-372.7703 160,-372.7703"/>
<polygon fill="#000000" stroke="#000000" points="163.5001,-372.7703 160,-362.7703 156.5001,-372.7704 163.5001,-372.7703"/>
</g>
<!-- node14713 -->
<g id="node13" class="node">
<title>node14713</title>
<ellipse fill="#68db75" stroke="#000000" cx="599" cy="-139.3571" rx="27" ry="18"/>
<text text-anchor="middle" x="599" y="-136.3571" font-family="Monospace" font-size="10.00" fill="#000000">sebastian</text>
</g>
<!-- node14714 -->
<g id="node14" class="node">
<title>node14714</title>
<ellipse fill="#61d2c4" stroke="#000000" cx="304" cy="-502.3571" rx="27" ry="18"/>
<text text-anchor="middle" x="304" y="-499.3571" font-family="Monospace" font-size="10.00" fill="#000000">kacey</text>
</g>
<!-- node14714&#45;&gt;node14709 -->
<g id="edge14" class="edge">
<title>node14714&#45;&gt;node14709</title>
<path fill="none" stroke="#ff1493" d="M331.0533,-502C361.868,-502 408,-502 408,-502 408,-502 408,-444.5197 408,-444.5197"/>
<polygon fill="#ff1493" stroke="#ff1493" points="411.5001,-444.5197 408,-434.5197 404.5001,-444.5198 411.5001,-444.5197"/>
</g>
<!-- node14714&#45;&gt;node14711 -->
<g id="edge15" class="edge">
<title>node14714&#45;&gt;node14711</title>
<path fill="none" stroke="#000000" d="M304,-484.221C304,-472.34 304,-459 304,-459 304,-459 169,-459 169,-459 169,-459 169,-444.689 169,-444.689"/>
<polygon fill="#000000" stroke="#000000" points="172.5001,-444.6889 169,-434.689 165.5001,-444.689 172.5001,-444.6889"/>
</g>
<!-- node14715 -->
<g id="node15" class="node">
<title>node14715</title>
<ellipse fill="#61d2c4" stroke="#000000" cx="160" cy="-502.3571" rx="27" ry="18"/>
<text text-anchor="middle" x="160" y="-499.3571" font-family="Monospace" font-size="10.00" fill="#000000">cristo&#45;/nlene</text>
</g>
<!-- node14715&#45;&gt;node14711 -->
<g id="edge17" class="edge">
<title>node14715&#45;&gt;node14711</title>
<path fill="none" stroke="#000000" d="M151,-485.3662C151,-485.3662 151,-444.5002 151,-444.5002"/>
<polygon fill="#000000" stroke="#000000" points="154.5001,-444.5002 151,-434.5002 147.5001,-444.5002 154.5001,-444.5002"/>
</g>
<!-- node14716 -->
<g id="node16" class="node">
<title>node14716</title>
<ellipse fill="#68db75" stroke="#000000" cx="527" cy="-213.3571" rx="27" ry="18"/>
<text text-anchor="middle" x="527" y="-210.3571" font-family="Monospace" font-size="10.00" fill="#000000">leo</text>
</g>
<!-- node14716&#45;&gt;node14710 -->
<g id="edge18" class="edge">
<title>node14716&#45;&gt;node14710</title>
<path fill="none" stroke="#000000" d="M527,-195.0649C527,-195.0649 527,-167.4388 527,-167.4388"/>
<polygon fill="#000000" stroke="#000000" points="530.5001,-167.4387 527,-157.4388 523.5001,-167.4388 530.5001,-167.4387"/>
</g>
<!-- node14716&#45;&gt;node14713 -->
<g id="edge19" class="edge">
<title>node14716&#45;&gt;node14713</title>
<path fill="none" stroke="#000000" d="M554.2201,-213C574.6093,-213 599,-213 599,-213 599,-213 599,-167.5609 599,-167.5609"/>
<polygon fill="#000000" stroke="#000000" points="602.5001,-167.5609 599,-157.5609 595.5001,-167.561 602.5001,-167.5609"/>
</g>
<!-- node14717&#45;&gt;node14716 -->
<g id="edge21" class="edge">
<title>node14717&#45;&gt;node14716</title>
<path fill="none" stroke="#000000" d="M160,-326.0924C160,-289.9991 160,-213 160,-213 160,-213 489.7152,-213 489.7152,-213"/>
<polygon fill="#000000" stroke="#000000" points="489.7152,-216.5001 499.7152,-213 489.7151,-209.5001 489.7152,-216.5001"/>
</g>
<!-- node14718&#45;&gt;node14702 -->
<g id="edge22" class="edge">
<title>node14718&#45;&gt;node14702</title>
<path fill="none" stroke="#ff0000" d="M232,-326.2247C232,-306.5776 232,-278 232,-278 232,-278 714,-278 714,-278 714,-278 714,-241.3637 714,-241.3637"/>
<polygon fill="#ff0000" stroke="#ff0000" points="717.5001,-241.3637 714,-231.3637 710.5001,-241.3638 717.5001,-241.3637"/>
</g>
<!-- node14727 -->
<g id="node19" class="node">
<title>node14727</title>
<polygon fill="#ffd700" stroke="#000000" points="850,-55.7828 829.3738,-55.7828 823,-75.5368 816.6262,-55.7828 796,-55.7828 812.6869,-43.5742 806.3131,-23.8202 823,-36.0289 839.6869,-23.8202 833.3131,-43.5742 850,-55.7828"/>
<text text-anchor="middle" x="823" y="-46.6785" font-family="Monospace" font-size="10.00" fill="#000000">aster</text>
</g>
<!-- node14728 -->
<g id="node20" class="node">
<title>node14728</title>
<polygon fill="#ffd700" stroke="#000000" points="886,-231.3571 832,-231.3571 832,-195.3571 886,-195.3571 886,-231.3571"/>
<text text-anchor="middle" x="859" y="-210.3571" font-family="Monospace" font-size="10.00" fill="#000000">jasmine</text>
</g>
<!-- node14729 -->
<g id="node21" class="node">
<title>node14729</title>
<polygon fill="#ffd700" stroke="#000000" points="886,-157.3571 832,-157.3571 832,-121.3571 886,-121.3571 886,-157.3571"/>
<text text-anchor="middle" x="859" y="-136.3571" font-family="Monospace" font-size="10.00" fill="#000000">fleur</text>
</g>
<!-- node14728&#45;&gt;node14729 -->
<!-- node14729&#45;&gt;node14727 -->
<g id="edge11" class="edge">
<title>node14729&#45;&gt;node14727</title>
<path fill="none" stroke="#000000" stroke-dasharray="1,5" d="M841,-121.2093C841,-121.2093 841,-65.9089 841,-65.9089"/>
<polygon fill="#c0c0c0" stroke="#000000" points="844.5001,-65.9089 841,-55.9089 837.5001,-65.9089 844.5001,-65.9089"/>
</g>
<!-- node14730 -->
<g id="node22" class="node">
<title>node14730</title>
<polygon fill="#ffd700" stroke="#000000" points="922,-67.6785 868,-67.6785 868,-31.6785 922,-31.6785 922,-67.6785"/>
<text text-anchor="middle" x="895" y="-46.6785" font-family="Monospace" font-size="10.00" fill="#000000">alyssa</text>
</g>
<!-- node14729&#45;&gt;node14730 -->
<g id="edge12" class="edge">
<title>node14729&#45;&gt;node14730</title>
<path fill="none" stroke="#eeb422" stroke-dasharray="5,2" d="M877,-121.2093C877,-121.2093 877,-77.7993 877,-77.7993"/>
<polygon fill="#eee8aa" stroke="#eeb422" points="880.5001,-77.7993 877,-67.7993 873.5001,-77.7994 880.5001,-77.7993"/>
</g>
<!-- node14731 -->
<g id="node23" class="node">
<title>node14731</title>
<polygon fill="#ffd700" stroke="#000000" points="886,-434.3571 832,-434.3571 832,-398.3571 886,-398.3571 886,-434.3571"/>
<text text-anchor="middle" x="859" y="-413.3571" font-family="Monospace" font-size="10.00" fill="#000000">rose</text>
</g>
<!-- node14732 -->
<g id="node24" class="node">
<title>node14732</title>
<polygon fill="#ffd700" stroke="#000000" points="886,-362.3571 832,-362.3571 832,-326.3571 886,-326.3571 886,-362.3571"/>
<text text-anchor="middle" x="859" y="-341.3571" font-family="Monospace" font-size="10.00" fill="#000000">lily</text>
</g>
<!-- node14731&#45;&gt;node14732 -->
<!-- node14732&#45;&gt;node14728 -->
<g id="edge16" class="edge">
<title>node14732&#45;&gt;node14728</title>
<path fill="none" stroke="#000000" d="M859,-326.1421C859,-326.1421 859,-254.8173 859,-254.8173"/>
<polygon fill="#000000" stroke="#000000" points="863.55,-231.4173 859.0001,-244.4173 854.45,-231.4174 863.55,-231.4173"/>
<ellipse fill="none" stroke="#000000" cx="859.0001" cy="-249.6173" rx="5.2" ry="5.2"/>
</g>
<!-- node14733 -->
<g id="node25" class="node">
<title>node14733</title>
<polygon fill="#ffd700" stroke="#000000" points="886,-520.3571 832,-520.3571 832,-484.3571 886,-484.3571 886,-520.3571"/>
<text text-anchor="middle" x="859" y="-499.3571" font-family="Monospace" font-size="10.00" fill="#000000">daisy</text>
</g>
<!-- node14733&#45;&gt;node14731 -->
<g id="edge20" class="edge">
<title>node14733&#45;&gt;node14731</title>
<path fill="none" stroke="#000000" d="M859,-484.1187C859,-484.1187 859,-444.5691 859,-444.5691"/>
<polygon fill="none" stroke="#000000" points="855,-434.5692 863,-434.5691 863.0001,-442.5691 855.0001,-442.5692 855,-434.5692"/>
<polyline fill="none" stroke="#000000" points="859.0001,-442.5691 859.0001,-444.5691 "/>
</g>
</g>
</svg>
