<?xml version="1.0" encoding="UTF-8" standalone="no"?>
<!DOCTYPE svg PUBLIC "-//W3C//DTD SVG 1.1//EN"
 "http://www.w3.org/Graphics/SVG/1.1/DTD/svg11.dtd">
<!-- Generated by graphviz version 2.40.1 (20161225.0304)
 -->
<!-- Title: %3 Pages: 1 -->
<svg width="1129pt" height="885pt"
 viewBox="0.00 0.00 1129.00 884.83" xmlns="http://www.w3.org/2000/svg" xmlns:xlink="http://www.w3.org/1999/xlink">
<g id="graph0" class="graph" transform="scale(1 1) rotate(0) translate(72 812.8328)">
<title>%3</title>
<polygon fill="#ffffff" stroke="transparent" points="-72,72 -72,-812.8328 1057,-812.8328 1057,72 -72,72"/>
<g id="clust1" class="cluster">
<title>cluster11298</title>
<polygon fill="#b0e2ff" stroke="#000000" points="8,-25.8328 8,-732.8328 741,-732.8328 741,-25.8328 8,-25.8328"/>
<text text-anchor="middle" x="374.5" y="-717.6328" font-family="Monospace" font-size="14.00" fill="#000000">animals</text>
</g>
<g id="clust2" class="cluster">
<title>cluster11317</title>
<path fill="#cdcdc1" stroke="#000000" d="M28,-167.8328C28,-167.8328 721,-167.8328 721,-167.8328 727,-167.8328 733,-173.8328 733,-179.8328 733,-179.8328 733,-690.8328 733,-690.8328 733,-696.8328 727,-702.8328 721,-702.8328 721,-702.8328 28,-702.8328 28,-702.8328 22,-702.8328 16,-696.8328 16,-690.8328 16,-690.8328 16,-179.8328 16,-179.8328 16,-173.8328 22,-167.8328 28,-167.8328"/>
<text text-anchor="middle" x="374.5" y="-687.6328" font-family="Monospace" font-size="14.00" fill="#ff34b3">carnivores</text>
</g>
<g id="clust3" class="cluster">
<title>cluster11318</title>
<path fill="#cdb79e" stroke="#000000" d="M43,-350.8328C43,-350.8328 706,-350.8328 706,-350.8328 712,-350.8328 718,-356.8328 718,-362.8328 718,-362.8328 718,-653.8328 718,-653.8328 718,-659.8328 712,-665.8328 706,-665.8328 706,-665.8328 43,-665.8328 43,-665.8328 37,-665.8328 31,-659.8328 31,-653.8328 31,-653.8328 31,-362.8328 31,-362.8328 31,-356.8328 37,-350.8328 43,-350.8328"/>
<text text-anchor="middle" x="374.5" y="-650.6328" font-family="Monospace" font-size="14.00" fill="#8b4513">bears</text>
</g>
<g id="clust4" class="cluster">
<title>cluster11319</title>
<path fill="#fff8dc" stroke="#000000" d="M177,-370.8328C177,-370.8328 691,-370.8328 691,-370.8328 697,-370.8328 703,-376.8328 703,-382.8328 703,-382.8328 703,-616.8328 703,-616.8328 703,-622.8328 697,-628.8328 691,-628.8328 691,-628.8328 177,-628.8328 177,-628.8328 171,-628.8328 165,-622.8328 165,-616.8328 165,-616.8328 165,-382.8328 165,-382.8328 165,-376.8328 171,-370.8328 177,-370.8328"/>
<text text-anchor="middle" x="434" y="-613.6328" font-family="Monospace" font-size="14.00" fill="#000000">pandas</text>
</g>
<g id="clust8" class="cluster">
<title>cluster11320</title>
<path fill="#98fb98" stroke="#32cd32" d="M58,-365.8328C58,-365.8328 138,-365.8328 138,-365.8328 144,-365.8328 150,-371.8328 150,-377.8328 150,-377.8328 150,-523.8328 150,-523.8328 150,-529.8328 144,-535.8328 138,-535.8328 138,-535.8328 58,-535.8328 58,-535.8328 52,-535.8328 46,-529.8328 46,-523.8328 46,-523.8328 46,-377.8328 46,-377.8328 46,-371.8328 52,-365.8328 58,-365.8328"/>
<text text-anchor="middle" x="98" y="-520.6328" font-family="Monospace" font-size="14.00" fill="#8b4513">brownbears</text>
</g>
<g id="clust9" class="cluster">
<title>cluster11321</title>
<path fill="#a3a3a3" stroke="#000000" d="M121,-182.8328C121,-182.8328 316,-182.8328 316,-182.8328 322,-182.8328 328,-188.8328 328,-194.8328 328,-194.8328 328,-330.8328 328,-330.8328 328,-336.8328 322,-342.8328 316,-342.8328 316,-342.8328 121,-342.8328 121,-342.8328 115,-342.8328 109,-336.8328 109,-330.8328 109,-330.8328 109,-194.8328 109,-194.8328 109,-188.8328 115,-182.8328 121,-182.8328"/>
<text text-anchor="middle" x="218.5" y="-327.6328" font-family="Monospace" font-size="14.00" fill="#ffffff">wolves</text>
</g>
<g id="clust10" class="cluster">
<title>cluster11322</title>
<polygon fill="#ee6363" stroke="#000000" points="223,-33.8328 223,-159.8328 345,-159.8328 345,-33.8328 223,-33.8328"/>
<text text-anchor="middle" x="284" y="-144.6328" font-family="Monospace" font-size="14.00" fill="#000000">rodents</text>
</g>
<g id="clust11" class="cluster">
<title>cluster11323</title>
<path fill="#ffc0cb" stroke="#000000" d="M243,-41.8328C243,-41.8328 325,-41.8328 325,-41.8328 331,-41.8328 337,-47.8328 337,-53.8328 337,-53.8328 337,-117.8328 337,-117.8328 337,-123.8328 331,-129.8328 325,-129.8328 325,-129.8328 243,-129.8328 243,-129.8328 237,-129.8328 231,-123.8328 231,-117.8328 231,-117.8328 231,-53.8328 231,-53.8328 231,-47.8328 237,-41.8328 243,-41.8328"/>
<text text-anchor="middle" x="284" y="-114.6328" font-family="Monospace" font-size="14.00" fill="#000000">squirrels</text>
</g>
<g id="clust12" class="cluster">
<title>cluster11324</title>
<path fill="#90ee90" stroke="#000000" d="M761,-8C761,-8 965,-8 965,-8 971,-8 977,-14 977,-20 977,-20 977,-633.8328 977,-633.8328 977,-639.8328 971,-645.8328 965,-645.8328 965,-645.8328 761,-645.8328 761,-645.8328 755,-645.8328 749,-639.8328 749,-633.8328 749,-633.8328 749,-20 749,-20 749,-14 755,-8 761,-8"/>
<text text-anchor="middle" x="863" y="-630.6328" font-family="Monospace" font-size="14.00" fill="#000000">plantae</text>
</g>
<g id="clust13" class="cluster">
<title>cluster11332</title>
<path fill="#98fb98" stroke="#000000" d="M769,-16C769,-16 957,-16 957,-16 963,-16 969,-22 969,-28 969,-28 969,-603.8328 969,-603.8328 969,-609.8328 963,-615.8328 957,-615.8328 957,-615.8328 769,-615.8328 769,-615.8328 763,-615.8328 757,-609.8328 757,-603.8328 757,-603.8328 757,-28 757,-28 757,-22 763,-16 769,-16"/>
<text text-anchor="middle" x="863" y="-600.6328" font-family="Monospace" font-size="14.00" fill="#2e8b57">flora</text>
</g>
<!-- node11299 -->
<g id="node1" class="node">
<title>node11299</title>
<ellipse fill="#61d2c4" stroke="#000000" cx="530" cy="-475.8328" rx="27" ry="18"/>
<text text-anchor="middle" x="530" y="-472.8328" font-family="Monospace" font-size="10.00" fill="#000000">delila</text>
</g>
<!-- node11300 -->
<g id="node2" class="node">
<title>node11300</title>
<ellipse fill="#acf5ab" stroke="#000000" cx="275" cy="-74.8328" rx="28.5664" ry="18"/>
<text text-anchor="middle" x="275" y="-71.8328" font-family="Monospace" font-size="10.00" fill="#000000">huxley</text>
</g>
<!-- node11300&#45;&gt;node11300 -->
<!-- node11301 -->
<g id="node3" class="node">
<title>node11301</title>
<ellipse fill="#61d2c4" stroke="#000000" cx="308" cy="-567.8328" rx="38.2026" ry="18"/>
<text text-anchor="middle" x="308" y="-564.8328" font-family="Monospace" font-size="10.00" fill="#000000">cristolene</text>
</g>
<!-- node11310 -->
<g id="node12" class="node">
<title>node11310</title>
<polygon fill="#0000ff" stroke="#000000" points="249,-493.8328 195,-493.8328 195,-457.8328 249,-457.8328 249,-493.8328"/>
<text text-anchor="middle" x="222" y="-472.8328" font-family="Monospace" font-size="10.00" fill="#ffffff">sharhar</text>
</g>
<!-- node11301&#45;&gt;node11310 -->
<g id="edge2" class="edge">
<title>node11301&#45;&gt;node11310</title>
<path fill="none" stroke="#000000" d="M274.4716,-559.2657C274.4716,-536.2842 274.4716,-475 274.4716,-475 274.4716,-475 259.158,-475 259.158,-475"/>
<polygon fill="#000000" stroke="#000000" points="259.158,-471.5001 249.158,-475 259.1579,-478.5001 259.158,-471.5001"/>
</g>
<!-- node11302 -->
<g id="node4" class="node">
<title>node11302</title>
<polygon fill="#8b7500" stroke="#000000" points="635,-591.8328 581.8321,-555.8328 688.1679,-555.8328 635,-591.8328"/>
<text text-anchor="middle" x="635" y="-564.8328" font-family="Monospace" font-size="10.00" fill="#000000">nikkai</text>
</g>
<!-- node11311 -->
<g id="node13" class="node">
<title>node11311</title>
<ellipse fill="#61d2c4" stroke="#000000" cx="635" cy="-475.8328" rx="27" ry="18"/>
<text text-anchor="middle" x="635" y="-472.8328" font-family="Monospace" font-size="10.00" fill="#000000">isobel</text>
</g>
<!-- node11302&#45;&gt;node11311 -->
<g id="edge4" class="edge">
<title>node11302&#45;&gt;node11311</title>
<path fill="none" stroke="#000000" d="M635,-555.8054C635,-555.8054 635,-503.8787 635,-503.8787"/>
<polygon fill="#000000" stroke="#000000" points="638.5001,-503.8787 635,-493.8787 631.5001,-503.8788 638.5001,-503.8787"/>
</g>
<!-- node11303 -->
<g id="node5" class="node">
<title>node11303</title>
<ellipse fill="#768572" stroke="#000000" cx="100" cy="-403.8328" rx="27" ry="18"/>
<text text-anchor="middle" x="100" y="-400.8328" font-family="Monospace" font-size="10.00" fill="#000000">eliza</text>
</g>
<!-- node11303&#45;&gt;node11300 -->
<!-- node11304 -->
<g id="node6" class="node">
<title>node11304</title>
<ellipse fill="#61d2c4" stroke="#000000" cx="513" cy="-567.8328" rx="32.5132" ry="18"/>
<text text-anchor="middle" x="513" y="-564.8328" font-family="Monospace" font-size="10.00" fill="#000000">malakai</text>
</g>
<!-- node11304&#45;&gt;node11299 -->
<g id="edge6" class="edge">
<title>node11304&#45;&gt;node11299</title>
<path fill="none" stroke="#000000" d="M524.2533,-550.5283C524.2533,-550.5283 524.2533,-503.6873 524.2533,-503.6873"/>
<polygon fill="#000000" stroke="#000000" points="527.7534,-503.6872 524.2533,-493.6873 520.7534,-503.6873 527.7534,-503.6872"/>
</g>
<!-- node11316 -->
<g id="node18" class="node">
<title>node11316</title>
<ellipse fill="#61d2c4" stroke="#000000" cx="440" cy="-475.8328" rx="27" ry="18"/>
<text text-anchor="middle" x="440" y="-472.8328" font-family="Monospace" font-size="10.00" fill="#000000">ivy</text>
</g>
<!-- node11304&#45;&gt;node11316 -->
<g id="edge7" class="edge">
<title>node11304&#45;&gt;node11316</title>
<path fill="none" stroke="#000000" d="M480.2235,-567C467.3125,-567 455.5081,-567 455.5081,-567 455.5081,-567 455.5081,-500.8872 455.5081,-500.8872"/>
<polygon fill="#000000" stroke="#000000" points="459.0082,-500.8872 455.5081,-490.8872 452.0082,-500.8873 459.0082,-500.8872"/>
</g>
<!-- node11305 -->
<g id="node7" class="node">
<title>node11305</title>
<ellipse fill="#61d2c4" stroke="#000000" cx="350" cy="-475.8328" rx="27" ry="18"/>
<text text-anchor="middle" x="350" y="-472.8328" font-family="Monospace" font-size="10.00" fill="#000000">max</text>
</g>
<!-- node11306 -->
<g id="node8" class="node">
<title>node11306</title>
<ellipse fill="#9400d3" stroke="#000000" cx="350" cy="-403.8328" rx="30.793" ry="18"/>
<text text-anchor="middle" x="350" y="-400.8328" font-family="Monospace" font-size="10.00" fill="#fffaf0">Bridget</text>
</g>
<!-- node11305&#45;&gt;node11306 -->
<g id="edge8" class="edge">
<title>node11305&#45;&gt;node11306</title>
<path fill="none" stroke="#0000ff" d="M350,-457.6642C350,-457.6642 350,-432.2461 350,-432.2461"/>
<polygon fill="#0000ff" stroke="#0000ff" points="353.5001,-432.246 350,-422.2461 346.5001,-432.2461 353.5001,-432.246"/>
</g>
<!-- node11306&#45;&gt;node11300 -->
<!-- node11314 -->
<g id="node16" class="node">
<title>node11314</title>
<ellipse fill="#68db75" stroke="#000000" cx="262" cy="-287.8328" rx="27" ry="18"/>
<text text-anchor="middle" x="262" y="-284.8328" font-family="Monospace" font-size="10.00" fill="#000000">leo</text>
</g>
<!-- node11306&#45;&gt;node11314 -->
<!-- node11307 -->
<g id="node9" class="node">
<title>node11307</title>
<ellipse fill="#61d2c4" stroke="#000000" cx="413" cy="-567.8328" rx="31.0326" ry="18"/>
<text text-anchor="middle" x="413" y="-564.8328" font-family="Monospace" font-size="10.00" fill="#000000">simone</text>
</g>
<!-- node11307&#45;&gt;node11305 -->
<g id="edge11" class="edge">
<title>node11307&#45;&gt;node11305</title>
<path fill="none" stroke="#000000" d="M402.6612,-550.8058C402.6612,-524.0058 402.6612,-475 402.6612,-475 402.6612,-475 387.2561,-475 387.2561,-475"/>
<polygon fill="#000000" stroke="#000000" points="387.2562,-471.5001 377.2561,-475 387.2561,-478.5001 387.2562,-471.5001"/>
</g>
<!-- node11315 -->
<g id="node17" class="node">
<title>node11315</title>
<ellipse fill="#61d2c4" stroke="#000000" cx="250" cy="-403.8328" rx="33.7344" ry="18"/>
<text text-anchor="middle" x="250" y="-400.8328" font-family="Monospace" font-size="10.00" fill="#000000">summer</text>
</g>
<!-- node11307&#45;&gt;node11315 -->
<g id="edge12" class="edge">
<title>node11307&#45;&gt;node11315</title>
<path fill="none" stroke="#00ee00" d="M392.3225,-554.2158C392.3225,-539.4612 392.3225,-518 392.3225,-518 392.3225,-518 279.0443,-518 279.0443,-518 279.0443,-518 279.0443,-423.1756 279.0443,-423.1756"/>
<polygon fill="#00ee00" stroke="#00ee00" points="282.5444,-423.1756 279.0443,-413.1756 275.5444,-423.1756 282.5444,-423.1756"/>
</g>
<!-- node11307&#45;&gt;node11316 -->
<g id="edge13" class="edge">
<title>node11307&#45;&gt;node11316</title>
<path fill="none" stroke="#00ee00" d="M428.5081,-552.2263C428.5081,-552.2263 428.5081,-502.1365 428.5081,-502.1365"/>
<polygon fill="#00ee00" stroke="#00ee00" points="432.0082,-502.1365 428.5081,-492.1365 425.0082,-502.1366 432.0082,-502.1365"/>
</g>
<!-- node11308 -->
<g id="node10" class="node">
<title>node11308</title>
<polygon fill="#768572" stroke="#000000" points="130.2071,-471.8274 123.8281,-487.0556 98,-493.8328 72.1719,-487.0556 65.7929,-471.8274 83.6665,-459.6154 112.3335,-459.6154 130.2071,-471.8274"/>
<text text-anchor="middle" x="98" y="-472.8328" font-family="Monospace" font-size="10.00" fill="#000000">cosmo</text>
</g>
<!-- node11308&#45;&gt;node11303 -->
<g id="edge14" class="edge">
<title>node11308&#45;&gt;node11303</title>
<path fill="none" stroke="#ff1493" d="M100,-459.4949C100,-459.4949 100,-431.8752 100,-431.8752"/>
<polygon fill="#ff1493" stroke="#ff1493" points="103.5001,-431.8751 100,-421.8752 96.5001,-431.8752 103.5001,-431.8751"/>
</g>
<!-- node11309 -->
<g id="node11" class="node">
<title>node11309</title>
<ellipse fill="#68db75" stroke="#000000" cx="275" cy="-215.8328" rx="38.4753" ry="18"/>
<text text-anchor="middle" x="275" y="-212.8328" font-family="Monospace" font-size="10.00" fill="#000000">angelique</text>
</g>
<!-- node11309&#45;&gt;node11300 -->
<!-- node11310&#45;&gt;node11315 -->
<g id="edge16" class="edge">
<title>node11310&#45;&gt;node11315</title>
<path fill="none" stroke="#000000" d="M232.6915,-457.6642C232.6915,-457.6642 232.6915,-429.3118 232.6915,-429.3118"/>
<polygon fill="#000000" stroke="#000000" points="236.1916,-429.3117 232.6915,-419.3118 229.1916,-429.3118 236.1916,-429.3117"/>
</g>
<!-- node11312 -->
<g id="node14" class="node">
<title>node11312</title>
<ellipse fill="#68db75" stroke="#000000" cx="162" cy="-215.8328" rx="38.2157" ry="18"/>
<text text-anchor="middle" x="162" y="-212.8328" font-family="Monospace" font-size="10.00" fill="#000000">sebastian</text>
</g>
<!-- node11312&#45;&gt;node11300 -->
<!-- node11313 -->
<g id="node15" class="node">
<title>node11313</title>
<ellipse fill="#61d2c4" stroke="#000000" cx="207" cy="-567.8328" rx="27" ry="18"/>
<text text-anchor="middle" x="207" y="-564.8328" font-family="Monospace" font-size="10.00" fill="#000000">kacey</text>
</g>
<!-- node11313&#45;&gt;node11308 -->
<g id="edge21" class="edge">
<title>node11313&#45;&gt;node11308</title>
<path fill="none" stroke="#ff1493" d="M185,-557.1837C185,-532.7995 185,-475 185,-475 185,-475 138.9179,-475 138.9179,-475"/>
<polygon fill="#ff1493" stroke="#ff1493" points="138.9179,-471.5001 128.9179,-475 138.9179,-478.5001 138.9179,-471.5001"/>
</g>
<!-- node11313&#45;&gt;node11310 -->
<g id="edge22" class="edge">
<title>node11313&#45;&gt;node11310</title>
<path fill="none" stroke="#000000" d="M214.5,-550.5283C214.5,-550.5283 214.5,-504.0039 214.5,-504.0039"/>
<polygon fill="#000000" stroke="#000000" points="218.0001,-504.0039 214.5,-494.0039 211.0001,-504.0039 218.0001,-504.0039"/>
</g>
<!-- node11314&#45;&gt;node11309 -->
<g id="edge24" class="edge">
<title>node11314&#45;&gt;node11309</title>
<path fill="none" stroke="#000000" d="M262.7562,-269.6642C262.7562,-269.6642 262.7562,-243.2505 262.7562,-243.2505"/>
<polygon fill="#000000" stroke="#000000" points="266.2563,-243.2505 262.7562,-233.2505 259.2563,-243.2506 266.2563,-243.2505"/>
</g>
<!-- node11314&#45;&gt;node11312 -->
<g id="edge25" class="edge">
<title>node11314&#45;&gt;node11312</title>
<path fill="none" stroke="#000000" d="M234.7799,-287C214.3907,-287 190,-287 190,-287 190,-287 190,-238.2292 190,-238.2292"/>
<polygon fill="#000000" stroke="#000000" points="193.5001,-238.2292 190,-228.2292 186.5001,-238.2292 193.5001,-238.2292"/>
</g>
<!-- node11315&#45;&gt;node11300 -->
<!-- node11315&#45;&gt;node11314 -->
<g id="edge28" class="edge">
<title>node11315&#45;&gt;node11314</title>
<path fill="none" stroke="#000000" d="M259.3085,-386.4664C259.3085,-386.4664 259.3085,-316.0844 259.3085,-316.0844"/>
<polygon fill="#000000" stroke="#000000" points="262.8086,-316.0844 259.3085,-306.0844 255.8086,-316.0845 262.8086,-316.0844"/>
</g>
<!-- node11316&#45;&gt;node11300 -->
<g id="edge29" class="edge">
<title>node11316&#45;&gt;node11300</title>
<path fill="none" stroke="#ff0000" d="M440,-457.7825C440,-378.8546 440,-68 440,-68 440,-68 311.8773,-68 311.8773,-68"/>
<polygon fill="#ff0000" stroke="#ff0000" points="311.8774,-64.5001 301.8773,-68 311.8773,-71.5001 311.8774,-64.5001"/>
</g>
<!-- node11325 -->
<g id="node19" class="node">
<title>node11325</title>
<polygon fill="#ffd700" stroke="#000000" points="961.3976,-86.7935 920.6055,-86.7935 908,-125.499 895.3945,-86.7935 854.6024,-86.7935 887.6039,-62.8722 874.9985,-24.1666 908,-48.088 941.0015,-24.1666 928.3961,-62.8722 961.3976,-86.7935"/>
<text text-anchor="middle" x="908" y="-71.8328" font-family="Monospace" font-size="10.00" fill="#000000">aster</text>
</g>
<!-- node11326 -->
<g id="node20" class="node">
<title>node11326</title>
<polygon fill="#ffd700" stroke="#000000" points="877,-305.8328 823,-305.8328 823,-269.8328 877,-269.8328 877,-305.8328"/>
<text text-anchor="middle" x="850" y="-284.8328" font-family="Monospace" font-size="10.00" fill="#000000">jasmine</text>
</g>
<!-- node11327 -->
<g id="node21" class="node">
<title>node11327</title>
<polygon fill="#ffd700" stroke="#000000" points="877,-233.8328 823,-233.8328 823,-197.8328 877,-197.8328 877,-233.8328"/>
<text text-anchor="middle" x="850" y="-212.8328" font-family="Monospace" font-size="10.00" fill="#000000">fleur</text>
</g>
<!-- node11326&#45;&gt;node11327 -->
<!-- node11327&#45;&gt;node11325 -->
<g id="edge17" class="edge">
<title>node11327&#45;&gt;node11325</title>
<path fill="none" stroke="#000000" stroke-dasharray="1,5" d="M865.7756,-197.6882C865.7756,-197.6882 865.7756,-84.8944 865.7756,-84.8944"/>
<polygon fill="#c0c0c0" stroke="#000000" points="869.2757,-84.8944 865.7756,-74.8944 862.2757,-84.8944 869.2757,-84.8944"/>
</g>
<!-- node11328 -->
<g id="node22" class="node">
<title>node11328</title>
<polygon fill="#ffd700" stroke="#000000" points="819,-92.8328 765,-92.8328 765,-56.8328 819,-56.8328 819,-92.8328"/>
<text text-anchor="middle" x="792" y="-71.8328" font-family="Monospace" font-size="10.00" fill="#000000">alyssa</text>
</g>
<!-- node11327&#45;&gt;node11328 -->
<g id="edge18" class="edge">
<title>node11327&#45;&gt;node11328</title>
<path fill="none" stroke="#eeb422" stroke-dasharray="5,2" d="M838.7756,-197.581C838.7756,-159.2742 838.7756,-74 838.7756,-74 838.7756,-74 829.2096,-74 829.2096,-74"/>
<polygon fill="#eee8aa" stroke="#eeb422" points="829.2096,-70.5001 819.2096,-74 829.2095,-77.5001 829.2096,-70.5001"/>
</g>
<!-- node11329 -->
<g id="node23" class="node">
<title>node11329</title>
<polygon fill="#ffd700" stroke="#000000" points="877,-493.8328 823,-493.8328 823,-457.8328 877,-457.8328 877,-493.8328"/>
<text text-anchor="middle" x="850" y="-472.8328" font-family="Monospace" font-size="10.00" fill="#000000">rose</text>
</g>
<!-- node11330 -->
<g id="node24" class="node">
<title>node11330</title>
<polygon fill="#ffd700" stroke="#000000" points="877,-421.8328 823,-421.8328 823,-385.8328 877,-385.8328 877,-421.8328"/>
<text text-anchor="middle" x="850" y="-400.8328" font-family="Monospace" font-size="10.00" fill="#000000">lily</text>
</g>
<!-- node11329&#45;&gt;node11330 -->
<!-- node11330&#45;&gt;node11326 -->
<g id="edge23" class="edge">
<title>node11330&#45;&gt;node11326</title>
<path fill="none" stroke="#000000" d="M850,-385.7078C850,-385.7078 850,-329.6134 850,-329.6134"/>
<polygon fill="#000000" stroke="#000000" points="854.55,-306.2133 850.0001,-319.2134 845.45,-306.2134 854.55,-306.2133"/>
<ellipse fill="none" stroke="#000000" cx="850.0001" cy="-324.4134" rx="5.2" ry="5.2"/>
</g>
<!-- node11331 -->
<g id="node25" class="node">
<title>node11331</title>
<polygon fill="#ffd700" stroke="#000000" points="877,-585.8328 823,-585.8328 823,-549.8328 877,-549.8328 877,-585.8328"/>
<text text-anchor="middle" x="850" y="-564.8328" font-family="Monospace" font-size="10.00" fill="#000000">daisy</text>
</g>
<!-- node11331&#45;&gt;node11329 -->
<g id="edge26" class="edge">
<title>node11331&#45;&gt;node11329</title>
<path fill="none" stroke="#000000" d="M850,-549.6566C850,-549.6566 850,-503.9713 850,-503.9713"/>
<polygon fill="none" stroke="#000000" points="846,-493.9713 854,-493.9713 854.0001,-501.9713 846.0001,-501.9713 846,-493.9713"/>
<polyline fill="none" stroke="#000000" points="850.0001,-501.9713 850.0001,-503.9713 "/>
</g>
</g>
</svg>
