<?xml version="1.0" encoding="UTF-8" standalone="no"?>
<!DOCTYPE svg PUBLIC "-//W3C//DTD SVG 1.1//EN"
 "http://www.w3.org/Graphics/SVG/1.1/DTD/svg11.dtd">
<!-- Generated by graphviz version 2.40.1 (20161225.0304)
 -->
<!-- Title: %3 Pages: 1 -->
<svg width="1129pt" height="885pt"
 viewBox="0.00 0.00 1129.00 884.83" xmlns="http://www.w3.org/2000/svg" xmlns:xlink="http://www.w3.org/1999/xlink">
<g id="graph0" class="graph" transform="scale(1 1) rotate(0) translate(72 812.8328)">
<title>%3</title>
<polygon fill="#ffffff" stroke="transparent" points="-72,72 -72,-812.8328 1057,-812.8328 1057,72 -72,72"/>
<g id="clust1" class="cluster">
<title>cluster14381</title>
<polygon fill="#b0e2ff" stroke="#000000" points="244,-25.8328 244,-732.8328 977,-732.8328 977,-25.8328 244,-25.8328"/>
<text text-anchor="middle" x="610.5" y="-717.6328" font-family="Monospace" font-size="14.00" fill="#000000">animals</text>
</g>
<g id="clust2" class="cluster">
<title>cluster14400</title>
<path fill="#cdcdc1" stroke="#000000" d="M264,-167.8328C264,-167.8328 957,-167.8328 957,-167.8328 963,-167.8328 969,-173.8328 969,-179.8328 969,-179.8328 969,-690.8328 969,-690.8328 969,-696.8328 963,-702.8328 957,-702.8328 957,-702.8328 264,-702.8328 264,-702.8328 258,-702.8328 252,-696.8328 252,-690.8328 252,-690.8328 252,-179.8328 252,-179.8328 252,-173.8328 258,-167.8328 264,-167.8328"/>
<text text-anchor="middle" x="610.5" y="-687.6328" font-family="Monospace" font-size="14.00" fill="#ff34b3">carnivores</text>
</g>
<g id="clust3" class="cluster">
<title>cluster14401</title>
<path fill="#cdb79e" stroke="#000000" d="M279,-350.8328C279,-350.8328 942,-350.8328 942,-350.8328 948,-350.8328 954,-356.8328 954,-362.8328 954,-362.8328 954,-653.8328 954,-653.8328 954,-659.8328 948,-665.8328 942,-665.8328 942,-665.8328 279,-665.8328 279,-665.8328 273,-665.8328 267,-659.8328 267,-653.8328 267,-653.8328 267,-362.8328 267,-362.8328 267,-356.8328 273,-350.8328 279,-350.8328"/>
<text text-anchor="middle" x="610.5" y="-650.6328" font-family="Monospace" font-size="14.00" fill="#8b4513">bears</text>
</g>
<g id="clust4" class="cluster">
<title>cluster14402</title>
<path fill="#fff8dc" stroke="#000000" d="M413,-370.8328C413,-370.8328 927,-370.8328 927,-370.8328 933,-370.8328 939,-376.8328 939,-382.8328 939,-382.8328 939,-616.8328 939,-616.8328 939,-622.8328 933,-628.8328 927,-628.8328 927,-628.8328 413,-628.8328 413,-628.8328 407,-628.8328 401,-622.8328 401,-616.8328 401,-616.8328 401,-382.8328 401,-382.8328 401,-376.8328 407,-370.8328 413,-370.8328"/>
<text text-anchor="middle" x="670" y="-613.6328" font-family="Monospace" font-size="14.00" fill="#000000">pandas</text>
</g>
<g id="clust8" class="cluster">
<title>cluster14403</title>
<path fill="#98fb98" stroke="#32cd32" d="M294,-365.8328C294,-365.8328 374,-365.8328 374,-365.8328 380,-365.8328 386,-371.8328 386,-377.8328 386,-377.8328 386,-523.8328 386,-523.8328 386,-529.8328 380,-535.8328 374,-535.8328 374,-535.8328 294,-535.8328 294,-535.8328 288,-535.8328 282,-529.8328 282,-523.8328 282,-523.8328 282,-377.8328 282,-377.8328 282,-371.8328 288,-365.8328 294,-365.8328"/>
<text text-anchor="middle" x="334" y="-520.6328" font-family="Monospace" font-size="14.00" fill="#8b4513">brownbears</text>
</g>
<g id="clust9" class="cluster">
<title>cluster14404</title>
<path fill="#a3a3a3" stroke="#000000" d="M357,-182.8328C357,-182.8328 552,-182.8328 552,-182.8328 558,-182.8328 564,-188.8328 564,-194.8328 564,-194.8328 564,-330.8328 564,-330.8328 564,-336.8328 558,-342.8328 552,-342.8328 552,-342.8328 357,-342.8328 357,-342.8328 351,-342.8328 345,-336.8328 345,-330.8328 345,-330.8328 345,-194.8328 345,-194.8328 345,-188.8328 351,-182.8328 357,-182.8328"/>
<text text-anchor="middle" x="454.5" y="-327.6328" font-family="Monospace" font-size="14.00" fill="#ffffff">wolves</text>
</g>
<g id="clust10" class="cluster">
<title>cluster14405</title>
<polygon fill="#ee6363" stroke="#000000" points="459,-33.8328 459,-159.8328 581,-159.8328 581,-33.8328 459,-33.8328"/>
<text text-anchor="middle" x="520" y="-144.6328" font-family="Monospace" font-size="14.00" fill="#000000">rodents</text>
</g>
<g id="clust11" class="cluster">
<title>cluster14406</title>
<path fill="#ffc0cb" stroke="#000000" d="M479,-41.8328C479,-41.8328 561,-41.8328 561,-41.8328 567,-41.8328 573,-47.8328 573,-53.8328 573,-53.8328 573,-117.8328 573,-117.8328 573,-123.8328 567,-129.8328 561,-129.8328 561,-129.8328 479,-129.8328 479,-129.8328 473,-129.8328 467,-123.8328 467,-117.8328 467,-117.8328 467,-53.8328 467,-53.8328 467,-47.8328 473,-41.8328 479,-41.8328"/>
<text text-anchor="middle" x="520" y="-114.6328" font-family="Monospace" font-size="14.00" fill="#000000">squirrels</text>
</g>
<g id="clust12" class="cluster">
<title>cluster14407</title>
<path fill="#90ee90" stroke="#000000" d="M20,-8C20,-8 224,-8 224,-8 230,-8 236,-14 236,-20 236,-20 236,-633.8328 236,-633.8328 236,-639.8328 230,-645.8328 224,-645.8328 224,-645.8328 20,-645.8328 20,-645.8328 14,-645.8328 8,-639.8328 8,-633.8328 8,-633.8328 8,-20 8,-20 8,-14 14,-8 20,-8"/>
<text text-anchor="middle" x="122" y="-630.6328" font-family="Monospace" font-size="14.00" fill="#000000">plantae</text>
</g>
<g id="clust13" class="cluster">
<title>cluster14415</title>
<path fill="#98fb98" stroke="#000000" d="M28,-16C28,-16 216,-16 216,-16 222,-16 228,-22 228,-28 228,-28 228,-603.8328 228,-603.8328 228,-609.8328 222,-615.8328 216,-615.8328 216,-615.8328 28,-615.8328 28,-615.8328 22,-615.8328 16,-609.8328 16,-603.8328 16,-603.8328 16,-28 16,-28 16,-22 22,-16 28,-16"/>
<text text-anchor="middle" x="122" y="-600.6328" font-family="Monospace" font-size="14.00" fill="#2e8b57">flora</text>
</g>
<!-- node14382 -->
<g id="node1" class="node">
<title>node14382</title>
<ellipse fill="#61d2c4" stroke="#000000" cx="766" cy="-475.8328" rx="27" ry="18"/>
<text text-anchor="middle" x="766" y="-472.8328" font-family="Monospace" font-size="10.00" fill="#000000">delila</text>
</g>
<!-- node14383 -->
<g id="node2" class="node">
<title>node14383</title>
<ellipse fill="#acf5ab" stroke="#000000" cx="511" cy="-74.8328" rx="28.5664" ry="18"/>
<text text-anchor="middle" x="511" y="-71.8328" font-family="Monospace" font-size="10.00" fill="#000000">huxley</text>
</g>
<!-- node14383&#45;&gt;node14383 -->
<!-- node14384 -->
<g id="node3" class="node">
<title>node14384</title>
<ellipse fill="#61d2c4" stroke="#000000" cx="544" cy="-567.8328" rx="38.2026" ry="18"/>
<text text-anchor="middle" x="544" y="-564.8328" font-family="Monospace" font-size="10.00" fill="#000000">cristolene</text>
</g>
<!-- node14393 -->
<g id="node12" class="node">
<title>node14393</title>
<polygon fill="#0000ff" stroke="#000000" points="485,-493.8328 431,-493.8328 431,-457.8328 485,-457.8328 485,-493.8328"/>
<text text-anchor="middle" x="458" y="-472.8328" font-family="Monospace" font-size="10.00" fill="#ffffff">sharhar</text>
</g>
<!-- node14384&#45;&gt;node14393 -->
<g id="edge2" class="edge">
<title>node14384&#45;&gt;node14393</title>
<path fill="none" stroke="#000000" d="M510.4716,-559.2657C510.4716,-536.2842 510.4716,-475 510.4716,-475 510.4716,-475 495.158,-475 495.158,-475"/>
<polygon fill="#000000" stroke="#000000" points="495.158,-471.5001 485.158,-475 495.1579,-478.5001 495.158,-471.5001"/>
</g>
<!-- node14385 -->
<g id="node4" class="node">
<title>node14385</title>
<polygon fill="#8b7500" stroke="#000000" points="871,-591.8328 817.8321,-555.8328 924.1679,-555.8328 871,-591.8328"/>
<text text-anchor="middle" x="871" y="-564.8328" font-family="Monospace" font-size="10.00" fill="#000000">nikkai</text>
</g>
<!-- node14394 -->
<g id="node13" class="node">
<title>node14394</title>
<ellipse fill="#61d2c4" stroke="#000000" cx="871" cy="-475.8328" rx="27" ry="18"/>
<text text-anchor="middle" x="871" y="-472.8328" font-family="Monospace" font-size="10.00" fill="#000000">isobel</text>
</g>
<!-- node14385&#45;&gt;node14394 -->
<g id="edge4" class="edge">
<title>node14385&#45;&gt;node14394</title>
<path fill="none" stroke="#000000" d="M871,-555.8054C871,-555.8054 871,-503.8787 871,-503.8787"/>
<polygon fill="#000000" stroke="#000000" points="874.5001,-503.8787 871,-493.8787 867.5001,-503.8788 874.5001,-503.8787"/>
</g>
<!-- node14386 -->
<g id="node5" class="node">
<title>node14386</title>
<ellipse fill="#768572" stroke="#000000" cx="336" cy="-403.8328" rx="27" ry="18"/>
<text text-anchor="middle" x="336" y="-400.8328" font-family="Monospace" font-size="10.00" fill="#000000">eliza</text>
</g>
<!-- node14386&#45;&gt;node14383 -->
<!-- node14387 -->
<g id="node6" class="node">
<title>node14387</title>
<ellipse fill="#61d2c4" stroke="#000000" cx="749" cy="-567.8328" rx="32.5132" ry="18"/>
<text text-anchor="middle" x="749" y="-564.8328" font-family="Monospace" font-size="10.00" fill="#000000">malakai</text>
</g>
<!-- node14387&#45;&gt;node14382 -->
<g id="edge6" class="edge">
<title>node14387&#45;&gt;node14382</title>
<path fill="none" stroke="#000000" d="M760.2533,-550.5283C760.2533,-550.5283 760.2533,-503.6873 760.2533,-503.6873"/>
<polygon fill="#000000" stroke="#000000" points="763.7534,-503.6872 760.2533,-493.6873 756.7534,-503.6873 763.7534,-503.6872"/>
</g>
<!-- node14399 -->
<g id="node18" class="node">
<title>node14399</title>
<ellipse fill="#61d2c4" stroke="#000000" cx="676" cy="-475.8328" rx="27" ry="18"/>
<text text-anchor="middle" x="676" y="-472.8328" font-family="Monospace" font-size="10.00" fill="#000000">ivy</text>
</g>
<!-- node14387&#45;&gt;node14399 -->
<g id="edge7" class="edge">
<title>node14387&#45;&gt;node14399</title>
<path fill="none" stroke="#000000" d="M716.2235,-567C703.3125,-567 691.5081,-567 691.5081,-567 691.5081,-567 691.5081,-500.8872 691.5081,-500.8872"/>
<polygon fill="#000000" stroke="#000000" points="695.0082,-500.8872 691.5081,-490.8872 688.0082,-500.8873 695.0082,-500.8872"/>
</g>
<!-- node14388 -->
<g id="node7" class="node">
<title>node14388</title>
<ellipse fill="#61d2c4" stroke="#000000" cx="586" cy="-475.8328" rx="27" ry="18"/>
<text text-anchor="middle" x="586" y="-472.8328" font-family="Monospace" font-size="10.00" fill="#000000">max</text>
</g>
<!-- node14389 -->
<g id="node8" class="node">
<title>node14389</title>
<ellipse fill="#9400d3" stroke="#000000" cx="586" cy="-403.8328" rx="30.793" ry="18"/>
<text text-anchor="middle" x="586" y="-400.8328" font-family="Monospace" font-size="10.00" fill="#fffaf0">Bridget</text>
</g>
<!-- node14388&#45;&gt;node14389 -->
<g id="edge8" class="edge">
<title>node14388&#45;&gt;node14389</title>
<path fill="none" stroke="#0000ff" d="M586,-457.6642C586,-457.6642 586,-432.2461 586,-432.2461"/>
<polygon fill="#0000ff" stroke="#0000ff" points="589.5001,-432.246 586,-422.2461 582.5001,-432.2461 589.5001,-432.246"/>
</g>
<!-- node14389&#45;&gt;node14383 -->
<!-- node14397 -->
<g id="node16" class="node">
<title>node14397</title>
<ellipse fill="#68db75" stroke="#000000" cx="498" cy="-287.8328" rx="27" ry="18"/>
<text text-anchor="middle" x="498" y="-284.8328" font-family="Monospace" font-size="10.00" fill="#000000">leo</text>
</g>
<!-- node14389&#45;&gt;node14397 -->
<!-- node14390 -->
<g id="node9" class="node">
<title>node14390</title>
<ellipse fill="#61d2c4" stroke="#000000" cx="649" cy="-567.8328" rx="31.0326" ry="18"/>
<text text-anchor="middle" x="649" y="-564.8328" font-family="Monospace" font-size="10.00" fill="#000000">simone</text>
</g>
<!-- node14390&#45;&gt;node14388 -->
<g id="edge11" class="edge">
<title>node14390&#45;&gt;node14388</title>
<path fill="none" stroke="#000000" d="M638.6612,-550.8058C638.6612,-524.0058 638.6612,-475 638.6612,-475 638.6612,-475 623.2561,-475 623.2561,-475"/>
<polygon fill="#000000" stroke="#000000" points="623.2562,-471.5001 613.2561,-475 623.2561,-478.5001 623.2562,-471.5001"/>
</g>
<!-- node14398 -->
<g id="node17" class="node">
<title>node14398</title>
<ellipse fill="#61d2c4" stroke="#000000" cx="486" cy="-403.8328" rx="33.7344" ry="18"/>
<text text-anchor="middle" x="486" y="-400.8328" font-family="Monospace" font-size="10.00" fill="#000000">summer</text>
</g>
<!-- node14390&#45;&gt;node14398 -->
<g id="edge12" class="edge">
<title>node14390&#45;&gt;node14398</title>
<path fill="none" stroke="#00ee00" d="M628.3225,-554.2158C628.3225,-539.4612 628.3225,-518 628.3225,-518 628.3225,-518 515.0443,-518 515.0443,-518 515.0443,-518 515.0443,-423.1756 515.0443,-423.1756"/>
<polygon fill="#00ee00" stroke="#00ee00" points="518.5444,-423.1756 515.0443,-413.1756 511.5444,-423.1756 518.5444,-423.1756"/>
</g>
<!-- node14390&#45;&gt;node14399 -->
<g id="edge13" class="edge">
<title>node14390&#45;&gt;node14399</title>
<path fill="none" stroke="#00ee00" d="M664.5081,-552.2263C664.5081,-552.2263 664.5081,-502.1365 664.5081,-502.1365"/>
<polygon fill="#00ee00" stroke="#00ee00" points="668.0082,-502.1365 664.5081,-492.1365 661.0082,-502.1366 668.0082,-502.1365"/>
</g>
<!-- node14391 -->
<g id="node10" class="node">
<title>node14391</title>
<polygon fill="#768572" stroke="#000000" points="366.2071,-471.8274 359.8281,-487.0556 334,-493.8328 308.1719,-487.0556 301.7929,-471.8274 319.6665,-459.6154 348.3335,-459.6154 366.2071,-471.8274"/>
<text text-anchor="middle" x="334" y="-472.8328" font-family="Monospace" font-size="10.00" fill="#000000">cosmo</text>
</g>
<!-- node14391&#45;&gt;node14386 -->
<g id="edge14" class="edge">
<title>node14391&#45;&gt;node14386</title>
<path fill="none" stroke="#ff1493" d="M336,-459.4949C336,-459.4949 336,-431.8752 336,-431.8752"/>
<polygon fill="#ff1493" stroke="#ff1493" points="339.5001,-431.8751 336,-421.8752 332.5001,-431.8752 339.5001,-431.8751"/>
</g>
<!-- node14392 -->
<g id="node11" class="node">
<title>node14392</title>
<ellipse fill="#68db75" stroke="#000000" cx="511" cy="-215.8328" rx="38.4753" ry="18"/>
<text text-anchor="middle" x="511" y="-212.8328" font-family="Monospace" font-size="10.00" fill="#000000">angelique</text>
</g>
<!-- node14392&#45;&gt;node14383 -->
<!-- node14393&#45;&gt;node14398 -->
<g id="edge16" class="edge">
<title>node14393&#45;&gt;node14398</title>
<path fill="none" stroke="#000000" d="M468.6915,-457.6642C468.6915,-457.6642 468.6915,-429.3118 468.6915,-429.3118"/>
<polygon fill="#000000" stroke="#000000" points="472.1916,-429.3117 468.6915,-419.3118 465.1916,-429.3118 472.1916,-429.3117"/>
</g>
<!-- node14395 -->
<g id="node14" class="node">
<title>node14395</title>
<ellipse fill="#68db75" stroke="#000000" cx="398" cy="-215.8328" rx="38.2157" ry="18"/>
<text text-anchor="middle" x="398" y="-212.8328" font-family="Monospace" font-size="10.00" fill="#000000">sebastian</text>
</g>
<!-- node14395&#45;&gt;node14383 -->
<!-- node14396 -->
<g id="node15" class="node">
<title>node14396</title>
<ellipse fill="#61d2c4" stroke="#000000" cx="443" cy="-567.8328" rx="27" ry="18"/>
<text text-anchor="middle" x="443" y="-564.8328" font-family="Monospace" font-size="10.00" fill="#000000">kacey</text>
</g>
<!-- node14396&#45;&gt;node14391 -->
<g id="edge21" class="edge">
<title>node14396&#45;&gt;node14391</title>
<path fill="none" stroke="#ff1493" d="M421,-557.1837C421,-532.7995 421,-475 421,-475 421,-475 374.9179,-475 374.9179,-475"/>
<polygon fill="#ff1493" stroke="#ff1493" points="374.9179,-471.5001 364.9179,-475 374.9179,-478.5001 374.9179,-471.5001"/>
</g>
<!-- node14396&#45;&gt;node14393 -->
<g id="edge22" class="edge">
<title>node14396&#45;&gt;node14393</title>
<path fill="none" stroke="#000000" d="M450.5,-550.5283C450.5,-550.5283 450.5,-504.0039 450.5,-504.0039"/>
<polygon fill="#000000" stroke="#000000" points="454.0001,-504.0039 450.5,-494.0039 447.0001,-504.0039 454.0001,-504.0039"/>
</g>
<!-- node14397&#45;&gt;node14392 -->
<g id="edge25" class="edge">
<title>node14397&#45;&gt;node14392</title>
<path fill="none" stroke="#000000" d="M498.7562,-269.6642C498.7562,-269.6642 498.7562,-243.2505 498.7562,-243.2505"/>
<polygon fill="#000000" stroke="#000000" points="502.2563,-243.2505 498.7562,-233.2505 495.2563,-243.2506 502.2563,-243.2505"/>
</g>
<!-- node14397&#45;&gt;node14395 -->
<g id="edge26" class="edge">
<title>node14397&#45;&gt;node14395</title>
<path fill="none" stroke="#000000" d="M470.7799,-287C450.3907,-287 426,-287 426,-287 426,-287 426,-238.2292 426,-238.2292"/>
<polygon fill="#000000" stroke="#000000" points="429.5001,-238.2292 426,-228.2292 422.5001,-238.2292 429.5001,-238.2292"/>
</g>
<!-- node14398&#45;&gt;node14383 -->
<!-- node14398&#45;&gt;node14397 -->
<g id="edge29" class="edge">
<title>node14398&#45;&gt;node14397</title>
<path fill="none" stroke="#000000" d="M495.3085,-386.4664C495.3085,-386.4664 495.3085,-316.0844 495.3085,-316.0844"/>
<polygon fill="#000000" stroke="#000000" points="498.8086,-316.0844 495.3085,-306.0844 491.8086,-316.0845 498.8086,-316.0844"/>
</g>
<!-- node14399&#45;&gt;node14383 -->
<g id="edge30" class="edge">
<title>node14399&#45;&gt;node14383</title>
<path fill="none" stroke="#ff0000" d="M676,-457.7825C676,-378.8546 676,-68 676,-68 676,-68 547.8773,-68 547.8773,-68"/>
<polygon fill="#ff0000" stroke="#ff0000" points="547.8774,-64.5001 537.8773,-68 547.8773,-71.5001 547.8774,-64.5001"/>
</g>
<!-- node14408 -->
<g id="node19" class="node">
<title>node14408</title>
<polygon fill="#ffd700" stroke="#000000" points="220.3976,-86.7935 179.6055,-86.7935 167,-125.499 154.3945,-86.7935 113.6024,-86.7935 146.6039,-62.8722 133.9985,-24.1666 167,-48.088 200.0015,-24.1666 187.3961,-62.8722 220.3976,-86.7935"/>
<text text-anchor="middle" x="167" y="-71.8328" font-family="Monospace" font-size="10.00" fill="#000000">aster</text>
</g>
<!-- node14409 -->
<g id="node20" class="node">
<title>node14409</title>
<polygon fill="#ffd700" stroke="#000000" points="136,-305.8328 82,-305.8328 82,-269.8328 136,-269.8328 136,-305.8328"/>
<text text-anchor="middle" x="109" y="-284.8328" font-family="Monospace" font-size="10.00" fill="#000000">jasmine</text>
</g>
<!-- node14410 -->
<g id="node21" class="node">
<title>node14410</title>
<polygon fill="#ffd700" stroke="#000000" points="136,-233.8328 82,-233.8328 82,-197.8328 136,-197.8328 136,-233.8328"/>
<text text-anchor="middle" x="109" y="-212.8328" font-family="Monospace" font-size="10.00" fill="#000000">fleur</text>
</g>
<!-- node14409&#45;&gt;node14410 -->
<!-- node14410&#45;&gt;node14408 -->
<g id="edge17" class="edge">
<title>node14410&#45;&gt;node14408</title>
<path fill="none" stroke="#000000" stroke-dasharray="1,5" d="M124.7756,-197.6882C124.7756,-197.6882 124.7756,-84.8944 124.7756,-84.8944"/>
<polygon fill="#c0c0c0" stroke="#000000" points="128.2757,-84.8944 124.7756,-74.8944 121.2757,-84.8944 128.2757,-84.8944"/>
</g>
<!-- node14411 -->
<g id="node22" class="node">
<title>node14411</title>
<polygon fill="#ffd700" stroke="#000000" points="78,-92.8328 24,-92.8328 24,-56.8328 78,-56.8328 78,-92.8328"/>
<text text-anchor="middle" x="51" y="-71.8328" font-family="Monospace" font-size="10.00" fill="#000000">alyssa</text>
</g>
<!-- node14410&#45;&gt;node14411 -->
<g id="edge18" class="edge">
<title>node14410&#45;&gt;node14411</title>
<path fill="none" stroke="#eeb422" stroke-dasharray="5,2" d="M97.7756,-197.581C97.7756,-159.2742 97.7756,-74 97.7756,-74 97.7756,-74 88.2096,-74 88.2096,-74"/>
<polygon fill="#eee8aa" stroke="#eeb422" points="88.2096,-70.5001 78.2096,-74 88.2095,-77.5001 88.2096,-70.5001"/>
</g>
<!-- node14412 -->
<g id="node23" class="node">
<title>node14412</title>
<polygon fill="#ffd700" stroke="#000000" points="136,-493.8328 82,-493.8328 82,-457.8328 136,-457.8328 136,-493.8328"/>
<text text-anchor="middle" x="109" y="-472.8328" font-family="Monospace" font-size="10.00" fill="#000000">rose</text>
</g>
<!-- node14413 -->
<g id="node24" class="node">
<title>node14413</title>
<polygon fill="#ffd700" stroke="#000000" points="136,-421.8328 82,-421.8328 82,-385.8328 136,-385.8328 136,-421.8328"/>
<text text-anchor="middle" x="109" y="-400.8328" font-family="Monospace" font-size="10.00" fill="#000000">lily</text>
</g>
<!-- node14412&#45;&gt;node14413 -->
<!-- node14413&#45;&gt;node14392 -->
<g id="edge24" class="edge">
<title>node14413&#45;&gt;node14392</title>
<path fill="none" stroke="transparent" stroke-dasharray="1,5" d="M118,-385.5402C118,-368.2697 118,-345 118,-345 118,-345 537.2438,-345 537.2438,-345 537.2438,-345 537.2438,-239.1695 537.2438,-239.1695"/>
<polygon fill="transparent" stroke="transparent" points="540.7439,-239.1694 537.2438,-229.1695 533.7439,-239.1695 540.7439,-239.1694"/>
<path fill="#c731ed" stroke="transparent" d="M534.4105,-224.6695C534.4105,-224.6695 540.0772,-224.6695 540.0772,-224.6695 542.9105,-224.6695 545.7438,-227.5028 545.7438,-230.3361 545.7438,-230.3361 545.7438,-238.0028 545.7438,-238.0028 545.7438,-240.8361 542.9105,-243.6695 540.0772,-243.6695 540.0772,-243.6695 534.4105,-243.6695 534.4105,-243.6695 531.5772,-243.6695 528.7438,-240.8361 528.7438,-238.0028 528.7438,-238.0028 528.7438,-230.3361 528.7438,-230.3361 528.7438,-227.5028 531.5772,-224.6695 534.4105,-224.6695"/>
<text text-anchor="start" x="533.9909" y="-230.9695" font-family="Monospace" font-size="9.00" fill="#000000">1.</text>
<path fill="none" stroke="#ff00ff" d="M534.4105,-224.6695C534.4105,-224.6695 540.0772,-224.6695 540.0772,-224.6695 542.9105,-224.6695 545.7438,-227.5028 545.7438,-230.3361 545.7438,-230.3361 545.7438,-238.0028 545.7438,-238.0028 545.7438,-240.8361 542.9105,-243.6695 540.0772,-243.6695 540.0772,-243.6695 534.4105,-243.6695 534.4105,-243.6695 531.5772,-243.6695 528.7438,-240.8361 528.7438,-238.0028 528.7438,-238.0028 528.7438,-230.3361 528.7438,-230.3361 528.7438,-227.5028 531.5772,-224.6695 534.4105,-224.6695"/>
<path fill="#c731ed" stroke="transparent" d="M115.1667,-371.0402C115.1667,-371.0402 120.8333,-371.0402 120.8333,-371.0402 123.6667,-371.0402 126.5,-373.8736 126.5,-376.7069 126.5,-376.7069 126.5,-384.3736 126.5,-384.3736 126.5,-387.2069 123.6667,-390.0402 120.8333,-390.0402 120.8333,-390.0402 115.1667,-390.0402 115.1667,-390.0402 112.3333,-390.0402 109.5,-387.2069 109.5,-384.3736 109.5,-384.3736 109.5,-376.7069 109.5,-376.7069 109.5,-373.8736 112.3333,-371.0402 115.1667,-371.0402"/>
<text text-anchor="start" x="114.7471" y="-377.3402" font-family="Monospace" font-size="9.00" fill="#000000">1.</text>
<path fill="none" stroke="#ff00ff" d="M115.1667,-371.0402C115.1667,-371.0402 120.8333,-371.0402 120.8333,-371.0402 123.6667,-371.0402 126.5,-373.8736 126.5,-376.7069 126.5,-376.7069 126.5,-384.3736 126.5,-384.3736 126.5,-387.2069 123.6667,-390.0402 120.8333,-390.0402 120.8333,-390.0402 115.1667,-390.0402 115.1667,-390.0402 112.3333,-390.0402 109.5,-387.2069 109.5,-384.3736 109.5,-384.3736 109.5,-376.7069 109.5,-376.7069 109.5,-373.8736 112.3333,-371.0402 115.1667,-371.0402"/>
</g>
<!-- node14413&#45;&gt;node14409 -->
<g id="edge23" class="edge">
<title>node14413&#45;&gt;node14409</title>
<path fill="none" stroke="#000000" d="M100,-385.7078C100,-385.7078 100,-329.6134 100,-329.6134"/>
<polygon fill="#000000" stroke="#000000" points="104.55,-306.2133 100.0001,-319.2134 95.45,-306.2134 104.55,-306.2133"/>
<ellipse fill="none" stroke="#000000" cx="100.0001" cy="-324.4134" rx="5.2" ry="5.2"/>
</g>
<!-- node14414 -->
<g id="node25" class="node">
<title>node14414</title>
<polygon fill="#ffd700" stroke="#000000" points="136,-585.8328 82,-585.8328 82,-549.8328 136,-549.8328 136,-585.8328"/>
<text text-anchor="middle" x="109" y="-564.8328" font-family="Monospace" font-size="10.00" fill="#000000">daisy</text>
</g>
<!-- node14414&#45;&gt;node14412 -->
<g id="edge27" class="edge">
<title>node14414&#45;&gt;node14412</title>
<path fill="none" stroke="#000000" d="M109,-549.6566C109,-549.6566 109,-503.9713 109,-503.9713"/>
<polygon fill="none" stroke="#000000" points="105,-493.9713 113,-493.9713 113.0001,-501.9713 105.0001,-501.9713 105,-493.9713"/>
<polyline fill="none" stroke="#000000" points="109.0001,-501.9713 109.0001,-503.9713 "/>
</g>
</g>
</svg>
